<?xml version="1.0" encoding="UTF-8" standalone="no"?>
<!DOCTYPE svg PUBLIC "-//W3C//DTD SVG 1.1//EN" "http://www.w3.org/Graphics/SVG/1.1/DTD/svg11.dtd">
<svg width="100%" height="100%" viewBox="0 0 559 253" version="1.1" xmlns="http://www.w3.org/2000/svg" xmlns:xlink="http://www.w3.org/1999/xlink" xml:space="preserve" xmlns:serif="http://www.serif.com/" style="fill-rule:evenodd;clip-rule:evenodd;stroke-linejoin:round;stroke-miterlimit:10;">
    <g transform="matrix(1,0,0,1,42.5143,5.47081)">
        <g transform="matrix(2.24354,0,0,2.24354,-1.24354,-1.24354)">
            <path d="M100.5,61L126,61L141,55L141,36L123,29L105,36L104,42L100.5,61Z" style="fill:white;fill-rule:nonzero;"/>
        </g>
        <g transform="matrix(2.24354,0,0,2.24354,-1.24354,-1.24354)">
            <path d="M133,14L136,14L136,17L133,18.5" style="fill:white;fill-rule:nonzero;"/>
        </g>
        <g transform="matrix(2.24354,0,0,2.24354,-1.24354,-1.24354)">
            <path d="M71,70L64,108L78,70" style="fill:white;fill-rule:nonzero;"/>
        </g>
        <g transform="matrix(2.24354,0,0,2.24354,-1.24354,-1.24354)">
            <path d="M135,70L139,108L121,76L103,108L108,70" style="fill:white;fill-rule:nonzero;"/>
        </g>
        <g transform="matrix(2.24354,0,0,2.24354,-1.24354,-1.24354)">
            <path d="M158,70L66,70L58,61L166,61L158,70Z" style="fill:white;fill-rule:nonzero;"/>
        </g>
        <g transform="matrix(2.24354,0,0,2.24354,-1.24354,-1.24354)">
            <path d="M154,70L161,108L147,70" style="fill:white;fill-rule:nonzero;"/>
        </g>
        <g transform="matrix(2.24354,0,0,2.24354,-1.24354,-1.24354)">
            <path d="M158,61L151,61L149,48L160,48L158,61Z" style="fill:white;fill-rule:nonzero;"/>
        </g>
        <g transform="matrix(2.24354,0,0,2.24354,-1.24354,-1.24354)">
            <path d="M133,23L123,27L113,23L113,6.5L123,1L133,6.5L133,23Z" style="fill:white;fill-rule:nonzero;"/>
        </g>
        <g transform="matrix(2.24354,0,0,2.24354,-1.24354,-1.24354)">
            <path d="M37,108L28,108L23,89L42,89L37,108Z" style="fill:white;fill-rule:nonzero;"/>
        </g>
        <g transform="matrix(2.24354,0,0,2.24354,-1.24354,-1.24354)">
            <path d="M121,76L139,108L135,70L113,70L109.5,96.4L121,76Z" style="fill:rgb(166,159,182);fill-rule:nonzero;"/>
        </g>
        <g transform="matrix(2.24354,0,0,2.24354,-1.24354,-1.24354)">
            <path d="M155.1,76L154,70L147,70L149.2,76L155.1,76Z" style="fill:rgb(166,159,182);fill-rule:nonzero;"/>
        </g>
        <g transform="matrix(2.24354,0,0,2.24354,-1.24354,-1.24354)">
            <path d="M69.9,76L71,70L78,70L75.8,76L69.9,76Z" style="fill:rgb(166,159,182);fill-rule:nonzero;"/>
        </g>
        <g transform="matrix(2.24354,0,0,2.24354,-1.24354,-1.24354)">
            <path d="M32.5,89L42,89L37,108L32.5,108L32.5,89Z" style="fill:rgb(166,159,182);fill-rule:nonzero;"/>
        </g>
        <g transform="matrix(2.24354,0,0,2.24354,-1.24354,-1.24354)">
            <path d="M154,61L158,61L160,48L154,48L154,61Z" style="fill:rgb(166,159,182);fill-rule:nonzero;"/>
        </g>
        <g transform="matrix(2.24354,0,0,2.24354,-1.24354,-1.24354)">
            <path d="M113,12L113,10.5L123,5L133,10.5L133,12L113,12Z" style="fill:rgb(166,159,182);fill-rule:nonzero;"/>
        </g>
        <g transform="matrix(2.24354,0,0,2.24354,-1.24354,-1.24354)">
            <path d="M133,23L123,27L113,23L113,6.5L123,1L133,6.5L133,23Z" style="fill:none;stroke:rgb(94,66,150);stroke-width:2px;"/>
        </g>
        <g transform="matrix(2.24354,0,0,2.24354,-1.24354,-1.24354)">
            <path d="M118,16.5L118,15" style="fill:none;stroke:rgb(94,66,150);stroke-width:2px;stroke-linecap:round;"/>
        </g>
        <g transform="matrix(2.24354,0,0,2.24354,-1.24354,-1.24354)">
            <path d="M126,16.5L126,15" style="fill:none;stroke:rgb(94,66,150);stroke-width:2px;stroke-linecap:round;"/>
        </g>
        <g transform="matrix(2.24354,0,0,2.24354,-1.24354,-1.24354)">
            <path d="M72.3,61L65,35L98,35L105.3,61L72.3,61Z" style="fill:none;stroke:rgb(94,66,150);stroke-width:2px;stroke-linecap:round;"/>
        </g>
        <g transform="matrix(2.24354,0,0,2.24354,-1.24354,-1.24354)">
            <path d="M87.5,47.5L84.5,49.5L81.5,47.5L81.5,44.5L84.5,42.5L87.5,44.5L87.5,47.5Z" style="fill:none;stroke:rgb(94,66,150);stroke-width:2px;"/>
        </g>
        <g transform="matrix(2.24354,0,0,2.24354,-1.24354,-1.24354)">
            <path d="M129.3,31.4L123,44L116.7,31.4" style="fill:none;stroke:rgb(94,66,150);stroke-width:2px;stroke-linecap:round;"/>
        </g>
        <g transform="matrix(2.24354,0,0,2.24354,-1.24354,-1.24354)">
            <path d="M133,12L104,12" style="fill:none;stroke:rgb(94,66,150);stroke-width:2px;stroke-linecap:round;"/>
        </g>
        <g transform="matrix(2.24354,0,0,2.24354,-1.24354,-1.24354)">
            <path d="M124.5,21L122,22L119.5,21" style="fill:none;stroke:rgb(94,66,150);stroke-width:2px;stroke-linecap:round;"/>
        </g>
        <g transform="matrix(2.24354,0,0,2.24354,-1.24354,-1.24354)">
            <path d="M133,14L136,14L136,17L133,18.5" style="fill:none;stroke:rgb(94,66,150);stroke-width:2px;stroke-linecap:round;"/>
        </g>
        <g transform="matrix(2.24354,0,0,2.24354,-1.24354,-1.24354)">
            <path d="M104.2,57L71.2,57" style="fill:none;stroke:rgb(94,66,150);stroke-width:2px;stroke-linecap:round;"/>
        </g>
        <g transform="matrix(2.24354,0,0,2.24354,-1.24354,-1.24354)">
            <path d="M105.3,61L121,61L119,57L104.2,57L105.3,61Z" style="fill:none;stroke:rgb(94,66,150);stroke-width:2px;stroke-linecap:round;"/>
        </g>
        <g transform="matrix(2.24354,0,0,2.24354,-1.24354,-1.24354)">
            <path d="M135,43L135,50L120,61L126,61L141,55L141,36L123,29L105,36L104,42" style="fill:none;stroke:rgb(94,66,150);stroke-width:2px;stroke-linecap:round;"/>
        </g>
        <g transform="matrix(2.24354,0,0,2.24354,-1.24354,-1.24354)">
            <path d="M135,43L135,48" style="fill:none;stroke:rgb(94,66,150);stroke-width:2px;stroke-linecap:round;"/>
        </g>
        <g transform="matrix(2.24354,0,0,2.24354,-1.24354,-1.24354)">
            <path d="M158,70L66,70L58,61L166,61L158,70Z" style="fill:none;stroke:rgb(94,66,150);stroke-width:2px;stroke-linecap:round;"/>
        </g>
        <g transform="matrix(2.24354,0,0,2.24354,-1.24354,-1.24354)">
            <path d="M71,70L64,108L78,70" style="fill:none;stroke:rgb(94,66,150);stroke-width:2px;stroke-linecap:round;"/>
        </g>
        <g transform="matrix(2.24354,0,0,2.24354,-1.24354,-1.24354)">
            <path d="M154,70L161,108L147,70" style="fill:none;stroke:rgb(94,66,150);stroke-width:2px;stroke-linecap:round;"/>
        </g>
        <g transform="matrix(2.24354,0,0,2.24354,-1.24354,-1.24354)">
            <path d="M10,108L184,108" style="fill:none;stroke:rgb(94,66,150);stroke-width:2px;stroke-linecap:round;"/>
            <path d="M189,108L192,108" style="fill:none;stroke:rgb(94,66,150);stroke-width:2px;stroke-linecap:round;"/>
            <path d="M1,108L4,108" style="fill:none;stroke:rgb(94,66,150);stroke-width:2px;stroke-linecap:round;"/>
        </g>
        <g transform="matrix(2.24354,0,0,2.24354,-1.24354,-1.24354)">
            <path d="M135,70L139,108L121,76L103,108L108,70" style="fill:none;stroke:rgb(94,66,150);stroke-width:2px;stroke-linecap:round;"/>
        </g>
        <g transform="matrix(2.24354,0,0,2.24354,-1.24354,-1.24354)">
            <path d="M151,42L153,40L149,36L151,34" style="fill:none;stroke:rgb(94,66,150);stroke-width:2px;stroke-linecap:round;"/>
            <path d="M158,42L160,40L156,36L158,34" style="fill:none;stroke:rgb(94,66,150);stroke-width:2px;stroke-linecap:round;"/>
        </g>
        <g transform="matrix(2.24354,0,0,2.24354,-1.24354,-1.24354)">
            <path d="M158,61L151,61L149,48L160,48L158,61Z" style="fill:none;stroke:rgb(94,66,150);stroke-width:2px;stroke-linecap:round;"/>
        </g>
        <g transform="matrix(2.24354,0,0,2.24354,-1.24354,-1.24354)">
            <path d="M37,108L28,108L23,89L42,89L37,108Z" style="fill:none;stroke:rgb(94,66,150);stroke-width:2px;stroke-linecap:round;"/>
        </g>
        <g transform="matrix(2.24354,0,0,2.24354,-1.24354,-1.24354)">
            <path d="M37,72L41,72L45,64L37,68L37,72Z" style="fill:none;stroke:rgb(94,66,150);stroke-width:2px;stroke-linecap:round;"/>
        </g>
        <g transform="matrix(2.24354,0,0,2.24354,-1.24354,-1.24354)">
            <path d="M28,79L24,79L17,69L28,75L28,79Z" style="fill:none;stroke:rgb(94,66,150);stroke-width:2px;stroke-linecap:round;"/>
        </g>
        <g transform="matrix(2.24354,0,0,2.24354,-1.24354,-1.24354)">
            <path d="M38,53L42,53L49,43L38,49L38,53Z" style="fill:none;stroke:rgb(94,66,150);stroke-width:2px;stroke-linecap:round;"/>
        </g>
        <g transform="matrix(2.24354,0,0,2.24354,-1.24354,-1.24354)">
            <path d="M24,63L13,51L29,58L29,63L24,63Z" style="fill:none;stroke:rgb(94,66,150);stroke-width:2px;stroke-linecap:round;"/>
        </g>
        <g transform="matrix(2.24354,0,0,2.24354,-1.24354,-1.24354)">
            <path d="M33,89L33,36" style="fill:none;stroke:rgb(94,66,150);stroke-width:2px;stroke-linecap:round;"/>
        </g>
        <g transform="matrix(2.24354,0,0,2.24354,-1.24354,-1.24354)">
            <path d="M29,41L19,33L24,44L29,46L29,41Z" style="fill:none;stroke:rgb(94,66,150);stroke-width:2px;stroke-linecap:round;"/>
        </g>
        <g transform="matrix(2.24354,0,0,2.24354,-1.24354,-1.24354)">
            <path d="M25.5,98L29.5,94L32.5,97L35.5,94L39.5,98" style="fill:none;stroke:rgb(94,66,150);stroke-width:2px;stroke-linecap:round;"/>
        </g>
    </g>
</svg>
