<?xml version="1.0" encoding="UTF-8" standalone="no"?>
<!-- Created with Inkscape (http://www.inkscape.org/) -->

<svg
   xmlns:dc="http://purl.org/dc/elements/1.1/"
   xmlns:cc="http://creativecommons.org/ns#"
   xmlns:rdf="http://www.w3.org/1999/02/22-rdf-syntax-ns#"
   xmlns:svg="http://www.w3.org/2000/svg"
   xmlns="http://www.w3.org/2000/svg"
   xmlns:sodipodi="http://sodipodi.sourceforge.net/DTD/sodipodi-0.dtd"
   xmlns:inkscape="http://www.inkscape.org/namespaces/inkscape"
   width="611.00726"
   height="401.95612"
   id="svg2"
   version="1.1"
   inkscape:version="0.91 r13725"
   sodipodi:docname="logo-gic.svg"
   inkscape:export-filename="/docs/Dropbox/Oier Etxaniz/gic.png"
   inkscape:export-xdpi="88.44249"
   inkscape:export-ydpi="88.44249">
  <defs
     id="defs4" />
  <sodipodi:namedview
     id="base"
     pagecolor="#ffffff"
     bordercolor="#666666"
     borderopacity="1.0"
     inkscape:pageopacity="1"
     inkscape:pageshadow="2"
     inkscape:zoom="0.67751265"
     inkscape:cx="516.56315"
     inkscape:cy="220.31668"
     inkscape:document-units="px"
     inkscape:current-layer="g2991"
     showgrid="false"
     inkscape:window-width="1256"
     inkscape:window-height="1387"
     inkscape:window-x="2202"
     inkscape:window-y="24"
     inkscape:window-maximized="0"
     fit-margin-top="0"
     fit-margin-left="0"
     fit-margin-right="0"
     fit-margin-bottom="0" />
  <metadata
     id="metadata7">
    <rdf:RDF>
      <cc:Work
         rdf:about="">
        <dc:format>image/svg+xml</dc:format>
        <dc:type
           rdf:resource="http://purl.org/dc/dcmitype/StillImage" />
        <dc:title />
      </cc:Work>
    </rdf:RDF>
  </metadata>
  <g
     inkscape:label="Layer 1"
     inkscape:groupmode="layer"
     id="layer1"
     transform="translate(-2.4527114,-4.1731033)">
    <g
       id="g2990"
       transform="matrix(0.61254603,0,0,0.61254603,670.82861,27.02545)">
      <path
         inkscape:connector-curvature="0"
         d="m -718.29168,486.50331 c 7.84139,-3.14076 15.24617,-7.233 23.11051,-10.32702 6.80293,-2.67645 7.35047,-2.64168 14.35759,-4.61467 8.51781,-2.294 17.11819,-4.22959 25.74646,-6.0523 0,0 -22.21028,16.84574 -22.21028,16.84574 l 0,0 c -8.52308,1.75719 -17.00437,3.70301 -25.38561,6.05685 -13.09208,4.02016 -25.42487,9.74772 -37.71095,15.76314 0,0 22.09228,-17.67174 22.09228,-17.67174 z"
         id="path3017"
         style="fill:#000000;fill-opacity:1;stroke:#000000;stroke-width:2.5999999;stroke-linecap:round;stroke-linejoin:round;stroke-miterlimit:4;stroke-opacity:1;stroke-dasharray:none" />
      <g
         id="g2991"
         style="fill:#0088aa">
        <path
           style="fill:#000000;fill-opacity:1;stroke:#000000;stroke-width:2.5999999;stroke-linecap:round;stroke-linejoin:round;stroke-miterlimit:4;stroke-opacity:1;stroke-dasharray:none"
           id="path3007"
           d="m -775.18811,138.4617 c 8.75407,7.36961 17.41479,15.07404 24.56274,24.06254 2.53488,3.18759 4.80043,6.58037 7.20065,9.87055 6.97223,11.72849 9.64126,15.14252 14.66691,28.52025 12.16694,32.38709 15.47298,67.15127 19.18262,101.25352 3.10905,36.45451 4.47394,73.08425 2.57749,109.64206 -0.8543,16.46835 -1.53994,21.11833 -3.20321,36.85348 -1.26523,11.00466 -3.26579,21.90398 -5.71196,32.70164 -0.97864,4.31982 -1.93346,8.66577 -3.46542,12.82524 -8.47255,4.89054 -16.94511,9.78107 -25.41766,14.67161 0,0 22.69827,-17.20681 22.69827,-17.20681 l 0,0 c -7.68884,4.72901 -15.37767,9.45802 -23.0665,14.18703 2.48374,-3.71908 3.34362,-8.31151 4.50578,-12.59108 2.94413,-10.8416 5.35048,-21.82247 6.93864,-32.95178 2.04077,-15.53401 2.95015,-20.86985 4.1328,-37.10689 2.66106,-36.53449 1.66106,-73.22476 -1.63708,-109.68664 -3.91578,-33.69488 -7.62583,-67.91284 -20.33579,-99.69748 -5.24794,-13.12385 -7.85875,-16.24371 -15.02693,-27.6692 -2.44136,-3.16758 -4.74972,-6.44227 -7.32409,-9.50274 -7.2744,-8.64797 -15.95346,-16.2352 -25.10522,-22.81954 0,0 23.82796,-15.35576 23.82796,-15.35576 z"
           inkscape:connector-curvature="0" />
        <path
           style="fill:#000000;fill-opacity:1;stroke:#000000;stroke-width:2.5999999;stroke-linecap:round;stroke-linejoin:round;stroke-miterlimit:4;stroke-opacity:1;stroke-dasharray:none"
           id="path3011"
           d="m -771.14994,134.77072 c 19.04241,1.8775 37.80459,6.07032 56.6208,9.47734 26.40756,4.42956 53.22473,6.93495 79.96103,4.20072 5.10588,-0.52216 10.16107,-1.45711 15.24161,-2.18567 16.97747,-3.47117 8.93333,-1.63131 24.15535,-5.41828 0,0 -21.53935,16.42891 -21.53935,16.42891 l 0,0 c -14.97092,3.37293 -7.0381,1.72921 -23.81851,4.83351 -5.07884,0.64488 -10.13719,1.47948 -15.23654,1.93465 -26.97488,2.4078 -53.97906,-0.17432 -80.625,-4.48558 -19.09616,-3.269 -38.24532,-7.51906 -57.65172,-8.15334 0,0 22.89233,-16.63226 22.89233,-16.63226 z"
           inkscape:connector-curvature="0" />
        <path
           style="fill:#000000;fill-opacity:1;stroke:#000000;stroke-width:2.5999999;stroke-linecap:round;stroke-linejoin:round;stroke-miterlimit:4;stroke-opacity:1;stroke-dasharray:none"
           id="path3013"
           d="m -584.63834,141.6481 c -13.99784,19.10862 -21.53629,41.8224 -29.25242,63.9536 -15.19522,49.88723 -23.90154,101.479 -33.44443,152.67018 -4.23055,22.64199 -7.46466,45.45883 -9.82758,68.36841 -0.97645,9.46712 -1.92268,18.14722 -1.60347,27.619 0.0972,2.88386 0.5992,5.73979 0.89881,8.60968 0.64483,1.91456 1.28966,3.82912 1.93449,5.74368 0,0 -24.3255,13.34494 -24.3255,13.34494 l 0,0 c -0.63563,-2.14875 -1.27126,-4.29749 -1.90689,-6.44623 -0.20502,-3.03664 -0.60721,-6.06639 -0.61504,-9.10993 -0.0268,-10.42381 1.11886,-17.75017 2.45972,-28.31653 2.93353,-23.11699 6.3974,-46.16709 10.84973,-69.04581 1.85129,-9.83736 8.76525,-46.59706 10.60718,-56.30256 6.11714,-32.23242 11.95439,-64.61848 21.41422,-96.08268 7.16631,-21.90202 14.11417,-44.3284 26.89769,-63.73781 0,0 25.91349,-11.26794 25.91349,-11.26794 z"
           inkscape:connector-curvature="0" />
        <path
           style="fill:#000000;fill-opacity:1;stroke:#000000;stroke-width:2.5999999;stroke-linecap:round;stroke-linejoin:round;stroke-miterlimit:4;stroke-opacity:1;stroke-dasharray:none"
           id="path3019"
           d="m -436.43067,213.34548 c -3.95045,15.6679 -9.46839,30.93284 -14.234,46.38096 -4.81922,16.24073 -8.64077,32.74391 -11.20565,49.48649 -2.02523,13.92981 3.13732,7.0313 -26.44692,15.82494 -0.0497,0.0148 -0.0561,-2.18661 -0.0723,-4.787 -0.0961,-3.77845 0.44482,-8.51433 -2.69286,-11.32811 -0.66699,-0.59814 -1.50614,-0.97066 -2.25921,-1.45599 -1.01729,-0.27585 -2.00029,-0.75594 -3.05189,-0.82756 -3.03152,-0.20648 -6.23887,0.89885 -8.92139,2.09081 -2.18069,0.96898 -8.43938,4.45855 -6.34705,3.31118 19.68477,-10.7946 19.44532,-11.62366 6.27864,-0.6814 -3.14495,3.33284 -6.49849,6.48052 -9.43484,9.99853 -13.74004,16.4618 -24.27217,37.30038 -29.64624,58.04637 -1.36344,5.26341 -2.03094,10.68294 -3.04642,16.02441 -0.0699,5.04815 -0.64795,10.11488 -0.20959,15.14445 1.24214,14.25187 6.86538,27.58914 16.56456,38.14135 8.47111,9.21611 11.69884,9.91499 22.38684,15.8824 4.33233,1.28819 8.66467,2.57637 12.997,3.86455 0,0 -22.06262,15.03007 -22.06262,15.03007 l 0,0 c -4.43527,-1.45189 -8.87053,-2.90379 -13.30579,-4.35568 -10.85352,-6.37161 -14.30837,-7.30168 -22.93658,-16.84466 -9.98386,-11.04237 -15.87407,-24.91921 -17.24017,-39.72916 -0.47827,-5.185 0.0969,-10.41357 0.1454,-15.62036 0.9918,-5.45363 1.63814,-10.98153 2.97541,-16.36088 5.18565,-20.86001 15.41269,-42.02112 28.74784,-58.89515 2.81922,-3.5674 6.04724,-6.79176 9.07087,-10.18764 16.96475,-15.20695 8.20742,-8.36336 40.29962,-26.67724 6.41615,-3.66146 13.6519,-5.96951 20.55564,-2.479 0.91329,0.71893 1.92729,1.32571 2.73987,2.15677 3.3836,3.46048 3.68354,8.33213 3.60963,12.88616 0.004,0.79858 6e-5,1.59722 0.011,2.39574 0.0101,0.73422 0.67494,1.81359 0.052,2.20226 -8.25666,5.15115 -17.27821,8.97264 -25.72125,13.81225 -0.24915,0.14282 0.45107,0.74816 0.66117,0.55237 1.22764,-1.14402 -0.41526,-4.10244 1.21548,-4.88527 3.1909,-16.88645 6.90367,-33.65939 11.78803,-50.15029 4.53043,-15.08963 9.6487,-30.05749 13.32634,-45.37207 0,0 25.40953,-12.5946 25.40953,-12.5946 z"
           inkscape:connector-curvature="0" />
        <path
           style="fill:#000000;fill-opacity:1;stroke:#000000;stroke-width:2.5999999;stroke-linecap:round;stroke-linejoin:round;stroke-miterlimit:4;stroke-opacity:1;stroke-dasharray:none"
           id="path3021"
           d="m -470.2534,223.2994 c -10.45675,-1.46098 -20.67009,2.40181 -30.53025,5.40074 -10.85878,3.47482 -21.44308,7.7116 -31.51343,13.0767 -2.81772,1.50118 -11.16445,6.19686 -8.33039,4.72677 4.84809,-2.51479 9.5833,-5.24146 14.37495,-7.8622 -24.54125,14.70541 -45.75003,33.93729 -66.11576,53.84149 -17.79895,18.36303 -33.84907,38.73695 -44.33708,62.22694 -2.03895,4.56665 -3.66734,9.30575 -5.50101,13.95862 -5.91685,18.50738 -10.5964,38.64541 -5.33706,57.97879 3.48185,12.79928 6.15331,14.20693 14.06151,24.57478 3.97999,3.27001 7.63578,6.98034 11.93997,9.81005 19.31303,12.69699 45.46549,18.01709 68.10358,20.38819 6.02428,0.63098 12.08636,0.82459 18.12954,1.23688 0,0 -21.19894,15.1669 -21.19894,15.1669 l 0,0 c -6.06545,-0.47258 -12.15178,-0.72764 -18.19635,-1.41773 -23.07734,-2.63467 -49.60526,-8.29648 -69.22656,-21.35903 -4.4602,-2.9693 -8.24979,-6.83971 -12.37469,-10.25957 -8.20032,-10.80645 -11.06276,-12.43609 -14.76051,-25.70733 -5.48533,-19.68693 -1.03849,-40.29708 4.80981,-59.25579 1.79201,-4.72167 3.37228,-9.52923 5.37604,-14.165 10.30187,-23.83381 26.34813,-44.49954 44.20478,-63.13036 20.05056,-19.8932 40.87484,-39.28246 65.108,-54.05346 23.44363,-13.92866 46.19536,-29.03043 72.62869,-36.64377 10.38316,-3.08977 21.02864,-6.73632 31.98318,-4.69329 0,0 -23.29802,16.16068 -23.29802,16.16068 z"
           inkscape:connector-curvature="0" />
        <path
           style="fill:#000000;fill-opacity:1;stroke:#000000;stroke-width:3.34405255;stroke-linecap:round;stroke-linejoin:round;stroke-miterlimit:4;stroke-opacity:1;stroke-dasharray:none"
           id="path3025"
           d="m -525.47014,476.90127 c 7.9506,-3.26352 15.75266,-7.31277 24.26091,-8.8576 4.28112,-1.46675 4.44038,-4.34166 7.15749,0.51382 4.32317,12.82571 -27.48378,14.80674 -32.7168,17.25022 0,0 32.33107,-17.37456 32.33107,-17.37456 l 0,0 c -10.87311,5.83391 -21.74621,11.66783 -32.61932,17.50173 0.38293,-0.0503 0.36371,-0.14872 0.69843,0.28224 0.0823,0.12283 1.28902,1.87227 1.3397,2.13106 0.17791,0.90827 -4.94145,1.46466 -5.10204,1.74637 -8.32351,2.47667 -16.13771,6.20234 -24.37736,8.88238 0,0 29.02792,-22.07566 29.02792,-22.07566 z"
           inkscape:connector-curvature="0" />
      </g>
      <path
         sodipodi:nodetypes="ccccccccscsscsscsscccccsscsscsscsccssccc"
         inkscape:connector-curvature="0"
         d="m -658.91393,33.514406 c -78.27478,-13.150782 -141.45984,39.634447 -217.69941,73.073094 11.6385,-5.45474 39.57323,-36.963634 33.0045,-25.915284 -10.68337,17.970481 -33.33001,25.351874 -48.69023,39.534384 -14.7107,13.58331 -28.83469,27.9439 -41.33258,43.58729 -24.81808,31.06305 -42.19794,62.04858 -52.07018,100.76884 -4.54051,17.81001 -4.84613,36.43866 -7.26957,54.65792 2.60497,18.07802 2.47323,36.76787 7.81492,54.23405 24.82329,81.1728 100.48927,131.07966 177.05217,156.56419 22.59149,7.51988 46.27827,11.22673 69.41741,16.8401 24.18006,2.63967 48.22531,7.26282 72.54017,7.91908 75.89959,2.04852 151.74097,-15.61122 221.22578,-45.44071 121.60035,-52.20224 244.36718,-194.56389 211.30372,-184.83756 58.08682,-41.81444 -84.27476,118.61212 -42.93903,59.37355 15.75361,-22.57663 77.68815,-108.98303 81.7429,-137.4925 1.57914,-11.10311 -1.20253,-22.39748 -1.8038,-33.59625 -4.58042,-9.25106 -7.35382,-19.64368 -13.74109,-27.75326 -26.69618,-33.89459 -77.1369,-46.66508 -116.34858,-56.11092 -52.62335,-12.67643 -81.89769,-15.11397 -136.35241,-22.46265 -97.29698,-10.361763 -49.4623,-5.81902 -143.49253,-13.742783 l 83.04507,-59.216283 0,0 c 93.5653,8.779622 45.81412,3.986427 143.2459,14.460775 52.87841,6.945111 87.94557,10.090609 139.37305,22.266037 43.12267,10.20933 95.09045,24.363581 123.66319,61.862084 7.11048,9.33171 10.29305,21.08587 15.43957,31.62885 0.88015,12.47859 4.192082,25.02275 2.640512,37.43569 -3.736422,29.89285 -22.720012,65.17946 -38.957772,88.89895 -41.51419,60.64208 -98.28474,107.88123 -156.99258,150.97012 -67.38307,40.81021 -151.46064,98.12527 -229.3356,130.21721 -70.84972,29.19652 -147.60258,45.36366 -224.42206,42.19159 -24.63733,-1.01733 -48.95908,-5.92679 -73.43862,-8.89023 -59.25641,-15.10455 -81.38681,-16.60442 -135.05796,-46.39684 -54.34653,-30.16751 -100.37903,-75.60869 -119.61873,-136.14538 -5.8043,-18.2613 -6.067,-37.83965 -9.1002,-56.75944 5.6542,-50.54266 2.9236,-64.80015 25.6499,-111.61666 23.745,-48.91595 75.99233,-105.62208 121.02809,-135.59742 45.86697,-30.528423 94.26001,-57.081521 141.38925,-85.622319 69.84098,-35.811972 150.12407,-78.776013 231.18994,-60.089149 z"
         id="path2987-9"
         style="fill:#000000;fill-opacity:1;stroke:#000000;stroke-width:10.14744568;stroke-linecap:round;stroke-linejoin:round;stroke-miterlimit:4;stroke-opacity:1;stroke-dasharray:none" />
    </g>
  </g>
</svg>
