<!DOCTYPE svg PUBLIC "-//W3C//DTD SVG 20010904//EN" "http://www.w3.org/TR/2001/REC-SVG-20010904/DTD/svg10.dtd">
<svg version="1.0" xmlns="http://www.w3.org/2000/svg" width="1600px" height="817px" viewBox="0 0 16000 8170" preserveAspectRatio="xMidYMid meet">
<g id="layer101" fill="#000000" stroke="none">
 <path d="M1242 8131 c-78 -38 -150 -109 -188 -186 l-29 -60 -3 -411 c-3 -438 -5 -423 45 -438 17 -5 29 -1 48 18 l25 25 0 378 c0 378 0 378 24 430 47 100 131 154 240 155 110 1 204 -58 247 -154 24 -52 24 -59 29 -443 l5 -390 27 -13 c33 -15 76 1 84 33 3 11 4 194 2 405 -3 380 -3 386 -27 445 -29 73 -121 169 -196 205 -42 21 -68 25 -160 28 -105 3 -113 1 -173 -27z"/>
 <path d="M3387 8141 c-94 -38 -169 -110 -215 -208 l-27 -58 0 -285 0 -285 33 -67 c75 -155 244 -244 410 -218 70 12 104 25 159 62 23 15 44 28 47 28 3 0 6 -109 6 -243 0 -268 2 -280 58 -280 66 0 63 -40 60 657 l-3 631 -32 67 c-38 81 -102 146 -181 185 -50 25 -70 28 -162 30 -85 2 -114 -1 -153 -16z m261 -124 c23 -10 60 -39 81 -64 65 -73 71 -105 71 -363 0 -254 -6 -289 -66 -358 -134 -157 -394 -106 -457 89 -23 71 -24 460 -2 535 45 153 224 230 373 161z"/>
 <path d="M4421 8144 c-91 -33 -149 -83 -194 -168 -17 -32 -21 -59 -22 -126 0 -102 20 -153 86 -218 73 -72 149 -104 354 -147 66 -14 131 -28 144 -31 23 -5 23 -7 19 -84 -6 -110 -35 -165 -107 -202 -45 -24 -65 -28 -130 -28 -90 0 -137 19 -202 79 -24 22 -49 41 -56 41 -7 0 -24 -10 -39 -23 -34 -30 -28 -61 21 -115 71 -79 215 -122 342 -102 130 21 210 79 262 190 l26 55 0 320 0 320 -33 67 c-36 73 -86 123 -161 160 -61 30 -241 37 -310 12z m266 -131 c97 -45 123 -109 123 -299 0 -109 -3 -134 -14 -134 -8 0 -75 14 -148 30 -232 53 -322 118 -322 233 0 71 29 124 86 160 80 50 184 54 275 10z"/>
 <path d="M6848 8137 c-107 -45 -181 -123 -219 -233 -17 -47 -19 -84 -19 -309 0 -287 9 -338 74 -421 206 -267 620 -179 695 147 16 67 13 482 -3 550 -17 74 -53 134 -113 190 -79 74 -130 94 -253 97 -92 2 -112 -1 -162 -21z m263 -119 c55 -23 98 -66 131 -128 22 -43 23 -57 26 -272 4 -257 -4 -305 -61 -379 -115 -151 -357 -126 -450 46 -21 38 -22 52 -22 305 0 253 1 267 22 306 22 41 83 103 123 124 31 16 108 28 150 22 19 -3 56 -13 81 -24z"/>
 <path d="M7850 8138 c-81 -31 -163 -117 -185 -193 -36 -124 0 -257 90 -330 80 -65 148 -91 360 -135 l130 -27 0 -95 c0 -92 -1 -98 -31 -135 -47 -59 -103 -83 -194 -83 -85 0 -156 27 -200 75 -37 40 -56 48 -82 34 -52 -27 -51 -66 3 -124 77 -83 208 -124 341 -105 158 23 259 117 288 269 14 73 13 536 -1 603 -24 110 -87 189 -192 239 -57 26 -71 29 -167 28 -82 0 -117 -5 -160 -21z m267 -114 c44 -16 107 -77 123 -120 13 -33 13 -324 1 -324 -17 0 -265 59 -301 71 -134 47 -198 154 -156 264 43 111 190 159 333 109z"/>
 <path d="M360 8130 c-19 -19 -20 -33 -20 -495 l0 -475 -100 0 c-87 0 -103 -3 -120 -20 -23 -23 -26 -58 -6 -86 12 -16 29 -19 119 -22 l105 -4 4 -131 c5 -151 17 -187 88 -251 64 -57 121 -78 216 -79 66 0 91 5 137 26 72 33 90 65 60 105 -26 35 -52 38 -102 13 -50 -26 -139 -28 -188 -5 -19 9 -46 33 -61 52 -25 33 -27 43 -31 154 l-3 118 153 0 c180 0 202 7 207 62 5 61 -15 68 -200 68 l-158 0 0 479 0 480 -22 15 c-30 21 -54 20 -78 -4z"/>
 <path d="M2101 8133 c-22 -18 -22 -19 -19 -423 l3 -405 31 -65 c94 -195 327 -278 522 -188 71 33 164 131 193 203 24 60 24 60 24 465 l0 404 -27 16 c-25 13 -31 13 -55 0 l-28 -16 -5 -394 c-5 -344 -7 -400 -22 -431 -45 -95 -123 -149 -229 -157 -114 -8 -198 37 -257 137 l-27 46 -5 398 c-5 380 -6 399 -24 413 -26 19 -49 18 -75 -3z"/>
 <path d="M5182 8134 c-12 -8 -22 -25 -22 -38 0 -13 117 -206 268 -442 147 -230 278 -436 291 -456 l23 -38 -246 0 c-233 0 -247 -1 -266 -20 -23 -23 -26 -58 -6 -86 14 -18 31 -19 328 -22 341 -2 360 0 366 50 3 27 -66 140 -458 748 -62 96 -115 181 -117 188 -4 9 55 12 276 12 l281 0 15 24 c21 32 10 75 -22 87 -13 5 -174 9 -356 9 -285 0 -336 -2 -355 -16z"/>
 <path d="M6212 8133 l-22 -18 2 -530 3 -530 29 -13 c25 -13 31 -12 55 5 l26 20 3 520 c2 405 -1 523 -10 535 -21 27 -61 32 -86 11z"/>
 <path d="M6220 6857 c-25 -12 -25 -15 -25 -132 l0 -120 29 -13 c25 -13 31 -12 55 5 25 19 26 25 29 126 3 103 2 105 -24 126 -31 25 -31 25 -64 8z"/>
 <path d="M1015 5900 c-366 -42 -686 -221 -864 -483 -44 -65 -105 -197 -128 -277 -17 -60 -18 -115 -18 -700 0 -712 -3 -681 76 -848 51 -110 109 -190 205 -283 130 -125 274 -209 454 -267 119 -38 187 -51 320 -61 391 -30 763 100 1006 351 115 118 178 220 222 358 39 123 42 168 42 751 0 669 -3 696 -94 877 -145 287 -460 504 -824 567 -111 20 -295 26 -397 15z m361 -370 c238 -60 437 -228 506 -428 l23 -67 0 -595 c0 -555 -1 -599 -19 -650 -76 -223 -283 -392 -546 -446 -64 -13 -114 -15 -214 -11 -154 6 -218 22 -346 85 -79 38 -109 60 -180 131 -60 61 -95 105 -117 151 -63 129 -63 128 -63 740 0 611 0 612 62 740 45 94 177 223 283 277 194 100 405 125 611 73z"/>
 <path d="M5164 5899 c-365 -42 -666 -280 -745 -587 -17 -68 -19 -113 -19 -482 0 -454 3 -481 71 -612 105 -204 307 -356 564 -425 89 -23 118 -26 265 -26 147 0 176 3 264 26 293 78 507 259 602 507 l29 75 3 420 c4 478 0 514 -67 650 -157 317 -552 503 -967 454z m317 -373 c138 -48 239 -143 280 -263 19 -57 20 -81 17 -449 l-3 -389 -32 -66 c-162 -329 -724 -329 -886 0 l-32 66 0 410 c0 405 0 411 23 459 60 131 194 227 355 256 76 13 201 3 278 -24z"/>
 <path d="M9470 5895 c-216 -31 -382 -107 -505 -230 -122 -122 -165 -224 -165 -395 0 -139 42 -246 137 -351 87 -96 271 -197 453 -248 86 -24 634 -131 672 -131 13 0 4 -165 -12 -219 -24 -83 -105 -156 -205 -187 -80 -25 -238 -29 -314 -9 -80 20 -118 40 -199 100 -95 69 -138 89 -209 93 -153 10 -264 -118 -205 -235 56 -108 258 -237 457 -290 91 -24 116 -26 285 -26 168 0 194 3 284 26 160 43 256 95 357 196 68 68 94 102 121 161 63 132 63 135 63 680 0 543 0 539 -62 670 -44 90 -164 215 -263 273 -193 112 -450 157 -690 122z m331 -359 c115 -35 202 -104 240 -189 21 -48 23 -69 27 -256 l4 -204 -48 8 c-129 19 -496 95 -547 114 -117 41 -202 104 -238 177 -41 85 -14 201 62 271 50 45 128 75 259 97 44 8 194 -3 241 -18z"/>
 <path d="M2855 5851 c-44 -20 -92 -69 -100 -104 -3 -12 -4 -326 -3 -697 4 -761 0 -717 85 -890 38 -77 61 -109 127 -176 66 -66 99 -90 176 -128 215 -105 465 -124 712 -52 163 48 305 133 343 207 57 109 -51 239 -200 239 -56 0 -104 -16 -145 -48 -97 -75 -259 -109 -392 -81 -141 30 -235 121 -272 264 -14 50 -16 154 -16 700 0 603 -2 642 -19 681 -19 41 -51 69 -104 92 -42 18 -145 15 -192 -7z"/>
 <path d="M6730 5854 c-19 -8 -45 -25 -58 -37 -54 -50 -52 -27 -52 -730 0 -613 1 -658 19 -729 69 -270 299 -480 617 -565 88 -23 117 -26 264 -26 147 0 176 3 264 26 293 78 507 258 602 507 l29 75 3 665 c2 366 0 679 -3 697 -14 77 -98 132 -203 133 -90 0 -160 -34 -195 -95 -9 -14 -13 -208 -17 -685 l-5 -665 -32 -66 c-162 -329 -724 -329 -886 0 l-32 66 -5 660 c-5 602 -7 663 -22 692 -18 33 -53 60 -101 81 -39 17 -145 14 -187 -4z"/>
 <path d="M13181 4488 c-6 -266 -15 -538 -18 -605 l-6 -123 88 0 88 0 -7 188 c-9 240 -25 855 -26 950 l0 72 -53 0 -53 0 -13 -482z"/>
 <path d="M12801 4938 c-24 -4 -45 -9 -46 -10 -2 -3 -8 -211 -31 -1036 l-7 -223 34 14 c19 7 58 20 88 27 l54 13 -6 146 c-4 80 -12 344 -18 586 -6 242 -14 451 -17 465 -7 24 -9 25 -51 18z"/>
 <path d="M13638 4929 c-3 -8 -6 -59 -7 -114 -3 -178 -20 -806 -27 -950 l-6 -141 87 -26 88 -26 -6 266 c-9 360 -29 986 -32 989 -1 2 -22 6 -47 9 -33 5 -46 3 -50 -7z"/>
 <path d="M12371 4833 c-25 -7 -49 -17 -54 -22 -4 -4 -12 -140 -17 -302 -27 -900 -32 -1071 -27 -1075 2 -2 43 22 91 53 l87 58 -6 245 c-8 360 -26 1001 -28 1031 -2 25 -2 25 -46 12z"/>
 <path d="M14076 4818 c-6 -27 -39 -1268 -34 -1273 2 -2 41 -31 88 -64 65 -47 86 -57 88 -45 5 21 -26 1207 -34 1301 -5 66 -8 72 -32 81 -63 24 -71 24 -76 0z"/>
 <path d="M11919 4637 l-56 -30 -7 -196 c-3 -108 -11 -353 -16 -546 -12 -457 -19 -665 -26 -857 -4 -97 -3 -158 3 -158 5 0 20 24 34 52 13 29 57 102 98 163 l73 110 -11 410 c-18 624 -32 1079 -34 1081 -1 1 -27 -12 -58 -29z"/>
 <path d="M14510 4623 c0 -49 -27 -987 -36 -1253 l-7 -205 58 -85 c32 -47 80 -130 106 -184 l49 -99 0 71 c0 40 -4 206 -10 369 -5 164 -14 478 -20 698 -5 220 -13 460 -16 532 l-6 133 -53 30 c-29 16 -55 30 -59 30 -3 0 -6 -17 -6 -37z"/>
 <path d="M11478 4336 c-53 -44 -68 -63 -68 -84 0 -15 -5 -166 -10 -337 -5 -170 -16 -555 -25 -855 -8 -300 -20 -691 -25 -870 -5 -179 -14 -500 -20 -715 -6 -214 -15 -534 -20 -710 -5 -176 -10 -365 -11 -419 l-2 -99 49 -44 c87 -79 208 -180 231 -192 12 -6 38 -11 57 -11 l36 0 0 63 c0 34 -5 204 -10 377 -16 508 -29 978 -40 1385 -6 209 -15 526 -20 705 -5 179 -17 575 -25 880 -9 305 -19 651 -23 769 l-7 214 -67 -57z"/>
 <path d="M14946 4358 c-3 -13 -10 -212 -16 -443 -6 -231 -17 -649 -25 -930 -8 -280 -22 -751 -30 -1045 -8 -294 -19 -686 -25 -870 -5 -184 -12 -427 -15 -540 -3 -113 -8 -278 -11 -367 l-5 -163 31 0 c17 0 41 5 53 12 31 16 151 115 229 190 l66 63 -8 265 c-5 146 -16 517 -25 825 -8 308 -20 704 -25 880 -5 176 -14 493 -20 705 -18 679 -29 1072 -35 1203 l-6 129 -32 28 c-18 15 -46 39 -64 54 l-32 27 -5 -23z"/>
 <path d="M11067 3915 c-26 -33 -62 -82 -81 -110 l-34 -50 -11 -415 c-7 -228 -16 -577 -21 -775 -6 -198 -14 -506 -20 -685 -5 -179 -14 -495 -21 -703 l-11 -378 32 -53 c53 -86 150 -218 235 -319 44 -52 81 -94 83 -92 2 2 -11 537 -28 1095 -13 431 -35 1214 -55 1935 -9 314 -17 579 -18 590 -2 16 -12 7 -50 -40z"/>
 <path d="M15370 3883 c0 -89 -15 -643 -30 -1133 -10 -338 -32 -1091 -50 -1755 -5 -198 -12 -425 -15 -505 l-6 -145 26 25 c57 53 223 273 294 389 l33 54 -16 576 c-21 749 -43 1501 -57 1975 l-11 380 -31 45 c-39 57 -127 171 -133 171 -2 0 -4 -35 -4 -77z"/>
 <path d="M10664 3205 c-72 -182 -127 -393 -161 -612 -24 -154 -24 -604 -1 -758 41 -267 103 -484 204 -721 20 -46 40 -84 45 -84 11 0 11 -17 -1 365 -5 171 -14 470 -20 665 -5 195 -12 445 -16 555 -3 110 -9 306 -13 435 l-6 235 -31 -80z"/>
 <path d="M15786 2978 c-3 -145 -11 -423 -16 -618 -5 -195 -14 -521 -20 -725 -5 -203 -12 -418 -16 -477 -3 -68 -2 -108 4 -108 24 0 136 309 186 513 59 242 70 338 70 647 -1 311 -17 459 -79 695 -33 129 -104 335 -115 335 -4 0 -10 -118 -14 -262z"/>
 <path d="M14691 1664 c-44 -124 -140 -293 -231 -409 l-47 -60 -12 -410 c-6 -225 -14 -494 -18 -597 l-6 -188 191 0 192 0 0 88 c0 48 -5 215 -10 372 -5 157 -14 481 -20 720 -7 239 -15 455 -18 479 l-7 44 -14 -39z"/>
 <path d="M11776 1590 c-3 -52 -8 -192 -11 -310 -5 -193 -14 -506 -30 -1082 l-6 -198 192 0 192 0 -7 248 c-3 136 -11 402 -17 592 l-11 345 -48 60 c-90 113 -172 253 -225 385 l-23 54 -6 -94z"/>
 <path d="M14240 1028 c-37 -34 -99 -76 -263 -183 -13 -8 -17 -63 -26 -345 -6 -184 -11 -372 -11 -417 l0 -83 191 0 192 0 -7 188 c-3 103 -11 342 -16 531 -6 190 -11 346 -13 347 -1 1 -22 -16 -47 -38z"/>
 <path d="M12200 988 c0 -40 -4 -194 -9 -343 -6 -148 -11 -353 -13 -455 l-3 -185 189 -3 189 -2 -7 292 c-3 161 -9 349 -12 418 l-7 125 -83 49 c-46 27 -119 77 -164 112 l-80 64 0 -72z"/>
 <path d="M13775 757 c-44 -16 -120 -39 -170 -52 l-90 -22 -6 -189 c-4 -104 -7 -258 -8 -341 l-1 -153 191 0 190 0 -6 188 c-4 103 -10 280 -14 393 l-6 206 -80 -30z"/>
 <path d="M12624 458 c-5 -178 -9 -352 -9 -388 l0 -65 184 -3 c102 -1 188 1 192 5 3 5 1 158 -5 342 l-11 335 -80 17 c-44 10 -119 32 -167 48 -47 17 -88 31 -91 31 -2 0 -8 -145 -13 -322z"/>
 <path d="M13066 420 c-3 -135 -7 -283 -8 -330 l-1 -85 189 0 189 0 -3 165 c-1 91 -5 239 -8 330 l-6 165 -173 0 -172 0 -7 -245z"/>
 </g>

</svg>