<?xml version="1.0" encoding="UTF-8" standalone="no"?>
<!DOCTYPE svg PUBLIC "-//W3C//DTD SVG 1.1//EN" "http://www.w3.org/Graphics/SVG/1.1/DTD/svg11.dtd">
<svg width="100%" height="100%" viewBox="0 0 355 154" version="1.1" xmlns="http://www.w3.org/2000/svg" xmlns:xlink="http://www.w3.org/1999/xlink" xml:space="preserve" xmlns:serif="http://www.serif.com/" style="fill-rule:evenodd;clip-rule:evenodd;stroke-linejoin:round;stroke-miterlimit:1.41421;">
    <g transform="matrix(4.16667,0,0,4.16667,-12304.7,16812.5)">
        <path d="M2965.89,-4010.87C2965.9,-4010.97 2965.91,-4011.04 2965.92,-4011.07L2967.52,-4015.66C2967.52,-4015.66 2968.02,-4018.55 2965.58,-4019.93L2963.33,-4013C2963.06,-4011.93 2963.12,-4011.17 2963.3,-4010.64C2963.76,-4009.25 2965.07,-4008.66 2966.12,-4008.66C2971.43,-4009.57 2975.4,-4014.23 2975.3,-4019.78C2975.21,-4024.82 2971.78,-4029.01 2967.15,-4030.28C2966.89,-4032.45 2964.92,-4035.04 2963.33,-4035C2964.05,-4034.42 2964.84,-4031.53 2964.18,-4029.76C2964.11,-4029.58 2962.8,-4025.48 2961.63,-4021.82L2961.63,-4021.82L2960.02,-4016.74C2959.86,-4015.96 2959.66,-4015.4 2959.69,-4014.38C2959.72,-4013.41 2959.85,-4012.51 2960.15,-4011.71C2957.35,-4013.16 2955.4,-4016.06 2955.34,-4019.44C2955.28,-4023.29 2957.68,-4026.62 2961.1,-4027.9L2961.1,-4027.89C2961.08,-4026.8 2961.32,-4025.41 2961.71,-4025.27C2961.98,-4026.1 2962.41,-4027.46 2962.41,-4027.46L2963.31,-4030.26L2963.41,-4030.73C2963.56,-4032.01 2963.22,-4033.57 2962.8,-4034.37C2962.91,-4034.1 2962.07,-4031.88 2961.98,-4031.41C2961.97,-4031.37 2961.84,-4030.9 2961.69,-4030.39C2956.71,-4029.22 2953.04,-4024.72 2953.14,-4019.4C2953.24,-4013.51 2957.77,-4008.8 2963.58,-4008.54L2963.59,-4008.54C2962.02,-4009.08 2961.67,-4011.84 2962.33,-4013.6C2962.4,-4013.78 2963.72,-4017.88 2964.89,-4021.54L2964.88,-4021.54L2966.49,-4026.61C2966.59,-4027.1 2966.7,-4027.55 2966.83,-4028.06L2966.83,-4028.06C2970.39,-4026.96 2973.01,-4023.66 2973.07,-4019.73C2973.15,-4015.36 2970.17,-4011.11 2965.89,-4010.87Z" style="fill-opacity:0.619608;fill-rule:nonzero;"/>
    </g>
    <g transform="matrix(4.16667,0,0,4.16667,-12304.7,16812.5)">
        <path d="M3021.92,-4019.85C3021.55,-4023.24 3023.05,-4025.16 3025.29,-4025.35C3026.93,-4025.47 3028.54,-4024.5 3029.53,-4022.26C3029.92,-4021.42 3030.16,-4020.31 3030.2,-4018.97C3030.26,-4015.7 3029.03,-4014.28 3026.65,-4014.22C3025.14,-4014.18 3023.8,-4015.02 3022.72,-4017.11C3022.31,-4017.87 3022.05,-4018.72 3021.92,-4019.85ZM3031.19,-4012.82L3031.47,-4012.98C3033.03,-4013.98 3034.13,-4015.36 3034.72,-4017.11C3036.47,-4022.2 3033.31,-4026.86 3027.56,-4027.47C3026.74,-4027.56 3025.92,-4027.56 3025.08,-4027.45C3022.68,-4027.17 3021.08,-4026.5 3019.74,-4025.3C3018.53,-4024.24 3017.67,-4022.86 3017.26,-4021.33C3016.07,-4016.85 3018.79,-4012.6 3023.74,-4011.54C3024.38,-4011.41 3025.03,-4011.35 3025.7,-4011.35L3025.99,-4011.16C3028.06,-4009.91 3029.49,-4009.18 3030.59,-4008.76C3034.91,-4007.06 3037.24,-4007.69 3038.17,-4009.78C3036.16,-4009.46 3033.94,-4010.16 3031.3,-4012.37C3031.19,-4012.47 3031.06,-4012.58 3030.95,-4012.67L3031.19,-4012.82Z" style="fill-rule:nonzero;"/>
    </g>
    <g transform="matrix(4.16667,0,0,4.16667,-12304.7,16812.5)">
        <path d="M2978.56,-4026.38C2979.42,-4025.41 2979.64,-4024.82 2979.64,-4023.56L2979.62,-4014.37C2979.62,-4013.16 2979.4,-4012.51 2978.71,-4011.57C2978.64,-4011.51 2978.58,-4011.42 2978.52,-4011.34L2985.64,-4011.34C2985.58,-4011.42 2985.51,-4011.51 2985.47,-4011.59C2984.78,-4012.53 2984.6,-4013.1 2984.6,-4014.37L2984.6,-4023.56C2984.6,-4024.75 2984.88,-4025.43 2985.77,-4026.38C2985.86,-4026.47 2985.92,-4026.54 2986.01,-4026.62L2978.32,-4026.62C2978.41,-4026.54 2978.47,-4026.47 2978.56,-4026.38Z" style="fill-rule:nonzero;"/>
    </g>
    <g transform="matrix(4.16667,0,0,4.16667,-12304.7,16812.5)">
        <path d="M2995.73,-4011.38C2995.64,-4011.46 2995.58,-4011.53 2995.51,-4011.61C2994.76,-4012.52 2994.59,-4013.18 2994.76,-4014.41L2995.58,-4020.59L2998.15,-4013.92L2998.45,-4013.2L2998.54,-4012.99C2998.62,-4012.8 2998.71,-4012.63 2998.82,-4012.48C2999.36,-4011.61 3000.05,-4011.1 3001.41,-4010.61L3001.86,-4010.44L3002.03,-4010.4L3006.03,-4020.5L3006.65,-4014.41C3006.78,-4013.2 3006.5,-4012.52 3005.44,-4011.61C3005.34,-4011.53 3005.25,-4011.44 3005.14,-4011.38L3013.3,-4011.38C3013.24,-4011.46 3013.15,-4011.53 3013.09,-4011.61C3012.22,-4012.59 3011.94,-4013.2 3011.79,-4014.41L3010.69,-4023.6C3010.54,-4024.83 3010.69,-4025.47 3011.32,-4026.4C3011.38,-4026.49 3011.45,-4026.57 3011.51,-4026.66L3004.97,-4026.66L3001.77,-4018.36L2998.67,-4026.66L2992.23,-4026.66C2992.3,-4026.57 2992.34,-4026.49 2992.41,-4026.4C2992.99,-4025.47 2993.12,-4024.83 2992.9,-4023.6L2991.41,-4014.41C2991.39,-4014.18 2991.3,-4013.9 2991.17,-4013.52C2990.89,-4012.76 2990.61,-4012.31 2989.92,-4011.61C2989.86,-4011.53 2989.77,-4011.46 2989.69,-4011.38L2995.73,-4011.38Z" style="fill-rule:nonzero;"/>
    </g>
    <g transform="matrix(4.16667,0,0,4.16667,-12304.7,16812.5)">
        <path d="M2980.15,-4003.93L2978.7,-4003.93L2978.7,-4004.72L2982.61,-4004.72L2982.61,-4003.93L2981.16,-4003.93L2981.16,-3999.66L2980.15,-3999.66L2980.15,-4003.93Z" style="fill-rule:nonzero;"/>
    </g>
    <g transform="matrix(4.16667,0,0,4.16667,-12304.7,16812.5)">
        <path d="M2985.93,-3999.66L2985.01,-3999.66L2985.01,-4000.17L2985,-4000.17C2984.7,-3999.81 2984.28,-3999.58 2983.77,-3999.58C2982.89,-3999.58 2982.51,-4000.2 2982.51,-4001.04L2982.51,-4003.39L2983.48,-4003.39L2983.48,-4001.4C2983.48,-4000.95 2983.48,-4000.33 2984.11,-4000.33C2984.81,-4000.33 2984.96,-4001.09 2984.96,-4001.57L2984.96,-4003.39L2985.93,-4003.39L2985.93,-3999.66Z" style="fill-rule:nonzero;"/>
    </g>
    <g transform="matrix(4.16667,0,0,4.16667,-12304.7,16812.5)">
        <path d="M2991.17,-4002.61C2990.87,-4002.72 2990.66,-4002.77 2990.3,-4002.77C2990.04,-4002.77 2989.73,-4002.68 2989.73,-4002.36C2989.73,-4001.76 2991.42,-4002.14 2991.42,-4000.79C2991.42,-3999.92 2990.64,-3999.58 2989.85,-3999.58C2989.48,-3999.58 2989.11,-3999.64 2988.75,-3999.73L2988.81,-4000.53C2989.11,-4000.38 2989.43,-4000.29 2989.76,-4000.29C2990.01,-4000.29 2990.4,-4000.38 2990.4,-4000.74C2990.4,-4001.47 2988.71,-4000.97 2988.71,-4002.32C2988.71,-4003.13 2989.42,-4003.48 2990.18,-4003.48C2990.64,-4003.48 2990.93,-4003.41 2991.24,-4003.34L2991.17,-4002.61Z" style="fill-rule:nonzero;"/>
    </g>
    <g transform="matrix(4.16667,0,0,4.16667,-12304.7,16812.5)">
        <path d="M2994.51,-4001.89C2994.49,-4002.37 2994.27,-4002.77 2993.72,-4002.77C2993.18,-4002.77 2992.91,-4002.4 2992.86,-4001.89L2994.51,-4001.89ZM2995.17,-3999.87C2994.81,-3999.68 2994.41,-3999.58 2993.89,-3999.58C2992.65,-3999.58 2991.93,-4000.29 2991.93,-4001.51C2991.93,-4002.59 2992.51,-4003.48 2993.67,-4003.48C2995.05,-4003.48 2995.44,-4002.53 2995.44,-4001.23L2992.86,-4001.23C2992.91,-4000.63 2993.33,-4000.29 2993.93,-4000.29C2994.4,-4000.29 2994.81,-4000.46 2995.17,-4000.66L2995.17,-3999.87Z" style="fill-rule:nonzero;"/>
    </g>
    <g transform="matrix(4.16667,0,0,4.16667,-12304.7,16812.5)">
        <path d="M2998.66,-4001.57C2998.66,-4002.21 2998.42,-4002.73 2997.85,-4002.73C2997.19,-4002.73 2996.98,-4002.12 2996.98,-4001.55C2996.98,-4001.04 2997.25,-4000.42 2997.81,-4000.42C2998.42,-4000.42 2998.66,-4000.95 2998.66,-4001.57ZM2999.64,-4003.39L2999.64,-4000.03C2999.64,-3999.01 2999.23,-3998.05 2997.66,-3998.05C2997.28,-3998.05 2996.84,-3998.11 2996.37,-3998.31L2996.45,-3999.13C2996.75,-3998.97 2997.24,-3998.81 2997.54,-3998.81C2998.61,-3998.81 2998.66,-3999.61 2998.66,-4000.26L2998.65,-4000.26C2998.47,-3999.94 2998.03,-3999.66 2997.49,-3999.66C2996.39,-3999.66 2995.97,-4000.55 2995.97,-4001.55C2995.97,-4002.45 2996.43,-4003.48 2997.55,-4003.48C2998.04,-4003.48 2998.43,-4003.32 2998.69,-4002.89L2998.71,-4002.89L2998.71,-4003.39L2999.64,-4003.39Z" style="fill-rule:nonzero;"/>
    </g>
    <g transform="matrix(4.16667,0,0,4.16667,-12304.7,16812.5)">
        <path d="M3004.07,-3999.66L3003.15,-3999.66L3003.15,-4000.17L3003.13,-4000.17C3002.84,-3999.81 3002.41,-3999.58 3001.91,-3999.58C3001.02,-3999.58 3000.64,-4000.2 3000.64,-4001.04L3000.64,-4003.39L3001.61,-4003.39L3001.61,-4001.4C3001.61,-4000.95 3001.62,-4000.33 3002.24,-4000.33C3002.94,-4000.33 3003.1,-4001.09 3003.1,-4001.57L3003.1,-4003.39L3004.07,-4003.39L3004.07,-3999.66Z" style="fill-rule:nonzero;"/>
    </g>
    <g transform="matrix(4.16667,0,0,4.16667,-12304.7,16812.5)">
        <path d="M3005.09,-4003.39L3005.95,-4003.39L3005.95,-4002.55L3005.97,-4002.55C3006.01,-4002.9 3006.41,-4003.48 3006.99,-4003.48C3007.09,-4003.48 3007.19,-4003.48 3007.29,-4003.45L3007.29,-4002.48C3007.2,-4002.53 3007.03,-4002.56 3006.85,-4002.56C3006.06,-4002.56 3006.06,-4001.57 3006.06,-4001.03L3006.06,-3999.66L3005.09,-3999.66L3005.09,-4003.39Z" style="fill-rule:nonzero;"/>
    </g>
    <g transform="matrix(4.16667,0,0,4.16667,-12304.7,16812.5)">
        <path d="M3009.47,-4000.33C3010.22,-4000.33 3010.42,-4001 3010.42,-4001.62C3010.42,-4002.19 3010.11,-4002.73 3009.47,-4002.73C3008.84,-4002.73 3008.54,-4002.18 3008.54,-4001.62C3008.54,-4001 3008.73,-4000.33 3009.47,-4000.33ZM3009.47,-4003.48C3010.58,-4003.48 3011.43,-4002.74 3011.43,-4001.51C3011.43,-4000.43 3010.71,-3999.58 3009.47,-3999.58C3008.24,-3999.58 3007.52,-4000.43 3007.52,-4001.51C3007.52,-4002.74 3008.37,-4003.48 3009.47,-4003.48Z" style="fill-rule:nonzero;"/>
    </g>
    <g transform="matrix(4.16667,0,0,4.16667,-12304.7,16812.5)">
        <path d="M3014.2,-4003.39L3015.1,-4003.39L3015.1,-4002.87L3015.12,-4002.87C3015.42,-4003.33 3015.86,-4003.48 3016.22,-4003.48C3016.75,-4003.48 3017.12,-4003.29 3017.33,-4002.82C3017.55,-4003.27 3018.04,-4003.48 3018.49,-4003.48C3019.41,-4003.48 3019.67,-4002.85 3019.67,-4002.02L3019.67,-3999.66L3018.7,-3999.66L3018.7,-4001.89C3018.7,-4002.24 3018.7,-4002.73 3018.14,-4002.73C3017.5,-4002.73 3017.42,-4001.96 3017.42,-4001.47L3017.42,-3999.66L3016.45,-3999.66L3016.45,-4001.89C3016.45,-4002.24 3016.45,-4002.73 3015.89,-4002.73C3015.25,-4002.73 3015.17,-4001.96 3015.17,-4001.47L3015.17,-3999.66L3014.2,-3999.66L3014.2,-4003.39Z" style="fill-rule:nonzero;"/>
    </g>
    <g transform="matrix(4.16667,0,0,4.16667,-12304.7,16812.5)">
        <path d="M3022.24,-4004.96L3023.23,-4004.96L3022.24,-4003.9L3021.63,-4003.9L3022.24,-4004.96ZM3023,-4001.89C3022.97,-4002.37 3022.75,-4002.77 3022.21,-4002.77C3021.66,-4002.77 3021.39,-4002.4 3021.35,-4001.89L3023,-4001.89ZM3023.65,-3999.87C3023.3,-3999.68 3022.89,-3999.58 3022.37,-3999.58C3021.13,-3999.58 3020.42,-4000.29 3020.42,-4001.51C3020.42,-4002.59 3020.99,-4003.48 3022.15,-4003.48C3023.53,-4003.48 3023.93,-4002.53 3023.93,-4001.23L3021.35,-4001.23C3021.39,-4000.63 3021.81,-4000.29 3022.41,-4000.29C3022.88,-4000.29 3023.29,-4000.46 3023.65,-4000.66L3023.65,-3999.87Z" style="fill-rule:nonzero;"/>
    </g>
    <g transform="matrix(4.16667,0,0,4.16667,-12304.7,16812.5)">
        <path d="M3026.28,-4000.33C3026.93,-4000.33 3027.14,-4001.01 3027.14,-4001.54C3027.14,-4002.06 3026.89,-4002.73 3026.27,-4002.73C3025.64,-4002.73 3025.46,-4002.04 3025.46,-4001.54C3025.46,-4001.03 3025.65,-4000.33 3026.28,-4000.33ZM3027.18,-4000.08L3027.16,-4000.08C3026.87,-3999.72 3026.47,-3999.58 3026.01,-3999.58C3024.87,-3999.58 3024.45,-4000.52 3024.45,-4001.54C3024.45,-4002.57 3024.87,-4003.48 3026.01,-4003.48C3026.5,-4003.48 3026.84,-4003.32 3027.13,-4002.96L3027.15,-4002.96L3027.15,-4005.1L3028.12,-4005.1L3028.12,-3999.66L3027.18,-3999.66L3027.18,-4000.08Z" style="fill-rule:nonzero;"/>
    </g>
    <g transform="matrix(4.16667,0,0,4.16667,-12304.7,16812.5)">
        <path d="M3029.14,-4003.39L3030.11,-4003.39L3030.11,-3999.66L3029.14,-3999.66L3029.14,-4003.39ZM3029.14,-4005.01L3030.11,-4005.01L3030.11,-4004.08L3029.14,-4004.08L3029.14,-4005.01Z" style="fill-rule:nonzero;"/>
    </g>
    <g transform="matrix(4.16667,0,0,4.16667,-12304.7,16812.5)">
        <path d="M3033.56,-4002.59C3033.38,-4002.67 3033.2,-4002.73 3032.9,-4002.73C3032.3,-4002.73 3031.91,-4002.25 3031.91,-4001.55C3031.91,-4000.86 3032.24,-4000.33 3032.92,-4000.33C3033.2,-4000.33 3033.5,-4000.43 3033.67,-4000.5L3033.71,-3999.7C3033.43,-3999.61 3033.14,-3999.58 3032.74,-3999.58C3031.51,-3999.58 3030.9,-4000.41 3030.9,-4001.55C3030.9,-4002.63 3031.54,-4003.48 3032.7,-4003.48C3033.09,-4003.48 3033.38,-4003.44 3033.64,-4003.36L3033.56,-4002.59Z" style="fill-rule:nonzero;"/>
    </g>
    <g transform="matrix(4.16667,0,0,4.16667,-12304.7,16812.5)">
        <path d="M3036.07,-4000.33C3036.82,-4000.33 3037.01,-4001 3037.01,-4001.62C3037.01,-4002.19 3036.71,-4002.73 3036.07,-4002.73C3035.44,-4002.73 3035.13,-4002.18 3035.13,-4001.62C3035.13,-4001 3035.33,-4000.33 3036.07,-4000.33ZM3036.07,-4003.48C3037.18,-4003.48 3038.02,-4002.74 3038.02,-4001.51C3038.02,-4000.43 3037.31,-3999.58 3036.07,-3999.58C3034.84,-3999.58 3034.12,-4000.43 3034.12,-4001.51C3034.12,-4002.74 3034.97,-4003.48 3036.07,-4003.48Z" style="fill-rule:nonzero;"/>
    </g>
</svg>
