<?xml version="1.0" encoding="UTF-8" standalone="no"?>
<!DOCTYPE svg PUBLIC "-//W3C//DTD SVG 1.1//EN" "http://www.w3.org/Graphics/SVG/1.1/DTD/svg11.dtd">
<svg width="100%" height="100%" viewBox="0 0 109 54" version="1.1" xmlns="http://www.w3.org/2000/svg" xmlns:xlink="http://www.w3.org/1999/xlink" xml:space="preserve" xmlns:serif="http://www.serif.com/" style="fill-rule:evenodd;clip-rule:evenodd;stroke-miterlimit:3.864;">
    <g transform="matrix(1,0,0,1,23.617,32.848)">
        <path d="M0,-29.56L0,-32.848L-11.81,-32.848L-11.81,-20.802L-23.617,-20.802L-23.617,-8.752L-11.81,-8.752L-11.81,3.288L0,3.288L0,0.001C-5.917,-2.118 -10.272,-7.858 -10.272,-14.619C-10.272,-21.381 -5.914,-27.436 0,-29.56" style="fill-rule:nonzero;"/>
    </g>
    <g transform="matrix(1,0,0,1,22.7845,18.0712)">
        <path d="M0,0C0,-3.329 2.645,-6.025 5.904,-6.025C9.165,-6.025 11.81,-3.329 11.81,0C11.81,3.326 9.165,6.025 5.904,6.025C2.645,6.025 0,3.326 0,0" style="fill-rule:nonzero;"/>
    </g>
    <g transform="matrix(0,1,1,0,28.6895,12.1662)">
        <ellipse cx="5.905" cy="0" rx="6.025" ry="5.905" style="stroke:rgb(31,20,95);stroke-width:0.45px;"/>
    </g>
    <g transform="matrix(1,0,0,1,51.6068,6.9682)">
        <path d="M0,-0.04C0,0.706 -0.125,1.395 -0.375,2.025C-0.615,2.644 -0.958,3.179 -1.403,3.632C-1.836,4.085 -2.361,4.441 -2.978,4.696C-3.586,4.95 -4.253,5.078 -4.976,5.078C-5.706,5.078 -6.384,4.95 -7,4.696C-7.61,4.441 -8.137,4.091 -8.592,3.647C-9.035,3.193 -9.382,2.66 -9.632,2.04C-9.883,1.409 -10.009,0.726 -10.009,-0.013C-10.009,-0.751 -9.883,-1.428 -9.632,-2.051C-9.382,-2.669 -9.039,-3.205 -8.606,-3.658C-8.161,-4.122 -7.638,-4.48 -7.029,-4.736C-6.424,-4.992 -5.762,-5.118 -5.049,-5.118C-4.315,-5.118 -3.638,-4.992 -3.023,-4.736C-2.405,-4.48 -1.876,-4.125 -1.431,-3.673C-0.98,-3.231 -0.628,-2.7 -0.375,-2.078C-0.125,-1.459 0,-0.78 0,-0.04M-2.297,-0.013C-2.297,-0.476 -2.367,-0.897 -2.5,-1.283C-2.628,-1.665 -2.812,-1.991 -3.054,-2.255C-3.293,-2.532 -3.583,-2.743 -3.919,-2.89C-4.247,-3.038 -4.618,-3.113 -5.031,-3.113C-5.438,-3.113 -5.806,-3.038 -6.133,-2.89C-6.462,-2.743 -6.744,-2.532 -6.987,-2.255C-7.217,-1.981 -7.4,-1.651 -7.534,-1.269C-7.662,-0.893 -7.726,-0.476 -7.726,-0.013C-7.726,0.449 -7.662,0.87 -7.534,1.257C-7.4,1.629 -7.213,1.955 -6.973,2.23C-6.73,2.507 -6.44,2.717 -6.103,2.864C-5.768,3.014 -5.396,3.087 -4.992,3.087C-4.586,3.087 -4.219,3.014 -3.89,2.864C-3.554,2.717 -3.269,2.512 -3.036,2.244C-2.804,1.969 -2.628,1.643 -2.5,1.257C-2.367,0.87 -2.297,0.449 -2.297,-0.013"/>
    </g>
    <g transform="matrix(1,0,0,1,57.0316,9.9473)">
        <path d="M0,-2.962C-0.31,-3.131 -0.589,-3.249 -0.84,-3.317C-1.092,-3.394 -1.329,-3.434 -1.563,-3.434C-1.786,-3.434 -1.966,-3.394 -2.112,-3.317C-2.248,-3.237 -2.315,-3.134 -2.315,-3.006C-2.315,-2.898 -2.257,-2.805 -2.14,-2.726C-2.028,-2.659 -1.786,-2.564 -1.419,-2.447C-1.052,-2.338 -0.745,-2.213 -0.493,-2.079C-0.231,-1.938 -0.02,-1.781 0.144,-1.605C0.31,-1.436 0.425,-1.241 0.493,-1.014C0.569,-0.797 0.607,-0.551 0.607,-0.275C0.607,0.078 0.539,0.402 0.405,0.698C0.268,0.983 0.076,1.228 -0.171,1.434C-0.417,1.632 -0.714,1.791 -1.07,1.909C-1.419,2.016 -1.804,2.068 -2.229,2.068C-2.593,2.068 -2.952,2.035 -3.297,1.968C-3.634,1.899 -4.02,1.784 -4.457,1.627L-4.598,1.567L-4.598,-0.336C-4.253,-0.138 -3.882,0.018 -3.487,0.137C-3.091,0.254 -2.729,0.316 -2.401,0.316C-2.104,0.316 -1.866,0.254 -1.692,0.137C-1.507,0.009 -1.419,-0.164 -1.419,-0.38C-1.419,-0.566 -1.491,-0.71 -1.635,-0.807C-1.78,-0.916 -2.062,-1.033 -2.489,-1.162C-3.183,-1.36 -3.674,-1.595 -3.964,-1.868C-4.253,-2.157 -4.397,-2.539 -4.397,-3.019C-4.397,-3.644 -4.171,-4.129 -3.716,-4.481C-3.253,-4.845 -2.63,-5.03 -1.852,-5.03C-1.545,-5.03 -1.235,-4.994 -0.926,-4.927C-0.617,-4.865 -0.31,-4.778 0,-4.661L0,-2.962Z" style="fill-rule:nonzero;"/>
    </g>
    <g transform="matrix(1,0,0,1,59.1273,11.6366)">
        <path d="M0,-6.394C0.756,-6.602 1.485,-6.701 2.201,-6.701C2.722,-6.701 3.164,-6.659 3.533,-6.57C3.898,-6.481 4.191,-6.34 4.413,-6.142C4.644,-5.957 4.812,-5.703 4.919,-5.39C5.027,-5.083 5.079,-4.717 5.079,-4.284L5.063,-1.435C5.063,-1.2 5.069,-0.996 5.079,-0.829C5.087,-0.672 5.109,-0.529 5.135,-0.4C5.167,-0.283 5.203,-0.171 5.251,-0.062C5.301,0.036 5.365,0.137 5.44,0.234L3.443,0.234C3.397,0.125 3.361,0.036 3.343,-0.032C3.325,-0.1 3.305,-0.191 3.285,-0.298C2.744,0.106 2.186,0.307 1.606,0.307C1.269,0.307 0.956,0.253 0.667,0.146C0.387,0.028 0.144,-0.13 -0.056,-0.327C-0.259,-0.525 -0.419,-0.762 -0.535,-1.036C-0.651,-1.311 -0.707,-1.612 -0.707,-1.936C-0.707,-2.29 -0.647,-2.61 -0.519,-2.895C-0.385,-3.189 -0.194,-3.441 0.044,-3.647C0.287,-3.866 0.577,-4.028 0.91,-4.137C1.251,-4.253 1.623,-4.311 2.028,-4.311C2.411,-4.311 2.804,-4.259 3.199,-4.15L3.199,-4.284C3.199,-4.884 2.738,-5.183 1.826,-5.183C1.507,-5.183 1.195,-5.139 0.9,-5.051C0.609,-4.962 0.309,-4.826 0,-4.651L0,-6.394ZM3.199,-2.822C3.023,-2.881 2.886,-2.919 2.776,-2.941C2.67,-2.959 2.551,-2.969 2.417,-2.969C2.08,-2.969 1.81,-2.89 1.606,-2.733C1.415,-2.575 1.317,-2.369 1.317,-2.113C1.317,-1.877 1.401,-1.685 1.562,-1.538C1.729,-1.39 1.95,-1.317 2.227,-1.317C2.385,-1.317 2.533,-1.341 2.678,-1.39C2.822,-1.442 2.992,-1.523 3.183,-1.641L3.199,-2.822Z"/>
    </g>
    <g transform="matrix(1,0,0,1,67.807,6.5455)">
        <path d="M0,0.807L1.998,-1.494L4.469,-1.494L1.91,1.266L4.469,5.326L2.127,5.326L0,1.768L0,5.326L-1.938,5.326L-1.938,-4.519L0,-4.519L0,0.807Z" style="fill-rule:nonzero;"/>
    </g>
    <g transform="matrix(1,0,0,1,-68.152,-148.956)">
        <path d="M143.016,160.827L141.109,160.827L141.109,154.007L143.016,154.007L143.016,160.827ZM143.191,152.222C143.191,152.547 143.08,152.822 142.861,153.048C142.637,153.264 142.372,153.372 142.064,153.372C141.745,153.372 141.476,153.258 141.254,153.034C141.033,152.806 140.921,152.532 140.921,152.207C140.921,152.048 140.951,151.902 141.008,151.764C141.066,151.626 141.144,151.507 141.238,151.41C141.344,151.3 141.466,151.218 141.601,151.159C141.745,151.089 141.895,151.056 142.048,151.056C142.37,151.056 142.637,151.173 142.861,151.41C143.08,151.634 143.191,151.906 143.191,152.222"/>
    </g>
    <g transform="matrix(1,0,0,1,82.6625,2.099)">
        <path d="M0,9.772L-1.82,9.772L-1.82,9.195C-2.104,9.432 -2.375,9.605 -2.646,9.712C-2.906,9.809 -3.209,9.86 -3.557,9.86C-3.99,9.86 -4.391,9.777 -4.76,9.608C-5.123,9.432 -5.443,9.195 -5.711,8.901C-5.973,8.594 -6.18,8.231 -6.336,7.807C-6.479,7.385 -6.553,6.923 -6.553,6.42C-6.553,5.898 -6.475,5.423 -6.32,4.99C-6.156,4.545 -5.936,4.168 -5.656,3.852C-5.375,3.537 -5.041,3.293 -4.654,3.116C-4.264,2.936 -3.834,2.849 -3.371,2.849C-3.1,2.849 -2.861,2.874 -2.646,2.921C-2.426,2.974 -2.182,3.06 -1.926,3.188L-1.926,-0.088L0,-0.088L0,9.772ZM-1.926,4.976C-2.137,4.835 -2.32,4.743 -2.473,4.694C-2.627,4.644 -2.797,4.619 -2.979,4.619C-3.416,4.619 -3.773,4.778 -4.064,5.093C-4.346,5.407 -4.484,5.811 -4.484,6.302C-4.484,6.776 -4.35,7.168 -4.076,7.483C-3.801,7.799 -3.453,7.957 -3.037,7.957C-2.834,7.957 -2.646,7.92 -2.473,7.853C-2.299,7.785 -2.117,7.667 -1.926,7.498L-1.926,4.976Z"/>
    </g>
    <g transform="matrix(1,0,0,1,85.9906,8.31)">
        <path d="M0,0.27C0.049,0.761 0.24,1.156 0.58,1.449C0.924,1.734 1.373,1.878 1.924,1.878C2.328,1.878 2.695,1.82 3.023,1.699C3.35,1.583 3.699,1.386 4.062,1.109L4.078,3.101C3.654,3.308 3.244,3.463 2.848,3.561C2.455,3.658 2.039,3.706 1.605,3.706C1.064,3.706 0.566,3.62 0.117,3.442C-0.338,3.265 -0.73,3.018 -1.055,2.704C-1.375,2.379 -1.627,1.996 -1.811,1.553C-1.98,1.099 -2.068,0.604 -2.068,0.063C-2.068,-0.448 -1.994,-0.917 -1.838,-1.338C-1.684,-1.773 -1.467,-2.142 -1.189,-2.446C-0.906,-2.761 -0.574,-3.003 -0.189,-3.169C0.195,-3.348 0.623,-3.436 1.084,-3.436C3.002,-3.436 4.01,-2.207 4.107,0.253L0,0.27ZM2.096,-1.029C2.018,-1.718 1.68,-2.063 1.068,-2.063C0.779,-2.063 0.533,-1.969 0.332,-1.784C0.141,-1.596 0.029,-1.348 0,-1.043L2.096,-1.029Z"/>
    </g>
    <g transform="matrix(1,0,0,1,93.6136,9.3902)">
        <path d="M0,-4.339L1.621,-4.339L1.621,-2.58L0,-2.58L0,-0.605C0,-0.092 0.062,0.262 0.187,0.458C0.322,0.654 0.562,0.754 0.91,0.754C1.037,0.754 1.146,0.74 1.244,0.708C1.34,0.681 1.465,0.625 1.621,0.545L1.621,2.362C1.387,2.44 1.178,2.494 0.984,2.525C0.801,2.564 0.598,2.583 0.375,2.583C-1.168,2.583 -1.937,1.732 -1.937,0.029L-1.937,-2.58L-2.951,-2.58L-2.951,-4.339L-1.937,-4.339L-1.937,-6.139L0,-6.922L0,-4.339Z" style="fill-rule:nonzero;"/>
    </g>
    <g transform="matrix(1,0,0,1,101.44,11.8712)">
        <path d="M0,-6.82L-2.545,-1.758L0.029,-1.758L0.029,0L-5.527,0L-2.967,-5.048L-5.139,-5.048L-5.139,-6.82L0,-6.82Z" style="fill-rule:nonzero;"/>
    </g>
    <g transform="matrix(1,0,0,1,102.955,11.6366)">
        <path d="M0,-6.394C0.754,-6.602 1.484,-6.701 2.201,-6.701C2.721,-6.701 3.164,-6.659 3.529,-6.57C3.896,-6.481 4.191,-6.34 4.412,-6.142C4.643,-5.957 4.814,-5.703 4.92,-5.39C5.023,-5.083 5.08,-4.717 5.08,-4.284L5.066,-1.435C5.066,-1.2 5.07,-0.996 5.08,-0.829C5.09,-0.672 5.109,-0.529 5.137,-0.4C5.166,-0.283 5.205,-0.171 5.254,-0.062C5.301,0.036 5.361,0.137 5.441,0.234L3.445,0.234C3.396,0.125 3.363,0.036 3.346,-0.032C3.324,-0.1 3.305,-0.191 3.283,-0.298C2.744,0.106 2.186,0.307 1.607,0.307C1.27,0.307 0.957,0.253 0.67,0.146C0.385,0.028 0.148,-0.13 -0.055,-0.327C-0.262,-0.525 -0.414,-0.762 -0.533,-1.036C-0.648,-1.311 -0.707,-1.612 -0.707,-1.936C-0.707,-2.29 -0.646,-2.61 -0.52,-2.895C-0.383,-3.189 -0.195,-3.441 0.047,-3.647C0.285,-3.866 0.574,-4.028 0.912,-4.137C1.252,-4.253 1.621,-4.311 2.027,-4.311C2.414,-4.311 2.803,-4.259 3.199,-4.15L3.199,-4.284C3.199,-4.884 2.74,-5.183 1.824,-5.183C1.508,-5.183 1.197,-5.139 0.896,-5.051C0.611,-4.962 0.312,-4.826 0,-4.651L0,-6.394ZM3.199,-2.822C3.023,-2.881 2.885,-2.919 2.781,-2.941C2.674,-2.959 2.553,-2.969 2.418,-2.969C2.078,-2.969 1.811,-2.89 1.607,-2.733C1.416,-2.575 1.318,-2.369 1.318,-2.113C1.318,-1.877 1.398,-1.685 1.564,-1.538C1.729,-1.39 1.951,-1.317 2.232,-1.317C2.383,-1.317 2.533,-1.341 2.678,-1.39C2.822,-1.442 2.992,-1.523 3.186,-1.641L3.199,-2.822Z"/>
    </g>
    <g transform="matrix(1,0,0,1,42.5477,41.7881)">
        <path d="M0,3.27L0.644,3.27C1.152,3.27 1.507,3.123 1.708,2.827C1.908,2.531 2.009,2.133 2.009,1.635C2.009,1.137 1.908,0.74 1.708,0.444C1.507,0.149 1.152,0 0.644,0L0,0L0,3.27ZM-0.966,-0.774L0.707,-0.774C1.416,-0.774 1.971,-0.578 2.373,-0.186C2.774,0.206 2.975,0.812 2.975,1.635C2.975,2.454 2.773,3.06 2.369,3.454C1.966,3.847 1.412,4.044 0.707,4.044L-0.966,4.044L-0.966,-0.774Z" style="fill-rule:nonzero;"/>
    </g>
    <g transform="matrix(1,0,0,1,48.0355,45.1251)">
        <path d="M0,-3.403C-0.77,-3.403 -1.155,-2.836 -1.155,-1.702C-1.155,-1.128 -1.062,-0.701 -0.875,-0.421C-0.688,-0.14 -0.397,0 0,0C0.77,0 1.155,-0.567 1.155,-1.702C1.155,-2.271 1.061,-2.697 0.872,-2.979C0.683,-3.262 0.392,-3.403 0,-3.403M0,0.774C-0.682,0.774 -1.205,0.56 -1.572,0.13C-1.938,-0.299 -2.121,-0.91 -2.121,-1.702C-2.121,-2.498 -1.94,-3.11 -1.579,-3.537C-1.217,-3.964 -0.691,-4.177 0,-4.177C0.681,-4.177 1.205,-3.963 1.571,-3.534C1.937,-3.104 2.121,-2.494 2.121,-1.702C2.121,-0.905 1.94,-0.294 1.579,0.133C1.217,0.561 0.69,0.774 0,0.774" style="fill-rule:nonzero;"/>
    </g>
    <g transform="matrix(1,0,0,1,50.9403,41.0145)">
        <path d="M0,4.818L0,0L1.008,0L2.996,3.288L3.01,0L3.92,0L3.92,4.818L2.989,4.818L0.924,1.388L0.91,4.818L0,4.818Z" style="fill-rule:nonzero;"/>
    </g>
    <g transform="matrix(1,0,0,1,57.7582,45.1251)">
        <path d="M0,-3.403C-0.77,-3.403 -1.155,-2.836 -1.155,-1.702C-1.155,-1.128 -1.062,-0.701 -0.875,-0.421C-0.688,-0.14 -0.397,0 0,0C0.77,0 1.155,-0.567 1.155,-1.702C1.155,-2.271 1.061,-2.697 0.872,-2.979C0.683,-3.262 0.392,-3.403 0,-3.403M0,0.774C-0.682,0.774 -1.205,0.56 -1.572,0.13C-1.938,-0.299 -2.121,-0.91 -2.121,-1.702C-2.121,-2.498 -1.94,-3.11 -1.579,-3.537C-1.217,-3.964 -0.691,-4.177 0,-4.177C0.681,-4.177 1.205,-3.963 1.571,-3.534C1.937,-3.104 2.121,-2.494 2.121,-1.702C2.121,-0.905 1.94,-0.294 1.579,0.133C1.217,0.561 0.69,0.774 0,0.774" style="fill-rule:nonzero;"/>
    </g>
    <g transform="matrix(1,0,0,1,63.0292,44.5514)">
        <path d="M0,-2.256C-0.075,-2.451 -0.189,-2.605 -0.343,-2.716C-0.497,-2.827 -0.684,-2.883 -0.903,-2.883C-1.123,-2.883 -1.297,-2.838 -1.428,-2.749C-1.559,-2.66 -1.624,-2.527 -1.624,-2.349C-1.624,-2.131 -1.328,-1.903 -0.735,-1.665C-0.143,-1.427 0.292,-1.225 0.567,-1.058C0.842,-0.891 0.98,-0.583 0.98,-0.134C0.98,0.351 0.827,0.72 0.521,0.971C0.216,1.223 -0.222,1.348 -0.791,1.348C-1.211,1.348 -1.596,1.244 -1.946,1.038C-2.296,0.831 -2.541,0.554 -2.681,0.207L-1.883,-0.127C-1.757,0.122 -1.61,0.31 -1.442,0.437C-1.274,0.563 -1.055,0.627 -0.784,0.627C-0.518,0.627 -0.309,0.577 -0.158,0.477C-0.006,0.377 0.07,0.214 0.07,-0.014C0.07,-0.267 -0.147,-0.487 -0.581,-0.674C-1.015,-0.86 -1.44,-1.045 -1.855,-1.228C-2.308,-1.495 -2.534,-1.837 -2.534,-2.256C-2.534,-2.669 -2.376,-2.997 -2.062,-3.24C-1.747,-3.483 -1.36,-3.604 -0.903,-3.604C-0.493,-3.604 -0.129,-3.509 0.186,-3.32C0.5,-3.131 0.732,-2.862 0.882,-2.516L0,-2.256Z" style="fill-rule:nonzero;"/>
    </g>
    <g transform="matrix(1,0,0,1,68.1249,45.8323)">
        <path d="M0,-4.824L0,-4.051L-1.323,-4.051L-1.323,0L-2.289,0L-2.289,-4.051L-3.612,-4.051L-3.612,-4.824L0,-4.824Z" style="fill-rule:nonzero;"/>
    </g>
    <g transform="matrix(1,0,0,1,-68.152,-76.0808)">
        <rect x="137.096" y="117.095" width="0.966" height="4.818"/>
    </g>
    <g transform="matrix(1,0,0,1,72.1571,42.8107)">
        <path d="M0,1.22L1.176,1.22L0.609,-0.876L0,1.22ZM-0.021,-1.802L1.176,-1.802L2.625,3.022L1.666,3.022L1.386,1.981L-0.21,1.981L-0.511,3.022L-1.47,3.022L-0.021,-1.802Z" style="fill-rule:nonzero;"/>
    </g>
    <g transform="matrix(1,0,0,1,75.4193,41.0145)">
        <path d="M0,4.818L0,0L0.966,0L0.966,4.044L3.164,4.044L3.164,4.818L0,4.818Z" style="fill-rule:nonzero;"/>
    </g>
    <g transform="matrix(1,0,0,1,80.2767,41.7881)">
        <path d="M0,3.27L0.645,3.27C1.153,3.27 1.508,3.123 1.708,2.827C1.909,2.531 2.009,2.133 2.009,1.635C2.009,1.137 1.909,0.74 1.708,0.444C1.508,0.149 1.153,0 0.645,0L0,0L0,3.27ZM-0.966,-0.774L0.707,-0.774C1.417,-0.774 1.972,-0.578 2.373,-0.186C2.774,0.206 2.976,0.812 2.976,1.635C2.976,2.454 2.773,3.06 2.37,3.454C1.966,3.847 1.412,4.044 0.707,4.044L-0.966,4.044L-0.966,-0.774Z" style="fill-rule:nonzero;"/>
    </g>
    <g transform="matrix(1,0,0,1,84.0218,41.0145)">
        <path d="M0,4.818L0,0L3.346,0L3.346,0.774L0.966,0.774L0.966,1.916L2.695,1.916L2.695,2.689L0.966,2.689L0.966,4.044L3.423,4.044L3.423,4.818L0,4.818Z" style="fill-rule:nonzero;"/>
    </g>
    <g transform="matrix(1,0,0,1,89.2718,42.8107)">
        <path d="M0,1.22L1.177,1.22L0.609,-0.876L0,1.22ZM-0.021,-1.802L1.177,-1.802L2.625,3.022L1.666,3.022L1.387,1.981L-0.21,1.981L-0.511,3.022L-1.47,3.022L-0.021,-1.802Z" style="fill-rule:nonzero;"/>
    </g>
    <g transform="matrix(1,0,0,1,94.7103,41.0145)">
        <path d="M0,4.818L0,0L3.346,0L3.346,0.774L0.966,0.774L0.966,1.916L2.695,1.916L2.695,2.689L0.966,2.689L0.966,4.044L3.423,4.044L3.423,4.818L0,4.818Z" style="fill-rule:nonzero;"/>
    </g>
    <g transform="matrix(1,0,0,1,101.332,44.5514)">
        <path d="M0,-2.256C-0.074,-2.451 -0.188,-2.605 -0.343,-2.716C-0.497,-2.827 -0.684,-2.883 -0.902,-2.883C-1.122,-2.883 -1.297,-2.838 -1.428,-2.749C-1.559,-2.66 -1.624,-2.527 -1.624,-2.349C-1.624,-2.131 -1.327,-1.903 -0.734,-1.665C-0.142,-1.427 0.292,-1.225 0.567,-1.058C0.843,-0.891 0.98,-0.583 0.98,-0.134C0.98,0.351 0.827,0.72 0.521,0.971C0.216,1.223 -0.222,1.348 -0.791,1.348C-1.211,1.348 -1.596,1.244 -1.945,1.038C-2.296,0.831 -2.541,0.554 -2.681,0.207L-1.883,-0.127C-1.757,0.122 -1.609,0.31 -1.441,0.437C-1.273,0.563 -1.055,0.627 -0.783,0.627C-0.518,0.627 -0.309,0.577 -0.157,0.477C-0.006,0.377 0.07,0.214 0.07,-0.014C0.07,-0.267 -0.146,-0.487 -0.581,-0.674C-1.015,-0.86 -1.439,-1.045 -1.854,-1.228C-2.308,-1.495 -2.533,-1.837 -2.533,-2.256C-2.533,-2.669 -2.376,-2.997 -2.062,-3.24C-1.746,-3.483 -1.36,-3.604 -0.902,-3.604C-0.492,-3.604 -0.129,-3.509 0.186,-3.32C0.501,-3.131 0.733,-2.862 0.883,-2.516L0,-2.256Z" style="fill-rule:nonzero;"/>
    </g>
    <g transform="matrix(1,0,0,1,-68.152,-76.0808)">
        <rect x="171.507" y="117.095" width="0.966" height="4.818"/>
    </g>
    <g transform="matrix(1,0,0,1,43.3666,49.4086)">
        <path d="M0,4.045C0.457,4.045 0.807,3.878 1.05,3.544C1.292,3.211 1.414,2.703 1.414,2.023C1.414,1.351 1.292,0.846 1.046,0.508C0.801,0.17 0.453,0.001 0,0.001C-0.458,0.001 -0.808,0.168 -1.05,0.501C-1.293,0.835 -1.414,1.342 -1.414,2.023C-1.414,2.694 -1.292,3.199 -1.046,3.537C-0.802,3.876 -0.453,4.045 0,4.045M0,-0.453C0.621,-0.453 1.104,-0.239 1.453,0.188C1.8,0.614 1.974,1.227 1.974,2.023C1.974,2.823 1.802,3.437 1.459,3.861C1.116,4.286 0.63,4.498 0,4.498C-0.621,4.498 -1.105,4.285 -1.453,3.858C-1.8,3.431 -1.974,2.819 -1.974,2.023C-1.974,1.222 -1.803,0.609 -1.459,0.185C-1.117,-0.24 -0.63,-0.453 0,-0.453" style="fill-rule:nonzero;"/>
    </g>
    <g transform="matrix(1,0,0,1,48.8407,52.6114)">
        <path d="M0,-2.361C-0.065,-2.606 -0.201,-2.807 -0.406,-2.965C-0.612,-3.123 -0.868,-3.202 -1.176,-3.202C-1.47,-3.202 -1.701,-3.137 -1.869,-3.008C-2.037,-2.88 -2.121,-2.695 -2.121,-2.455C-2.121,-2.174 -1.886,-1.937 -1.414,-1.744C-0.943,-1.55 -0.479,-1.363 -0.021,-1.18C0.473,-0.909 0.721,-0.555 0.721,-0.119C0.721,0.282 0.586,0.618 0.318,0.889C0.05,1.16 -0.383,1.295 -0.98,1.295C-1.479,1.295 -1.861,1.181 -2.125,0.952C-2.389,0.723 -2.609,0.419 -2.786,0.041L-2.275,-0.132C-2.159,0.157 -1.994,0.391 -1.782,0.572C-1.569,0.751 -1.293,0.842 -0.952,0.842C-0.593,0.842 -0.318,0.762 -0.126,0.602C0.065,0.442 0.161,0.233 0.161,-0.026C0.161,-0.359 -0.084,-0.635 -0.574,-0.853C-1.032,-1.031 -1.487,-1.209 -1.939,-1.387C-2.434,-1.645 -2.681,-1.988 -2.681,-2.415C-2.681,-2.77 -2.541,-3.066 -2.261,-3.302C-1.981,-3.538 -1.615,-3.656 -1.162,-3.656C-0.761,-3.656 -0.416,-3.556 -0.126,-3.359C0.163,-3.161 0.373,-2.864 0.504,-2.468L0,-2.361Z" style="fill-rule:nonzero;"/>
    </g>
    <g transform="matrix(-1,-0,0,1,170.438,-60.0648)">
        <rect x="119.015" y="109.087" width="0.56" height="4.818"/>
    </g>
    <g transform="matrix(1,0,0,1,55.7069,49.4762)">
        <path d="M0,3.91L0.756,3.91C1.932,3.91 2.52,3.259 2.52,1.955C2.52,1.279 2.367,0.784 2.062,0.471C1.756,0.157 1.33,0 0.784,0L0,0L0,3.91ZM-0.56,-0.454L0.798,-0.454C1.498,-0.454 2.054,-0.246 2.464,0.17C2.875,0.586 3.08,1.181 3.08,1.955C3.08,2.681 2.879,3.264 2.478,3.704C2.077,4.144 1.507,4.364 0.77,4.364L-0.56,4.364L-0.56,-0.454Z" style="fill-rule:nonzero;"/>
    </g>
    <g transform="matrix(1,0,0,1,61.4471,49.4086)">
        <path d="M0,4.045C0.457,4.045 0.807,3.878 1.05,3.544C1.292,3.211 1.414,2.703 1.414,2.023C1.414,1.351 1.292,0.846 1.046,0.508C0.801,0.17 0.453,0.001 0,0.001C-0.458,0.001 -0.808,0.168 -1.05,0.501C-1.293,0.835 -1.414,1.342 -1.414,2.023C-1.414,2.694 -1.292,3.199 -1.046,3.537C-0.802,3.876 -0.453,4.045 0,4.045M0,-0.453C0.621,-0.453 1.104,-0.239 1.453,0.188C1.8,0.614 1.974,1.227 1.974,2.023C1.974,2.823 1.802,3.437 1.459,3.861C1.116,4.286 0.63,4.498 0,4.498C-0.621,4.498 -1.105,4.285 -1.453,3.858C-1.8,3.431 -1.974,2.819 -1.974,2.023C-1.974,1.222 -1.803,0.609 -1.459,0.185C-1.117,-0.24 -0.63,-0.453 0,-0.453" style="fill-rule:nonzero;"/>
    </g>
    <g transform="matrix(1,0,0,1,64.5409,49.0223)">
        <path d="M0,4.818L0,0L0.804,0.001L3.008,3.712L3.038,3.712L3.038,0L3.542,0L3.542,4.818L3.08,4.818L0.518,0.52L0.504,4.818L0,4.818Z" style="fill-rule:nonzero;"/>
    </g>
    <g transform="matrix(1,0,0,1,71.1703,49.4086)">
        <path d="M0,4.045C0.457,4.045 0.807,3.878 1.05,3.544C1.292,3.211 1.414,2.703 1.414,2.023C1.414,1.351 1.292,0.846 1.046,0.508C0.801,0.17 0.453,0.001 0,0.001C-0.458,0.001 -0.808,0.168 -1.05,0.501C-1.293,0.835 -1.414,1.342 -1.414,2.023C-1.414,2.694 -1.292,3.199 -1.046,3.537C-0.802,3.876 -0.453,4.045 0,4.045M0,-0.453C0.621,-0.453 1.104,-0.239 1.453,0.188C1.8,0.614 1.974,1.227 1.974,2.023C1.974,2.823 1.802,3.437 1.459,3.861C1.116,4.286 0.63,4.498 0,4.498C-0.621,4.498 -1.105,4.285 -1.453,3.858C-1.8,3.431 -1.974,2.819 -1.974,2.023C-1.974,1.222 -1.803,0.609 -1.459,0.185C-1.117,-0.24 -0.63,-0.453 0,-0.453" style="fill-rule:nonzero;"/>
    </g>
    <g transform="matrix(1,0,0,1,76.6439,52.6114)">
        <path d="M0,-2.361C-0.065,-2.606 -0.201,-2.807 -0.406,-2.965C-0.611,-3.123 -0.868,-3.202 -1.176,-3.202C-1.471,-3.202 -1.701,-3.137 -1.869,-3.008C-2.037,-2.88 -2.121,-2.695 -2.121,-2.455C-2.121,-2.174 -1.886,-1.937 -1.414,-1.744C-0.943,-1.55 -0.479,-1.363 -0.021,-1.18C0.474,-0.909 0.721,-0.555 0.721,-0.119C0.721,0.282 0.587,0.618 0.318,0.889C0.05,1.16 -0.383,1.295 -0.98,1.295C-1.479,1.295 -1.861,1.181 -2.125,0.952C-2.389,0.723 -2.609,0.419 -2.786,0.041L-2.275,-0.132C-2.159,0.157 -1.994,0.391 -1.781,0.572C-1.569,0.751 -1.293,0.842 -0.952,0.842C-0.593,0.842 -0.317,0.762 -0.126,0.602C0.065,0.442 0.161,0.233 0.161,-0.026C0.161,-0.359 -0.084,-0.635 -0.574,-0.853C-1.031,-1.031 -1.486,-1.209 -1.939,-1.387C-2.434,-1.645 -2.681,-1.988 -2.681,-2.415C-2.681,-2.77 -2.541,-3.066 -2.261,-3.302C-1.981,-3.538 -1.615,-3.656 -1.162,-3.656C-0.761,-3.656 -0.416,-3.556 -0.126,-3.359C0.163,-3.161 0.373,-2.864 0.504,-2.468L0,-2.361Z" style="fill-rule:nonzero;"/>
    </g>
    <g transform="matrix(1,0,0,1,80.0101,53.386)">
        <path d="M0,-3.91L0,0.454L-0.56,0.454L-0.56,-3.91L-2.071,-3.91L-2.071,-4.364L1.513,-4.364L1.513,-3.91L0,-3.91Z" style="fill-rule:nonzero;"/>
    </g>
    <g transform="matrix(-1,-0,0,1,233.829,-60.0648)">
        <rect x="150.71" y="109.087" width="0.561" height="4.818"/>
    </g>
    <g transform="matrix(1,0,0,1,85.3802,50.9844)">
        <path d="M0,0.894L1.533,0.894L0.806,-1.588L0.728,-1.588L0,0.894ZM-1.204,2.856L0.35,-1.962L1.183,-1.962L2.737,2.856L2.151,2.855L1.672,1.348L-0.139,1.348L-0.618,2.855L-1.204,2.856Z" style="fill-rule:nonzero;"/>
    </g>
    <g transform="matrix(1,0,0,1,89.0404,49.0223)">
        <path d="M0,4.818L0,0L0.561,0L0.561,4.364L2.954,4.364L2.954,4.818L0,4.818Z" style="fill-rule:nonzero;"/>
    </g>
    <g transform="matrix(1,0,0,1,93.4369,49.4762)">
        <path d="M0,3.91L0.756,3.91C1.933,3.91 2.521,3.259 2.521,1.955C2.521,1.279 2.367,0.784 2.062,0.471C1.756,0.157 1.33,0 0.784,0L0,0L0,3.91ZM-0.56,-0.454L0.798,-0.454C1.498,-0.454 2.054,-0.246 2.464,0.17C2.875,0.586 3.08,1.181 3.08,1.955C3.08,2.681 2.88,3.264 2.479,3.704C2.077,4.144 1.508,4.364 0.771,4.364L-0.56,4.364L-0.56,-0.454Z" style="fill-rule:nonzero;"/>
    </g>
    <g transform="matrix(1,0,0,1,100.633,53.8399)">
        <path d="M0,-4.818L0,-4.364L-2.471,-4.364L-2.471,-2.749L-0.714,-2.749L-0.714,-2.296L-2.471,-2.296L-2.471,-0.454L0.14,-0.454L0.14,0L-3.031,0L-3.031,-4.818L0,-4.818Z" style="fill-rule:nonzero;"/>
    </g>
    <g transform="matrix(1,0,0,1,102.494,50.9844)">
        <path d="M0,0.894L1.533,0.894L0.806,-1.588L0.728,-1.588L0,0.894ZM-1.204,2.856L0.35,-1.962L1.183,-1.962L2.737,2.856L2.151,2.855L1.672,1.348L-0.139,1.348L-0.618,2.855L-1.204,2.856Z" style="fill-rule:nonzero;"/>
    </g>
</svg>
