<?xml version="1.0" encoding="UTF-8" standalone="no"?>
<!-- Created with Inkscape (http://www.inkscape.org/) -->

<svg
   xmlns:dc="http://purl.org/dc/elements/1.1/"
   xmlns:cc="http://creativecommons.org/ns#"
   xmlns:rdf="http://www.w3.org/1999/02/22-rdf-syntax-ns#"
   xmlns:svg="http://www.w3.org/2000/svg"
   xmlns="http://www.w3.org/2000/svg"
   xmlns:sodipodi="http://sodipodi.sourceforge.net/DTD/sodipodi-0.dtd"
   xmlns:inkscape="http://www.inkscape.org/namespaces/inkscape"
   id="svg2"
   version="1.1"
   inkscape:version="0.91 r13725"
   width="446.85034"
   height="202.77682"
   viewBox="0 0 446.85034 202.77683"
   sodipodi:docname="logo-naru.svg">
  <metadata
     id="metadata8">
    <rdf:RDF>
      <cc:Work
         rdf:about="">
        <dc:format>image/svg+xml</dc:format>
        <dc:type
           rdf:resource="http://purl.org/dc/dcmitype/StillImage" />
        <dc:title></dc:title>
      </cc:Work>
    </rdf:RDF>
  </metadata>
  <defs
     id="defs6" />
  <sodipodi:namedview
     pagecolor="#ffffff"
     bordercolor="#666666"
     borderopacity="1"
     objecttolerance="10"
     gridtolerance="10"
     guidetolerance="10"
     inkscape:pageopacity="0"
     inkscape:pageshadow="2"
     inkscape:window-width="1546"
     inkscape:window-height="1387"
     id="namedview4"
     showgrid="false"
     fit-margin-top="0"
     fit-margin-left="0"
     fit-margin-right="0"
     fit-margin-bottom="0"
     inkscape:zoom="1.3674575"
     inkscape:cx="334.22828"
     inkscape:cy="157.74361"
     inkscape:window-x="1912"
     inkscape:window-y="24"
     inkscape:window-maximized="0"
     inkscape:current-layer="g4138" />
  <g
     id="g4138"
     transform="translate(22.520148,271.86214)">
    <path
       style="fill:#9ed8d8"
       d="m 147.43019,-69.378392 c -4.58326,-0.960573 -6.55688,-2.047863 -20.62861,-11.364529 -19.04316,-12.608166 -27.389866,-19.130491 -41.392906,-32.345449 -11.125326,-10.4992 -16.514322,-16.96645 -23.527047,-28.23443 -1.357167,-2.18068 -4.847697,-7.74488 -7.756728,-12.36488 -14.826996,-23.5476 -20.37747,-34.16634 -24.55176,-46.97055 -3.022839,-9.27226 -4.830645,-17.11448 -7.291287,-31.62946 -0.277584,-1.63742 0.04782,-6.87742 0.534462,-8.60646 0.206817,-0.73483 2.022243,-1.2404 3.602907,-1.00337 1.055397,0.15827 1.80759,0.59343 3.502506,2.02628 3.751428,3.17139 5.912475,5.39784 8.088756,8.33355 3.974328,5.36121 7.264749,8.87004 26.022696,27.75 10.327818,10.395 22.840953,23.2875 27.806967,28.65 18.610264,20.09611 36.556964,36.66589 55.299564,51.05683 5.55664,4.2665 10.41026,9.02867 13.70132,13.44318 4.82538,6.47259 6.15065,11.311289 5.3325,19.469579 -0.85398,8.515656 -1.78736,11.575722 -4.9554,16.246261 -1.51901,2.239422 -4.52592,4.978515 -5.9156,5.388714 -1.78043,0.52554 -5.73246,0.603219 -7.87234,0.154734 z M -4.219809,-80.618202 c -0.495,-0.120507 -1.371894,-0.464793 -1.9486536,-0.765084 -1.2643173,-0.658263 -4.6020684,-3.811137 -5.3980334,-5.099034 -0.314863,-0.50946 -1.738468,-4.296579 -3.163567,-8.415825 -7.206177,-20.829435 -7.116964,-20.491595 -7.628778,-28.888925 -0.369592,-6.0639 -0.17764,-9.70395 1.355274,-25.70061 0.569213,-5.94 1.371847,-15.7275 1.783631,-21.75001 1.181848,-17.285 1.749292,-23.1721 3.469957,-36 2.154636,-16.06324 5.485504,-33.07016 8.7252804,-44.55 1.6259751,-5.76149 5.5724022,-14.24936 7.8039501,-16.78453 2.5530648,-2.90044 3.6191973,-2.82718 6.6604815,0.45769 3.122772,3.37288 4.412043,6.69185 6.342252,16.32684 3.371268,16.82832 6.527607,43.77257 8.24103,70.35 0.945159,14.66063 1.441077,21.20861 2.453856,32.40001 1.090512,12.05037 1.151592,16.27027 0.298131,20.59654 -1.492728,7.56679 -6.762657,20.42028 -13.510911,32.953459 -4.1669334,7.739025 -7.3618683,12.64128 -8.9608461,13.749375 -1.9078251,1.322121 -4.1275605,1.703283 -6.5230539,1.120104 z M 268.91537,-141.85596 c -9.31149,-1.37093 -15.63853,-9.66072 -15.67049,-20.53172 -0.034,-11.57866 5.5525,-18.56875 17.33531,-21.6906 2.99434,-0.79335 4.95774,-1.10219 12.65994,-1.99141 3.37134,-0.38922 6.19758,-0.77553 6.28053,-0.85847 0.34557,-0.34556 -0.55851,-3.75755 -1.31895,-4.9777 -1.62459,-2.60674 -5.62839,-3.93551 -11.83387,-3.92739 -4.0963,0.005 -5.78136,0.37795 -11.48469,2.5394 -4.70522,1.78318 -6.23337,2.02703 -6.74241,1.07589 -0.39814,-0.74395 -0.41794,-13.95852 -0.022,-14.6983 0.1587,-0.29653 0.66495,-0.68811 1.125,-0.8702 2.35324,-0.93138 10.51728,-2.32431 16.23983,-2.77079 9.24815,-0.72157 18.95519,1.00881 23.85107,4.25171 2.05134,1.35877 4.73274,4.39929 5.79732,6.5738 2.32911,4.75744 2.48682,6.86601 2.49306,33.33232 0.005,20.18433 -0.0376,22.12376 -0.49092,22.5 -0.39318,0.32631 -2.15763,0.41174 -8.50389,0.41174 -6.34626,0 -8.11071,-0.0854 -8.50389,-0.41174 -0.38466,-0.31923 -0.49611,-0.94268 -0.49611,-2.775 0,-1.46125 -0.12108,-2.36326 -0.31728,-2.36326 -0.17448,0 -1.24197,0.77625 -2.37216,1.725 -3.95529,3.32026 -7.4004,4.87916 -12.07943,5.46586 -2.75555,0.34552 -3.54531,0.34431 -5.94595,-0.009 z m 16.23234,-15.77052 c 1.08216,-0.50924 2.53341,-1.46418 3.225,-2.1221 l 1.25748,-1.1962 0,-6.34645 c 0,-5.84662 -0.0413,-6.34596 -0.525,-6.34021 -1.17606,0.014 -8.53074,1.19177 -10.29213,1.64819 -3.74226,0.96972 -5.78651,2.46896 -6.63071,4.86295 -0.21967,0.62294 -0.39382,2.28012 -0.387,3.68262 0.01,2.02216 0.14787,2.80868 0.66683,3.79973 1.2674,2.42031 3.00109,3.10928 7.56801,3.00754 2.81379,-0.0627 3.36,-0.16899 5.11752,-0.99607 z m -151.82577,14.99446 c -1.45046,-0.96666 -3.34508,-2.97956 -4.33504,-4.60566 -0.55248,-0.9075 -2.17159,-4.46956 -3.59803,-7.91569 -1.42643,-3.44612 -3.21132,-7.49579 -3.9664,-8.99925 -2.79178,-5.55876 -4.08602,-9.75593 -6.20886,-20.13507 -1.87248,-9.155 -2.06841,-11.29415 -1.89603,-20.7 0.25738,-14.04332 1.61744,-22.11104 7.58611,-45 3.93973,-15.10826 4.56001,-16.88029 6.60618,-18.87261 2.93954,-2.86217 7.80083,-3.84892 10.44064,-2.11925 0.37465,0.24548 1.11143,1.04544 1.6373,1.7777 0.52587,0.73226 2.91128,3.37054 5.30092,5.86285 4.79766,5.00379 6.16899,6.70403 7.74396,9.60131 2.25783,4.15349 3.73126,10.70483 3.33982,14.85 -0.28801,3.05 -2.9136,13.09937 -6.74074,25.8 -7.17224,23.80158 -8.43105,30.69094 -9.6158,52.62644 -0.39165,7.25135 -0.86436,10.67512 -1.94711,14.10263 -1.17034,3.70477 -2.57402,4.90814 -4.34692,3.7266 z m 255.18375,0.0488 c -12.29382,-1.76148 -19.3773,-7.24299 -22.13799,-17.13136 -0.65274,-2.33805 -0.66408,-2.7174 -0.76677,-25.68652 -0.0736,-16.45125 -0.008,-23.49343 0.22305,-23.925 0.31743,-0.59307 0.58137,-0.61158 8.72418,-0.61158 l 8.39688,0 0.29259,0.76953 c 0.18027,0.47422 0.29256,9.08465 0.29256,22.43697 0,18.26142 0.0705,21.93817 0.44856,23.38963 1.24755,4.7896 3.86739,7.03679 8.93037,7.66003 4.09554,0.50415 7.71903,-0.27997 10.26405,-2.22113 1.25049,-0.95379 2.72796,-3.81047 3.15543,-6.10097 0.18441,-0.98805 0.30159,-10.02901 0.30159,-23.26766 0,-16.85448 0.0831,-21.7626 0.375,-22.15215 0.3327,-0.444 1.28271,-0.50415 8.42295,-0.53329 7.47951,-0.0305 8.07744,0.006 8.46546,0.5181 0.34776,0.4589 0.4191,4.26422 0.42705,22.77708 0.0111,26.0965 -0.0617,27.03224 -2.47686,31.79838 -3.2649,6.44296 -9.2334,10.29964 -18.57426,12.00222 -3.59733,0.65569 -11.13615,0.7975 -14.76384,0.27772 z m -202.9755,-1.13202 -0.75,-0.39013 -0.0763,-32.42831 c -0.0612,-25.98198 -3e-4,-32.49139 0.306,-32.74562 0.24769,-0.20557 3.847,-0.34194 10.22115,-0.38725 l 9.83883,-0.0699 0.83648,0.8744 c 0.46006,0.48092 5.65958,8.46936 11.55448,17.75209 5.8949,9.28272 10.84206,16.801 10.9937,16.70729 0.1624,-0.10037 0.27569,-7.23655 0.27569,-17.36595 0,-13.68699 0.0791,-17.26118 0.38753,-17.51718 0.59045,-0.49003 14.77699,-0.53775 15.36267,-0.0517 0.39464,0.32752 0.4498,4.33757 0.4498,32.69983 0,29.70402 -0.0403,32.35994 -0.49611,32.73827 -0.39225,0.32554 -2.11788,0.41174 -8.24318,0.41174 l -7.74707,0 -0.72137,-0.75 c -0.39674,-0.4125 -6.49311,-10.10295 -13.54748,-21.53434 -7.05436,-11.43138 -12.87632,-20.73413 -12.93768,-20.67277 -0.0614,0.0614 -0.14432,9.57633 -0.18434,21.14437 -0.058,16.76516 -0.15179,21.11194 -0.4622,21.42278 -0.56882,0.5696 -13.99933,0.71442 -15.06057,0.16239 z m 133.8,-0.31071 -0.75,-0.37942 -0.0763,-32.35879 c -0.0563,-23.87493 0.0132,-32.46679 0.26556,-32.77075 0.27801,-0.33498 1.91808,-0.3971 8.77635,-0.33237 l 8.43444,0.0796 0.0837,3.975 c 0.055,2.61149 0.1956,3.975 0.40992,3.975 0.1794,0 1.12896,-0.74323 2.11014,-1.65163 4.93611,-4.56995 9.28845,-6.44837 14.94111,-6.44837 2.38293,0 3.32196,0.10882 3.57552,0.41432 0.24063,0.28996 0.35547,3.26725 0.38253,9.91851 0.034,8.36055 -0.0192,9.56215 -0.44316,9.98598 -0.43311,0.43312 -0.82689,0.44205 -3.89775,0.0883 -4.82427,-0.55568 -9.82038,-0.28333 -13.26201,0.72293 -1.62636,0.47551 -2.90877,1.03734 -3.225,1.41291 -0.48918,0.58096 -0.525,2.07321 -0.525,21.8797 0,20.70835 -0.015,21.26421 -0.58029,21.56676 -0.88539,0.47386 -15.26562,0.40496 -16.21971,-0.0777 z"
       id="path4152"
       inkscape:connector-curvature="0" />
    <path
       style="fill:#a4a4a3"
       d="m 148.16519,-69.47873 c -0.15675,-0.132576 -1.2975,-0.551475 -2.535,-0.930888 -3.75957,-1.152663 -6.26647,-2.606433 -18.75,-10.873294 -20.4262,-13.526661 -30.484499,-21.588128 -45.033983,-36.093588 -9.448236,-9.41964 -13.294461,-14.171 -19.31562,-23.86118 -1.384095,-2.2275 -4.895949,-7.83 -7.804119,-12.45 -15.281754,-24.27703 -21.0225,-35.34785 -25.035957,-48.28096 -2.692131,-8.67521 -4.22349,-15.20316 -6.184485,-26.36349 -0.969108,-5.51535 -0.983382,-5.72118 -0.624054,-9 0.410298,-3.74393 0.629274,-4.10556 2.486028,-4.10556 1.763082,0 2.507007,0.42268 5.819964,3.30677 3.013542,2.62343 4.991373,4.73827 6.44667,6.89323 2.459898,3.64256 7.930719,9.48161 24.594567,26.25 10.330194,10.395 22.951422,23.4225 28.047174,28.95 10.324375,11.19914 13.418455,14.32914 24.468375,24.75248 13.08745,12.34533 20.813,18.96702 33.43544,28.65805 4.292,3.29523 7.74495,6.61929 10.7369,10.33614 4.38195,5.4436 5.80668,8.29871 6.68758,13.401699 0.41256,2.389875 0.43313,3.374835 0.14002,6.70164 -0.81597,9.260994 -2.04883,13.194835 -5.60252,17.876656 -1.64148,2.16258 -3.07992,3.411732 -4.9895,4.332948 -1.26673,0.611091 -1.98603,0.740397 -4.11862,0.740397 -1.42113,0 -2.71211,-0.108471 -2.86886,-0.24105 z M -4.760412,-81.370863 c -2.3213697,-0.828015 -5.711392,-3.847707 -6.65296,-5.926185 -0.710338,-1.568046 -7.900063,-22.271012 -8.887115,-25.590632 -0.490608,-1.65 -1.02702,-4.35 -1.192027,-6 -0.165007,-1.65 -0.448778,-4.06357 -0.630603,-5.36348 -0.392313,-2.80476 -0.384768,-7.53182 0.01454,-9.11141 0.156433,-0.61881 0.371907,-2.40761 0.478832,-3.97511 0.106926,-1.5675 0.653897,-7.44 1.215493,-13.05 0.561596,-5.61 1.369698,-15.33 1.795781,-21.60001 1.240517,-18.25473 2.47022,-29.78294 4.816103,-45.15 1.066622,-6.98706 4.4030545,-23.40046 6.1287397,-30.15 1.8017631,-7.0471 2.5123989,-9.056 5.1410085,-14.53316 3.009318,-6.27043 5.0935677,-8.72173 7.0073478,-8.2414 0.963636,0.24185 3.730278,3.2284 4.893138,5.28207 2.353977,4.15723 4.429827,13.76927 7.081983,32.79249 2.651826,19.02084 3.667386,29.71334 5.584746,58.8 0.573591,8.70147 1.451193,19.65029 2.560944,31.95001 0.881472,9.7696 -0.05638,14.65416 -5.32809,27.75 -4.400418,10.93139 -13.4078136,27.673775 -16.4949603,30.659795 -0.5457654,0.527886 -1.4942148,1.169136 -2.107665,1.425 -1.3593138,0.566952 -3.8837721,0.581853 -5.4252387,0.03202 z M 267.3667,-142.30311 c -6.24635,-1.51443 -11.21529,-6.6007 -13.18673,-13.4981 -0.91232,-3.19189 -0.98571,-9.97064 -0.14276,-13.18647 1.69587,-6.46972 5.66295,-10.81882 12.35847,-13.54855 3.55957,-1.45122 7.90486,-2.34985 15.73451,-3.25398 3.7125,-0.4287 6.93702,-0.84253 7.16559,-0.91962 0.32016,-0.10799 0.37062,-0.52266 0.21975,-1.80621 -0.5712,-4.86 -3.86985,-6.99647 -11.58534,-7.50356 -4.01883,-0.26414 -7.25336,0.36997 -13.13043,2.57416 -2.65104,0.99426 -5.08468,1.80775 -5.40809,1.80775 -1.26432,0 -1.4061,-0.66773 -1.51361,-7.12889 -0.11636,-6.99233 -0.003,-7.99013 0.98127,-8.63503 0.75032,-0.49162 5.81233,-1.63912 10.59442,-2.40162 4.62168,-0.73692 13.03314,-0.89173 17.36007,-0.31951 12.33474,1.63122 18.1212,6.37402 20.10261,16.47682 0.4086,2.08331 0.50409,5.97143 0.62601,25.49305 0.13032,20.86199 0.0982,23.10463 -0.3411,23.775 l -0.48498,0.74019 -8.07606,0 c -9.51195,0 -9.01011,0.19587 -9.01011,-3.51676 0,-1.20078 -0.12714,-2.18324 -0.28254,-2.18324 -0.1554,0 -1.05777,0.67837 -2.00526,1.5075 -3.53673,3.09491 -6.62013,4.70274 -10.6405,5.54845 -2.59392,0.54565 -7.03844,0.53547 -9.33518,-0.0214 z m 15.50299,-14.39445 c 2.12487,-0.55346 4.24866,-1.67028 5.6943,-2.99445 l 1.0662,-0.9766 0,-6.43453 c 0,-3.539 -0.0658,-6.50035 -0.14622,-6.58078 -0.23646,-0.23644 -7.89471,0.89118 -10.47528,1.5424 -3.2648,0.8239 -5.21825,1.98005 -6.31232,3.73596 -0.76564,1.2288 -0.90097,1.77738 -1.01214,4.10262 -0.15239,3.18732 0.31492,4.73285 1.89372,6.26308 1.70503,1.65258 5.81888,2.24687 9.29174,1.3423 z m -149.54775,14.06554 c -1.45046,-0.96666 -3.34508,-2.97956 -4.33504,-4.60566 -0.55248,-0.9075 -2.17159,-4.46956 -3.59803,-7.91569 -1.42643,-3.44612 -3.21132,-7.49579 -3.9664,-8.99925 -2.79178,-5.55876 -4.08602,-9.75593 -6.20886,-20.13507 -1.87248,-9.155 -2.06841,-11.29415 -1.89603,-20.7 0.25738,-14.04332 1.61744,-22.11104 7.58611,-45 3.93973,-15.10826 4.56001,-16.88029 6.60618,-18.87261 2.93954,-2.86217 7.80083,-3.84892 10.44064,-2.11925 0.37465,0.24548 1.11143,1.04544 1.6373,1.7777 0.52587,0.73226 2.91128,3.37054 5.30092,5.86285 4.79766,5.00379 6.16899,6.70403 7.74396,9.60131 2.25783,4.15349 3.73126,10.70483 3.33982,14.85 -0.28801,3.05 -2.9136,13.09937 -6.74074,25.8 -7.17224,23.80158 -8.43105,30.69094 -9.6158,52.62644 -0.39165,7.25135 -0.86436,10.67512 -1.94711,14.10263 -1.17034,3.70477 -2.57402,4.90814 -4.34692,3.7266 z m 258.15825,0.15979 c -8.87097,-0.57659 -15.75876,-3.38646 -20.2107,-8.24496 -1.96791,-2.14762 -3.89895,-5.72471 -4.68069,-8.67049 -0.72489,-2.73164 -0.95949,-10.57084 -0.93222,-31.14955 0.024,-17.99539 0.042,-18.56226 0.60645,-18.975 0.46608,-0.34081 2.09634,-0.42546 8.19423,-0.42546 4.6737,0 7.83639,0.11989 8.19264,0.31056 0.56541,0.30258 0.58029,0.86018 0.58029,21.72361 0,23.15896 0.0697,24.34732 1.60653,27.38007 0.9792,1.93233 2.69832,3.44962 4.87923,4.30633 1.49568,0.58754 2.31225,0.69305 5.36424,0.69305 3.04608,0 3.87696,-0.10694 5.4,-0.69501 2.31399,-0.89347 4.57902,-3.14125 5.33877,-5.29808 0.94842,-2.69253 1.10046,-6.45021 1.10589,-27.33497 0.005,-19.9227 0.0207,-20.47267 0.58563,-20.775 0.35631,-0.1907 3.5223,-0.31056 8.2035,-0.31056 7.00425,0 7.66353,0.0446 8.11971,0.54863 0.45249,0.49997 0.4965,2.49514 0.4965,22.50197 0,18.09746 -0.08,22.48586 -0.45537,24.98512 -1.21023,8.05765 -6.05844,14.12067 -13.62453,17.03847 -2.87772,1.10976 -7.73961,2.11912 -11.11209,2.30694 -1.40691,0.0784 -2.96301,0.17763 -3.45801,0.22063 -0.495,0.043 -2.385,-0.0183 -4.2,-0.1363 z m -206.38299,-1.83221 c -0.41552,-0.59323 -0.46701,-4.15813 -0.46701,-32.33325 0,-28.17511 0.0515,-31.74001 0.46701,-32.33324 0.46574,-0.66493 0.49277,-0.66676 9.88589,-0.66676 6.31085,0 9.66211,0.11083 10.15602,0.33587 0.50424,0.22975 4.26289,5.86961 11.89603,17.85 6.13738,9.63277 11.27952,17.51413 11.42696,17.51413 0.15436,0 0.26809,-7.36171 0.26809,-17.3535 0,-16.4308 0.0292,-17.3799 0.54862,-17.85 0.4779,-0.43249 1.46191,-0.4965 7.63299,-0.4965 6.9807,0 7.0912,0.01 7.55138,0.66676 0.41552,0.59323 0.46701,4.15813 0.46701,32.33324 0,28.17512 -0.0515,31.74002 -0.46701,32.33325 -0.46231,0.66004 -0.54471,0.66666 -8.175,0.65722 -5.91703,-0.007 -7.82943,-0.10175 -8.23064,-0.40636 -0.28746,-0.21825 -6.14122,-9.49072 -13.00837,-20.60549 -13.90483,-22.50556 -13.74406,-22.25354 -14.02057,-21.97702 -0.10913,0.10912 -0.19841,9.68865 -0.19841,21.28785 0,20.54348 -0.015,21.09749 -0.58028,21.4 -0.35279,0.18881 -3.34508,0.31056 -7.63298,0.31056 -6.94799,0 -7.05965,-0.01 -7.51973,-0.66676 z m 133.80441,-0.10467 c -0.42267,-0.42269 -0.47142,-3.78572 -0.47142,-32.52858 0,-28.74285 0.0488,-32.10588 0.47142,-32.52857 0.40506,-0.40505 1.60041,-0.47143 8.49,-0.47143 5.83668,0 8.11653,0.098 8.37858,0.36 0.24249,0.2425 0.36,1.61334 0.36,4.2 0,2.30874 0.11727,3.84 0.29412,3.84 0.16176,0 1.34301,-0.9578 2.625,-2.12844 4.4787,-4.08972 8.64549,-5.96356 13.79898,-6.20554 2.51901,-0.11827 3.20358,-0.0553 3.825,0.35188 l 0.7569,0.49594 0,9.42165 c 0,8.38128 -0.055,9.47669 -0.49839,9.92003 -0.34026,0.34026 -0.79236,0.44741 -1.425,0.33773 -6.01815,-1.04342 -10.80213,-0.91737 -15.73881,0.4147 -4.05246,1.09347 -3.6378,-1.50808 -3.6378,22.82347 0,13.90766 -0.10497,21.20416 -0.31056,21.58831 -0.2952,0.55162 -0.70899,0.58028 -8.37858,0.58028 -6.93456,0 -8.13423,-0.0662 -8.53944,-0.47143 z"
       id="path4150"
       inkscape:connector-curvature="0" />
    <path
       style="fill:#eb5e93"
       d="m 148.16519,-69.47873 c -0.15675,-0.132576 -1.2975,-0.551475 -2.535,-0.930888 -3.75957,-1.152663 -6.26647,-2.606433 -18.75,-10.873294 -20.4262,-13.526661 -30.484499,-21.588128 -45.033983,-36.093588 -9.448236,-9.41964 -13.294461,-14.171 -19.31562,-23.86118 -1.384095,-2.2275 -4.895949,-7.83 -7.804119,-12.45 -15.281754,-24.27703 -21.0225,-35.34785 -25.035957,-48.28096 -2.692131,-8.67521 -4.22349,-15.20316 -6.184485,-26.36349 -0.969108,-5.51535 -0.983382,-5.72118 -0.624054,-9 0.410298,-3.74393 0.629274,-4.10556 2.486028,-4.10556 1.763082,0 2.507007,0.42268 5.819964,3.30677 3.013542,2.62343 4.991373,4.73827 6.44667,6.89323 2.459898,3.64256 7.930719,9.48161 24.594567,26.25 10.330194,10.395 22.951422,23.4225 28.047174,28.95 10.324375,11.19914 13.418455,14.32914 24.468375,24.75248 13.08745,12.34533 20.813,18.96702 33.43544,28.65805 4.292,3.29523 7.74495,6.61929 10.7369,10.33614 4.38195,5.4436 5.80668,8.29871 6.68758,13.401699 0.41256,2.389875 0.43313,3.374835 0.14002,6.70164 -0.81597,9.260994 -2.04883,13.194835 -5.60252,17.876656 -1.64148,2.16258 -3.07992,3.411732 -4.9895,4.332948 -1.26673,0.611091 -1.98603,0.740397 -4.11862,0.740397 -1.42113,0 -2.71211,-0.108471 -2.86886,-0.24105 z M -4.760412,-81.370863 c -2.3213697,-0.828015 -5.711392,-3.847707 -6.65296,-5.926185 -0.710338,-1.568046 -7.900063,-22.271012 -8.887115,-25.590632 -0.490608,-1.65 -1.02702,-4.35 -1.192027,-6 -0.165007,-1.65 -0.448778,-4.06357 -0.630603,-5.36348 -0.392313,-2.80476 -0.384768,-7.53182 0.01454,-9.11141 0.156433,-0.61881 0.371907,-2.40761 0.478832,-3.97511 0.106926,-1.5675 0.653897,-7.44 1.215493,-13.05 0.561596,-5.61 1.369698,-15.33 1.795781,-21.60001 1.240517,-18.25473 2.47022,-29.78294 4.816103,-45.15 1.066622,-6.98706 4.4030545,-23.40046 6.1287397,-30.15 1.8017631,-7.0471 2.5123989,-9.056 5.1410085,-14.53316 3.009318,-6.27043 5.0935677,-8.72173 7.0073478,-8.2414 0.963636,0.24185 3.730278,3.2284 4.893138,5.28207 2.353977,4.15723 4.429827,13.76927 7.081983,32.79249 2.651826,19.02084 3.667386,29.71334 5.584746,58.8 0.573591,8.70147 1.451193,19.65029 2.560944,31.95001 0.881472,9.7696 -0.05638,14.65416 -5.32809,27.75 -4.400418,10.93139 -13.4078136,27.673775 -16.4949603,30.659795 -0.5457654,0.527886 -1.4942148,1.169136 -2.107665,1.425 -1.3593138,0.566952 -3.8837721,0.581853 -5.4252387,0.03202 z M 133.29483,-142.73777 c -1.51588,-0.80109 -3.57381,-3.18551 -4.83626,-5.60353 -0.58763,-1.12551 -1.95016,-4.20638 -3.02785,-6.84638 -1.07769,-2.64 -2.85024,-6.6481 -3.939,-8.90688 -2.51453,-5.21671 -3.97761,-9.70244 -5.53434,-16.96801 -2.21638,-10.34421 -2.48638,-12.29614 -2.64884,-19.14915 -0.26964,-11.37399 0.92136,-21.83203 4.00684,-35.18358 1.73906,-7.52528 6.90084,-27.02032 7.77853,-29.37796 1.80243,-4.84167 6.60992,-7.85848 11.02309,-6.91724 1.21905,0.25999 1.66037,0.58097 3.14076,2.28426 0.94734,1.08998 3.52824,3.88005 5.73533,6.20016 2.2071,2.32011 4.61812,5.02839 5.35782,6.01839 3.93605,5.26791 6.16947,13.02365 5.44297,18.9012 -0.47987,3.88223 -2.59812,11.92043 -6.71952,25.4988 -6.812,22.44286 -8.4407,31.24994 -9.43143,51.00001 -0.39201,7.81454 -0.77328,10.99956 -1.69944,14.1967 -0.86491,2.98571 -1.7069,4.72173 -2.49456,5.14326 -0.75465,0.40388 -0.8705,0.38828 -2.1541,-0.29005 z m 134.58536,0.28894 c -5.35023,-1.28722 -9.47499,-4.5683 -11.8659,-9.43885 -1.58983,-3.23866 -2.10492,-5.36007 -2.29454,-9.45 -0.44666,-9.63389 3.1741,-16.32472 10.87003,-20.08681 4.43406,-2.16756 8.61489,-3.11512 18.59041,-4.21343 3.135,-0.34516 5.95362,-0.70342 6.26361,-0.79614 0.49299,-0.14745 0.54189,-0.3792 0.39015,-1.84934 -0.56931,-5.51607 -4.72545,-7.9882 -13.40376,-7.97273 -4.41313,0.008 -5.89221,0.34004 -12.03603,2.70307 -2.35155,0.90445 -4.61389,1.60417 -5.02742,1.55492 -1.12264,-0.1337 -1.28183,-1.26809 -1.17813,-8.39511 0.0834,-5.73328 0.14138,-6.33016 0.65069,-6.70213 0.68875,-0.50301 4.47991,-1.4052 9.64089,-2.29425 5.25328,-0.90496 16.49898,-0.9909 20.7,-0.15819 10.78722,2.13819 15.73713,6.72358 17.56383,16.27038 0.48948,2.5582 0.77148,47.83293 0.30339,48.70759 -0.3312,0.61886 -0.50832,0.63217 -8.41722,0.63217 -9.38214,0 -8.7,0.26895 -8.7,-3.43028 0,-1.71355 -0.1,-2.26972 -0.40794,-2.26972 -0.22437,0 -1.47312,0.88631 -2.775,1.96958 -4.72944,3.93528 -8.14614,5.26391 -13.91706,5.41185 -2.0625,0.0529 -4.29,-0.0338 -4.95,-0.19258 z m 14.28405,-13.79044 c 2.13813,-0.39903 5.11098,-1.8799 6.58074,-3.27804 l 1.18521,-1.12747 0,-6.69047 0,-6.69048 -2.175,0.18506 c -3.43692,0.29244 -8.97831,1.3191 -10.80136,2.0012 -4.34455,1.6255 -5.7864,3.91688 -5.57688,8.86272 0.0883,2.08341 0.23384,2.64729 1.00324,3.8859 0.52645,0.84748 1.35054,1.68171 1.98547,2.0099 2.02295,1.04563 4.98998,1.36585 7.79858,0.84168 z m 110.51595,13.58097 c -5.11476,-0.20873 -10.95042,-1.54665 -14.7,-3.3702 -6.05805,-2.94624 -9.96414,-8.03448 -11.4069,-14.85918 -0.44871,-2.12245 -0.51234,-5.04669 -0.55023,-25.28591 -0.0376,-20.04692 0.0129,-22.92154 0.40713,-23.17317 0.26535,-0.16939 3.71211,-0.25724 8.4,-0.21409 l 7.95,0.0732 0.16533,22.5 c 0.14052,19.12341 0.23496,22.72511 0.62925,24.00001 1.43586,4.64266 3.93903,6.82873 8.78154,7.66911 5.706,0.99021 11.15514,-1.06411 13.14492,-4.95563 1.53918,-3.01025 1.51842,-2.6851 1.70463,-26.71349 l 0.17433,-22.5 7.88538,-0.08 c 5.21859,-0.0529 8.08995,0.0295 8.4903,0.24375 0.59991,0.32105 0.60408,0.51604 0.50379,23.48 -0.099,22.65513 -0.11517,23.20624 -0.7491,25.4658 -1.38756,4.94605 -3.98676,9.18985 -7.2231,11.79347 -5.06244,4.07269 -14.00703,6.31815 -23.60727,5.92637 z m -207.39,-1.63938 c -0.4776,-0.47761 -0.526,-63.56928 -0.0495,-64.45973 0.29722,-0.55535 0.7276,-0.58028 10.02046,-0.58028 l 9.7099,0 0.82287,0.975 c 0.45258,0.53625 5.63259,8.535 11.51113,17.775 6.23576,9.80147 10.87298,16.8 11.13168,16.8 0.38522,0 0.45357,-2.2799 0.52087,-17.37222 0.0545,-12.22293 0.17654,-17.49161 0.41173,-17.775 0.45737,-0.5511 14.3526,-0.59099 14.90081,-0.0428 0.52242,0.52242 0.52242,64.15759 0,64.68001 -0.26116,0.26115 -2.45808,0.36 -8.00138,0.36 -6.58209,0 -7.71487,-0.0665 -8.17152,-0.47978 -0.29158,-0.26387 -6.21608,-9.68012 -13.16556,-20.925 -6.94948,-11.24487 -12.87927,-20.76839 -13.17731,-21.16337 -0.30311,-0.40169 -0.69224,-0.62523 -0.88307,-0.5073 -0.24964,0.15429 -0.34116,5.86353 -0.34116,21.28315 0,15.98956 -0.0868,21.15913 -0.36,21.4323 -0.51133,0.51132 -14.36867,0.51132 -14.88,0 z m 133.8,-0.3 c -0.56826,-0.56826 -0.51735,-64.23595 0.0517,-64.70825 0.29094,-0.24146 2.77719,-0.31824 8.475,-0.26173 l 8.06328,0.08 0.0835,4.125 c 0.0986,4.87352 0.15474,4.92588 2.7138,2.53259 3.65454,-3.41777 6.77364,-5.27942 10.39881,-6.20658 2.67864,-0.68508 7.30851,-0.82643 7.89393,-0.24101 0.2646,0.26461 0.36,2.83851 0.36,9.71327 0,8.0141 -0.0655,9.4076 -0.45726,9.73277 -0.35811,0.29721 -0.89478,0.30765 -2.475,0.0482 -1.10976,-0.18224 -3.09774,-0.4202 -4.41774,-0.52881 -5.01291,-0.41247 -13.12683,1.37851 -13.76364,3.03805 -0.10251,0.2671 -0.18636,9.84606 -0.18636,21.28657 0,11.4405 -0.0819,21.01447 -0.1821,21.27546 -0.15975,0.41632 -1.16457,0.47454 -8.19,0.47454 -5.82837,0 -8.10588,-0.098 -8.3679,-0.36 z"
       id="path4148"
       inkscape:connector-curvature="0" />
    <path
       style="fill:#000000"
       d="m 148.16519,-69.47873 c -0.15675,-0.132576 -1.2975,-0.551475 -2.535,-0.930888 -3.75957,-1.152663 -6.26647,-2.606433 -18.75,-10.873294 -20.4262,-13.526661 -30.484499,-21.588128 -45.033983,-36.093588 -9.448236,-9.41964 -13.294461,-14.171 -19.31562,-23.86118 -1.384095,-2.2275 -4.895949,-7.83 -7.804119,-12.45 -15.281754,-24.27703 -21.0225,-35.34785 -25.035957,-48.28096 -2.692131,-8.67521 -4.22349,-15.20316 -6.184485,-26.36349 -0.969108,-5.51535 -0.983382,-5.72118 -0.624054,-9 0.410298,-3.74393 0.629274,-4.10556 2.486028,-4.10556 1.763082,0 2.507007,0.42268 5.819964,3.30677 3.013542,2.62343 4.991373,4.73827 6.44667,6.89323 2.459898,3.64256 7.930719,9.48161 24.594567,26.25 10.330194,10.395 22.951422,23.4225 28.047174,28.95 10.324375,11.19914 13.418455,14.32914 24.468375,24.75248 13.08745,12.34533 20.813,18.96702 33.43544,28.65805 4.292,3.29523 7.74495,6.61929 10.7369,10.33614 4.38195,5.4436 5.80668,8.29871 6.68758,13.401699 0.41256,2.389875 0.43313,3.374835 0.14002,6.70164 -0.81597,9.260994 -2.04883,13.194835 -5.60252,17.876656 -1.64148,2.16258 -3.07992,3.411732 -4.9895,4.332948 -1.26673,0.611091 -1.98603,0.740397 -4.11862,0.740397 -1.42113,0 -2.71211,-0.108471 -2.86886,-0.24105 z M -4.760412,-81.370863 c -2.3213697,-0.828015 -5.711392,-3.847707 -6.65296,-5.926185 -0.710338,-1.568046 -7.900063,-22.271012 -8.887115,-25.590632 -0.490608,-1.65 -1.02702,-4.35 -1.192027,-6 -0.165007,-1.65 -0.448778,-4.06357 -0.630603,-5.36348 -0.392313,-2.80476 -0.384768,-7.53182 0.01454,-9.11141 0.156433,-0.61881 0.371907,-2.40761 0.478832,-3.97511 0.106926,-1.5675 0.653897,-7.44 1.215493,-13.05 0.561596,-5.61 1.369698,-15.33 1.795781,-21.60001 1.240517,-18.25473 2.47022,-29.78294 4.816103,-45.15 1.066622,-6.98706 4.4030545,-23.40046 6.1287397,-30.15 1.8017631,-7.0471 2.5123989,-9.056 5.1410085,-14.53316 3.009318,-6.27043 5.0935677,-8.72173 7.0073478,-8.2414 0.963636,0.24185 3.730278,3.2284 4.893138,5.28207 2.353977,4.15723 4.429827,13.76927 7.081983,32.79249 2.651826,19.02084 3.667386,29.71334 5.584746,58.8 0.573591,8.70147 1.451193,19.65029 2.560944,31.95001 0.881472,9.7696 -0.05638,14.65416 -5.32809,27.75 -4.400418,10.93139 -13.4078136,27.673775 -16.4949603,30.659795 -0.5457654,0.527886 -1.4942148,1.169136 -2.107665,1.425 -1.3593138,0.566952 -3.8837721,0.581853 -5.4252387,0.03202 z M 267.88019,-142.44883 c -5.35023,-1.28722 -9.47499,-4.5683 -11.8659,-9.43885 -1.58983,-3.23866 -2.10492,-5.36007 -2.29454,-9.45 -0.44666,-9.63389 3.1741,-16.32472 10.87003,-20.08681 4.43406,-2.16756 8.61489,-3.11512 18.59041,-4.21343 3.135,-0.34516 5.95362,-0.70342 6.26361,-0.79614 0.49299,-0.14745 0.54189,-0.3792 0.39015,-1.84934 -0.56931,-5.51607 -4.72545,-7.9882 -13.40376,-7.97273 -4.41313,0.008 -5.89221,0.34004 -12.03603,2.70307 -2.35155,0.90445 -4.61389,1.60417 -5.02742,1.55492 -1.12264,-0.1337 -1.28183,-1.26809 -1.17813,-8.39511 0.0834,-5.73328 0.14138,-6.33016 0.65069,-6.70213 0.68875,-0.50301 4.47991,-1.4052 9.64089,-2.29425 5.25328,-0.90496 16.49898,-0.9909 20.7,-0.15819 10.78722,2.13819 15.73713,6.72358 17.56383,16.27038 0.48948,2.5582 0.77148,47.83293 0.30339,48.70759 -0.3312,0.61886 -0.50832,0.63217 -8.41722,0.63217 -9.38214,0 -8.7,0.26895 -8.7,-3.43028 0,-1.71355 -0.1,-2.26972 -0.40794,-2.26972 -0.22437,0 -1.47312,0.88631 -2.775,1.96958 -4.72944,3.93528 -8.14614,5.26391 -13.91706,5.41185 -2.0625,0.0529 -4.29,-0.0338 -4.95,-0.19258 z m 14.28405,-13.79044 c 2.13813,-0.39903 5.11098,-1.8799 6.58074,-3.27804 l 1.18521,-1.12747 0,-6.69047 0,-6.69048 -2.175,0.18506 c -3.43692,0.29244 -8.97831,1.3191 -10.80136,2.0012 -4.34455,1.6255 -5.7864,3.91688 -5.57688,8.86272 0.0883,2.08341 0.23384,2.64729 1.00324,3.8859 0.52645,0.84748 1.35054,1.68171 1.98547,2.0099 2.02295,1.04563 4.98998,1.36585 7.79858,0.84168 z m 110.51595,13.58097 c -5.11476,-0.20873 -10.95042,-1.54665 -14.7,-3.3702 -6.05805,-2.94624 -9.96414,-8.03448 -11.4069,-14.85918 -0.44871,-2.12245 -0.51234,-5.04669 -0.55023,-25.28591 -0.0376,-20.04692 0.0129,-22.92154 0.40713,-23.17317 0.26535,-0.16939 3.71211,-0.25724 8.4,-0.21409 l 7.95,0.0732 0.16533,22.5 c 0.14052,19.12341 0.23496,22.72511 0.62925,24.00001 1.43586,4.64266 3.93903,6.82873 8.78154,7.66911 5.706,0.99021 11.15514,-1.06411 13.14492,-4.95563 1.53918,-3.01025 1.51842,-2.6851 1.70463,-26.71349 l 0.17433,-22.5 7.88538,-0.08 c 5.21859,-0.0529 8.08995,0.0295 8.4903,0.24375 0.59991,0.32105 0.60408,0.51604 0.50379,23.48 -0.099,22.65513 -0.11517,23.20624 -0.7491,25.4658 -1.38756,4.94605 -3.98676,9.18985 -7.2231,11.79347 -5.06244,4.07269 -14.00703,6.31815 -23.60727,5.92637 z m -259.87677,-0.99495 c -2.33794,-1.71934 -3.87554,-4.32318 -6.8112,-11.53443 -0.94039,-2.31 -2.70864,-6.30017 -3.92943,-8.86705 -2.80358,-5.89487 -3.9499,-9.40428 -5.63793,-17.26033 -2.61726,-12.18067 -2.97896,-15.74666 -2.58656,-25.50089 0.56746,-14.10608 2.0144,-21.86532 9.0208,-48.37434 2.22462,-8.41695 3.08741,-10.90662 4.35604,-12.56989 0.92383,-1.2112 3.08078,-2.65316 4.69005,-3.13538 0.61875,-0.1854 1.125,-0.45073 1.125,-0.58962 0,-0.13888 0.675,-0.25251 1.5,-0.25251 0.825,0 1.5,0.12036 1.5,0.26748 0,0.14711 0.33172,0.35073 0.73715,0.45249 0.42904,0.10768 1.64819,1.27576 2.91684,2.79467 1.19883,1.43531 3.90937,4.40733 6.02341,6.60447 5.47241,5.68754 7.51973,9.10521 8.98473,14.9986 0.48869,1.96587 0.65097,3.50573 0.64099,6.08229 -0.0124,3.19001 -0.13903,3.93607 -1.68104,9.9 -0.91723,3.5475 -3.17065,11.445 -5.00759,17.55 -6.71486,22.31654 -8.55219,31.79197 -9.3074,48.00001 -0.53781,11.54227 -1.10696,15.75442 -2.70638,20.02924 -0.95333,2.54801 -1.8339,2.87129 -3.82748,1.40519 z m 52.48677,-0.64443 c -0.4776,-0.47761 -0.526,-63.56928 -0.0495,-64.45973 0.29722,-0.55535 0.7276,-0.58028 10.02046,-0.58028 l 9.7099,0 0.82287,0.975 c 0.45258,0.53625 5.63259,8.535 11.51113,17.775 6.23576,9.80147 10.87298,16.8 11.13168,16.8 0.38522,0 0.45357,-2.2799 0.52087,-17.37222 0.0545,-12.22293 0.17654,-17.49161 0.41173,-17.775 0.45737,-0.5511 14.3526,-0.59099 14.90081,-0.0428 0.52242,0.52242 0.52242,64.15759 0,64.68001 -0.26116,0.26115 -2.45808,0.36 -8.00138,0.36 -6.58209,0 -7.71487,-0.0665 -8.17152,-0.47978 -0.29158,-0.26387 -6.21608,-9.68012 -13.16556,-20.925 -6.94948,-11.24487 -12.87927,-20.76839 -13.17731,-21.16337 -0.30311,-0.40169 -0.69224,-0.62523 -0.88307,-0.5073 -0.24964,0.15429 -0.34116,5.86353 -0.34116,21.28315 0,15.98956 -0.0868,21.15913 -0.36,21.4323 -0.51133,0.51132 -14.36867,0.51132 -14.88,0 z m 133.8,-0.3 c -0.56826,-0.56826 -0.51735,-64.23595 0.0517,-64.70825 0.29094,-0.24146 2.77719,-0.31824 8.475,-0.26173 l 8.06328,0.08 0.0835,4.125 c 0.0986,4.87352 0.15474,4.92588 2.7138,2.53259 3.65454,-3.41777 6.77364,-5.27942 10.39881,-6.20658 2.67864,-0.68508 7.30851,-0.82643 7.89393,-0.24101 0.2646,0.26461 0.36,2.83851 0.36,9.71327 0,8.0141 -0.0655,9.4076 -0.45726,9.73277 -0.35811,0.29721 -0.89478,0.30765 -2.475,0.0482 -1.10976,-0.18224 -3.09774,-0.4202 -4.41774,-0.52881 -5.01291,-0.41247 -13.12683,1.37851 -13.76364,3.03805 -0.10251,0.2671 -0.18636,9.84606 -0.18636,21.28657 0,11.4405 -0.0819,21.01447 -0.1821,21.27546 -0.15975,0.41632 -1.16457,0.47454 -8.19,0.47454 -5.82837,0 -8.10588,-0.098 -8.3679,-0.36 z"
       id="path4146"
       inkscape:connector-curvature="0" />
    <path
       style="fill:#e6256d"
       d="m 267.88019,-142.44883 c -5.35023,-1.28722 -9.47499,-4.5683 -11.8659,-9.43885 -1.58983,-3.23866 -2.10492,-5.36007 -2.29454,-9.45 -0.44666,-9.63389 3.1741,-16.32472 10.87003,-20.08681 4.43406,-2.16756 8.61489,-3.11512 18.59041,-4.21343 3.135,-0.34516 5.95362,-0.70342 6.26361,-0.79614 0.49299,-0.14745 0.54189,-0.3792 0.39015,-1.84934 -0.56931,-5.51607 -4.72545,-7.9882 -13.40376,-7.97273 -4.41313,0.008 -5.89221,0.34004 -12.03603,2.70307 -2.35155,0.90445 -4.61389,1.60417 -5.02742,1.55492 -1.12264,-0.1337 -1.28183,-1.26809 -1.17813,-8.39511 0.0834,-5.73328 0.14138,-6.33016 0.65069,-6.70213 0.68875,-0.50301 4.47991,-1.4052 9.64089,-2.29425 5.25328,-0.90496 16.49898,-0.9909 20.7,-0.15819 10.78722,2.13819 15.73713,6.72358 17.56383,16.27038 0.48948,2.5582 0.77148,47.83293 0.30339,48.70759 -0.3312,0.61886 -0.50832,0.63217 -8.41722,0.63217 -9.38214,0 -8.7,0.26895 -8.7,-3.43028 0,-1.71355 -0.1,-2.26972 -0.40794,-2.26972 -0.22437,0 -1.47312,0.88631 -2.775,1.96958 -4.72944,3.93528 -8.14614,5.26391 -13.91706,5.41185 -2.0625,0.0529 -4.29,-0.0338 -4.95,-0.19258 z m 14.28405,-13.79044 c 2.13813,-0.39903 5.11098,-1.8799 6.58074,-3.27804 l 1.18521,-1.12747 0,-6.69047 0,-6.69048 -2.175,0.18506 c -3.43692,0.29244 -8.97831,1.3191 -10.80136,2.0012 -4.34455,1.6255 -5.7864,3.91688 -5.57688,8.86272 0.0883,2.08341 0.23384,2.64729 1.00324,3.8859 0.52645,0.84748 1.35054,1.68171 1.98547,2.0099 2.02295,1.04563 4.98998,1.36585 7.79858,0.84168 z m 110.51595,13.58097 c -5.11476,-0.20873 -10.95042,-1.54665 -14.7,-3.3702 -6.05805,-2.94624 -9.96414,-8.03448 -11.4069,-14.85918 -0.44871,-2.12245 -0.51234,-5.04669 -0.55023,-25.28591 -0.0376,-20.04692 0.0129,-22.92154 0.40713,-23.17317 0.26535,-0.16939 3.71211,-0.25724 8.4,-0.21409 l 7.95,0.0732 0.16533,22.5 c 0.14052,19.12341 0.23496,22.72511 0.62925,24.00001 1.43586,4.64266 3.93903,6.82873 8.78154,7.66911 5.706,0.99021 11.15514,-1.06411 13.14492,-4.95563 1.53918,-3.01025 1.51842,-2.6851 1.70463,-26.71349 l 0.17433,-22.5 7.88538,-0.08 c 5.21859,-0.0529 8.08995,0.0295 8.4903,0.24375 0.59991,0.32105 0.60408,0.51604 0.50379,23.48 -0.099,22.65513 -0.11517,23.20624 -0.7491,25.4658 -1.38756,4.94605 -3.98676,9.18985 -7.2231,11.79347 -5.06244,4.07269 -14.00703,6.31815 -23.60727,5.92637 z m -259.87677,-0.99495 c -2.33794,-1.71934 -3.87554,-4.32318 -6.8112,-11.53443 -0.94039,-2.31 -2.70864,-6.30017 -3.92943,-8.86705 -2.80358,-5.89487 -3.9499,-9.40428 -5.63793,-17.26033 -2.61726,-12.18067 -2.97896,-15.74666 -2.58656,-25.50089 0.56746,-14.10608 2.0144,-21.86532 9.0208,-48.37434 2.22462,-8.41695 3.08741,-10.90662 4.35604,-12.56989 0.92383,-1.2112 3.08078,-2.65316 4.69005,-3.13538 0.61875,-0.1854 1.125,-0.45073 1.125,-0.58962 0,-0.13888 0.675,-0.25251 1.5,-0.25251 0.825,0 1.5,0.12036 1.5,0.26748 0,0.14711 0.33172,0.35073 0.73715,0.45249 0.42904,0.10768 1.64819,1.27576 2.91684,2.79467 1.19883,1.43531 3.90937,4.40733 6.02341,6.60447 5.47241,5.68754 7.51973,9.10521 8.98473,14.9986 0.48869,1.96587 0.65097,3.50573 0.64099,6.08229 -0.0124,3.19001 -0.13903,3.93607 -1.68104,9.9 -0.91723,3.5475 -3.17065,11.445 -5.00759,17.55 -6.71486,22.31654 -8.55219,31.79197 -9.3074,48.00001 -0.53781,11.54227 -1.10696,15.75442 -2.70638,20.02924 -0.95333,2.54801 -1.8339,2.87129 -3.82748,1.40519 z m 52.48677,-0.64443 c -0.4776,-0.47761 -0.526,-63.56928 -0.0495,-64.45973 0.29722,-0.55535 0.7276,-0.58028 10.02046,-0.58028 l 9.7099,0 0.82287,0.975 c 0.45258,0.53625 5.63259,8.535 11.51113,17.775 6.23576,9.80147 10.87298,16.8 11.13168,16.8 0.38522,0 0.45357,-2.2799 0.52087,-17.37222 0.0545,-12.22293 0.17654,-17.49161 0.41173,-17.775 0.45737,-0.5511 14.3526,-0.59099 14.90081,-0.0428 0.52242,0.52242 0.52242,64.15759 0,64.68001 -0.26116,0.26115 -2.45808,0.36 -8.00138,0.36 -6.58209,0 -7.71487,-0.0665 -8.17152,-0.47978 -0.29158,-0.26387 -6.21608,-9.68012 -13.16556,-20.925 -6.94948,-11.24487 -12.87927,-20.76839 -13.17731,-21.16337 -0.30311,-0.40169 -0.69224,-0.62523 -0.88307,-0.5073 -0.24964,0.15429 -0.34116,5.86353 -0.34116,21.28315 0,15.98956 -0.0868,21.15913 -0.36,21.4323 -0.51133,0.51132 -14.36867,0.51132 -14.88,0 z m 133.8,-0.3 c -0.56826,-0.56826 -0.51735,-64.23595 0.0517,-64.70825 0.29094,-0.24146 2.77719,-0.31824 8.475,-0.26173 l 8.06328,0.08 0.0835,4.125 c 0.0986,4.87352 0.15474,4.92588 2.7138,2.53259 3.65454,-3.41777 6.77364,-5.27942 10.39881,-6.20658 2.67864,-0.68508 7.30851,-0.82643 7.89393,-0.24101 0.2646,0.26461 0.36,2.83851 0.36,9.71327 0,8.0141 -0.0655,9.4076 -0.45726,9.73277 -0.35811,0.29721 -0.89478,0.30765 -2.475,0.0482 -1.10976,-0.18224 -3.09774,-0.4202 -4.41774,-0.52881 -5.01291,-0.41247 -13.12683,1.37851 -13.76364,3.03805 -0.10251,0.2671 -0.18636,9.84606 -0.18636,21.28657 0,11.4405 -0.0819,21.01447 -0.1821,21.27546 -0.15975,0.41632 -1.16457,0.47454 -8.19,0.47454 -5.82837,0 -8.10588,-0.098 -8.3679,-0.36 z"
       id="path4144"
       inkscape:connector-curvature="0" />
    <path
       style="fill:#5d5d5d"
       d="m 267.88019,-142.44883 c -5.35023,-1.28722 -9.47499,-4.5683 -11.8659,-9.43885 -1.58983,-3.23866 -2.10492,-5.36007 -2.29454,-9.45 -0.44666,-9.63389 3.1741,-16.32472 10.87003,-20.08681 4.43406,-2.16756 8.61489,-3.11512 18.59041,-4.21343 3.135,-0.34516 5.95362,-0.70342 6.26361,-0.79614 0.49299,-0.14745 0.54189,-0.3792 0.39015,-1.84934 -0.56931,-5.51607 -4.72545,-7.9882 -13.40376,-7.97273 -4.41313,0.008 -5.89221,0.34004 -12.03603,2.70307 -2.35155,0.90445 -4.61389,1.60417 -5.02742,1.55492 -1.12264,-0.1337 -1.28183,-1.26809 -1.17813,-8.39511 0.0834,-5.73328 0.14138,-6.33016 0.65069,-6.70213 0.68875,-0.50301 4.47991,-1.4052 9.64089,-2.29425 5.25328,-0.90496 16.49898,-0.9909 20.7,-0.15819 10.78722,2.13819 15.73713,6.72358 17.56383,16.27038 0.48948,2.5582 0.77148,47.83293 0.30339,48.70759 -0.3312,0.61886 -0.50832,0.63217 -8.41722,0.63217 -9.38214,0 -8.7,0.26895 -8.7,-3.43028 0,-1.71355 -0.1,-2.26972 -0.40794,-2.26972 -0.22437,0 -1.47312,0.88631 -2.775,1.96958 -4.72944,3.93528 -8.14614,5.26391 -13.91706,5.41185 -2.0625,0.0529 -4.29,-0.0338 -4.95,-0.19258 z m 14.28405,-13.79044 c 2.13813,-0.39903 5.11098,-1.8799 6.58074,-3.27804 l 1.18521,-1.12747 0,-6.69047 0,-6.69048 -2.175,0.18506 c -3.43692,0.29244 -8.97831,1.3191 -10.80136,2.0012 -4.34455,1.6255 -5.7864,3.91688 -5.57688,8.86272 0.0883,2.08341 0.23384,2.64729 1.00324,3.8859 0.52645,0.84748 1.35054,1.68171 1.98547,2.0099 2.02295,1.04563 4.98998,1.36585 7.79858,0.84168 z m 110.51595,13.58097 c -5.11476,-0.20873 -10.95042,-1.54665 -14.7,-3.3702 -6.05805,-2.94624 -9.96414,-8.03448 -11.4069,-14.85918 -0.44871,-2.12245 -0.51234,-5.04669 -0.55023,-25.28591 -0.0376,-20.04692 0.0129,-22.92154 0.40713,-23.17317 0.26535,-0.16939 3.71211,-0.25724 8.4,-0.21409 l 7.95,0.0732 0.16533,22.5 c 0.14052,19.12341 0.23496,22.72511 0.62925,24.00001 1.43586,4.64266 3.93903,6.82873 8.78154,7.66911 5.706,0.99021 11.15514,-1.06411 13.14492,-4.95563 1.53918,-3.01025 1.51842,-2.6851 1.70463,-26.71349 l 0.17433,-22.5 7.88538,-0.08 c 5.21859,-0.0529 8.08995,0.0295 8.4903,0.24375 0.59991,0.32105 0.60408,0.51604 0.50379,23.48 -0.099,22.65513 -0.11517,23.20624 -0.7491,25.4658 -1.38756,4.94605 -3.98676,9.18985 -7.2231,11.79347 -5.06244,4.07269 -14.00703,6.31815 -23.60727,5.92637 z m -207.39,-1.63938 c -0.4776,-0.47761 -0.526,-63.56928 -0.0495,-64.45973 0.29722,-0.55535 0.7276,-0.58028 10.02046,-0.58028 l 9.7099,0 0.82287,0.975 c 0.45258,0.53625 5.63259,8.535 11.51113,17.775 6.23576,9.80147 10.87298,16.8 11.13168,16.8 0.38522,0 0.45357,-2.2799 0.52087,-17.37222 0.0545,-12.22293 0.17654,-17.49161 0.41173,-17.775 0.45737,-0.5511 14.3526,-0.59099 14.90081,-0.0428 0.52242,0.52242 0.52242,64.15759 0,64.68001 -0.26116,0.26115 -2.45808,0.36 -8.00138,0.36 -6.58209,0 -7.71487,-0.0665 -8.17152,-0.47978 -0.29158,-0.26387 -6.21608,-9.68012 -13.16556,-20.925 -6.94948,-11.24487 -12.87927,-20.76839 -13.17731,-21.16337 -0.30311,-0.40169 -0.69224,-0.62523 -0.88307,-0.5073 -0.24964,0.15429 -0.34116,5.86353 -0.34116,21.28315 0,15.98956 -0.0868,21.15913 -0.36,21.4323 -0.51133,0.51132 -14.36867,0.51132 -14.88,0 z m 133.8,-0.3 c -0.56826,-0.56826 -0.51735,-64.23595 0.0517,-64.70825 0.29094,-0.24146 2.77719,-0.31824 8.475,-0.26173 l 8.06328,0.08 0.0835,4.125 c 0.0986,4.87352 0.15474,4.92588 2.7138,2.53259 3.65454,-3.41777 6.77364,-5.27942 10.39881,-6.20658 2.67864,-0.68508 7.30851,-0.82643 7.89393,-0.24101 0.2646,0.26461 0.36,2.83851 0.36,9.71327 0,8.0141 -0.0655,9.4076 -0.45726,9.73277 -0.35811,0.29721 -0.89478,0.30765 -2.475,0.0482 -1.10976,-0.18224 -3.09774,-0.4202 -4.41774,-0.52881 -5.01291,-0.41247 -13.12683,1.37851 -13.76364,3.03805 -0.10251,0.2671 -0.18636,9.84606 -0.18636,21.28657 0,11.4405 -0.0819,21.01447 -0.1821,21.27546 -0.15975,0.41632 -1.16457,0.47454 -8.19,0.47454 -5.82837,0 -8.10588,-0.098 -8.3679,-0.36 z"
       id="path4142"
       inkscape:connector-curvature="0" />
    <path
       style="fill:#000000"
       d="m 268.63019,-142.6448 c -6.57629,-1.0996 -12.25421,-6.63515 -13.94715,-13.59744 -0.82515,-3.39346 -0.90747,-8.10296 -0.2011,-11.50504 1.26606,-6.09775 4.34838,-10.30637 9.50651,-12.98024 4.64694,-2.40888 8.20004,-3.27262 18.29174,-4.44663 8.62122,-1.00294 7.95,-0.80328 7.95,-2.3648 0,-3.74357 -2.18592,-6.78324 -5.71692,-7.94981 -3.77832,-1.24828 -8.50091,-1.55735 -12.58308,-0.82352 -1.2375,0.22246 -4.5015,1.24843 -7.25332,2.27995 -2.75183,1.03151 -5.20391,1.7985 -5.44905,1.70443 -0.63741,-0.24459 -0.8706,-3.0366 -0.74969,-8.97599 0.0807,-3.96392 0.19627,-5.10471 0.55206,-5.44907 0.2475,-0.23955 2.0025,-0.77686 3.9,-1.19401 10.98428,-2.41482 21.34821,-2.58838 29.53476,-0.49462 7.23726,1.85099 11.93022,6.47252 13.51602,13.31036 0.26019,1.12193 0.59919,4.0882 0.75333,6.59171 0.39468,6.41092 0.38244,42.97957 -0.0147,43.72156 -0.29475,0.55078 -0.70563,0.58028 -8.0823,0.58028 -5.89149,0 -7.82883,-0.0907 -8.00778,-0.375 -0.12984,-0.20625 -0.30654,-1.51181 -0.3927,-2.90125 -0.0937,-1.51023 -0.29553,-2.57202 -0.50193,-2.64008 -0.18987,-0.0626 -1.06737,0.49799 -1.95,1.2458 -4.11831,3.48929 -7.30395,5.20527 -11.13082,5.99573 -2.1092,0.43567 -6.20255,0.57223 -8.02391,0.26768 z m 14.06646,-13.31105 c 2.06748,-0.47663 4.36446,-1.68815 6.0162,-3.17322 l 1.51734,-1.36422 0,-6.85449 c 0,-3.81332 -0.12159,-6.92964 -0.27405,-7.02387 -0.32457,-0.20059 -8.05503,0.87553 -10.77123,1.49941 -4.11029,0.94409 -6.75389,2.83333 -7.6923,5.49727 -0.53227,1.51102 -0.61102,5.34012 -0.14438,7.02048 0.36663,1.32023 1.79338,3.05217 3.04941,3.70169 1.81279,0.93743 5.80253,1.27249 8.29901,0.69695 z m 105.03354,12.47381 c -4.16871,-0.70931 -6.43515,-1.39883 -9.6,-2.92065 -2.69592,-1.29634 -3.50016,-1.8657 -5.57916,-3.94984 -1.91118,-1.91589 -2.69418,-2.97891 -3.67203,-4.98515 -1.80495,-3.70327 -2.15097,-5.38621 -2.40567,-11.7 -0.35079,-8.69589 -0.25005,-41.6131 0.12849,-41.99165 0.21282,-0.21281 2.90388,-0.29207 8.09856,-0.23853 l 7.77981,0.0802 0.15279,22.5 c 0.15207,22.39687 0.15588,22.50923 0.83313,24.51237 1.67019,4.93992 5.57043,7.43764 11.61408,7.43764 6.04641,0 9.95751,-2.50628 11.60667,-7.43764 0.66711,-1.99482 0.67437,-2.20852 0.83316,-24.51237 l 0.16017,-22.5 8.17266,-0.0615 8.17266,-0.0615 0.18471,0.7359 c 0.10158,0.40474 0.13638,10.81618 0.0773,23.13653 -0.0842,17.57695 -0.18813,22.42755 -0.48237,22.52563 -0.20625,0.0687 -0.375,0.46508 -0.375,0.88074 0,1.39166 -1.82154,6.2218 -3.1536,8.36235 -4.46649,7.17738 -12.9381,10.6786 -25.6464,10.59938 -2.5575,-0.0159 -5.6625,-0.20126 -6.9,-0.41183 z m -202.13472,-1.11037 c -0.52716,-0.52715 -0.53235,-63.55821 -0.005,-64.08528 0.26461,-0.26461 2.83928,-0.36 9.71677,-0.36 8.48269,0 9.4128,0.049 9.95661,0.525 0.32992,0.28875 5.56042,8.33242 11.62334,17.87481 6.06292,9.54239 11.22156,17.42581 11.46366,17.51871 0.2421,0.0929 0.55948,-0.0195 0.7053,-0.2498 0.14583,-0.23029 0.2672,-8.18797 0.26973,-17.68372 0.003,-13.02312 0.093,-17.35345 0.36459,-17.625 0.51069,-0.51069 13.76931,-0.51069 14.28,0 0.52239,0.52239 0.52239,63.55762 0,64.08001 -0.52342,0.52342 -14.93216,0.50957 -15.60959,-0.015 -0.26635,-0.20625 -5.98178,-9.28248 -12.70096,-20.16941 -15.05916,-24.39998 -13.94085,-22.67954 -14.67945,-22.58356 -0.59209,0.0769 -0.60198,0.36071 -0.75,21.52797 l -0.15,21.45 -7.05972,0.0803 c -5.23896,0.0596 -7.15394,-0.0139 -7.425,-0.285 z m 133.57491,-0.31536 c -0.0796,-0.20895 -0.10998,-14.75741 -0.0675,-32.32992 l 0.0773,-31.95 8.1,0 8.1,0 0.0835,4.125 c 0.0825,4.07881 0.0912,4.125 0.77271,4.125 0.37908,0 1.01652,-0.35137 1.41654,-0.78083 2.51175,-2.69668 6.84984,-5.50604 10.47594,-6.78428 2.1012,-0.7407 7.57098,-1.09955 8.24415,-0.54087 0.3915,0.32493 0.4572,1.70793 0.4572,9.62501 0,5.69203 -0.11259,9.31515 -0.29295,9.42662 -0.16113,0.0996 -1.69722,-0.0274 -3.41352,-0.28229 -5.2296,-0.77652 -9.4878,-0.47221 -14.33298,1.02431 -3.41622,1.05516 -3.08838,-1.27934 -3.26055,23.21871 l -0.15,21.34363 -8.03253,0.0799 c -6.26415,0.0623 -8.06439,-0.004 -8.17728,-0.3 z"
       id="path4140"
       inkscape:connector-curvature="0" />
  </g>
</svg>
