<?xml version="1.0" encoding="UTF-8" standalone="no"?>
<!DOCTYPE svg PUBLIC "-//W3C//DTD SVG 1.1//EN" "http://www.w3.org/Graphics/SVG/1.1/DTD/svg11.dtd">
<svg width="100%" height="100%" viewBox="0 0 612 268" version="1.1" xmlns="http://www.w3.org/2000/svg" xmlns:xlink="http://www.w3.org/1999/xlink" xml:space="preserve" xmlns:serif="http://www.serif.com/">
    <g transform="matrix(5.14082,0,0,5.14082,-147.288,-199.077)">
        <g transform="matrix(1,0,0,1,53.8994,38.7248)">
            <path d="M0,52.276L1.842,52.276C2.838,50.651 2.688,49.795 2.945,48.669C2.951,48.63 2.963,48.587 2.977,48.55L3.105,48.201L4.572,48.008C6.106,51.342 4.897,48.98 6.641,51.644L8.52,51.187C9.106,47.88 8.575,48.795 8.607,46.888L10.202,46.281C10.385,46.755 11.122,47.586 11.441,47.924C12.928,49.517 13.25,49.327 14.711,48.254C14.666,46.507 14.289,45.506 13.679,44.215C14.005,43.889 14.484,43.695 14.813,43.22C15.447,43.471 15.881,44.055 16.985,44.606C18.126,45.181 18.521,45.528 19.365,44.669C20.612,43.401 18.826,41.517 17.919,40.318C18.06,39.987 18.675,39.203 18.869,38.947C20.38,39.403 20.783,39.894 22.798,39.963C23.385,39.696 23.762,38.947 23.805,38.23C23.589,37.261 21.426,35.708 21.025,35.309L21.535,33.879C25.219,34.111 25.973,34.679 26.264,31.949C25.328,31.125 24.279,30.414 22.67,29.908L22.889,28.312C24.691,27.846 25.361,28.103 26.966,27.137L26.966,25.297C26.03,24.76 25.139,24.429 23.971,24.273L22.994,24.094C22.971,24.047 22.91,24.072 22.877,24.052C22.499,21.808 22.678,22.752 24.67,21.621C25.402,21.205 25.714,20.839 26.272,20.452C26.242,20.064 26.187,19.759 26.088,19.381C26.072,19.331 25.978,19.019 25.951,18.952C25.441,17.805 22.686,18.38 21.631,18.546L21.015,16.958C21.973,16.418 22.641,15.8 23.243,15.044C24.447,13.533 23.589,13.85 23.127,12.45C21.586,12.419 20.186,12.772 19.034,13.437C18.73,13.194 18.144,12.454 17.963,12.095C18.393,11.63 19.002,10.81 19.38,10.07C19.99,8.888 20.176,8.612 19.443,7.808C17.945,6.16 16.26,8.655 15.011,9.155C14.49,8.763 14.301,8.552 13.721,8.253C13.955,7.139 14.786,6.408 14.746,4.012C13.479,3.359 13.329,2.792 12.078,3.88C10.947,4.857 10.631,5.602 10.143,6.058L8.575,5.475C8.969,2.397 9.521,0.924 6.578,0.77C6.246,1.281 5.87,1.744 5.459,2.405C5.057,3.059 4.945,3.7 4.58,4.348L2.961,4.118C2.509,2.015 2.723,1.853 1.768,0L0.013,0C-0.732,1.594 -0.992,2.012 -1.166,4.139L-2.93,4.33C-3.113,3.365 -4.382,0.737 -5.221,0.762C-5.658,0.773 -6.383,1.038 -6.707,1.194C-7.36,2.4 -6.972,4.061 -6.841,5.411L-8.438,6.063C-11.52,2.272 -10.996,3.162 -13.006,3.937C-13.016,5.588 -12.676,6.888 -12.018,8.063C-12.181,8.305 -12.906,8.907 -13.236,9.112C-13.835,8.473 -15.625,7.268 -16.974,7.111L-18.194,8.328C-17.831,9.87 -16.969,11.107 -16.156,11.943C-16.301,12.317 -16.986,13.17 -17.238,13.38C-18.676,12.761 -19.465,12.379 -21.295,12.374C-22.018,13.696 -22.563,13.692 -21.439,15.044C-20.301,16.415 -19.88,16.313 -19.241,16.99L-19.86,18.475C-21.161,18.322 -22.939,17.916 -24.076,18.629C-24.351,19.223 -24.488,19.74 -24.49,20.458C-24.152,20.663 -24.055,20.816 -23.719,21.072C-22.545,21.966 -21.516,22.111 -20.918,22.525L-21.196,24.122C-22.359,24.202 -23.232,24.362 -24.212,24.73C-25.509,25.205 -25.242,25.344 -25.193,27.156C-24.613,27.342 -24.082,27.652 -23.396,27.846C-21.322,28.438 -21.187,27.617 -21.007,29.072C-20.968,29.364 -20.945,29.612 -20.91,29.881C-22.997,31.019 -21.703,29.901 -24.495,31.922C-24.46,32.607 -24.315,33.206 -24.049,33.786C-22.916,34.415 -21.131,34.033 -19.831,33.903L-19.218,35.46C-19.613,35.653 -20.137,36.114 -20.484,36.375C-21.005,36.767 -21.095,36.974 -21.484,37.474C-22.18,38.367 -22.383,38.463 -21.133,39.987C-19.705,40.004 -18.271,39.633 -17.243,38.968C-17.02,39.16 -16.318,39.991 -16.144,40.318C-16.751,41.292 -17.672,41.97 -18.13,43.933C-17.809,44.444 -17.336,44.924 -16.822,45.252C-16.045,45.044 -15.377,44.757 -14.807,44.423C-14.102,44.019 -13.741,43.618 -13.211,43.282C-12.77,43.529 -12.189,43.986 -11.879,44.351C-12.248,45.111 -12.563,45.915 -12.744,46.888C-13.006,48.296 -12.979,48.401 -11.879,49.003C-10.869,49.56 -9.825,48.231 -8.942,47.227C-8.638,46.883 -8.504,46.6 -8.205,46.359L-6.816,46.991C-6.908,48.035 -7.533,50.703 -6.35,51.255L-4.857,51.577C-4.646,51.267 -4.43,51.104 -4.181,50.737C-3.215,49.336 -3.157,48.554 -2.782,48.008C-1.26,48.209 -1.293,48.055 -1.122,48.539C-0.902,49.154 -1.195,50.017 0,52.276M11.398,13.573C10.899,13.428 10.309,12.924 9.88,12.637C5.863,10.003 1.203,9.227 -3.535,10.512C-4.836,10.862 -5.854,11.338 -6.98,11.926C-10.211,13.603 -8.906,14.484 -11.105,12.221C-12.734,10.54 -12.805,10.547 -11.535,9.601C-6.972,6.196 -1,4.462 5.459,5.947C8.041,6.542 11.769,8.249 13.654,9.84C14.297,10.381 14.25,10.646 13.754,11.257C13.419,11.669 11.826,13.403 11.398,13.573M-2.088,21.017C-2.718,21.356 -3.949,20.512 -4.623,20.189L-9.289,17.908C-10.32,17.408 -11.652,17.423 -9.338,15.418C-9,15.123 -8.723,14.975 -8.389,14.693C-6.835,13.38 -2.758,11.268 -1.244,11.646C-1.053,12.521 -1.507,17.444 -1.63,18.959C-1.717,20.036 -1.57,20.596 -2.088,21.017M5.045,11.918C7.2,12.568 8.634,13.431 10.182,14.693C11,15.357 12.299,16.036 12.371,17.16C11.693,17.695 9.064,18.806 8.031,19.298C6.463,20.048 4.568,21.361 3.627,20.871C3.301,19.961 3.187,16.392 3.105,15.158C2.85,11.243 2.354,11.109 5.045,11.918M-19.85,25.86C-19.85,22.401 -18.584,18.232 -17.039,15.772C-14.1,11.077 -13.961,11.65 -12.434,13.265C-10.508,15.296 -10.58,14.461 -12.604,17.16C-13.193,17.944 -13.529,18.551 -13.99,19.519C-15.806,23.334 -15.367,26.238 -15.049,30.029C-15.671,30.561 -17.989,31.371 -19.071,31.266C-19.711,30.015 -19.85,27.479 -19.85,25.86M17.126,25.579C17.126,22.006 15.709,18.881 14.133,16.731C12.736,14.823 12.158,15.327 14.02,13.466C15.953,11.528 15.566,11.511 17.072,13.233C18.71,15.106 20.22,18.023 21.015,21.108C21.614,23.442 22.053,29.406 20.867,31.262C19.842,31.394 17.427,30.541 16.77,30.022C16.906,28.604 17.126,26.979 17.126,25.579M-12.97,31.558C-13.548,30.428 -13.958,27.543 -13.926,25.998C-13.897,24.563 -13.593,21.463 -12.783,20.756C-12.114,20.891 -7.165,24.451 -5.745,25.352C-5.418,25.557 -5.031,25.688 -5.088,26.247C-5.141,26.83 -6.256,27.384 -6.855,27.768L-10.805,30.486C-11.375,30.9 -12.227,31.601 -12.97,31.558M15.672,26.136C15.672,27.721 15.436,29.068 15.07,30.511C14.635,32.209 14.471,31.673 12.446,30.365L7.234,26.821C6.633,26.388 6.659,25.856 7.337,25.415L13.967,20.908C14.836,20.439 14.846,20.966 15.063,21.774C15.455,23.243 15.672,24.543 15.672,26.136M0.096,21.061C3.115,20.546 5.572,22.889 5.982,25.438C6.453,28.375 4.194,30.905 1.703,31.306C-5.027,32.394 -6.772,22.239 0.096,21.061M-18.443,33.367C-17.842,32.721 -16.646,32.491 -15.68,32.15C-14.041,31.571 -14.246,32.356 -13.66,33.54C-11.042,38.802 -5.111,42.79 1.416,42.458C3.968,42.333 5.888,41.856 7.906,40.868C9.746,39.967 11.533,38.664 12.619,37.513C13.887,36.165 15.011,34.415 15.794,32.619C16.339,31.381 17.182,32.071 18.406,32.481C19.877,32.97 20.635,32.83 19.859,34.466C16.193,42.251 9.084,47.177 0.135,46.948C-6.115,46.789 -12.492,43.215 -15.695,38.632C-16.361,37.675 -18.359,34.806 -18.443,33.367M-10.539,35.29C-10.215,34.94 -3.609,31.696 -2.806,31.388C-1.26,30.801 -1.561,32.986 -1.36,35.531C-1.289,36.437 -1.212,37.364 -1.158,38.238C-1.122,38.747 -1.08,39.241 -1.039,39.751C-1.017,40.09 -0.969,40.567 -1.237,40.763C-2.313,41.567 -10.119,37.382 -10.539,35.29M3.066,40.574C2.619,39.909 3.169,36.29 3.248,35.239C3.434,32.842 3.173,30.692 4.697,31.301L12.389,35.114C12.331,36.205 9.363,38.294 8.496,38.805C7.738,39.251 4.371,40.882 3.37,40.713C3.018,40.65 3.262,40.736 3.066,40.574" />
        </g>
        <g transform="matrix(1,0,0,1,53.6748,69.142)">
            <path d="M0,-8.75C-1.385,-8.411 -2.117,-7.792 -2.777,-6.854C-5.074,-3.61 -2.237,1.493 2.296,0.302C8.007,-1.191 6.088,-10.243 0,-8.75M0.17,-7.114L0.32,-8.009C2.307,-8.004 1.68,-8.03 1.859,-7.598C1.859,-7.598 1.82,-7.39 2.111,-7.142C2.426,-6.874 3.967,-6.503 4.203,-4.664C4.437,-2.854 3.232,-1.475 1.82,-1.168C-1.809,-0.38 -3.61,-5.621 0.17,-7.114" />
        </g>
        <g transform="matrix(1,0,0,1,37.999,76.6129)">
            <path d="M0,-0.572C0.182,-0.074 0.036,-0.379 0.322,0.058C0.954,-0.253 1.394,-0.678 1.967,-0.935C1.449,1.214 0.855,0.946 1.719,1.713C1.924,1.599 2.801,0.859 3.019,0.672C3.968,-0.147 4.305,-0.198 4.142,-0.551C3.752,-1.013 3.685,-0.864 3.274,-0.473C2.908,-0.114 2.861,-0.045 2.404,0.276C2.837,-1.633 3.452,-1.566 2.691,-2.285L0,-0.572Z" />
        </g>
        <g transform="matrix(1,0,0,1,52.9229,81.3824)">
            <path d="M0,3.656C0.211,3.214 0.217,2.489 0.276,1.962C0.308,1.666 0.361,1.334 0.385,1.046C0.398,0.905 0.41,0.774 0.385,0.604C0.334,0.253 0.418,0.514 0.28,0.313C-0.697,0.408 -0.016,0.79 -0.42,2.083C-1.303,1.172 -0.602,0.191 -2.006,0C-2.321,1.962 -3.196,3.47 -2.246,3.324C-1.614,3.229 -2.078,2.315 -1.531,1.543C-1.383,1.98 -1.183,2.379 -0.988,2.815C-0.714,3.458 -0.805,3.62 0,3.656" />
        </g>
        <g transform="matrix(1,0,0,1,67.792,79.8079)">
            <path d="M0,-1.874C-1.051,-3.099 -0.855,-3.039 -1.453,-2.782C-1.4,-2.254 -1.518,-2.426 -1.038,-1.951C-0.659,-1.577 -0.574,-1.636 -0.359,-1.167C-1.613,-1.375 -1.809,-1.892 -2.934,-1.501L-0.92,1.225L-0.466,0.812C-0.765,0.331 -1.346,-0.193 -1.488,-0.697C0.516,-0.186 0.346,0.193 1.178,-0.567C0.894,-0.755 0.305,-1.52 0,-1.874" />
        </g>
        <g transform="matrix(1,0,0,1,45.6016,46.8715)">
            <path d="M0,3.728C0.329,3.61 0.509,3.492 0.751,3.353L0.201,2.256C1.703,1.758 0.759,3.071 2.376,2.574C2.136,2.1 1.741,1.856 1.333,1.718C1.354,0.522 1.344,0.77 0.712,0.056C-0.425,0 -0.584,0.517 -1.47,0.827L0,3.728ZM0.358,0.662C0.559,0.899 0.511,0.799 0.638,1.171C0.417,1.608 0.294,1.648 -0.225,1.77L-0.517,1.025L0.358,0.662Z" />
        </g>
        <g transform="matrix(1,0,0,1,58.5488,45.9567)">
            <path d="M0,2.488L0.636,2.59C0.974,2.301 0.812,1.9 1.187,1.545C2.474,1.893 1.069,3.066 2.526,3.165L2.338,1.719C3.031,1.449 3.859,0.162 1.985,-0.389C1.608,-0.503 1.296,-0.595 0.923,-0.677L0,2.488ZM1.452,0.095L2.411,0.56L2.224,1.034C1.751,1.183 1.778,1.096 1.238,0.896L1.452,0.095Z" />
        </g>
        <g transform="matrix(1,0,0,1,49.0996,81.795)">
            <path d="M0,1.138C0.134,0.995 0.074,1.062 0.247,0.916C1.729,-0.341 0.213,-1.076 -1.19,-1.38L-2.409,1.667L-1.874,1.82C-1.522,1.398 -1.556,0.995 -1.181,0.646C-0.165,1.059 -0.854,1.339 -0.552,2.348L0.094,2.518L0,1.138ZM0.063,0.294C-0.464,0.35 -0.626,0.279 -1.034,0.052L-0.765,-0.556C0.028,-0.446 0.286,-0.398 0.063,0.294" />
        </g>
        <g transform="matrix(1,0,0,1,61.9814,81.136)">
            <path d="M0,0.13C0.132,2.286 3.343,2.195 3.291,0C3.238,-2.156 -0.131,-2.054 0,0.13M1.186,-0.782C2.371,-1.682 3.291,0.394 2.184,0.946C1.525,1.276 0.949,0.966 0.723,0.49C0.289,-0.424 1.147,-0.756 1.186,-0.782" />
        </g>
        <g transform="matrix(1,0,0,1,49.3525,48.5008)">
            <path d="M0,-2.997C-0.926,-2.827 -1.52,-2.303 -1.392,-1.188C-1.289,-0.277 -0.617,0.378 0.475,0.207C2.641,-0.132 2.067,-3.375 0,-2.997M-0.275,-2.255C0.937,-3.032 1.769,-1.232 0.82,-0.565C-0.264,0.194 -1.576,-1.428 -0.275,-2.255" />
        </g>
        <g transform="matrix(1,0,0,1,53.7822,81.8916)">
            <path d="M0,3.142C1.185,3.268 0.381,3.21 0.949,2.597L2.246,2.58C2.476,3.225 2.252,3.118 3.104,3.068L1.845,-0.126L1.044,-0.101L0,3.142ZM1.484,0.817L1.885,1.967L1.039,1.983L1.484,0.817Z" />
        </g>
        <g transform="matrix(1,0,0,1,54.7686,45.0788)">
            <path d="M0,2.903C0.691,2.887 0.562,2.808 0.936,2.379L2.188,2.444C2.535,3.018 2.202,3.22 3.103,3.077L2.206,-0.258L1.51,-0.317C1.203,0.053 0.025,2.419 0,2.903M1.216,1.818C1.284,1.319 1.488,1.1 1.729,0.658C1.972,1.044 1.996,1.367 2.126,1.849L1.216,1.818Z" />
        </g>
        <g transform="matrix(1,0,0,1,67.6553,78.0944)">
            <path d="M0,-2.408C0.145,-1.931 1.428,0.247 1.773,0.615C1.989,0.448 2.014,0.412 2.199,0.236C2.078,-0.123 2.038,-0.072 1.93,-0.485C2.221,-0.733 2.438,-1.096 2.572,-1.22C3.028,-1.621 2.869,-1.238 3.537,-1.332L3.674,-1.746C3.301,-1.998 2.342,-2.243 1.829,-2.411C0.711,-2.786 0.815,-3.023 0,-2.408M0.975,-2.023L2.096,-1.683C2.07,-1.631 1.926,-1.332 1.916,-1.317C1.612,-0.9 1.802,-1.131 1.475,-0.96C1.307,-1.451 1.139,-1.534 0.975,-2.023" />
        </g>
        <g transform="matrix(1,0,0,1,45.5576,81.9373)">
            <path d="M0,-2.059C0.398,-1.921 0.98,-1.601 1.328,-1.427L1.631,-1.9C0.98,-2.255 0.354,-2.666 -0.268,-3.012L-2.078,-0.254C-1.399,0.101 -0.727,0.661 -0.018,0.953L0.259,0.46L-1.119,-0.39C-0.99,-0.765 -1.029,-0.699 -0.697,-1.033C-0.047,-0.758 0.027,-0.367 0.553,-0.796C0.361,-1.23 -0.047,-1.369 -0.348,-1.609L0,-2.059Z" />
        </g>
        <g transform="matrix(1,0,0,1,44.1504,79.0805)">
            <path d="M0,-1.129C-0.524,-1.575 -1.038,-2 -1.518,-2.346L-1.868,-2C-1.673,-1.669 -1.518,-1.562 -1.216,-1.29C-1.833,-0.186 -2.633,0.207 -2.925,0.889L-2.298,1.217L-0.683,-0.745C-0.327,-0.574 0,-0.222 0.28,-0.358C0.841,-0.62 0.184,-0.974 0,-1.129" />
        </g>
        <g transform="matrix(1,0,0,1,63.6221,48.4281)">
            <path d="M0,-0.418C-0.301,-1.556 0.138,-1.758 -0.979,-2.077C-0.915,-1.568 -0.63,-0.57 -0.67,-0.123C-0.722,0.457 -1.159,0.751 -1.274,1.414L-0.809,1.659C-0.25,1.214 -0.344,0.626 0.221,0.241C0.365,0.136 0.857,-0.08 1.051,-0.161L1.898,-0.717C0.707,-1.136 1.088,-0.696 0,-0.418" />
        </g>
        <g transform="matrix(1,0,0,1,51.5518,47.8641)">
            <path d="M0,-2.605C0.246,-2.123 0.433,-2.4 1.059,-2.423C1.552,0.483 0.953,0.224 1.926,0.178L2.004,-0.014C2.154,-0.843 1.994,0.662 2.041,-0.218L1.858,-1.889C1.793,-2.549 1.682,-2.388 2.119,-2.513C2.765,-2.698 2.832,-2.227 2.836,-3.022C2.482,-3.267 1.812,-3.096 1.348,-3.053C-0.378,-2.893 0.109,-2.983 0,-2.605" />
        </g>
        <g transform="matrix(1,0,0,1,58.499,83.981)">
            <path d="M0,-1.988C0.66,-2.136 0.9,-1.974 0.904,-2.564C0.682,-2.777 0.927,-2.675 0.553,-2.694L-1.43,-2.326C-1.962,-2.139 -1.77,-2.467 -1.759,-1.879C-1.43,-1.608 -1.184,-1.773 -0.682,-1.809L-0.15,0.789L0.48,0.721L0,-1.988Z" />
        </g>
        <g transform="matrix(1,0,0,1,71.6914,74.2323)">
            <path d="M0,0.457L-2.151,-0.675C-2.177,-0.678 -2.223,-0.683 -2.247,-0.686L-2.601,-0.327C-2.349,0.047 -0.028,1.237 0.292,1.344C0.753,0.04 1.622,-0.226 0.998,-0.887C0.296,-0.524 0.709,-0.277 0,0.457" />
        </g>
        <g transform="matrix(1,0,0,1,61.2725,80.7463)">
            <path d="M0,3.278L0.533,3.022C0.422,2.423 -0.24,0.33 -0.562,0L-1.107,0.138C-1.084,0.637 -0.272,2.96 0,3.278" />
        </g>
        <g transform="matrix(1,0,0,1,37.2295,73.675)">
            <path d="M0,1.195L0.186,1.679C0.798,1.498 1.209,1.175 1.741,0.869C1.965,0.742 2.163,0.627 2.443,0.462L3.072,-0.054L2.881,-0.484C2.4,-0.45 1.809,-0.007 1.389,0.234C0.951,0.487 0.197,0.813 0,1.195" />
        </g>
        <g transform="matrix(1,0,0,1,86.4831,57.5482)">
            <path d="M0,-0.864L0.731,-0.864C1.658,-0.864 2.207,-1.328 2.207,-2.048C2.207,-2.803 1.695,-3.182 0.842,-3.194C0.391,-3.194 0.135,-3.157 0,-3.133L0,-0.864ZM-1.842,-4.401C-1.244,-4.498 -0.354,-4.572 0.635,-4.572C1.854,-4.572 2.707,-4.389 3.293,-3.926C3.781,-3.535 4.049,-2.962 4.049,-2.206C4.049,-1.157 3.305,-0.438 2.598,-0.181L2.598,-0.145C3.17,0.086 3.488,0.635 3.694,1.391C3.951,2.318 4.207,3.391 4.365,3.708L2.463,3.708C2.329,3.476 2.135,2.806 1.891,1.794C1.67,0.769 1.317,0.489 0.561,0.476L0,0.476L0,3.708L-1.842,3.708L-1.842,-4.401Z" style=";fill-rule:nonzero;"/>
        </g>
        <g transform="matrix(1,0,0,1,93.3844,58.2817)">
            <path d="M0,-0.013C0,1.012 0.427,1.78 1.22,1.78C1.938,1.78 2.402,1.06 2.402,-0.013C2.402,-0.903 2.061,-1.805 1.22,-1.805C0.329,-1.805 0,-0.89 0,-0.013M4.317,-0.074C4.317,2.109 2.769,3.109 1.171,3.109C-0.573,3.109 -1.915,1.963 -1.915,0.035C-1.915,-1.891 -0.646,-3.122 1.269,-3.122C3.097,-3.122 4.317,-1.866 4.317,-0.074" style=";fill-rule:nonzero;"/>
        </g>
        <g transform="matrix(1,0,0,1,100.921,61.3776)">
            <path d="M0,-7.792L0,-6.084L1.328,-6.084L1.328,-4.719L0,-4.719L0,-2.56C0,-1.841 0.17,-1.511 0.73,-1.511C0.963,-1.511 1.146,-1.535 1.279,-1.56L1.291,-0.158C1.048,-0.06 0.609,0 0.084,0C-0.514,0 -1.013,-0.206 -1.307,-0.512C-1.647,-0.865 -1.818,-1.438 -1.818,-2.28L-1.818,-4.719L-2.611,-4.719L-2.611,-6.084L-1.818,-6.084L-1.818,-7.377L0,-7.792Z" style=";fill-rule:nonzero;"/>
        </g>
        <g transform="matrix(1,0,0,1,106.492,58.1106)">
            <path d="M0,0.329C-0.976,0.317 -1.731,0.548 -1.731,1.267C-1.731,1.744 -1.415,1.975 -1.001,1.975C-0.536,1.975 -0.158,1.67 -0.036,1.292C-0.013,1.195 0,1.085 0,0.975L0,0.329ZM0.22,3.145L0.109,2.548L0.073,2.548C-0.317,3.024 -0.927,3.28 -1.634,3.28C-2.842,3.28 -3.561,2.402 -3.561,1.451C-3.561,-0.098 -2.171,-0.841 -0.061,-0.829L-0.061,-0.915C-0.061,-1.232 -0.231,-1.683 -1.146,-1.683C-1.757,-1.683 -2.402,-1.476 -2.793,-1.232L-3.134,-2.427C-2.72,-2.659 -1.903,-2.951 -0.817,-2.951C1.171,-2.951 1.805,-1.78 1.805,-0.379L1.805,1.695C1.805,2.268 1.829,2.817 1.89,3.145L0.22,3.145Z" style=";fill-rule:nonzero;"/>
        </g>
        <g transform="matrix(1,0,0,1,109.76,59.1579)">
            <path d="M0,-1.901C0,-2.779 -0.025,-3.353 -0.05,-3.864L1.547,-3.864L1.608,-2.767L1.657,-2.767C1.962,-3.633 2.693,-3.999 3.268,-3.999C3.438,-3.999 3.523,-3.999 3.657,-3.975L3.657,-2.231C3.523,-2.255 3.365,-2.279 3.157,-2.279C2.475,-2.279 2.011,-1.913 1.889,-1.34C1.864,-1.219 1.854,-1.073 1.854,-0.925L1.854,2.098L0,2.098L0,-1.901Z" style=";fill-rule:nonzero;"/>
        </g>
        <g transform="matrix(1,0,0,1,116.003,63.9516)">
            <path d="M0,-8.658L0.891,-5.731C0.987,-5.378 1.109,-4.939 1.182,-4.622L1.219,-4.622C1.305,-4.939 1.402,-5.39 1.487,-5.731L2.219,-8.658L4.207,-8.658L2.816,-4.732C1.963,-2.365 1.39,-1.414 0.719,-0.817C0.072,-0.256 -0.61,-0.06 -1.074,0L-1.465,-1.573C-1.232,-1.61 -0.939,-1.719 -0.659,-1.889C-0.379,-2.037 -0.074,-2.329 0.109,-2.634C0.17,-2.72 0.206,-2.817 0.206,-2.902C0.206,-2.964 0.194,-3.06 0.121,-3.207L-2.062,-8.658L0,-8.658Z" style=";fill-rule:nonzero;"/>
        </g>
        <g transform="matrix(1,0,0,1,129.549,53.257)">
            <path d="M0,7.767C-0.341,7.938 -1.108,8.121 -2.108,8.121C-4.95,8.121 -6.413,6.353 -6.413,4.012C-6.413,1.207 -4.414,-0.354 -1.927,-0.354C-0.963,-0.354 -0.231,-0.159 0.098,0.012L-0.28,1.488C-0.658,1.329 -1.183,1.183 -1.841,1.183C-3.317,1.183 -4.463,2.073 -4.463,3.902C-4.463,5.549 -3.487,6.585 -1.829,6.585C-1.269,6.585 -0.646,6.463 -0.28,6.316L0,7.767Z" style=";fill-rule:nonzero;"/>
        </g>
        <g transform="matrix(1,0,0,1,60.9352,-684.075)">
            <rect x="69.734" y="736.673" width="1.854" height="8.658" />
        </g>
        <g transform="matrix(1,0,0,1,139.645,57.3419)">
            <path d="M0,2C0,2.781 0.023,3.415 0.049,3.914L-1.561,3.914L-1.646,3.074L-1.684,3.074C-1.916,3.438 -2.477,4.048 -3.55,4.048C-4.758,4.048 -5.646,3.292 -5.646,1.451L-5.646,-2.048L-3.781,-2.048L-3.781,1.158C-3.781,2.025 -3.5,2.549 -2.854,2.549C-2.342,2.549 -2.05,2.195 -1.927,1.903C-1.879,1.792 -1.866,1.646 -1.866,1.5L-1.866,-2.048L0,-2.048L0,2Z" style=";fill-rule:nonzero;"/>
        </g>
        <g transform="matrix(1,0,0,1,142.985,55.2683)">
            <path d="M0,3.452C0,3.574 0.012,3.683 0.036,3.781C0.158,4.281 0.585,4.659 1.121,4.659C1.914,4.659 2.402,4.049 2.402,2.976C2.402,2.049 1.987,1.318 1.121,1.318C0.622,1.318 0.158,1.696 0.036,2.232C0.012,2.341 0,2.452 0,2.574L0,3.452ZM-1.902,5.988C-1.878,5.598 -1.854,4.879 -1.854,4.207L-1.854,-2.67L0,-2.67L0,0.732L0.024,0.732C0.378,0.22 1,-0.109 1.829,-0.109C3.256,-0.109 4.305,1.074 4.293,2.904C4.293,5.049 2.926,6.122 1.561,6.122C0.865,6.122 0.195,5.866 -0.232,5.159L-0.257,5.159L-0.33,5.988L-1.902,5.988Z" style=";fill-rule:nonzero;"/>
        </g>
        <g transform="matrix(1,0,0,1,87.0924,73.0548)">
            <path d="M0,-4.228L0,-0.004L0.584,-0.004C1.084,-0.004 1.439,-0.06 1.65,-0.17C1.86,-0.281 2.025,-0.475 2.146,-0.75C2.266,-1.026 2.325,-1.475 2.325,-2.094C2.325,-2.913 2.191,-3.473 1.924,-3.775C1.656,-4.078 1.214,-4.228 0.596,-4.228L0,-4.228ZM-2.39,-5.979L1.16,-5.979C1.859,-5.979 2.424,-5.885 2.855,-5.695C3.285,-5.505 3.641,-5.232 3.923,-4.878C4.204,-4.522 4.408,-4.109 4.535,-3.638C4.661,-3.167 4.725,-2.667 4.725,-2.14C4.725,-1.314 4.63,-0.674 4.442,-0.218C4.254,0.237 3.993,0.618 3.659,0.926C3.325,1.234 2.967,1.439 2.584,1.541C2.06,1.681 1.584,1.751 1.16,1.751L-2.39,1.751L-2.39,-5.979Z" style=";fill-rule:nonzero;"/>
        </g>
        <g transform="matrix(1,0,0,1,95.1608,70.9242)">
            <path d="M0,0.032C0,0.813 0.145,1.374 0.435,1.715C0.725,2.055 1.119,2.226 1.619,2.226C2.132,2.226 2.529,2.059 2.811,1.725C3.092,1.391 3.232,0.792 3.232,-0.072C3.232,-0.801 3.086,-1.333 2.791,-1.668C2.498,-2.005 2.1,-2.172 1.598,-2.172C1.115,-2.172 0.729,-2.002 0.437,-1.66C0.146,-1.32 0,-0.755 0,0.032M-2.389,0.022C-2.389,-1.24 -2.038,-2.223 -1.335,-2.926C-0.632,-3.629 0.348,-3.981 1.602,-3.981C2.889,-3.981 3.881,-3.635 4.576,-2.945C5.273,-2.254 5.621,-1.286 5.621,-0.042C5.621,0.862 5.469,1.603 5.165,2.181C4.86,2.76 4.421,3.21 3.847,3.532C3.271,3.853 2.555,4.013 1.697,4.013C0.826,4.013 0.104,3.875 -0.467,3.597C-1.039,3.32 -1.502,2.88 -1.857,2.28C-2.211,1.678 -2.389,0.925 -2.389,0.022" style=";fill-rule:nonzero;"/>
        </g>
        <g transform="matrix(1,0,0,1,102.085,74.8063)">
            <path d="M0,-7.731L2.23,-7.731L5.141,-3.454L5.141,-7.731L7.393,-7.731L7.393,0L5.141,0L2.246,-4.245L2.246,0L0,0L0,-7.731Z" style=";fill-rule:nonzero;"/>
        </g>
        <g transform="matrix(1,0,0,1,113.153,70.9242)">
            <path d="M0,0.032C0,0.813 0.146,1.374 0.436,1.715C0.725,2.055 1.12,2.226 1.619,2.226C2.133,2.226 2.529,2.059 2.811,1.725C3.092,1.391 3.232,0.792 3.232,-0.072C3.232,-0.801 3.086,-1.333 2.792,-1.668C2.498,-2.005 2.102,-2.172 1.598,-2.172C1.116,-2.172 0.729,-2.002 0.437,-1.66C0.146,-1.32 0,-0.755 0,0.032M-2.389,0.022C-2.389,-1.24 -2.037,-2.223 -1.334,-2.926C-0.631,-3.629 0.348,-3.981 1.604,-3.981C2.89,-3.981 3.881,-3.635 4.578,-2.945C5.273,-2.254 5.621,-1.286 5.621,-0.042C5.621,0.862 5.47,1.603 5.166,2.181C4.861,2.76 4.422,3.21 3.848,3.532C3.272,3.853 2.556,4.013 1.697,4.013C0.826,4.013 0.104,3.875 -0.467,3.597C-1.038,3.32 -1.501,2.88 -1.855,2.28C-2.211,1.678 -2.389,0.925 -2.389,0.022" style=";fill-rule:nonzero;"/>
        </g>
        <g transform="matrix(1,0,0,1,119.645,69.6316)">
            <path d="M0,2.617L2.272,2.474C2.322,2.844 2.422,3.125 2.573,3.318C2.818,3.632 3.171,3.787 3.628,3.787C3.969,3.787 4.232,3.707 4.416,3.548C4.601,3.388 4.693,3.203 4.693,2.992C4.693,2.791 4.605,2.612 4.43,2.454C4.254,2.294 3.846,2.146 3.206,2.005C2.158,1.77 1.412,1.457 0.965,1.067C0.516,0.676 0.29,0.179 0.29,-0.426C0.29,-0.823 0.404,-1.199 0.636,-1.552C0.865,-1.905 1.212,-2.183 1.674,-2.385C2.137,-2.587 2.771,-2.689 3.575,-2.689C4.563,-2.689 5.316,-2.504 5.835,-2.138C6.354,-1.77 6.662,-1.185 6.761,-0.384L4.509,-0.252C4.449,-0.6 4.323,-0.853 4.132,-1.011C3.939,-1.169 3.676,-1.249 3.338,-1.249C3.061,-1.249 2.851,-1.19 2.711,-1.072C2.57,-0.954 2.499,-0.811 2.499,-0.642C2.499,-0.519 2.558,-0.408 2.674,-0.31C2.786,-0.208 3.053,-0.112 3.475,-0.026C4.52,0.2 5.268,0.428 5.719,0.658C6.171,0.888 6.5,1.174 6.705,1.515C6.91,1.855 7.014,2.237 7.014,2.659C7.014,3.155 6.876,3.612 6.602,4.03C6.328,4.449 5.944,4.766 5.453,4.982C4.961,5.198 4.34,5.306 3.591,5.306C2.276,5.306 1.365,5.053 0.859,4.547C0.354,4.04 0.066,3.397 0,2.617" style=";fill-rule:nonzero;"/>
        </g>
        <g transform="matrix(1,0,0,1,127.317,74.8063)">
            <path d="M0,-7.731L7.262,-7.731L7.262,-5.822L4.826,-5.822L4.826,0L2.438,0L2.438,-5.822L0,-5.822L0,-7.731Z" style=";fill-rule:nonzero;"/>
        </g>
        <g transform="matrix(1,0,0,1,60.9352,-656.048)">
            <rect x="74.82" y="723.123" width="2.394" height="7.731" />
        </g>
        <g transform="matrix(1,0,0,1,144.12,70.0245)">
            <path d="M0,1.833L-0.853,-0.946L-1.697,1.833L0,1.833ZM0.496,3.506L-2.216,3.506L-2.592,4.782L-5.032,4.782L-2.126,-2.949L0.48,-2.949L3.385,4.782L0.883,4.782L0.496,3.506Z" style=";fill-rule:nonzero;"/>
        </g>
    </g>
</svg>
