<?xml version="1.0" encoding="UTF-8" standalone="no"?>
<!DOCTYPE svg PUBLIC "-//W3C//DTD SVG 1.1//EN" "http://www.w3.org/Graphics/SVG/1.1/DTD/svg11.dtd">
<svg width="100%" height="100%" viewBox="0 0 2075 425" version="1.1" xmlns="http://www.w3.org/2000/svg" xmlns:xlink="http://www.w3.org/1999/xlink" xml:space="preserve" xmlns:serif="http://www.serif.com/" style="fill-rule:evenodd;clip-rule:evenodd;stroke-linejoin:round;stroke-miterlimit:1.41421;">
    <g transform="matrix(4.16667,0,0,4.16667,-783.317,-1192.44)">
        <rect x="587.036" y="339.226" width="4.325" height="16.936"/>
    </g>
    <g transform="matrix(4.16667,0,0,4.16667,1815.83,220.994)">
        <path d="M0,16.935L0,14.097L5.834,3.8L0,3.8L0,0L10.688,0L10.688,3.502L5.286,13.136L10.688,13.136L10.688,16.935L0,16.935Z" style="fill-rule:nonzero;"/>
    </g>
    <g transform="matrix(4.16667,0,0,4.16667,1907.65,220.994)">
        <path d="M0,16.935L-4.621,9.612L-4.668,9.612L-4.668,16.935L-8.991,16.935L-8.991,0L-4.668,0L-4.668,7.622L-4.621,7.622L0.161,0L4.69,0L-0.916,8.444L5.058,16.935L0,16.935Z" style="fill-rule:nonzero;"/>
    </g>
    <g transform="matrix(4.16667,0,0,4.16667,2039.26,269.623)">
        <path d="M0,-6.408L-0.021,-6.408L-0.068,-6.408L-1.807,-0.617L1.738,-0.617L0,-6.408ZM3.709,5.263L2.883,2.816L-2.998,2.816L-3.888,5.263L-8.534,5.263L-1.738,-11.671L1.672,-11.671L8.399,5.263L3.709,5.263Z" style="fill-rule:nonzero;"/>
    </g>
    <g transform="matrix(4.16667,0,0,4.16667,644.975,297.497)">
        <path d="M0,-2.871C-0.025,-3.915 -0.798,-4.664 -1.854,-4.664C-2.983,-4.664 -3.805,-3.867 -3.805,-2.762C-3.805,-1.915 -3.34,-1.437 -2.086,-1.018C-1.251,-0.734 -1.004,-0.526 -1.004,-0.06C-1.004,0.419 -1.374,0.751 -1.917,0.751C-2.532,0.751 -2.874,0.358 -2.934,-0.368L-4.088,-0.368C-4.062,0.959 -3.242,1.793 -1.966,1.793C-0.822,1.793 0.134,0.9 0.134,-0.156C0.134,-1.141 -0.454,-1.778 -1.706,-2.16C-2.456,-2.393 -2.653,-2.553 -2.653,-2.933C-2.653,-3.34 -2.346,-3.622 -1.901,-3.622C-1.472,-3.622 -1.214,-3.377 -1.141,-2.871L0,-2.871ZM-9.903,-1.814C-9.815,-2.405 -9.706,-2.675 -9.424,-2.995C-9.056,-3.413 -8.479,-3.67 -7.951,-3.67C-6.882,-3.67 -5.985,-2.847 -5.938,-1.814L-9.903,-1.814ZM-6.146,-0.294C-6.538,0.383 -7.153,0.751 -7.879,0.751C-8.859,0.751 -9.656,0.088 -9.903,-0.934L-4.833,-0.934C-4.807,-1.152 -4.795,-1.398 -4.795,-1.522C-4.795,-3.266 -6.196,-4.712 -7.879,-4.712C-9.656,-4.712 -11.057,-3.276 -11.057,-1.448C-11.057,0.322 -9.645,1.793 -7.937,1.793C-6.599,1.793 -5.459,0.984 -4.993,-0.294L-6.146,-0.294ZM-12.54,-3.463L-11.532,-3.463L-11.532,-4.505L-12.54,-4.505L-12.54,-6.556L-13.681,-6.556L-13.681,-4.505L-14.517,-4.505L-14.517,-3.463L-13.681,-3.463L-13.681,1.633L-12.54,1.633L-12.54,-3.463ZM-16.51,1.633L-16.51,-1.718C-16.51,-2.871 -16.043,-3.413 -14.999,-3.487L-14.999,-4.664C-15.735,-4.651 -16.229,-4.42 -16.584,-3.953L-16.584,-4.505L-17.651,-4.505L-17.651,1.633L-16.51,1.633ZM-22.139,-3.622C-20.935,-3.622 -19.962,-2.651 -19.962,-1.459C-19.962,-0.231 -20.935,0.751 -22.127,0.751C-23.329,0.751 -24.299,-0.231 -24.299,-1.459C-24.299,-2.64 -23.329,-3.622 -22.139,-3.622M-22.139,-4.664C-23.967,-4.664 -25.438,-3.228 -25.438,-1.448C-25.438,0.333 -23.956,1.793 -22.127,1.793C-20.308,1.793 -18.823,0.333 -18.823,-1.448C-18.823,-3.24 -20.292,-4.664 -22.139,-4.664M-29.547,-3.622C-28.355,-3.622 -27.398,-2.64 -27.398,-1.424C-27.398,-0.193 -28.317,0.762 -29.474,0.762C-30.628,0.762 -31.562,-0.208 -31.562,-1.424C-31.562,-2.64 -30.652,-3.622 -29.547,-3.622M-32.676,3.685L-31.538,3.685L-31.538,0.751C-31.131,1.4 -30.295,1.805 -29.35,1.805C-27.581,1.805 -26.259,0.432 -26.259,-1.398C-26.259,-3.24 -27.656,-4.664 -29.449,-4.664C-30.37,-4.664 -31.169,-4.26 -31.61,-3.561L-31.61,-4.505L-32.676,-4.505L-32.676,3.685ZM-38.971,-1.814C-38.886,-2.405 -38.775,-2.675 -38.491,-2.995C-38.124,-3.413 -37.545,-3.67 -37.019,-3.67C-35.95,-3.67 -35.056,-2.847 -35.004,-1.814L-38.971,-1.814ZM-35.215,-0.294C-35.608,0.383 -36.219,0.751 -36.945,0.751C-37.929,0.751 -38.725,0.088 -38.971,-0.934L-33.9,-0.934C-33.877,-1.152 -33.864,-1.398 -33.864,-1.522C-33.864,-3.266 -35.263,-4.712 -36.945,-4.712C-38.725,-4.712 -40.124,-3.276 -40.124,-1.448C-40.124,0.322 -38.713,1.793 -37.006,1.793C-35.669,1.793 -34.526,0.984 -34.059,-0.294L-35.215,-0.294ZM-46.664,0.544L-46.664,-5.462L-45.19,-5.462C-43.431,-5.462 -42.203,-4.211 -42.203,-2.419C-42.203,-0.514 -43.446,0.544 -45.693,0.544L-46.664,0.544ZM-47.854,1.633L-45.311,1.633C-43.813,1.633 -42.757,1.252 -42.043,0.457C-41.394,-0.267 -41.017,-1.338 -41.017,-2.419C-41.017,-3.573 -41.457,-4.688 -42.203,-5.462C-42.928,-6.212 -43.813,-6.556 -44.956,-6.556L-47.854,-6.556L-47.854,1.633ZM-51.231,-4.505L-52.472,-4.505L-54.312,0.259L-56.118,-4.505L-57.357,-4.505L-54.914,1.512L-55.81,3.685L-54.62,3.685L-51.231,-4.505ZM-63.877,-3.622C-62.625,-3.622 -61.716,-2.715 -61.716,-1.471C-61.716,-0.22 -62.652,0.751 -63.855,0.751C-65.023,0.751 -65.941,-0.22 -65.941,-1.459C-65.941,-2.688 -65.045,-3.622 -63.877,-3.622M-60.65,1.633L-60.65,-6.556L-61.791,-6.556L-61.791,-3.696C-62.22,-4.247 -63.153,-4.664 -63.979,-4.664C-64.934,-4.664 -65.623,-4.37 -66.225,-3.684C-66.775,-3.058 -67.083,-2.27 -67.083,-1.471C-67.083,0.385 -65.723,1.793 -63.916,1.793C-62.97,1.793 -62.256,1.451 -61.716,0.762L-61.716,1.633L-60.65,1.633ZM-73.696,-4.505L-73.696,-0.734C-73.696,0.777 -72.677,1.793 -71.142,1.793C-70.356,1.793 -69.645,1.475 -69.336,0.984L-69.336,1.633L-68.27,1.633L-68.27,-4.505L-69.411,-4.505L-69.411,-1.163C-69.411,0.039 -70.011,0.751 -71.019,0.751C-72.05,0.751 -72.555,0.126 -72.555,-1.163L-72.555,-4.505L-73.696,-4.505ZM-75.597,-3.463L-74.59,-3.463L-74.59,-4.505L-75.597,-4.505L-75.597,-6.556L-76.736,-6.556L-76.736,-4.505L-77.572,-4.505L-77.572,-3.463L-76.736,-3.463L-76.736,1.633L-75.597,1.633L-75.597,-3.463ZM-78.365,1.633L-78.365,-2.135C-78.365,-3.646 -79.381,-4.664 -80.917,-4.664C-81.703,-4.664 -82.33,-4.382 -82.737,-3.855L-82.737,-4.505L-83.804,-4.505L-83.804,1.633L-82.636,1.633L-82.636,-1.706C-82.636,-2.91 -82.036,-3.622 -81.028,-3.622C-79.995,-3.622 -79.505,-3.007 -79.505,-1.706L-79.505,1.633L-78.365,1.633ZM-90.096,-1.814C-90.009,-2.405 -89.899,-2.675 -89.618,-2.995C-89.25,-3.413 -88.673,-3.67 -88.145,-3.67C-87.075,-3.67 -86.179,-2.847 -86.131,-1.814L-90.096,-1.814ZM-86.339,-0.294C-86.732,0.383 -87.347,0.751 -88.072,0.751C-89.052,0.751 -89.85,0.088 -90.096,-0.934L-85.027,-0.934C-85,-1.152 -84.989,-1.398 -84.989,-1.522C-84.989,-3.266 -86.39,-4.712 -88.072,-4.712C-89.85,-4.712 -91.251,-3.276 -91.251,-1.448C-91.251,0.322 -89.838,1.793 -88.131,1.793C-86.792,1.793 -85.654,0.984 -85.186,-0.294L-86.339,-0.294ZM-91.458,-4.505L-92.687,-4.505L-94.27,-0.107L-95.876,-4.505L-97.107,-4.505L-94.676,1.633L-93.866,1.633L-91.458,-4.505ZM-103.308,-4.505L-103.308,-0.734C-103.308,0.777 -102.291,1.793 -100.756,1.793C-99.968,1.793 -99.256,1.475 -98.949,0.984L-98.949,1.633L-97.881,1.633L-97.881,-4.505L-99.025,-4.505L-99.025,-1.163C-99.025,0.039 -99.624,0.751 -100.631,0.751C-101.664,0.751 -102.168,0.126 -102.168,-1.163L-102.168,-4.505L-103.308,-4.505ZM-104.857,-6.556L-106.046,-6.556L-106.046,-0.574C-106.046,0.162 -106.514,0.689 -107.165,0.689C-107.629,0.689 -107.962,0.457 -108.135,0.003L-109.375,0.003C-109.179,1.033 -108.245,1.793 -107.141,1.793C-105.814,1.793 -104.857,0.848 -104.857,-0.465L-104.857,-6.556ZM-112.692,0.283L-113.831,0.283L-113.831,1.633L-113.428,1.633L-113.428,1.719C-113.428,2.064 -113.539,2.235 -113.831,2.359L-113.831,3.047C-113.048,2.887 -112.692,2.398 -112.692,1.512L-112.692,0.283ZM-118.099,-3.622C-116.896,-3.622 -115.923,-2.651 -115.923,-1.459C-115.923,-0.231 -116.896,0.751 -118.086,0.751C-119.292,0.751 -120.26,-0.231 -120.26,-1.459C-120.26,-2.64 -119.292,-3.622 -118.099,-3.622M-118.099,-4.664C-119.93,-4.664 -121.399,-3.228 -121.399,-1.448C-121.399,0.333 -119.919,1.793 -118.086,1.793C-116.269,1.793 -114.785,0.333 -114.785,-1.448C-114.785,-3.24 -116.256,-4.664 -118.099,-4.664M-122.531,1.633L-122.531,-2.11C-122.531,-3.721 -123.477,-4.664 -125.061,-4.664C-125.995,-4.664 -126.608,-4.345 -127.051,-3.646C-127.346,-4.247 -128.118,-4.664 -128.941,-4.664C-129.753,-4.664 -130.316,-4.406 -130.734,-3.842L-130.734,-4.505L-131.802,-4.505L-131.802,1.633L-130.66,1.633L-130.66,-1.778C-130.66,-2.517 -130.575,-2.847 -130.294,-3.155C-130.022,-3.451 -129.605,-3.622 -129.151,-3.622C-128.646,-3.622 -128.228,-3.413 -127.994,-3.045C-127.788,-2.725 -127.75,-2.553 -127.75,-1.778L-127.75,1.633L-126.608,1.633L-126.608,-1.778C-126.608,-2.492 -126.534,-2.811 -126.289,-3.13C-126.045,-3.436 -125.611,-3.622 -125.135,-3.622C-124.175,-3.622 -123.671,-2.995 -123.671,-1.778L-123.671,1.633L-122.531,1.633ZM-133.166,-2.871C-133.19,-3.915 -133.962,-4.664 -135.02,-4.664C-136.149,-4.664 -136.972,-3.867 -136.972,-2.762C-136.972,-1.915 -136.504,-1.437 -135.253,-1.018C-134.418,-0.734 -134.17,-0.526 -134.17,-0.06C-134.17,0.419 -134.54,0.751 -135.083,0.751C-135.697,0.751 -136.04,0.358 -136.1,-0.368L-137.254,-0.368C-137.229,0.959 -136.408,1.793 -135.13,1.793C-133.987,1.793 -133.03,0.9 -133.03,-0.156C-133.03,-1.141 -133.621,-1.778 -134.872,-2.16C-135.622,-2.393 -135.819,-2.553 -135.819,-2.933C-135.819,-3.34 -135.512,-3.622 -135.067,-3.622C-134.638,-3.622 -134.38,-3.377 -134.306,-2.871L-133.166,-2.871ZM-138.368,-6.556L-139.509,-6.556L-139.509,-5.206L-138.368,-5.206L-138.368,-6.556ZM-138.368,-4.507L-139.509,-4.507L-139.509,1.633L-138.368,1.633L-138.368,-4.507ZM-141.873,1.633L-141.873,-1.718C-141.873,-2.871 -141.406,-3.413 -140.361,-3.487L-140.361,-4.664C-141.1,-4.651 -141.592,-4.42 -141.949,-3.953L-141.949,-4.505L-143.016,-4.505L-143.016,1.633L-141.873,1.633ZM-149.977,-4.505L-149.977,-0.734C-149.977,0.777 -148.957,1.793 -147.423,1.793C-146.635,1.793 -145.925,1.475 -145.617,0.984L-145.617,1.633L-144.55,1.633L-144.55,-4.505L-145.689,-4.505L-145.689,-1.163C-145.689,0.039 -146.292,0.751 -147.299,0.751C-148.331,0.751 -148.833,0.126 -148.833,-1.163L-148.833,-4.505L-149.977,-4.505ZM-152.021,1.633L-152.021,-5.462L-150.459,-5.462L-150.459,-6.556L-154.794,-6.556L-154.794,-5.462L-153.209,-5.462L-153.209,1.633L-152.021,1.633Z" style="fill-rule:nonzero;"/>
    </g>
    <g transform="matrix(4.16667,0,0,4.16667,644.206,232.513)">
        <path d="M0,3.601L-1.141,3.601L-1.141,4.951L-0.735,4.951L-0.735,5.036C-0.735,5.379 -0.847,5.55 -1.141,5.675L-1.141,6.361C-0.357,6.202 0,5.712 0,4.828L0,3.601ZM-5.981,-0.306C-4.766,-0.306 -3.833,0.653 -3.833,1.916C-3.833,3.109 -4.791,4.068 -5.97,4.068C-7.09,4.068 -8.047,3.071 -8.047,1.916C-8.047,0.676 -7.126,-0.306 -5.981,-0.306M-2.681,4.951L-2.681,-1.188L-3.746,-1.188L-3.746,-0.306C-4.141,-0.932 -5.049,-1.347 -5.997,-1.347C-7.815,-1.347 -9.187,0.049 -9.187,1.905C-9.187,3.722 -7.827,5.11 -6.045,5.11C-5.002,5.11 -4.213,4.73 -3.746,3.994L-3.746,4.951L-2.681,4.951ZM-11.116,4.951L-11.116,1.597C-11.116,0.443 -10.648,-0.099 -9.608,-0.172L-9.608,-1.347C-10.344,-1.336 -10.834,-1.103 -11.189,-0.636L-11.189,-1.188L-12.256,-1.188L-12.256,4.951L-11.116,4.951ZM-19.218,-1.188L-19.218,2.581C-19.218,4.092 -18.202,5.11 -16.664,5.11C-15.878,5.11 -15.167,4.791 -14.86,4.301L-14.86,4.951L-13.792,4.951L-13.792,-1.188L-14.932,-1.188L-14.932,2.152C-14.932,3.355 -15.536,4.068 -16.542,4.068C-17.575,4.068 -18.078,3.441 -18.078,2.152L-18.078,-1.188L-19.218,-1.188ZM-21.118,-0.146L-20.112,-0.146L-20.112,-1.188L-21.118,-1.188L-21.118,-3.241L-22.261,-3.241L-22.261,-1.188L-23.095,-1.188L-23.095,-0.146L-22.261,-0.146L-22.261,4.951L-21.118,4.951L-21.118,-0.146ZM-24.023,-3.241L-25.162,-3.241L-25.162,4.95L-24.023,4.95L-24.023,-3.241ZM-32.12,-1.188L-32.12,2.581C-32.12,4.092 -31.102,5.11 -29.566,5.11C-28.78,5.11 -28.068,4.791 -27.76,4.301L-27.76,4.951L-26.692,4.951L-26.692,-1.188L-27.833,-1.188L-27.833,2.152C-27.833,3.355 -28.437,4.068 -29.442,4.068C-30.475,4.068 -30.981,3.441 -30.981,2.152L-30.981,-1.188L-32.12,-1.188ZM-34.594,2.937C-35.196,3.65 -35.956,4.018 -36.829,4.018C-38.45,4.018 -39.848,2.556 -39.848,0.873C-39.848,-0.896 -38.512,-2.309 -36.829,-2.309C-35.896,-2.309 -35.159,-1.938 -34.509,-1.155L-33.06,-1.155C-33.882,-2.615 -35.208,-3.399 -36.84,-3.399C-39.187,-3.399 -41.041,-1.521 -41.041,0.873C-41.041,3.171 -39.126,5.11 -36.84,5.11C-35.27,5.11 -33.894,4.312 -33.119,2.937L-34.594,2.937ZM-49.524,1.5C-49.438,0.912 -49.327,0.64 -49.045,0.319C-48.678,-0.099 -48.1,-0.355 -47.573,-0.355C-46.505,-0.355 -45.609,0.467 -45.56,1.5L-49.524,1.5ZM-45.769,3.023C-46.16,3.697 -46.775,4.068 -47.499,4.068C-48.483,4.068 -49.279,3.405 -49.524,2.382L-44.455,2.382C-44.432,2.164 -44.418,1.916 -44.418,1.794C-44.418,0.049 -45.818,-1.397 -47.499,-1.397C-49.279,-1.397 -50.679,0.038 -50.679,1.869C-50.679,3.636 -49.268,5.11 -47.561,5.11C-46.224,5.11 -45.081,4.301 -44.614,3.023L-45.769,3.023ZM-55.094,-0.306C-53.843,-0.306 -52.932,0.602 -52.932,1.844C-52.932,3.097 -53.865,4.068 -55.069,4.068C-56.236,4.068 -57.157,3.097 -57.157,1.855C-57.157,0.627 -56.261,-0.306 -55.096,-0.306L-55.094,-0.306ZM-51.866,4.951L-51.866,-3.241L-53.007,-3.241L-53.007,-0.379C-53.436,-0.932 -54.37,-1.347 -55.192,-1.347C-56.151,-1.347 -56.839,-1.055 -57.441,-0.368C-57.992,0.26 -58.3,1.044 -58.3,1.844C-58.3,3.7 -56.938,5.11 -55.133,5.11C-54.183,5.11 -53.473,4.766 -52.932,4.079L-52.932,4.951L-51.866,4.951ZM-64.98,-0.306C-63.777,-0.306 -62.807,0.664 -62.807,1.855C-62.807,3.085 -63.777,4.068 -64.968,4.068C-66.173,4.068 -67.141,3.085 -67.141,1.855C-67.141,0.676 -66.173,-0.306 -64.98,-0.306M-64.98,-1.347C-66.811,-1.347 -68.281,0.087 -68.281,1.869C-68.281,3.65 -66.8,5.11 -64.968,5.11C-63.15,5.11 -61.666,3.65 -61.666,1.869C-61.666,0.075 -63.137,-1.347 -64.98,-1.347M-69.766,-0.146L-68.759,-0.146L-68.759,-1.188L-69.766,-1.188L-69.766,-3.241L-70.907,-3.241L-70.907,-1.188L-71.74,-1.188L-71.74,-0.146L-70.907,-0.146L-70.907,4.951L-69.766,4.951L-69.766,-0.146ZM-72.532,4.951L-72.532,1.179C-72.532,-0.332 -73.551,-1.347 -75.086,-1.347C-75.872,-1.347 -76.499,-1.066 -76.905,-0.539L-76.905,-1.188L-77.973,-1.188L-77.973,4.951L-76.806,4.951L-76.806,1.608C-76.806,0.405 -76.202,-0.306 -75.196,-0.306C-74.167,-0.306 -73.673,0.307 -73.673,1.608L-73.673,4.951L-72.532,4.951ZM-84.264,1.5C-84.179,0.912 -84.067,0.64 -83.786,0.319C-83.417,-0.099 -82.84,-0.355 -82.313,-0.355C-81.245,-0.355 -80.35,0.467 -80.3,1.5L-84.264,1.5ZM-80.509,3.023C-80.9,3.697 -81.516,4.068 -82.239,4.068C-83.22,4.068 -84.02,3.405 -84.264,2.382L-79.195,2.382C-79.17,2.164 -79.157,1.916 -79.157,1.794C-79.157,0.049 -80.556,-1.397 -82.239,-1.397C-84.02,-1.397 -85.419,0.038 -85.419,1.869C-85.419,3.636 -84.008,5.11 -82.302,5.11C-80.963,5.11 -79.819,4.301 -79.354,3.023L-80.509,3.023ZM-86.549,4.951L-86.549,1.205C-86.549,-0.406 -87.493,-1.347 -89.076,-1.347C-90.013,-1.347 -90.625,-1.029 -91.067,-0.332C-91.363,-0.932 -92.135,-1.347 -92.958,-1.347C-93.771,-1.347 -94.336,-1.09 -94.754,-0.528L-94.754,-1.188L-95.817,-1.188L-95.817,4.951L-94.677,4.951L-94.677,1.536C-94.677,0.797 -94.594,0.467 -94.309,0.16C-94.04,-0.135 -93.623,-0.306 -93.168,-0.306C-92.661,-0.306 -92.248,-0.099 -92.011,0.272C-91.803,0.59 -91.765,0.763 -91.765,1.536L-91.765,4.951L-90.625,4.951L-90.625,1.536C-90.625,0.825 -90.553,0.505 -90.307,0.186C-90.06,-0.122 -89.63,-0.306 -89.152,-0.306C-88.191,-0.306 -87.688,0.319 -87.688,1.536L-87.688,4.951L-86.549,4.951ZM-100.655,-0.306C-99.439,-0.306 -98.508,0.653 -98.508,1.916C-98.508,3.109 -99.466,4.068 -100.644,4.068C-101.762,4.068 -102.721,3.071 -102.721,1.916C-102.721,0.676 -101.798,-0.306 -100.655,-0.306M-97.355,4.951L-97.355,-1.188L-98.422,-1.188L-98.422,-0.306C-98.813,-0.932 -99.723,-1.347 -100.67,-1.347C-102.487,-1.347 -103.86,0.049 -103.86,1.905C-103.86,3.722 -102.5,5.11 -100.718,5.11C-99.674,5.11 -98.889,4.73 -98.422,3.994L-98.422,4.951L-97.355,4.951ZM-105.338,-0.146L-104.331,-0.146L-104.331,-1.188L-105.338,-1.188L-105.338,-3.241L-106.479,-3.241L-106.479,-1.188L-107.312,-1.188L-107.312,-0.146L-106.479,-0.146L-106.479,4.951L-105.338,4.951L-105.338,-0.146ZM-109.308,4.951L-109.308,1.597C-109.308,0.443 -108.843,-0.099 -107.798,-0.172L-107.798,-1.347C-108.535,-1.336 -109.025,-1.103 -109.382,-0.636L-109.382,-1.188L-110.449,-1.188L-110.449,4.951L-109.308,4.951ZM-115.287,-0.306C-114.07,-0.306 -113.138,0.653 -113.138,1.916C-113.138,3.109 -114.095,4.068 -115.271,4.068C-116.393,4.068 -117.349,3.071 -117.349,1.916C-117.349,0.676 -116.428,-0.306 -115.287,-0.306M-111.983,4.951L-111.983,-1.188L-113.051,-1.188L-113.051,-0.306C-113.443,-0.932 -114.353,-1.347 -115.299,-1.347C-117.118,-1.347 -118.493,0.049 -118.493,1.905C-118.493,3.722 -117.129,5.11 -115.348,5.11C-114.304,5.11 -113.518,4.73 -113.051,3.994L-113.051,4.951L-111.983,4.951ZM-122.617,-0.306C-121.424,-0.306 -120.467,0.676 -120.467,1.893C-120.467,3.122 -121.388,4.079 -122.544,4.079C-123.699,4.079 -124.63,3.109 -124.63,1.893C-124.63,0.676 -123.724,-0.306 -122.617,-0.306M-125.748,7L-124.608,7L-124.608,4.068C-124.202,4.717 -123.369,5.122 -122.42,5.122C-120.652,5.122 -119.327,3.748 -119.327,1.916C-119.327,0.075 -120.726,-1.347 -122.52,-1.347C-123.441,-1.347 -124.238,-0.943 -124.682,-0.247L-124.682,-1.188L-125.748,-1.188L-125.748,7ZM-132.043,1.5C-131.955,0.912 -131.844,0.64 -131.564,0.319C-131.193,-0.099 -130.618,-0.355 -130.091,-0.355C-129.023,-0.355 -128.127,0.467 -128.078,1.5L-132.043,1.5ZM-128.286,3.023C-128.677,3.697 -129.292,4.068 -130.014,4.068C-130.999,4.068 -131.795,3.405 -132.043,2.382L-126.971,2.382C-126.948,2.164 -126.935,1.916 -126.935,1.794C-126.935,0.049 -128.334,-1.397 -130.014,-1.397C-131.795,-1.397 -133.196,0.038 -133.196,1.869C-133.196,3.636 -131.784,5.11 -130.079,5.11C-128.74,5.11 -127.597,4.301 -127.13,3.023L-128.286,3.023ZM-139.733,3.858L-139.733,-2.148L-138.259,-2.148C-136.504,-2.148 -135.274,-0.896 -135.274,0.898C-135.274,2.8 -136.516,3.858 -138.764,3.858L-139.733,3.858ZM-140.925,4.951L-138.383,4.951C-136.884,4.951 -135.828,4.571 -135.114,3.771C-134.464,3.048 -134.085,1.979 -134.085,0.898C-134.085,-0.257 -134.526,-1.373 -135.274,-2.148C-136,-2.895 -136.884,-3.241 -138.027,-3.241L-140.925,-3.241L-140.925,4.951Z" style="fill-rule:nonzero;"/>
    </g>
    <g transform="matrix(4.16667,0,0,4.16667,306.063,76.2438)">
        <path d="M0,1.967C-0.152,1.981 -0.287,2 -0.407,2.019C-0.524,2.039 -0.672,2.078 -0.853,2.138C-1.052,2.202 -1.187,2.307 -1.25,2.456C-1.318,2.605 -1.349,2.76 -1.349,2.924L-1.349,4.148C-1.349,4.396 -1.347,4.595 -1.341,4.745C-1.337,4.897 -1.33,5.083 -1.318,5.305C-1.812,5.603 -2.544,5.882 -3.513,6.145C-4.477,6.406 -5.366,6.537 -6.179,6.537C-6.94,6.537 -7.656,6.422 -8.323,6.191C-8.989,5.956 -9.578,5.607 -10.083,5.142C-10.588,4.681 -10.983,4.109 -11.275,3.427C-11.562,2.741 -11.709,1.961 -11.709,1.08C-11.709,0.258 -11.569,-0.502 -11.298,-1.198C-11.028,-1.897 -10.634,-2.499 -10.119,-3.005C-9.616,-3.504 -9,-3.89 -8.275,-4.162C-7.55,-4.433 -6.749,-4.57 -5.868,-4.57C-5.267,-4.57 -4.713,-4.497 -4.206,-4.346C-3.696,-4.199 -3.274,-4.041 -2.943,-3.872L-2.483,-4.28L-1.838,-4.28L-1.772,-0.437L-2.423,-0.437C-2.8,-1.592 -3.251,-2.449 -3.775,-3.01C-4.299,-3.572 -4.96,-3.851 -5.765,-3.851C-6.714,-3.851 -7.446,-3.435 -7.964,-2.603C-8.48,-1.77 -8.739,-0.625 -8.739,0.837C-8.739,2.385 -8.486,3.598 -7.979,4.475C-7.47,5.351 -6.752,5.787 -5.822,5.787C-5.389,5.787 -5.001,5.723 -4.662,5.591C-4.322,5.461 -4.06,5.309 -3.87,5.136L-3.87,2.999C-3.87,2.82 -3.904,2.67 -3.967,2.55C-4.031,2.428 -4.163,2.322 -4.354,2.233C-4.502,2.164 -4.688,2.11 -4.911,2.064C-5.13,2.019 -5.319,1.988 -5.464,1.967L-5.464,1.39L0,1.39L0,1.967Z" style="fill-rule:nonzero;"/>
    </g>
    <g transform="matrix(4.16667,0,0,4.16667,323.017,96.5942)">
        <path d="M0,-8.756C0,-8.38 -0.146,-8.06 -0.435,-7.795C-0.726,-7.531 -1.065,-7.398 -1.462,-7.398C-1.862,-7.398 -2.208,-7.531 -2.498,-7.795C-2.785,-8.06 -2.933,-8.38 -2.933,-8.756C-2.933,-9.132 -2.785,-9.454 -2.498,-9.723C-2.208,-9.988 -1.862,-10.121 -1.462,-10.121C-1.062,-10.121 -0.718,-9.988 -0.431,-9.723C-0.146,-9.454 0,-9.132 0,-8.756M1.083,1.365L-3.605,1.365L-3.605,0.821C-3.479,0.812 -3.351,0.801 -3.228,0.785C-3.104,0.772 -2.999,0.746 -2.909,0.712C-2.751,0.652 -2.641,0.565 -2.577,0.456C-2.512,0.343 -2.478,0.195 -2.478,0.013L-2.478,-4.304C-2.478,-4.479 -2.518,-4.63 -2.596,-4.763C-2.677,-4.89 -2.774,-4.998 -2.896,-5.077C-2.985,-5.135 -3.119,-5.193 -3.298,-5.247C-3.479,-5.3 -3.643,-5.336 -3.792,-5.351L-3.792,-5.893L-0.157,-6.086L-0.043,-5.974L-0.043,-0.084C-0.043,0.089 -0.009,0.236 0.066,0.358C0.139,0.48 0.247,0.569 0.385,0.63C0.484,0.674 0.592,0.714 0.711,0.748C0.83,0.783 0.955,0.808 1.083,0.821L1.083,1.365Z" style="fill-rule:nonzero;"/>
    </g>
    <g transform="matrix(4.16667,0,0,4.16667,356.918,99.4363)">
        <path d="M0,-2.902C0,-3.273 -0.024,-3.628 -0.08,-3.967C-0.132,-4.306 -0.231,-4.61 -0.368,-4.875C-0.501,-5.143 -0.677,-5.355 -0.896,-5.515C-1.116,-5.673 -1.382,-5.753 -1.701,-5.753C-2.02,-5.753 -2.278,-5.696 -2.47,-5.585C-2.663,-5.473 -2.829,-5.33 -2.972,-5.151L-2.972,-0.945C-2.945,-0.844 -2.886,-0.717 -2.805,-0.561C-2.717,-0.405 -2.636,-0.28 -2.551,-0.187C-2.427,-0.054 -2.288,0.046 -2.13,0.109C-1.973,0.174 -1.8,0.205 -1.614,0.205C-1.124,0.205 -0.733,-0.056 -0.438,-0.582C-0.148,-1.11 0,-1.884 0,-2.902M2.666,-2.93C2.666,-1.888 2.318,-0.993 1.622,-0.246C0.925,0.5 0.042,0.874 -1.023,0.874C-1.499,0.874 -1.885,0.825 -2.18,0.728C-2.476,0.633 -2.718,0.515 -2.913,0.378L-2.972,0.378L-2.972,2.463C-2.972,2.637 -2.936,2.785 -2.859,2.915C-2.782,3.044 -2.673,3.138 -2.536,3.199C-2.402,3.249 -2.212,3.301 -1.969,3.344C-1.722,3.39 -1.519,3.417 -1.355,3.426L-1.355,3.976L-6.721,3.976L-6.721,3.426C-6.596,3.417 -6.44,3.398 -6.25,3.372C-6.064,3.343 -5.924,3.314 -5.829,3.287C-5.67,3.233 -5.563,3.14 -5.506,3.009C-5.451,2.877 -5.423,2.728 -5.423,2.56L-5.423,-5.033C-5.438,-5.194 -5.476,-5.339 -5.537,-5.462C-5.597,-5.585 -5.696,-5.694 -5.829,-5.787C-5.927,-5.853 -6.062,-5.907 -6.225,-5.949C-6.388,-5.992 -6.547,-6.018 -6.707,-6.033L-6.707,-6.575L-3.083,-6.767L-2.972,-6.672L-2.972,-5.847L-2.913,-5.833C-2.585,-6.164 -2.227,-6.423 -1.829,-6.603C-1.429,-6.788 -1.036,-6.878 -0.645,-6.878C0.376,-6.878 1.182,-6.515 1.777,-5.791C2.37,-5.066 2.666,-4.114 2.666,-2.93" style="fill-rule:nonzero;"/>
    </g>
    <g transform="matrix(4.16667,0,0,4.16667,412.332,72.8104)">
        <path d="M0,6.915L-3.539,7.132L-3.649,7.028L-3.649,6.055L-3.695,6.055C-3.866,6.211 -4.029,6.36 -4.189,6.504C-4.349,6.651 -4.542,6.784 -4.762,6.9C-5.013,7.037 -5.252,7.134 -5.48,7.198C-5.702,7.263 -6.028,7.293 -6.46,7.293C-7.204,7.293 -7.777,7.069 -8.172,6.62C-8.571,6.17 -8.771,5.534 -8.771,4.711L-8.771,1.375C-8.771,1.181 -8.806,1.025 -8.883,0.901C-8.954,0.781 -9.053,0.674 -9.177,0.579C-9.276,0.505 -9.403,0.453 -9.562,0.419C-9.718,0.389 -9.859,0.368 -9.987,0.357L-9.987,-0.185L-6.403,-0.378L-6.323,-0.266L-6.323,4.666C-6.323,5.178 -6.224,5.555 -6.028,5.797C-5.833,6.037 -5.563,6.16 -5.224,6.16C-4.874,6.16 -4.557,6.068 -4.276,5.886C-3.999,5.699 -3.794,5.507 -3.667,5.298L-3.667,1.301C-3.667,1.132 -3.699,0.979 -3.761,0.849C-3.826,0.714 -3.921,0.605 -4.043,0.519C-4.132,0.461 -4.261,0.421 -4.428,0.402C-4.591,0.384 -4.762,0.368 -4.937,0.357L-4.937,-0.185L-1.33,-0.378L-1.215,-0.266L-1.215,5.461C-1.215,5.636 -1.185,5.781 -1.117,5.903C-1.044,6.024 -0.946,6.129 -0.809,6.213C-0.717,6.269 -0.598,6.311 -0.446,6.332C-0.296,6.355 -0.148,6.37 0,6.376L0,6.915Z" style="fill-rule:nonzero;"/>
    </g>
    <g transform="matrix(4.16667,0,0,4.16667,444.859,71.6071)">
        <path d="M0,7.362L-7.302,7.362L-7.302,6.85L-3.048,0.675C-3.635,0.675 -4.169,0.683 -4.635,0.699C-5.106,0.714 -5.479,0.772 -5.75,0.878C-5.843,0.909 -5.969,1.09 -6.124,1.412C-6.281,1.737 -6.406,2.075 -6.493,2.426L-7.012,2.426L-7.012,0L-0.112,0L-0.112,0.462L-4.387,6.684C-4.267,6.684 -4.092,6.689 -3.865,6.695C-3.639,6.699 -3.419,6.702 -3.211,6.702C-2.968,6.702 -2.706,6.695 -2.432,6.68C-2.156,6.669 -1.937,6.653 -1.784,6.634C-1.582,6.609 -1.419,6.539 -1.297,6.425C-1.176,6.311 -1.079,6.175 -1.012,6.017C-0.948,5.873 -0.862,5.659 -0.759,5.368C-0.653,5.079 -0.574,4.819 -0.52,4.595L0,4.595L0,7.362Z" style="fill-rule:nonzero;"/>
    </g>
    <g transform="matrix(4.16667,0,0,4.16667,487.802,54.4237)">
        <path d="M0,11.486L-3.499,11.486C-3.929,10.731 -4.32,10.09 -4.679,9.564C-5.032,9.04 -5.368,8.551 -5.683,8.101L-6.12,8.474L-6.12,10.09C-6.12,10.268 -6.097,10.415 -6.044,10.528C-5.993,10.64 -5.892,10.723 -5.745,10.779C-5.655,10.821 -5.55,10.853 -5.431,10.883C-5.312,10.914 -5.196,10.933 -5.078,10.942L-5.078,11.486L-9.682,11.486L-9.682,10.942C-9.559,10.933 -9.435,10.922 -9.31,10.902C-9.188,10.883 -9.076,10.863 -8.983,10.833C-8.824,10.777 -8.714,10.694 -8.657,10.583C-8.6,10.464 -8.571,10.316 -8.571,10.133L-8.571,1.86C-8.571,1.699 -8.607,1.528 -8.678,1.354C-8.748,1.178 -8.854,1.045 -8.995,0.955C-9.089,0.896 -9.228,0.848 -9.417,0.807C-9.603,0.768 -9.777,0.744 -9.929,0.732L-9.929,0.191L-6.234,0L-6.12,0.119L-6.12,7.775C-5.757,7.448 -5.345,7.068 -4.89,6.639C-4.43,6.209 -4.065,5.854 -3.788,5.573C-3.626,5.404 -3.534,5.277 -3.519,5.188C-3.499,5.102 -3.49,5.049 -3.49,5.03C-3.49,4.941 -3.568,4.866 -3.726,4.807C-3.882,4.749 -4.117,4.695 -4.43,4.65L-4.43,4.124L-0.663,4.124L-0.663,4.634C-1.157,4.775 -1.533,4.906 -1.791,5.023C-2.049,5.147 -2.332,5.308 -2.637,5.512C-2.841,5.644 -3.036,5.784 -3.228,5.931C-3.416,6.078 -3.636,6.26 -3.882,6.48C-3.399,7.181 -2.953,7.831 -2.543,8.43C-2.132,9.028 -1.702,9.659 -1.251,10.328C-1.099,10.558 -0.91,10.715 -0.682,10.795C-0.454,10.872 -0.228,10.924 0,10.942L0,11.486Z" style="fill-rule:nonzero;"/>
    </g>
    <g transform="matrix(4.16667,0,0,4.16667,511.788,77.2913)">
        <path d="M0,4.655C0.108,4.377 0.188,4.04 0.241,3.646C0.294,3.25 0.319,2.79 0.319,2.264C0.319,1.919 0.294,1.522 0.247,1.077C0.196,0.632 0.12,0.28 0.025,0.024C-0.095,-0.287 -0.26,-0.532 -0.473,-0.711C-0.682,-0.887 -0.947,-0.979 -1.271,-0.979C-1.62,-0.979 -1.9,-0.88 -2.111,-0.691C-2.322,-0.496 -2.482,-0.247 -2.596,0.059C-2.702,0.343 -2.772,0.674 -2.813,1.049C-2.852,1.428 -2.873,1.823 -2.873,2.234C-2.873,2.775 -2.854,3.219 -2.815,3.574C-2.785,3.927 -2.702,4.283 -2.565,4.639C-2.452,4.947 -2.29,5.188 -2.076,5.367C-1.865,5.544 -1.593,5.634 -1.271,5.634C-0.97,5.634 -0.715,5.551 -0.504,5.384C-0.29,5.218 -0.124,4.975 0,4.655M1.901,-0.49C2.266,-0.147 2.546,0.261 2.738,0.737C2.93,1.211 3.029,1.727 3.029,2.28C3.029,2.829 2.934,3.346 2.744,3.835C2.55,4.322 2.273,4.739 1.908,5.082C1.517,5.457 1.049,5.739 0.507,5.939C-0.032,6.134 -0.651,6.233 -1.35,6.233C-1.954,6.233 -2.51,6.145 -3.015,5.974C-3.522,5.801 -3.972,5.542 -4.364,5.196C-4.737,4.866 -5.035,4.455 -5.254,3.966C-5.47,3.479 -5.579,2.934 -5.579,2.331C-5.579,1.738 -5.481,1.209 -5.295,0.749C-5.104,0.284 -4.817,-0.126 -4.437,-0.49C-4.071,-0.835 -3.618,-1.102 -3.083,-1.292C-2.546,-1.485 -1.946,-1.578 -1.284,-1.578C-0.59,-1.578 0.021,-1.485 0.545,-1.292C1.073,-1.102 1.525,-0.835 1.901,-0.49" style="fill-rule:nonzero;"/>
    </g>
    <g transform="matrix(4.16667,0,0,4.16667,548.395,88.4633)">
        <path d="M0,-0.706C-0.279,-0.612 -0.554,-0.505 -0.827,-0.381C-1.099,-0.261 -1.323,-0.135 -1.498,-0.001C-1.682,0.139 -1.825,0.318 -1.929,0.532C-2.032,0.749 -2.084,1.003 -2.084,1.294C-2.084,1.682 -1.998,1.962 -1.821,2.137C-1.646,2.308 -1.428,2.396 -1.169,2.396C-0.896,2.396 -0.672,2.338 -0.497,2.229C-0.319,2.116 -0.163,1.98 -0.03,1.815L0,-0.706ZM3.68,3.158C3.461,3.254 3.206,3.341 2.909,3.421C2.615,3.498 2.3,3.538 1.971,3.538C1.363,3.538 0.916,3.447 0.631,3.269C0.342,3.088 0.149,2.828 0.044,2.492L0,2.492C-0.166,2.658 -0.331,2.803 -0.486,2.921C-0.642,3.042 -0.809,3.141 -0.987,3.226C-1.222,3.335 -1.446,3.418 -1.661,3.47C-1.875,3.527 -2.176,3.554 -2.565,3.554C-3.138,3.554 -3.63,3.383 -4.036,3.044C-4.443,2.705 -4.646,2.254 -4.646,1.694C-4.646,1.372 -4.603,1.1 -4.511,0.872C-4.422,0.648 -4.299,0.449 -4.131,0.276C-3.983,0.118 -3.813,-0.015 -3.615,-0.117C-3.417,-0.222 -3.207,-0.32 -2.973,-0.407C-2.524,-0.573 -1.992,-0.742 -1.367,-0.916C-0.74,-1.093 -0.288,-1.251 0,-1.39L0,-2.103C0,-2.225 -0.011,-2.388 -0.03,-2.591C-0.049,-2.792 -0.091,-2.965 -0.156,-3.103C-0.224,-3.262 -0.334,-3.393 -0.482,-3.505C-0.63,-3.612 -0.827,-3.668 -1.07,-3.668C-1.288,-3.668 -1.47,-3.636 -1.614,-3.575C-1.76,-3.512 -1.88,-3.449 -1.969,-3.385C-1.952,-3.286 -1.91,-3.134 -1.839,-2.933C-1.773,-2.727 -1.735,-2.534 -1.735,-2.347C-1.735,-2.263 -1.76,-2.156 -1.803,-2.032C-1.85,-1.904 -1.912,-1.806 -1.998,-1.73C-2.111,-1.631 -2.238,-1.557 -2.381,-1.499C-2.521,-1.444 -2.738,-1.42 -3.032,-1.42C-3.448,-1.42 -3.764,-1.518 -3.976,-1.72C-4.188,-1.919 -4.299,-2.18 -4.299,-2.5C-4.299,-2.777 -4.187,-3.028 -3.964,-3.248C-3.745,-3.467 -3.478,-3.65 -3.16,-3.791C-2.849,-3.941 -2.491,-4.058 -2.084,-4.139C-1.68,-4.221 -1.302,-4.26 -0.957,-4.26C-0.479,-4.26 -0.038,-4.233 0.363,-4.175C0.763,-4.116 1.124,-4.002 1.447,-3.823C1.752,-3.65 1.996,-3.399 2.176,-3.069C2.358,-2.739 2.445,-2.31 2.445,-1.782C2.445,-1.224 2.434,-0.56 2.416,0.206C2.393,0.973 2.381,1.48 2.381,1.721C2.381,1.942 2.416,2.119 2.48,2.247C2.549,2.376 2.651,2.473 2.789,2.537C2.873,2.575 3.004,2.599 3.186,2.607C3.367,2.615 3.531,2.619 3.68,2.619L3.68,3.158Z" style="fill-rule:nonzero;"/>
    </g>
    <g transform="matrix(4.16667,0,0,4.16667,605.778,54.4237)">
        <path d="M0,11.486L-3.5,11.486C-3.929,10.731 -4.319,10.09 -4.678,9.564C-5.032,9.04 -5.367,8.551 -5.683,8.101L-6.124,8.474L-6.124,10.09C-6.124,10.268 -6.097,10.415 -6.044,10.528C-5.992,10.64 -5.891,10.723 -5.743,10.779C-5.655,10.821 -5.549,10.853 -5.431,10.883C-5.314,10.914 -5.195,10.933 -5.077,10.942L-5.077,11.486L-9.682,11.486L-9.682,10.942C-9.56,10.933 -9.435,10.922 -9.31,10.902C-9.188,10.883 -9.076,10.863 -8.983,10.833C-8.824,10.777 -8.713,10.694 -8.656,10.583C-8.6,10.464 -8.571,10.316 -8.571,10.133L-8.571,1.86C-8.571,1.699 -8.608,1.528 -8.678,1.354C-8.75,1.178 -8.853,1.045 -8.994,0.955C-9.089,0.896 -9.229,0.848 -9.416,0.807C-9.605,0.768 -9.777,0.744 -9.928,0.732L-9.928,0.191L-6.234,0L-6.124,0.119L-6.124,7.775C-5.755,7.448 -5.345,7.068 -4.889,6.639C-4.432,6.209 -4.065,5.854 -3.788,5.573C-3.627,5.404 -3.533,5.277 -3.518,5.188C-3.5,5.102 -3.49,5.049 -3.49,5.03C-3.49,4.941 -3.567,4.866 -3.725,4.807C-3.883,4.749 -4.116,4.695 -4.432,4.65L-4.432,4.124L-0.663,4.124L-0.663,4.634C-1.157,4.775 -1.532,4.906 -1.79,5.023C-2.049,5.147 -2.333,5.308 -2.641,5.512C-2.84,5.644 -3.037,5.784 -3.228,5.931C-3.416,6.078 -3.636,6.26 -3.883,6.48C-3.398,7.181 -2.952,7.831 -2.542,8.43C-2.132,9.028 -1.702,9.659 -1.251,10.328C-1.099,10.558 -0.909,10.715 -0.682,10.795C-0.453,10.872 -0.228,10.924 0,10.942L0,11.486Z" style="fill-rule:nonzero;"/>
    </g>
    <g transform="matrix(4.16667,0,0,4.16667,629.761,77.2913)">
        <path d="M0,4.655C0.109,4.377 0.189,4.04 0.243,3.646C0.296,3.25 0.321,2.79 0.321,2.264C0.321,1.919 0.296,1.522 0.247,1.077C0.197,0.632 0.121,0.28 0.026,0.024C-0.095,-0.287 -0.259,-0.532 -0.471,-0.711C-0.68,-0.887 -0.946,-0.979 -1.269,-0.979C-1.62,-0.979 -1.899,-0.88 -2.107,-0.691C-2.321,-0.496 -2.483,-0.247 -2.596,0.059C-2.7,0.343 -2.772,0.674 -2.811,1.049C-2.85,1.428 -2.871,1.823 -2.871,2.234C-2.871,2.775 -2.852,3.219 -2.818,3.574C-2.784,3.927 -2.7,4.283 -2.563,4.639C-2.452,4.947 -2.291,5.188 -2.078,5.367C-1.863,5.544 -1.595,5.634 -1.269,5.634C-0.971,5.634 -0.716,5.551 -0.503,5.384C-0.289,5.218 -0.122,4.975 0,4.655M1.902,-0.49C2.267,-0.147 2.548,0.261 2.74,0.737C2.932,1.211 3.031,1.727 3.031,2.28C3.031,2.829 2.936,3.346 2.744,3.835C2.552,4.322 2.274,4.739 1.906,5.082C1.519,5.457 1.05,5.739 0.509,5.939C-0.034,6.134 -0.652,6.233 -1.349,6.233C-1.953,6.233 -2.508,6.145 -3.014,5.974C-3.521,5.801 -3.973,5.542 -4.362,5.196C-4.74,4.866 -5.035,4.455 -5.252,3.966C-5.473,3.479 -5.579,2.934 -5.579,2.331C-5.579,1.738 -5.484,1.209 -5.294,0.749C-5.102,0.284 -4.815,-0.126 -4.436,-0.49C-4.069,-0.835 -3.619,-1.102 -3.082,-1.292C-2.544,-1.485 -1.945,-1.578 -1.281,-1.578C-0.593,-1.578 0.019,-1.485 0.546,-1.292C1.075,-1.102 1.526,-0.835 1.902,-0.49" style="fill-rule:nonzero;"/>
    </g>
    <g transform="matrix(4.16667,0,0,4.16667,211.09,166.75)">
        <path d="M0,-4.9L-0.577,-4.9C-0.721,-5.31 -0.972,-5.745 -1.336,-6.207C-1.701,-6.667 -2.043,-6.921 -2.369,-6.966C-2.517,-6.985 -2.717,-7 -2.963,-7.015C-3.211,-7.031 -3.437,-7.041 -3.645,-7.041L-5.283,-7.041L-5.283,-2.915L-4.236,-2.915C-3.94,-2.915 -3.68,-2.946 -3.463,-3.013C-3.247,-3.08 -3.053,-3.199 -2.886,-3.371C-2.761,-3.497 -2.641,-3.702 -2.525,-3.991C-2.411,-4.281 -2.339,-4.53 -2.314,-4.739L-1.75,-4.739L-1.75,-0.307L-2.314,-0.307C-2.335,-0.532 -2.411,-0.8 -2.544,-1.122C-2.677,-1.438 -2.791,-1.652 -2.886,-1.754C-3.028,-1.914 -3.211,-2.031 -3.435,-2.109C-3.657,-2.185 -3.925,-2.221 -4.236,-2.221L-5.283,-2.221L-5.283,1.265C-5.283,1.444 -5.248,1.595 -5.18,1.723C-5.115,1.846 -4.986,1.949 -4.8,2.029C-4.69,2.074 -4.542,2.114 -4.35,2.154C-4.16,2.188 -3.972,2.218 -3.784,2.238L-3.784,2.814L-9.46,2.814L-9.46,2.238C-9.315,2.222 -9.126,2.204 -8.888,2.173C-8.651,2.148 -8.484,2.112 -8.391,2.074C-8.214,2.004 -8.089,1.909 -8.017,1.784C-7.948,1.661 -7.915,1.502 -7.915,1.309L-7.915,-6.118C-7.915,-6.284 -7.945,-6.432 -8.009,-6.562C-8.069,-6.686 -8.195,-6.79 -8.391,-6.877C-8.53,-6.934 -8.712,-6.989 -8.939,-7.041C-9.167,-7.088 -9.34,-7.122 -9.46,-7.134L-9.46,-7.714L0,-7.714L0,-4.9Z" style="fill-rule:nonzero;"/>
    </g>
    <g transform="matrix(4.16667,0,0,4.16667,237.5,153.496)">
        <path d="M0,4.655C0.106,4.376 0.187,4.04 0.241,3.645C0.292,3.248 0.319,2.791 0.319,2.264C0.319,1.919 0.292,1.522 0.245,1.078C0.194,0.632 0.121,0.282 0.022,0.024C-0.099,-0.285 -0.263,-0.531 -0.474,-0.713C-0.68,-0.89 -0.947,-0.978 -1.271,-0.978C-1.622,-0.978 -1.903,-0.882 -2.111,-0.691C-2.32,-0.496 -2.486,-0.246 -2.596,0.059C-2.7,0.341 -2.772,0.676 -2.813,1.051C-2.853,1.428 -2.871,1.823 -2.871,2.234C-2.871,2.775 -2.856,3.219 -2.82,3.573C-2.788,3.927 -2.7,4.282 -2.567,4.639C-2.453,4.946 -2.291,5.186 -2.077,5.367C-1.865,5.544 -1.597,5.633 -1.271,5.633C-0.972,5.633 -0.715,5.551 -0.505,5.384C-0.292,5.218 -0.125,4.975 0,4.655M1.899,-0.489C2.265,-0.149 2.544,0.259 2.738,0.736C2.93,1.211 3.027,1.727 3.027,2.28C3.027,2.828 2.932,3.347 2.742,3.835C2.552,4.322 2.271,4.739 1.906,5.082C1.515,5.456 1.05,5.739 0.507,5.939C-0.034,6.134 -0.652,6.233 -1.352,6.233C-1.954,6.233 -2.51,6.145 -3.019,5.974C-3.524,5.801 -3.973,5.542 -4.364,5.194C-4.74,4.864 -5.035,4.454 -5.254,3.966C-5.472,3.479 -5.581,2.932 -5.581,2.333C-5.581,1.738 -5.486,1.209 -5.294,0.745C-5.104,0.284 -4.819,-0.126 -4.437,-0.489C-4.072,-0.835 -3.619,-1.102 -3.084,-1.294C-2.544,-1.484 -1.946,-1.578 -1.284,-1.578C-0.593,-1.578 0.02,-1.484 0.542,-1.294C1.073,-1.102 1.523,-0.835 1.899,-0.489" style="fill-rule:nonzero;"/>
    </g>
    <g transform="matrix(4.16667,0,0,4.16667,284.892,172.108)">
        <path d="M0,-4.474C0,-4.098 -0.116,-3.767 -0.35,-3.483C-0.582,-3.198 -0.889,-3.055 -1.267,-3.055C-1.629,-3.055 -1.937,-3.148 -2.184,-3.33C-2.435,-3.511 -2.56,-3.779 -2.56,-4.135C-2.56,-4.306 -2.546,-4.443 -2.522,-4.537C-2.499,-4.633 -2.474,-4.724 -2.456,-4.808C-2.682,-4.796 -2.924,-4.72 -3.175,-4.573C-3.427,-4.424 -3.649,-4.229 -3.843,-3.984L-3.843,0.089C-3.843,0.264 -3.816,0.407 -3.762,0.522C-3.707,0.634 -3.614,0.722 -3.486,0.788C-3.377,0.842 -3.202,0.887 -2.957,0.926C-2.712,0.962 -2.534,0.984 -2.427,0.989L-2.427,1.528L-7.391,1.528L-7.391,0.989C-7.265,0.978 -7.14,0.964 -7.015,0.948C-6.889,0.93 -6.781,0.908 -6.691,0.878C-6.534,0.821 -6.426,0.737 -6.367,0.623C-6.309,0.511 -6.277,0.363 -6.277,0.181L-6.277,-4.141C-6.277,-4.316 -6.319,-4.477 -6.403,-4.62C-6.487,-4.758 -6.589,-4.872 -6.707,-4.955C-6.794,-5.015 -6.91,-5.064 -7.045,-5.104C-7.181,-5.144 -7.33,-5.168 -7.495,-5.185L-7.495,-5.727L-3.954,-5.92L-3.843,-5.808L-3.843,-4.732L-3.813,-4.732C-3.471,-5.129 -3.11,-5.44 -2.727,-5.663C-2.344,-5.888 -1.944,-6.002 -1.527,-6.002C-1.068,-6.002 -0.698,-5.86 -0.419,-5.577C-0.139,-5.29 0,-4.921 0,-4.474" style="fill-rule:nonzero;"/>
    </g>
    <g transform="matrix(4.16667,0,0,4.16667,327.346,149.006)">
        <path d="M0,6.92L-3.539,7.133L-3.65,7.029L-3.65,6.057L-3.695,6.057C-3.866,6.211 -4.03,6.36 -4.189,6.507C-4.348,6.651 -4.542,6.784 -4.762,6.906C-5.013,7.037 -5.252,7.136 -5.48,7.2C-5.703,7.266 -6.031,7.296 -6.459,7.296C-7.208,7.296 -7.778,7.072 -8.177,6.623C-8.572,6.173 -8.772,5.537 -8.772,4.714L-8.772,1.376C-8.772,1.183 -8.807,1.025 -8.883,0.906C-8.955,0.784 -9.054,0.676 -9.177,0.583C-9.276,0.507 -9.403,0.454 -9.563,0.423C-9.718,0.389 -9.858,0.37 -9.988,0.359L-9.988,-0.183L-6.403,-0.376L-6.323,-0.264L-6.323,4.669C-6.323,5.178 -6.224,5.556 -6.031,5.797C-5.834,6.04 -5.567,6.161 -5.226,6.161C-4.875,6.161 -4.558,6.069 -4.28,5.887C-3.999,5.704 -3.794,5.509 -3.666,5.301L-3.666,1.301C-3.666,1.134 -3.699,0.984 -3.764,0.851C-3.829,0.716 -3.922,0.606 -4.044,0.523C-4.136,0.463 -4.261,0.423 -4.429,0.402C-4.596,0.384 -4.762,0.37 -4.937,0.359L-4.937,-0.183L-1.329,-0.376L-1.216,-0.264L-1.216,5.465C-1.216,5.638 -1.185,5.784 -1.117,5.905C-1.048,6.026 -0.946,6.13 -0.813,6.213C-0.718,6.274 -0.598,6.314 -0.449,6.336C-0.296,6.358 -0.148,6.37 0,6.376L0,6.92Z" style="fill-rule:nonzero;"/>
    </g>
    <g transform="matrix(4.16667,0,0,4.16667,370.858,151.742)">
        <path d="M0,2.159L-1.526,-1.647L-3.028,2.159L0,2.159ZM5.53,6.419L-0.203,6.419L-0.203,5.84C0.063,5.818 0.376,5.771 0.737,5.695C1.096,5.618 1.276,5.522 1.276,5.408C1.276,5.369 1.272,5.323 1.265,5.275C1.257,5.225 1.235,5.158 1.202,5.074L0.305,2.892L-3.33,2.892C-3.416,3.096 -3.507,3.335 -3.608,3.605C-3.71,3.878 -3.794,4.119 -3.87,4.332C-3.964,4.609 -4.018,4.81 -4.033,4.933C-4.052,5.056 -4.061,5.144 -4.061,5.193C-4.061,5.351 -3.942,5.486 -3.703,5.598C-3.464,5.709 -3.064,5.79 -2.506,5.84L-2.506,6.419L-6.824,6.419L-6.824,5.84C-6.661,5.828 -6.475,5.804 -6.272,5.762C-6.064,5.72 -5.901,5.661 -5.783,5.585C-5.583,5.469 -5.411,5.321 -5.267,5.148C-5.128,4.977 -5.009,4.767 -4.918,4.532C-4.344,3.141 -3.765,1.75 -3.192,0.355C-2.614,-1.038 -1.979,-2.578 -1.28,-4.26L0.203,-4.26C1.173,-1.875 1.933,0.01 2.482,1.396C3.031,2.78 3.498,3.927 3.883,4.837C3.948,4.987 4.029,5.122 4.127,5.242C4.227,5.365 4.367,5.478 4.553,5.585C4.69,5.665 4.85,5.723 5.036,5.765C5.218,5.804 5.381,5.828 5.53,5.84L5.53,6.419Z" style="fill-rule:nonzero;"/>
    </g>
    <g transform="matrix(4.16667,0,0,4.16667,412.855,130.628)">
        <path d="M0,11.486L-4.676,11.486L-4.676,10.944C-4.545,10.933 -4.42,10.922 -4.297,10.907C-4.173,10.891 -4.068,10.867 -3.974,10.833C-3.813,10.773 -3.703,10.686 -3.648,10.576C-3.591,10.464 -3.563,10.316 -3.563,10.136L-3.563,1.914C-3.563,1.723 -3.6,1.551 -3.676,1.387C-3.751,1.228 -3.855,1.108 -3.986,1.024C-4.083,0.959 -4.232,0.896 -4.432,0.838C-4.634,0.778 -4.809,0.744 -4.964,0.733L-4.964,0.192L-1.223,0L-1.113,0.117L-1.113,10.039C-1.113,10.219 -1.079,10.371 -1.014,10.484C-0.95,10.597 -0.847,10.686 -0.703,10.751C-0.604,10.793 -0.498,10.835 -0.388,10.869C-0.277,10.905 -0.148,10.929 0,10.944L0,11.486Z" style="fill-rule:nonzero;"/>
    </g>
    <g transform="matrix(4.16667,0,0,4.16667,439.944,137.767)">
        <path d="M0,8.295L0,4.103C-0.034,3.988 -0.083,3.863 -0.146,3.725C-0.205,3.586 -0.292,3.455 -0.4,3.331C-0.501,3.227 -0.632,3.136 -0.795,3.057C-0.963,2.977 -1.146,2.938 -1.356,2.938C-1.847,2.938 -2.254,3.218 -2.57,3.775C-2.884,4.336 -3.042,5.124 -3.042,6.144C-3.042,6.544 -3.016,6.905 -2.958,7.222C-2.901,7.543 -2.798,7.831 -2.658,8.094C-2.516,8.357 -2.33,8.561 -2.108,8.711C-1.88,8.858 -1.612,8.933 -1.297,8.933C-0.995,8.933 -0.744,8.874 -0.549,8.758C-0.353,8.643 -0.171,8.488 0,8.295M3.782,9.615L0.125,9.831L0.013,9.729L0.013,9.045L-0.038,9.029C-0.281,9.291 -0.608,9.52 -1.018,9.716C-1.434,9.91 -1.847,10.01 -2.269,10.01C-3.266,10.01 -4.091,9.638 -4.735,8.895C-5.386,8.154 -5.708,7.193 -5.708,6.018C-5.708,4.974 -5.346,4.078 -4.62,3.331C-3.896,2.583 -3.023,2.211 -1.995,2.211C-1.59,2.211 -1.21,2.257 -0.855,2.348C-0.497,2.44 -0.215,2.547 0,2.67L0,0.245C0,0.062 -0.038,-0.109 -0.114,-0.272C-0.187,-0.433 -0.285,-0.558 -0.409,-0.647C-0.564,-0.755 -0.752,-0.834 -0.984,-0.88C-1.214,-0.928 -1.445,-0.96 -1.679,-0.98L-1.679,-1.519L2.336,-1.715L2.447,-1.597L2.447,8.132C2.447,8.32 2.476,8.479 2.539,8.607C2.601,8.733 2.7,8.838 2.839,8.91C2.941,8.965 3.093,9.007 3.292,9.029C3.492,9.055 3.657,9.067 3.782,9.073L3.782,9.615Z" style="fill-rule:nonzero;"/>
    </g>
    <g transform="matrix(4.16667,0,0,4.16667,498.062,149.006)">
        <path d="M0,6.92L-3.54,7.133L-3.649,7.029L-3.649,6.057L-3.697,6.057C-3.864,6.211 -4.027,6.36 -4.187,6.507C-4.348,6.651 -4.541,6.784 -4.762,6.906C-5.012,7.037 -5.251,7.136 -5.478,7.2C-5.701,7.266 -6.027,7.296 -6.459,7.296C-7.204,7.296 -7.778,7.072 -8.172,6.623C-8.573,6.173 -8.769,5.537 -8.769,4.714L-8.769,1.376C-8.769,1.183 -8.808,1.025 -8.88,0.906C-8.955,0.784 -9.054,0.676 -9.175,0.583C-9.273,0.507 -9.403,0.454 -9.56,0.423C-9.719,0.389 -9.859,0.37 -9.987,0.359L-9.987,-0.183L-6.407,-0.376L-6.321,-0.264L-6.321,4.669C-6.321,5.178 -6.224,5.556 -6.027,5.797C-5.833,6.04 -5.564,6.161 -5.222,6.161C-4.872,6.161 -4.557,6.069 -4.277,5.887C-3.999,5.704 -3.793,5.509 -3.665,5.301L-3.665,1.301C-3.665,1.134 -3.698,0.984 -3.763,0.851C-3.828,0.716 -3.919,0.606 -4.044,0.523C-4.131,0.463 -4.263,0.423 -4.426,0.402C-4.591,0.384 -4.76,0.37 -4.935,0.359L-4.935,-0.183L-1.329,-0.376L-1.216,-0.264L-1.216,5.465C-1.216,5.638 -1.183,5.784 -1.115,5.905C-1.044,6.026 -0.946,6.13 -0.811,6.213C-0.717,6.274 -0.596,6.314 -0.444,6.336C-0.295,6.358 -0.148,6.37 0,6.376L0,6.92Z" style="fill-rule:nonzero;"/>
    </g>
    <g transform="matrix(4.16667,0,0,4.16667,541.409,146.974)">
        <path d="M0,7.563L-4.458,7.563L-4.458,7.021C-4.367,7.01 -4.251,6.999 -4.118,6.984C-3.985,6.968 -3.884,6.944 -3.813,6.91C-3.708,6.854 -3.638,6.775 -3.592,6.672C-3.545,6.568 -3.525,6.416 -3.525,6.213L-3.525,2.738C-3.525,2.235 -3.617,1.853 -3.803,1.6C-3.989,1.346 -4.263,1.216 -4.625,1.216C-4.824,1.216 -5.01,1.25 -5.181,1.306C-5.353,1.367 -5.518,1.452 -5.683,1.568C-5.827,1.666 -5.939,1.768 -6.028,1.871C-6.116,1.976 -6.188,2.068 -6.247,2.146L-6.247,6.131C-6.247,6.304 -6.222,6.448 -6.175,6.564C-6.123,6.68 -6.043,6.769 -5.93,6.828C-5.85,6.87 -5.75,6.912 -5.634,6.946C-5.514,6.982 -5.398,7.006 -5.284,7.021L-5.284,7.563L-9.793,7.563L-9.793,7.021C-9.67,7.01 -9.545,6.999 -9.417,6.978C-9.294,6.96 -9.188,6.94 -9.097,6.91C-8.938,6.854 -8.831,6.771 -8.771,6.66C-8.709,6.543 -8.681,6.393 -8.681,6.213L-8.681,1.895C-8.681,1.741 -8.721,1.589 -8.8,1.441C-8.88,1.293 -8.983,1.171 -9.112,1.079C-9.199,1.017 -9.313,0.968 -9.45,0.93C-9.585,0.888 -9.735,0.862 -9.898,0.847L-9.898,0.305L-6.358,0.112L-6.247,0.224L-6.247,1.299L-6.218,1.299C-6.08,1.175 -5.911,1.027 -5.713,0.854C-5.515,0.681 -5.333,0.542 -5.163,0.432C-4.98,0.313 -4.741,0.21 -4.444,0.127C-4.146,0.043 -3.832,0 -3.495,0C-2.688,0 -2.083,0.23 -1.68,0.687C-1.277,1.142 -1.076,1.751 -1.076,2.508L-1.076,6.144C-1.076,6.327 -1.05,6.473 -0.995,6.584C-0.939,6.691 -0.837,6.776 -0.693,6.843C-0.609,6.877 -0.512,6.912 -0.396,6.946C-0.282,6.982 -0.149,7.006 0,7.021L0,7.563Z" style="fill-rule:nonzero;"/>
    </g>
    <g transform="matrix(4.16667,0,0,4.16667,568.462,137.767)">
        <path d="M0,8.295L0,4.103C-0.034,3.988 -0.083,3.863 -0.144,3.725C-0.206,3.586 -0.292,3.455 -0.401,3.331C-0.5,3.227 -0.631,3.136 -0.796,3.057C-0.963,2.977 -1.147,2.938 -1.355,2.938C-1.846,2.938 -2.254,3.218 -2.567,3.775C-2.883,4.336 -3.042,5.124 -3.042,6.144C-3.042,6.544 -3.016,6.905 -2.958,7.222C-2.902,7.543 -2.799,7.831 -2.659,8.094C-2.516,8.357 -2.329,8.561 -2.108,8.711C-1.88,8.858 -1.612,8.933 -1.297,8.933C-0.995,8.933 -0.744,8.874 -0.547,8.758C-0.354,8.643 -0.167,8.488 0,8.295M3.784,9.615L0.125,9.831L0.013,9.729L0.013,9.045L-0.038,9.029C-0.281,9.291 -0.607,9.52 -1.019,9.716C-1.432,9.91 -1.846,10.01 -2.267,10.01C-3.264,10.01 -4.086,9.638 -4.736,8.895C-5.386,8.154 -5.705,7.193 -5.705,6.018C-5.705,4.974 -5.345,4.078 -4.621,3.331C-3.896,2.583 -3.022,2.211 -1.994,2.211C-1.587,2.211 -1.21,2.257 -0.855,2.348C-0.496,2.44 -0.214,2.547 0,2.67L0,0.245C0,0.062 -0.038,-0.109 -0.114,-0.272C-0.187,-0.433 -0.285,-0.558 -0.409,-0.647C-0.564,-0.755 -0.752,-0.834 -0.984,-0.88C-1.214,-0.928 -1.446,-0.96 -1.679,-0.98L-1.679,-1.519L2.337,-1.715L2.449,-1.597L2.449,8.132C2.449,8.32 2.479,8.479 2.54,8.607C2.601,8.733 2.703,8.838 2.838,8.91C2.942,8.965 3.093,9.007 3.292,9.029C3.491,9.055 3.656,9.067 3.784,9.073L3.784,9.615Z" style="fill-rule:nonzero;"/>
    </g>
    <g transform="matrix(4.16667,0,0,4.16667,601.293,172.799)">
        <path d="M0,-8.756C0,-8.382 -0.144,-8.061 -0.435,-7.795C-0.725,-7.531 -1.063,-7.398 -1.461,-7.398C-1.86,-7.398 -2.206,-7.531 -2.495,-7.795C-2.786,-8.061 -2.932,-8.382 -2.932,-8.756C-2.932,-9.132 -2.786,-9.454 -2.495,-9.722C-2.206,-9.987 -1.86,-10.121 -1.461,-10.121C-1.06,-10.121 -0.718,-9.987 -0.429,-9.722C-0.144,-9.454 0,-9.132 0,-8.756M1.084,1.365L-3.605,1.365L-3.605,0.823C-3.479,0.812 -3.352,0.801 -3.228,0.786C-3.104,0.77 -2.996,0.746 -2.909,0.712C-2.749,0.652 -2.639,0.565 -2.575,0.454C-2.51,0.343 -2.477,0.195 -2.477,0.015L-2.477,-4.303C-2.477,-4.478 -2.518,-4.63 -2.597,-4.761C-2.677,-4.892 -2.774,-4.996 -2.894,-5.078C-2.985,-5.137 -3.117,-5.193 -3.295,-5.247C-3.479,-5.302 -3.646,-5.336 -3.79,-5.351L-3.79,-5.893L-0.155,-6.086L-0.043,-5.974L-0.043,-0.082C-0.043,0.09 -0.007,0.237 0.067,0.359C0.141,0.482 0.248,0.569 0.386,0.63C0.486,0.674 0.592,0.714 0.712,0.748C0.832,0.784 0.955,0.808 1.084,0.823L1.084,1.365Z" style="fill-rule:nonzero;"/>
    </g>
    <g transform="matrix(4.16667,0,0,4.16667,628.65,164.664)">
        <path d="M0,-0.704C-0.277,-0.611 -0.554,-0.502 -0.826,-0.382C-1.1,-0.259 -1.321,-0.133 -1.496,0.002C-1.679,0.139 -1.823,0.319 -1.93,0.534C-2.031,0.748 -2.084,1.002 -2.084,1.295C-2.084,1.684 -1.997,1.961 -1.82,2.137C-1.645,2.309 -1.427,2.397 -1.169,2.397C-0.896,2.397 -0.67,2.342 -0.493,2.229C-0.318,2.117 -0.163,1.981 -0.03,1.815L0,-0.704ZM3.68,3.162C3.464,3.254 3.209,3.342 2.91,3.42C2.613,3.499 2.302,3.539 1.972,3.539C1.364,3.539 0.916,3.448 0.63,3.268C0.346,3.087 0.148,2.831 0.045,2.495L0,2.495C-0.167,2.662 -0.33,2.805 -0.485,2.924C-0.642,3.04 -0.808,3.145 -0.987,3.229C-1.219,3.335 -1.443,3.418 -1.659,3.473C-1.875,3.526 -2.175,3.555 -2.563,3.555C-3.136,3.555 -3.63,3.384 -4.037,3.043C-4.443,2.704 -4.644,2.258 -4.644,1.697C-4.644,1.375 -4.599,1.1 -4.511,0.875C-4.421,0.65 -4.294,0.45 -4.131,0.277C-3.983,0.117 -3.809,-0.012 -3.615,-0.117C-3.419,-0.221 -3.205,-0.317 -2.969,-0.406C-2.526,-0.569 -1.989,-0.738 -1.367,-0.917C-0.742,-1.092 -0.286,-1.249 0,-1.389L0,-2.1C0,-2.224 -0.007,-2.387 -0.03,-2.591C-0.049,-2.791 -0.091,-2.964 -0.155,-3.103C-0.224,-3.261 -0.333,-3.393 -0.481,-3.502C-0.63,-3.612 -0.826,-3.665 -1.068,-3.665C-1.287,-3.665 -1.465,-3.634 -1.613,-3.574C-1.761,-3.512 -1.877,-3.448 -1.967,-3.384C-1.952,-3.285 -1.91,-3.133 -1.841,-2.93C-1.769,-2.728 -1.735,-2.535 -1.735,-2.345C-1.735,-2.26 -1.758,-2.154 -1.803,-2.03C-1.849,-1.904 -1.914,-1.803 -1.997,-1.729C-2.111,-1.63 -2.236,-1.554 -2.381,-1.5C-2.517,-1.445 -2.737,-1.419 -3.03,-1.419C-3.446,-1.419 -3.761,-1.519 -3.976,-1.717C-4.188,-1.918 -4.294,-2.178 -4.294,-2.501C-4.294,-2.778 -4.185,-3.026 -3.964,-3.247C-3.747,-3.466 -3.478,-3.647 -3.159,-3.792C-2.848,-3.94 -2.491,-4.055 -2.084,-4.136C-1.679,-4.217 -1.302,-4.259 -0.957,-4.259C-0.478,-4.259 -0.035,-4.23 0.363,-4.174C0.766,-4.116 1.128,-4.001 1.447,-3.82C1.754,-3.647 2,-3.397 2.18,-3.068C2.358,-2.738 2.45,-2.311 2.45,-1.781C2.45,-1.222 2.438,-0.558 2.418,0.207C2.393,0.976 2.383,1.478 2.383,1.72C2.383,1.944 2.418,2.121 2.484,2.248C2.55,2.377 2.651,2.472 2.79,2.538C2.875,2.577 3.008,2.602 3.187,2.608C3.369,2.614 3.534,2.618 3.68,2.618L3.68,3.162Z" style="fill-rule:nonzero;"/>
    </g>
    <g transform="matrix(4.16667,0,0,4.16667,1741.53,192.601)">
        <path d="M0,-15.654L-4.117,-5.882L4.143,-5.882L0,-15.654ZM6.98,0.64L4.439,-5.265L-4.416,-5.265L-6.957,0.64L-7.687,0.64L-0.436,-16.294L0.457,-16.294L7.713,0.64L6.98,0.64Z" style="fill-rule:nonzero;"/>
    </g>
    <g transform="matrix(4.16667,0,0,4.16667,-783.317,-1385.03)">
        <rect x="615.602" y="362.338" width="0.687" height="16.932"/>
    </g>
    <g transform="matrix(4.16667,0,0,4.16667,1851.39,124.709)">
        <path d="M0,16.934L-11.762,0.685L-11.809,0.685L-11.809,16.934L-12.498,16.934L-12.498,0L-11.465,0L0.137,16.02L0.182,16.02L0.182,0L0.869,0L0.869,16.934L0,16.934Z" style="fill-rule:nonzero;"/>
    </g>
    <g transform="matrix(4.16667,0,0,4.16667,1615.37,193.941)">
        <path d="M0,-16.297C-4.485,-16.297 -8.101,-12.839 -8.101,-8.151C-8.101,-3.459 -4.485,-0.003 0,-0.003C4.485,-0.003 8.101,-3.459 8.101,-8.151C8.101,-12.839 4.485,-16.297 0,-16.297M0,0.616C-4.854,0.616 -8.79,-3.069 -8.79,-8.151C-8.79,-13.228 -4.854,-16.913 0,-16.913C4.85,-16.913 8.788,-13.228 8.788,-8.151C8.788,-3.069 4.85,0.616 0,0.616" style="fill-rule:nonzero;"/>
    </g>
    <g transform="matrix(4.16667,0,0,4.16667,1686.7,151.391)">
        <path d="M0,4.122L-0.665,4.146L3.889,10.527L3.019,10.527L-1.945,3.527L-0.893,3.527C0.708,3.527 1.738,3.391 2.859,2.452C3.934,1.331 4.303,0.163 4.303,-1.165C4.303,-2.629 3.592,-4.254 2.29,-5.101C1.256,-5.764 0.023,-5.786 -1.971,-5.786L-5.148,-5.786L-5.148,10.527L-5.838,10.527L-5.838,-6.405L-1.971,-6.405C0.664,-6.405 1.693,-6.152 2.54,-5.695C3.889,-4.984 4.943,-3.156 4.988,-1.186L4.988,-1.073C4.988,1.032 3.614,4.007 0,4.122" style="fill-rule:nonzero;"/>
    </g>
    <g transform="matrix(4.16667,0,0,4.16667,1470.8,66.8833)">
        <path d="M0,68.023C-3.729,71.752 -8.068,74.872 -12.85,77.22C-10.188,75.509 -7.749,73.517 -5.576,71.289C1.868,63.644 6.253,53.229 6.253,41.895C6.253,38.872 6.101,35.492 5.451,32.373C5.447,32.349 5.439,32.331 5.432,32.308C5.344,31.856 4.945,31.516 4.469,31.516L-34.082,31.516L-26.937,25.939L13.445,25.965C13.878,28.581 14.077,31.269 14.077,34.011C14.076,47.297 8.698,59.317 0,68.023M-82.045,34.011C-82.045,20.725 -76.67,8.708 -67.972,0.002C-63.367,-4.606 -57.84,-8.281 -51.686,-10.72C-57.801,-7.32 -63.131,-2.377 -66.984,3.67C-71.004,9.978 -73.418,17.486 -73.418,25.657C-73.418,28.79 -73.061,32.021 -72.309,35.314C-71.902,37.099 -71.261,39.139 -70.52,41.103C-69.775,43.068 -68.938,44.952 -68.116,46.419C-64.662,52.574 -60.016,57.69 -54.326,61.356L-54.32,61.364C-50.576,63.719 -45.92,65.216 -41.156,65.218C-36.069,65.219 -31.336,63.648 -27.429,60.964C-23.525,58.282 -20.442,54.488 -18.645,50.035C-18.516,49.723 -18.562,49.366 -18.756,49.091L-18.891,48.904C-19.078,48.649 -19.374,48.499 -19.687,48.499L-35.924,48.502L-35.924,33.482L3.475,33.482C3.984,36.323 4.105,39.233 4.105,41.895C4.105,52.672 -0.056,62.541 -7.115,69.787C-14.178,77.033 -24.109,81.814 -35.76,82.074L-35.77,82.076C-48.334,81.616 -59.662,76.336 -67.972,68.023C-76.67,59.317 -82.045,47.297 -82.045,34.011M10.08,14.691L-12.34,14.691C-14.025,11.226 -16.617,8.286 -19.807,6.18C-23.172,3.956 -27.211,2.66 -31.543,2.66C-35.691,2.66 -39.572,3.849 -42.852,5.902C-44.425,6.888 -45.859,8.076 -47.123,9.425C-47.348,9.536 -47.512,9.725 -47.598,9.946C-48.759,11.277 -49.764,12.749 -50.572,14.336L-50.579,14.349L-50.588,14.367C-52.861,18.87 -54.137,23.96 -54.137,29.348C-54.137,34.86 -52.797,40.069 -50.423,44.652L-50.415,44.664C-50.415,44.664 -50.207,45.06 -49.986,45.467C-49.878,45.672 -49.766,45.875 -49.68,46.037C-49.637,46.116 -49.602,46.184 -49.572,46.239C-49.557,46.264 -49.546,46.285 -49.534,46.304L-49.52,46.333C-49.514,46.342 -49.51,46.35 -49.497,46.371C-47.351,49.871 -44.365,52.807 -40.815,54.87C-37.262,56.933 -33.139,58.123 -28.734,58.12C-28.094,58.12 -27.463,58.097 -26.84,58.046C-27.387,58.505 -27.953,58.938 -28.541,59.343C-32.134,61.81 -36.475,63.252 -41.156,63.252C-45.503,63.254 -49.832,61.867 -53.264,59.703C-58.661,56.221 -63.088,51.361 -66.403,45.455C-67.156,44.115 -67.968,42.301 -68.682,40.408C-69.396,38.516 -70.013,36.543 -70.395,34.876C-71.112,31.723 -71.451,28.641 -71.451,25.657C-71.45,17.876 -69.16,10.742 -65.326,4.728C-61.496,-1.286 -56.119,-6.173 -49.967,-9.422C-47.685,-10.627 -45.379,-11.573 -42.809,-12.356C-42.225,-12.532 -41.394,-12.733 -40.462,-12.925C-39.059,-13.218 -37.412,-13.496 -35.924,-13.702C-35.176,-13.803 -34.469,-13.888 -33.85,-13.944C-33.232,-13.999 -32.703,-14.034 -32.333,-14.033C-32.156,-14.034 -32.016,-14.025 -31.939,-14.013C-31.838,-14.003 -31.738,-14.011 -31.639,-14.031C-22.42,-13.586 -13.887,-10.547 -6.741,-5.621C0.605,-0.548 6.473,6.423 10.08,14.691M4.43,19.643L-19.762,19.687C-21.857,16.379 -24.729,13.612 -28.126,11.648C-31.686,9.588 -35.822,8.41 -40.227,8.41C-41.271,8.41 -42.298,8.48 -43.311,8.608C-42.828,8.239 -42.326,7.89 -41.81,7.565C-38.834,5.702 -35.318,4.626 -31.543,4.626C-27.604,4.626 -23.946,5.799 -20.886,7.818C-17.826,9.837 -15.371,12.703 -13.857,16.075C-13.841,16.113 -13.818,16.147 -13.797,16.179L-13.77,16.231C-13.742,16.266 -13.713,16.299 -13.685,16.334L-13.645,16.375C-13.617,16.404 -13.586,16.428 -13.552,16.453C-13.533,16.468 -13.515,16.484 -13.494,16.496C-13.467,16.513 -13.436,16.529 -13.408,16.544C-13.379,16.559 -13.354,16.573 -13.324,16.585C-13.298,16.593 -13.271,16.604 -13.242,16.611C-13.209,16.62 -13.176,16.631 -13.139,16.639C-13.115,16.643 -13.09,16.645 -13.063,16.647C-13.027,16.649 -12.994,16.657 -12.961,16.657L8.407,16.657L4.43,19.643ZM15.236,24.813L15.23,24.793C15.227,24.77 15.219,24.749 15.213,24.728C15.201,24.688 15.191,24.648 15.177,24.61C15.154,24.559 15.127,24.508 15.098,24.46L15.09,24.449C14.914,24.181 14.615,24.004 14.27,24.004L-27.272,23.976C-27.491,23.976 -27.703,24.048 -27.876,24.181L-37.461,31.661C-37.541,31.723 -37.606,31.797 -37.66,31.877C-37.804,32.051 -37.885,32.272 -37.885,32.499L-37.885,49.486C-37.885,49.744 -37.781,49.998 -37.601,50.18C-37.416,50.362 -37.162,50.468 -36.903,50.468L-20.982,50.466C-21.891,52.391 -23.064,54.166 -24.467,55.742C-25.859,56.014 -27.254,56.157 -28.734,56.157C-32.787,56.157 -36.562,55.069 -39.828,53.172C-43.09,51.277 -45.84,48.575 -47.818,45.355C-47.825,45.338 -47.844,45.303 -47.869,45.263C-47.972,45.072 -48.179,44.688 -48.355,44.354C-48.514,44.058 -48.656,43.795 -48.68,43.746C-50.914,39.436 -52.176,34.542 -52.176,29.348C-52.176,24.272 -50.972,19.487 -48.836,15.25L-48.836,15.242L-48.824,15.228C-48.07,13.746 -47.127,12.375 -46.035,11.142C-44.184,10.644 -42.236,10.376 -40.227,10.376C-36.174,10.376 -32.381,11.456 -29.107,13.346C-25.834,15.24 -23.088,17.944 -21.142,21.179L-21.109,21.222L-21.102,21.236C-20.99,21.394 -20.843,21.507 -20.675,21.578L-20.667,21.58C-20.611,21.602 -20.555,21.62 -20.496,21.633L-20.471,21.637C-20.416,21.647 -20.361,21.65 -20.305,21.652L-20.293,21.654L4.919,21.605C5.1,21.602 5.283,21.551 5.436,21.453L12.055,16.529C12.115,16.489 12.169,16.446 12.217,16.394C12.512,16.149 12.636,15.769 12.48,15.38C8.789,6.163 2.428,-1.678 -5.629,-7.236C-13.688,-12.796 -23.46,-16.052 -33.987,-16.052C-47.797,-16.052 -60.309,-10.446 -69.357,-1.39C-78.406,7.668 -84.011,20.19 -84.011,34.011C-84.011,47.833 -78.406,60.355 -69.357,69.411C-60.709,78.067 -48.9,83.566 -35.813,84.037L-35.736,84.043L-35.695,84.043C-35.129,84.059 -34.561,84.075 -33.987,84.075C-20.176,84.075 -7.662,78.468 1.388,69.411C10.438,60.355 16.039,47.833 16.037,34.011C16.037,30.869 15.79,27.794 15.236,24.813" style="fill-rule:nonzero;"/>
    </g>
    <g transform="matrix(4.16667,0,0,4.16667,970.553,196.819)">
        <path d="M0,8.111L0,-0.243C2.905,-1.075 9.644,-4.568 8.562,-14.143C8.562,-22.397 2.634,-36.045 -2.288,-35.411C-6.319,-35.934 -11.003,-26.888 -12.606,-19.058C-14.205,-26.888 -18.929,-35.934 -22.95,-35.411C-27.162,-35.938 -31.765,-26.64 -33.229,-18.745C-34.727,-26.64 -39.396,-35.938 -43.477,-35.411C-48.558,-36.045 -54.711,-22.397 -54.711,-14.143C-55.752,-4.907 -49.396,-1.328 -46.492,-0.34L-46.492,8.049C-49.396,8.742 -49.909,10.445 -54.011,10.751L-54.06,15.671C-48.85,15.299 -48.687,12.667 -43.662,12.667C-38.587,12.667 -38.537,15.374 -33.295,15.685C-28.062,15.374 -28.034,12.667 -22.95,12.667C-17.869,12.667 -18.163,15.374 -12.929,15.685C-7.691,15.374 -7.658,12.667 -2.578,12.667C2.347,12.667 2.565,15.197 7.349,15.643L7.177,10.723C3.502,10.388 2.905,8.827 0,8.111M6.916,20.689C2.447,20.167 2.188,17.748 -2.624,17.748C-7.705,17.748 -7.705,20.447 -12.944,20.768C-18.177,20.447 -17.858,17.748 -22.941,17.748C-28.021,17.748 -28.021,20.447 -33.251,20.768C-38.494,20.447 -38.494,17.748 -43.572,17.748C-48.478,17.748 -48.66,20.257 -53.529,20.715C-53.274,22.331 -52.882,23.907 -52.35,25.428C-48.584,24.644 -48.05,22.668 -43.572,22.668C-38.494,22.668 -38.494,25.206 -33.251,25.682C-28.021,25.206 -28.021,22.668 -22.941,22.668C-17.858,22.668 -18.177,25.206 -12.944,25.682C-7.705,25.206 -7.705,22.668 -2.624,22.668C1.735,22.668 2.362,24.53 5.761,25.364C6.274,23.846 6.665,22.287 6.916,20.689M3.836,29.77C1.899,28.877 0.767,27.741 -2.624,27.741C-7.705,27.741 -7.705,30.285 -12.944,30.762C-18.177,30.285 -17.858,27.741 -22.941,27.741C-28.021,27.741 -28.021,30.285 -33.251,30.762C-38.494,30.285 -38.494,27.741 -43.572,27.741C-47.123,27.741 -48.197,28.987 -50.373,29.904C-49.667,31.189 -48.87,32.435 -47.992,33.638C-46.894,33.097 -45.661,32.667 -43.572,32.667C-38.494,32.667 -38.494,35.207 -33.251,35.681C-28.021,35.207 -28.021,32.667 -22.941,32.667C-17.858,32.667 -18.177,35.207 -12.944,35.681C-7.705,35.207 -7.705,32.667 -2.624,32.667C-0.711,32.667 0.478,33.023 1.495,33.494C2.362,32.301 3.146,31.058 3.836,29.77M16.798,-46.941L16.725,18.433C17.169,38.746 -3.164,55.063 -23,54.56C-42.838,55.019 -63.298,38.645 -62.793,18.332L-62.707,-46.952L16.798,-46.941ZM-26.151,-0.34C-29.057,-1.032 -31.934,-3.025 -33.314,-7.375C-34.692,-2.803 -40.68,-0.846 -40.68,-0.243L-40.68,7.992C-40.68,8.658 -37.621,10.507 -33.336,10.767C-29.132,10.511 -29.057,8.72 -26.151,8.03L-26.151,-0.34ZM-5.812,7.946C-11.622,8.565 -8.997,10.499 -13.392,10.767C-17.623,10.511 -20.34,8.7 -20.34,8.014L-20.34,-0.249C-17.432,-0.853 -14.375,-2.801 -12.97,-7.335C-11.562,-3.022 -11.622,-1.04 -5.812,-0.342L-5.812,7.946Z" style="fill-rule:nonzero;"/>
    </g>
    <g transform="matrix(4.16667,0,0,4.16667,1967.07,277.043)">
        <path d="M0,-9.972C-2.77,-9.972 -4.625,-7.683 -4.625,-5.031C-4.625,-2.331 -2.77,0.006 0.046,0.006C2.769,0.006 4.6,-2.374 4.6,-4.96C4.6,-7.592 2.769,-9.972 0,-9.972M-0.047,3.801C-4.828,3.801 -8.951,0.096 -8.951,-4.778C-8.951,-6.037 -8.742,-7.226 -8.286,-8.395C-8.035,-9.058 -7.622,-9.721 -7.187,-10.292C-5.446,-12.579 -2.907,-13.773 -0.023,-13.773C4.918,-13.773 8.922,-9.972 8.922,-4.985C8.922,0.028 4.918,3.801 -0.047,3.801" style="fill-rule:nonzero;"/>
    </g>
    <g transform="matrix(4.16667,0,0,4.16667,1717.4,275.724)">
        <path d="M0,-9.334L-1.6,-9.334L-1.6,-5.308L0.162,-5.308C1.582,-5.308 2.863,-5.629 2.863,-7.346C2.863,-9.107 1.42,-9.334 0,-9.334M5.219,-2.975C3.756,-1.691 2.176,-1.511 0.277,-1.511L-1.6,-1.511L-1.6,3.8L-5.742,3.8L-5.742,-13.134L-0.203,-13.134C1.533,-13.134 3.619,-13.064 5.013,-11.899C6.34,-10.776 7.006,-9.151 7.006,-7.414C7.006,-5.855 6.406,-4.026 5.219,-2.975" style="fill-rule:nonzero;"/>
    </g>
    <g transform="matrix(4.16667,0,0,4.16667,1801.04,228.615)">
        <path d="M0,13.595C-1.281,14.9 -2.929,15.424 -4.737,15.424C-6.502,15.424 -8.373,14.924 -9.612,13.619C-11.145,11.993 -11.306,10.551 -11.306,8.4L-11.306,-1.829L-6.98,-1.829L-6.98,8.4C-6.98,9.934 -6.73,11.628 -4.782,11.628C-2.746,11.628 -2.634,10.004 -2.634,8.4L-2.634,-1.829L1.693,-1.829L1.693,8.4C1.693,10.414 1.461,12.13 0,13.595" style="fill-rule:nonzero;"/>
    </g>
    <g transform="matrix(4.16667,0,0,4.16667,1615.66,219.663)">
        <path d="M0,17.598C-4.99,17.598 -8.996,13.731 -8.996,8.718C-8.996,3.637 -4.899,0 0.066,0C3.729,0 7.504,2.379 8.537,5.996L3.684,5.996C2.904,4.597 1.557,3.799 -0.047,3.799C-2.814,3.799 -4.668,6.04 -4.668,8.718C-4.668,11.486 -2.908,13.799 -0.027,13.799C1.829,13.799 3.5,12.951 4.023,11.076L-1.029,11.076L-1.029,7.62L9.016,7.62C9.037,7.916 9.037,8.214 9.037,8.513C9.037,13.707 5.192,17.598 0,17.598" style="fill-rule:nonzero;"/>
    </g>
</svg>
