<?xml version="1.0" encoding="UTF-8" standalone="no"?>
<!DOCTYPE svg PUBLIC "-//W3C//DTD SVG 1.1//EN" "http://www.w3.org/Graphics/SVG/1.1/DTD/svg11.dtd">
<svg width="100%" height="100%" viewBox="0 0 1046 527" version="1.1" xmlns="http://www.w3.org/2000/svg" xmlns:xlink="http://www.w3.org/1999/xlink" xml:space="preserve" xmlns:serif="http://www.serif.com/" style="fill-rule:evenodd;clip-rule:evenodd;stroke-linejoin:round;stroke-miterlimit:1.41421;">
    <g transform="matrix(4.16667,0,0,4.16667,385.154,526.454)">
        <path d="M0,-126.349L158.387,-126.349L133.236,-108.746L-25.143,-108.746L-92.437,-61.656L-92.437,-18.222L3.895,-18.222L-22.141,0L-92.437,0L-92.437,-61.656L0,-126.349Z" style="fill:rgb(130,195,65);"/>
    </g>
    <path d="M754.73,344.5C751.49,344.5 748.39,344.81 745.45,345.45C742.54,346.1 739.94,347.13 737.74,348.63C735.48,350.06 733.67,351.89 732.41,354.22C731.08,356.58 730.41,359.51 730.41,362.93C730.41,368.23 732.13,372.43 735.75,375.38C739.24,378.32 744.25,379.87 750.69,379.87C753.16,379.87 755.94,379.58 758.98,379.06C762.01,378.5 764.96,377.88 767.76,377.11L772.22,375.95C772.64,375.83 773.04,375.81 773.44,375.73L773.44,379.23L781.44,379.23L781.44,369.41L781.45,369.28L781.45,337.47C781.45,333.8 780.86,330.64 779.72,328C778.51,325.36 776.92,323.23 774.84,321.58C772.85,319.88 770.47,318.65 767.76,317.86C765.06,317.14 762.14,316.76 759.02,316.76C758.94,316.76 747.09,316.52 732.84,320.1L734.51,327.66C734.51,327.66 747.759,323.99 758.79,324.43L758.94,324.43C763.26,324.43 766.69,325.51 769.37,327.41C772.06,329.4 773.44,332.77 773.44,337.47L773.44,344.5L754.73,344.5ZM625.79,324.82L625.79,360.18C625.79,373.19 631.7,379.65 643.49,379.65C646.09,379.65 650.47,379.08 656.51,377.85L655.23,370.19C652.11,370.91 649.82,371.3 648.12,371.58C646.46,371.85 645.02,371.98 643.79,371.98C640.18,371.98 637.71,371.04 636.29,368.91C634.81,367 634.08,363.82 634.08,359.53L634.08,324.82L655.03,324.82L655.03,317.34L634.08,317.34L634.08,301.37L625.79,303.11L625.79,317.34L615.98,317.34L615.98,324.82L625.79,324.82ZM678.31,317.44L668.12,317.44L684.95,348.1L667.67,379.01L677.51,379.01L691.51,351.5L695.43,351.5L709.4,379.01L719.25,379.01L701.99,348.1L718.82,317.44L708.63,317.44L695.39,343.47L691.53,343.47L678.31,317.44ZM773.44,368.65L766.63,370.23C763.76,370.93 761.01,371.43 758.39,371.82C755.8,372.21 753.58,372.4 751.83,372.4C747.66,372.4 744.48,371.55 742.17,369.94C739.9,368.36 738.79,365.83 738.79,362.49C738.79,358.54 740.18,355.77 742.93,354.17C745.67,352.52 749.6,351.62 754.64,351.62L773.44,351.62L773.44,368.65ZM911.81,275.24C941.47,274.16 977.24,254.62 980.31,227.42C966.76,232.16 948.54,230.79 940.54,226.68C936.96,234.18 935.22,236.21 928.44,240.77C919.13,247.1 908.37,249.49 897.24,248.47C882.13,247.14 861.71,239.99 861.71,219.14C861.71,211.13 870.13,189.85 901.62,189.85C907.16,189.85 911.03,190.47 915.68,191.86C916.41,178.6 920.21,170.88 923.25,164.69C913.01,162.43 903.85,162.69 895.99,162.69C852.59,162.69 818.98,194.72 820.59,220.28C821.53,234.67 828.19,246.58 840.16,256.38C853.61,267.36 869.91,272.61 884.89,274.91C883.53,297.69 882.2,323.13 877.46,361.38L951.07,361.38C950.54,345.6 949.84,330.78 949.12,315.15C941.22,319.12 934.48,325.74 925.31,323.85C912.12,321.2 909.6,286.33 911.81,275.24ZM531.47,359.48L555.8,342.45L555.8,357.29C555.8,360.4 556.23,363.27 557.08,365.99C557.88,368.69 559.17,371.09 561.08,373.04C562.93,375.05 565.26,376.64 568.19,377.74C571.1,378.89 574.67,379.47 578.76,379.47C580.68,379.47 583.08,379.34 586.11,379.03C589.06,378.82 593.08,378 598.27,376.7C602.62,375.73 604.83,372.94 604.83,368.57L604.83,317.44L596.52,317.44L596.52,369.23C594.26,369.92 592.33,370.32 590.59,370.63C588.94,370.93 587.41,371.14 586.11,371.35C584.74,371.54 583.55,371.69 582.53,371.69C581.53,371.75 580.6,371.77 579.68,371.77C576.65,371.77 574.19,371.41 572.19,370.63C570.18,369.92 568.57,368.78 567.33,367.47C566.14,366.12 565.26,364.44 564.76,362.63C564.29,360.68 564.04,358.67 564.04,356.5L564.04,336.69L671.71,261.33L667.09,249.22L675.64,271.61L696.81,271.61L688.561,249.529L711.64,233.38L711.64,257.75C711.64,261.77 713.08,265.31 715.75,267.84C718.39,270.34 721.88,271.61 726.21,271.61L781.45,271.61L781.45,252.94L731.63,252.94L731.63,219.39L940.3,73.35L1045.1,73.35L1045.1,450.53L401.38,450.53L524.74,364.19L513.45,347.5L534.77,379.01L544.65,379.01L520.65,343.47L531.47,359.48ZM85.07,162.68L65.06,162.68L65.06,224.02L0,269.56L0,73.35L280.39,73.35L85.07,210.02L85.07,162.68Z"/>
    <g transform="matrix(1,0,0,1,-1231.39,-976.93)">
        <path d="M1963.02,1196.32L1963.02,1139.61L1943.03,1139.61L1943.03,1210.31L1919.95,1226.46L1890.38,1147.3C1888.37,1141.75 1883.93,1138.66 1877.88,1138.66C1871.8,1138.66 1867.35,1141.75 1865.39,1147.34L1826.85,1248.54L1847.79,1248.54L1856.33,1226.15L1898.48,1226.15L1903.1,1238.26L1795.43,1313.62L1795.43,1294.37L1787.19,1294.37L1787.19,1319.38L1762.86,1336.41L1752.04,1320.4L1776.04,1294.34L1765.11,1294.34L1744.84,1316.39L1733.73,1316.39L1733.73,1278.29L1725.58,1279.99L1725.58,1355.94L1733.73,1355.94L1733.73,1324.43L1744.84,1324.43L1756.13,1341.12L1632.77,1427.46L1231.39,1427.46L1231.39,1246.49L1296.45,1200.95L1296.45,1234.68C1296.45,1238.7 1297.88,1242.19 1300.58,1244.77C1303.2,1247.27 1306.75,1248.54 1310.99,1248.54L1366.26,1248.54L1366.26,1229.87L1316.46,1229.87L1316.46,1186.95L1511.78,1050.28L2171.69,1050.28L1963.02,1196.32ZM1691.78,1153.66C1687.33,1148.92 1681.98,1145.23 1675.75,1142.74C1669.67,1140.35 1662.85,1139.05 1655.47,1139.05C1648.14,1139.05 1641.27,1140.35 1635.07,1142.74C1628.75,1145.2 1623.3,1148.92 1618.82,1153.73C1614.32,1158.5 1610.79,1164.41 1608.35,1171.3C1605.95,1178.05 1604.75,1185.83 1604.75,1194.34C1604.75,1202.94 1605.95,1210.72 1608.26,1217.45C1610.71,1224.34 1614.12,1230.27 1618.5,1234.97C1622.95,1239.76 1628.33,1243.45 1634.51,1245.93C1640.6,1248.35 1647.44,1249.6 1654.85,1249.6C1662.15,1249.6 1669.02,1248.41 1675.14,1246.01C1681.44,1243.61 1686.91,1239.98 1691.48,1235.16C1695.97,1230.4 1699.47,1224.46 1701.95,1217.64C1704.32,1210.92 1705.53,1203.07 1705.53,1194.34C1705.53,1185.76 1704.32,1177.94 1702.01,1171.2C1699.66,1164.31 1696.14,1158.42 1691.78,1153.66ZM1431.96,1138.66C1425.93,1138.66 1421.48,1141.75 1419.51,1147.34L1380.96,1248.54L1401.9,1248.54L1410.47,1226.15L1452.54,1226.15L1461.14,1248.54L1482.28,1248.54L1444.51,1147.3C1442.48,1141.75 1438.04,1138.66 1431.96,1138.66ZM1549.64,1139.61L1516.79,1139.61C1512.48,1139.61 1509.03,1140.81 1506.51,1143.22C1504.65,1144.97 1502.46,1148.1 1502.46,1153.21L1502.46,1234.68C1502.46,1238.7 1503.95,1242.19 1506.63,1244.77C1509.24,1247.27 1512.78,1248.54 1517.06,1248.54L1550.44,1248.54C1560.74,1248.54 1569.05,1245.93 1575.12,1240.71C1581.41,1235.34 1584.6,1228.01 1584.6,1218.91C1584.6,1214.9 1583.85,1211.07 1582.28,1207.53C1580.73,1204.14 1578.55,1200.95 1575.76,1198.09L1570.69,1192.81L1574.52,1187.56C1576.3,1184.8 1577.75,1181.86 1578.91,1178.86C1580.09,1175.63 1580.75,1172.04 1580.75,1168.18C1580.75,1158.79 1577.75,1151.54 1571.82,1146.65C1566.21,1142 1558.76,1139.61 1549.64,1139.61ZM1771.92,1139.61L1740.01,1139.61C1735.71,1139.61 1732.27,1140.81 1729.71,1143.23C1727.87,1144.91 1725.71,1148.02 1725.71,1153.21L1725.71,1248.54L1745.46,1248.54L1745.46,1208.1L1771.38,1208.1L1790.36,1248.54L1812.14,1248.54L1789.41,1200.95L1795.5,1193.16C1797.72,1190.15 1799.71,1186.85 1801.28,1183.27C1803.03,1179.4 1803.92,1175.29 1803.92,1170.93C1803.92,1160.82 1800.98,1152.93 1795.19,1147.54C1789.46,1142.26 1781.67,1139.61 1771.92,1139.61ZM1677.47,1222.15C1672.22,1228.22 1665.02,1231.2 1655.47,1231.2C1650.69,1231.2 1646.36,1230.4 1642.54,1228.78C1638.84,1227.27 1635.73,1225.08 1633.12,1222.06C1630.49,1218.96 1628.39,1215.12 1626.94,1210.57C1625.38,1205.88 1624.61,1200.33 1624.61,1194.23C1624.61,1182.05 1627.36,1172.76 1632.68,1166.54C1637.88,1160.43 1645.15,1157.46 1654.85,1157.46C1659.61,1157.46 1663.96,1158.27 1667.73,1159.82C1671.47,1161.4 1674.56,1163.59 1677.19,1166.61C1679.77,1169.7 1681.84,1173.51 1683.25,1177.96C1684.78,1182.59 1685.53,1188.08 1685.53,1194.23C1685.53,1206.52 1682.83,1215.87 1677.47,1222.15ZM1551.03,1230.14L1521.99,1230.14L1521.99,1202.86L1554.27,1202.86L1560.3,1209.15C1561.92,1210.8 1563.19,1212.51 1564.06,1214.22C1564.78,1215.72 1565.14,1217.43 1565.14,1219.35C1565.14,1222.75 1564.12,1225.25 1562,1227.14C1559.77,1229.1 1556.08,1230.14 1551.03,1230.14ZM1446.09,1207.69L1417.01,1207.69L1431.77,1167.97L1446.09,1207.69ZM1892.02,1207.69L1862.87,1207.69L1877.66,1167.97L1892.02,1207.69ZM1774.66,1189.94L1745.46,1189.94L1745.46,1157.73L1771.78,1157.73C1774.34,1157.73 1776.48,1158.06 1778.11,1158.75C1779.64,1159.33 1780.82,1160.11 1781.69,1161.13C1782.64,1162.25 1783.3,1163.49 1783.7,1165.03C1784.2,1166.89 1784.5,1168.89 1784.5,1171.11C1784.5,1173.32 1783.98,1175.35 1782.99,1177.38C1781.76,1179.79 1780.37,1182.05 1778.85,1184.2L1774.66,1189.94ZM1553.67,1184.73L1521.99,1184.73L1521.99,1157.74L1549.46,1157.74C1552.6,1157.74 1556.78,1158.19 1558.68,1160.4C1560.43,1162.36 1561.28,1164.86 1561.28,1168.18C1561.28,1170.15 1560.91,1171.93 1560.3,1173.66C1559.6,1175.6 1558.6,1177.5 1557.75,1179.01L1553.67,1184.73Z" style="fill-opacity:0.756863;"/>
    </g>
</svg>
