<?xml version="1.0" encoding="UTF-8" standalone="no"?>
<!DOCTYPE svg PUBLIC "-//W3C//DTD SVG 1.1//EN" "http://www.w3.org/Graphics/SVG/1.1/DTD/svg11.dtd">
<svg width="100%" height="100%" viewBox="0 0 1538 622" version="1.1" xmlns="http://www.w3.org/2000/svg" xmlns:xlink="http://www.w3.org/1999/xlink" xml:space="preserve" xmlns:serif="http://www.serif.com/" style="fill-rule:evenodd;clip-rule:evenodd;stroke-linejoin:round;stroke-miterlimit:1.41421;">
    <g transform="matrix(3.32854,0,0,3.32854,1382.12,76.887)">
        <path d="M0,90.846L-39.097,-0.201C-39.381,-0.842 -39.867,-1.396 -40.581,-1.883C-41.279,-2.359 -41.965,-2.593 -42.671,-2.593L-61.413,-2.593C-62.214,-2.593 -62.941,-2.359 -63.64,-1.883C-64.354,-1.396 -64.841,-0.842 -65.128,-0.194L-103.948,90.432C-104.235,91.015 -104.344,91.46 -104.285,91.797C-104.226,92.161 -104.099,92.451 -103.898,92.679C-103.688,92.922 -103.418,93.098 -103.071,93.224C-102.687,93.367 -102.317,93.439 -101.981,93.439L-78.954,93.439C-78.243,93.439 -77.56,93.204 -76.86,92.726C-76.149,92.241 -75.662,91.686 -75.372,91.036L-54.229,38.178C-53.181,35.809 -51.165,35.837 -50.134,38.153C-49.054,40.766 -43.841,53.453 -42.804,55.625C-42.159,56.978 -42.41,57.953 -42.837,58.563C-43.23,59.143 -44.022,59.829 -45.53,59.829L-53.25,59.829C-54.53,59.829 -55.682,60.614 -56.155,61.803L-61.425,75.245C-62.231,77.292 -60.726,79.511 -58.522,79.511L-37.985,79.511C-36.914,79.511 -35.859,79.862 -34.86,80.544C-33.896,81.204 -33.146,82.007 -32.634,82.929L-28.98,91.033C-28.636,91.649 -28.096,92.228 -27.362,92.726C-26.661,93.204 -25.934,93.439 -25.132,93.439L-2.239,93.439C-0.642,93.439 -0.282,92.785 -0.167,92.575C0.187,91.933 0.237,91.384 0,90.846" style="fill-rule:nonzero;"/>
    </g>
    <g transform="matrix(3.32854,0,0,3.32854,880.804,76.887)">
        <path d="M0,90.846L-39.098,-0.201C-39.379,-0.842 -39.868,-1.396 -40.581,-1.883C-41.28,-2.359 -41.964,-2.593 -42.67,-2.593L-61.414,-2.593C-62.214,-2.593 -62.941,-2.359 -63.64,-1.883C-64.354,-1.396 -64.841,-0.842 -65.128,-0.194L-103.949,90.432C-104.236,91.015 -104.343,91.46 -104.286,91.797C-104.226,92.161 -104.099,92.451 -103.898,92.679C-103.688,92.922 -103.419,93.098 -103.071,93.224C-102.687,93.367 -102.317,93.439 -101.981,93.439L-78.953,93.439C-78.244,93.439 -77.56,93.204 -76.86,92.726C-76.15,92.241 -75.663,91.686 -75.373,91.036L-54.23,38.178C-53.181,35.809 -51.166,35.837 -50.134,38.153C-49.054,40.766 -43.841,53.453 -42.805,55.625C-42.159,56.978 -42.411,57.953 -42.837,58.563C-43.231,59.143 -44.023,59.829 -45.529,59.829L-53.251,59.829C-54.531,59.829 -55.683,60.614 -56.153,61.803L-61.425,75.245C-62.231,77.292 -60.725,79.511 -58.521,79.511L-37.985,79.511C-36.915,79.511 -35.86,79.862 -34.859,80.544C-33.896,81.204 -33.147,82.007 -32.634,82.929L-28.981,91.033C-28.638,91.649 -28.097,92.228 -27.36,92.726C-26.663,93.204 -25.935,93.439 -25.131,93.439L-2.241,93.439C-0.644,93.439 -0.282,92.785 -0.169,92.575C0.187,91.933 0.235,91.384 0,90.846" style="fill-rule:nonzero;"/>
    </g>
    <g transform="matrix(3.32854,0,0,3.32854,1003.52,380.255)">
        <path d="M0,-91.438C0,-92.085 -0.218,-92.617 -0.667,-93.068C-1.112,-93.516 -1.64,-93.735 -2.276,-93.735L-22.39,-93.735C-23.106,-93.735 -23.647,-93.524 -24.048,-93.091C-24.464,-92.637 -24.669,-92.095 -24.669,-91.438L-24.669,0C-24.669,0.663 -24.469,1.201 -24.048,1.652C-23.647,2.085 -23.106,2.297 -22.39,2.297L-2.276,2.297C-1.64,2.297 -1.112,2.078 -0.667,1.629C-0.216,1.178 0,0.648 0,0L0,-91.438Z" style="fill-rule:nonzero;"/>
    </g>
    <g transform="matrix(3.32854,0,0,3.32854,280.73,64.7768)">
        <path d="M0,36.746C1.233,37.439 2.787,37.01 3.501,35.793C4.558,33.979 5.802,32.312 7.239,30.819C9.537,28.429 12.265,26.491 15.348,25.067C18.444,23.633 21.792,22.906 25.302,22.906C30.177,22.906 34.458,23.986 38.023,26.116C41.536,28.217 44.748,31.035 47.569,34.49C48.028,35.017 48.591,35.331 49.269,35.435C49.936,35.535 50.526,35.428 51.058,35.096L67.112,24.793C67.629,24.47 67.955,23.975 68.124,23.275C68.284,22.581 68.214,22.003 67.9,21.496C63.46,14.62 57.603,9.139 50.498,5.214C43.394,1.294 34.915,-0.693 25.302,-0.693C18.319,-0.693 11.688,0.632 5.583,3.245C-0.528,5.867 -5.952,9.474 -10.536,13.971C-13.43,16.811 -15.953,19.993 -18.09,23.466C-18.878,24.742 -18.477,26.413 -17.168,27.145L0,36.746Z" style="fill-rule:nonzero;"/>
    </g>
    <g transform="matrix(3.32854,0,0,3.32854,529.47,385.687)">
        <path d="M0,-51.114C-0.067,-51.882 -0.34,-52.447 -0.827,-52.87C-1.33,-53.303 -1.898,-53.517 -2.57,-53.517L-47.842,-53.517C-48.486,-53.517 -49.021,-53.297 -49.469,-52.846C-49.92,-52.397 -50.139,-51.867 -50.139,-51.22L-50.139,-36.176C-50.139,-35.526 -49.92,-34.993 -49.473,-34.545C-49.021,-34.096 -48.49,-33.877 -47.842,-33.877L-33.226,-33.877C-31.697,-33.877 -30.937,-33.165 -30.572,-32.572C-30.192,-31.949 -29.909,-30.943 -30.709,-29.661C-32.792,-26.629 -35.595,-24.443 -39.061,-23.131C-45.86,-20.557 -53.216,-20.5 -59.382,-23.361C-62.461,-24.779 -65.186,-26.69 -67.486,-29.037C-67.787,-29.344 -68.082,-29.661 -68.361,-29.988C-69.18,-30.934 -70.533,-31.204 -71.625,-30.59L-88.865,-20.948C-90.267,-20.163 -90.625,-18.305 -89.629,-17.04C-88.284,-15.331 -86.829,-13.714 -85.266,-12.196C-80.685,-7.744 -75.262,-4.16 -69.146,-1.539C-63.041,1.077 -56.41,2.403 -49.428,2.403C-43.059,2.403 -36.949,1.321 -31.275,-0.815C-25.6,-2.956 -20.489,-5.942 -16.084,-9.695C-11.682,-13.439 -8.039,-17.945 -5.25,-23.087C-2.466,-28.224 -0.745,-33.874 -0.135,-39.88C0.13,-42.173 0.263,-44.411 0.263,-46.547C0.263,-48.676 0.176,-49.732 0,-51.218" style="fill-rule:nonzero;"/>
    </g>
    <g transform="matrix(3.32854,0,0,3.32854,316.395,247.961)">
        <path d="M0,-5.767L-43.025,-29.835C-46.095,-31.423 -48.607,-30.124 -48.607,-26.955L-48.607,21.18C-48.607,24.352 -46.095,25.656 -43.025,24.071L0,0.004C3.068,-1.587 3.068,-4.179 0,-5.767" style="fill:rgb(140,198,63);fill-rule:nonzero;"/>
    </g>
    <g transform="matrix(3.32854,0,0,3.32854,234.689,534.51)">
        <path d="M0,-18.404C-0.944,-19.672 -2.108,-20.623 -3.495,-21.258C-4.882,-21.891 -6.326,-22.209 -7.83,-22.209C-9.57,-22.209 -11.17,-21.854 -12.63,-21.147C-14.09,-20.439 -15.351,-19.488 -16.413,-18.294C-17.475,-17.099 -18.301,-15.713 -18.89,-14.134C-19.48,-12.556 -19.774,-10.913 -19.774,-9.202C-19.774,-7.373 -19.48,-5.67 -18.89,-4.092C-18.301,-2.514 -17.482,-1.143 -16.435,0.022C-15.389,1.187 -14.135,2.109 -12.675,2.786C-11.215,3.465 -9.6,3.804 -7.83,3.804C-5.913,3.804 -4.202,3.428 -2.698,2.676C-1.194,1.924 0.117,0.84 1.239,-0.576L4.026,1.769C2.61,3.657 0.907,5.043 -1.084,5.928C-3.074,6.813 -5.324,7.255 -7.83,7.255C-10.072,7.255 -12.166,6.841 -14.112,6.016C-16.059,5.191 -17.747,4.047 -19.178,2.587C-20.608,1.127 -21.729,-0.604 -22.54,-2.61C-23.352,-4.616 -23.757,-6.813 -23.757,-9.202C-23.757,-11.503 -23.366,-13.655 -22.584,-15.661C-21.803,-17.667 -20.704,-19.406 -19.288,-20.882C-17.873,-22.356 -16.191,-23.52 -14.245,-24.377C-12.299,-25.231 -10.16,-25.659 -7.83,-25.659C-5.707,-25.659 -3.665,-25.276 -1.703,-24.509C0.258,-23.742 1.902,-22.489 3.229,-20.749L0,-18.404Z" style="fill-opacity:0.784314;fill-rule:nonzero;"/>
    </g>
    <g transform="matrix(3.32854,0,0,3.32854,274.005,556.005)">
        <path d="M0,-31.321L3.717,-31.321L3.717,-3.45L18.05,-3.45L18.05,0L0,0L0,-31.321Z" style="fill-opacity:0.784314;fill-rule:nonzero;"/>
    </g>
    <g transform="matrix(3.32854,0,0,3.32854,434.659,494.161)">
        <path d="M0,6.636C0,8.347 -0.215,9.969 -0.642,11.502C-1.069,13.036 -1.748,14.385 -2.677,15.55C-3.605,16.716 -4.822,17.645 -6.326,18.337C-7.831,19.03 -9.66,19.377 -11.813,19.377C-13.966,19.377 -15.794,19.03 -17.298,18.337C-18.802,17.645 -20.019,16.716 -20.947,15.55C-21.877,14.385 -22.556,13.036 -22.982,11.502C-23.41,9.969 -23.624,8.347 -23.624,6.636L-23.624,-12.741L-19.908,-12.741L-19.908,6.105C-19.908,7.373 -19.775,8.598 -19.51,9.777C-19.244,10.957 -18.802,12.004 -18.183,12.918C-17.563,13.832 -16.738,14.563 -15.705,15.108C-14.673,15.654 -13.376,15.926 -11.813,15.926C-10.249,15.926 -8.952,15.654 -7.919,15.108C-6.887,14.563 -6.062,13.832 -5.441,12.918C-4.822,12.004 -4.38,10.957 -4.114,9.777C-3.85,8.598 -3.717,7.373 -3.717,6.105L-3.717,-12.741L0,-12.741L0,6.636Z" style="fill-opacity:0.784314;fill-rule:nonzero;"/>
    </g>
    <g transform="matrix(3.32854,0,0,3.32854,518.295,537.603)">
        <path d="M0,-20.262C-0.619,-21.265 -1.445,-21.994 -2.477,-22.452C-3.51,-22.909 -4.586,-23.138 -5.706,-23.138C-6.532,-23.138 -7.344,-23.034 -8.14,-22.828C-8.936,-22.621 -9.651,-22.312 -10.285,-21.899C-10.92,-21.486 -11.429,-20.941 -11.812,-20.262C-12.195,-19.583 -12.387,-18.787 -12.387,-17.873C-12.387,-17.165 -12.276,-16.538 -12.055,-15.993C-11.834,-15.448 -11.473,-14.953 -10.971,-14.511C-10.47,-14.069 -9.792,-13.656 -8.936,-13.273C-8.081,-12.889 -7.033,-12.505 -5.795,-12.122C-4.586,-11.739 -3.414,-11.325 -2.278,-10.883C-1.143,-10.441 -0.14,-9.88 0.73,-9.202C1.6,-8.524 2.293,-7.676 2.81,-6.658C3.325,-5.641 3.584,-4.366 3.584,-2.832C3.584,-1.269 3.274,0.088 2.655,1.238C2.035,2.388 1.217,3.34 0.199,4.092C-0.818,4.843 -1.99,5.404 -3.317,5.772C-4.645,6.141 -6.017,6.326 -7.432,6.326C-8.347,6.326 -9.261,6.244 -10.175,6.083C-11.089,5.92 -11.967,5.669 -12.807,5.33C-13.647,4.992 -14.437,4.55 -15.174,4.003C-15.911,3.458 -16.545,2.787 -17.076,1.99L-13.891,-0.62C-13.213,0.53 -12.27,1.4 -11.06,1.99C-9.851,2.581 -8.567,2.875 -7.211,2.875C-6.414,2.875 -5.611,2.758 -4.8,2.521C-3.988,2.285 -3.259,1.939 -2.609,1.481C-1.961,1.024 -1.431,0.457 -1.017,-0.222C-0.604,-0.9 -0.397,-1.682 -0.397,-2.567C-0.397,-3.539 -0.561,-4.328 -0.885,-4.933C-1.209,-5.537 -1.71,-6.062 -2.389,-6.504C-3.067,-6.947 -3.922,-7.344 -4.954,-7.699C-5.987,-8.052 -7.196,-8.465 -8.582,-8.937C-9.703,-9.291 -10.735,-9.696 -11.679,-10.154C-12.623,-10.611 -13.441,-11.171 -14.134,-11.834C-14.827,-12.498 -15.373,-13.294 -15.771,-14.224C-16.169,-15.153 -16.368,-16.266 -16.368,-17.564C-16.368,-19.068 -16.073,-20.38 -15.483,-21.501C-14.894,-22.621 -14.098,-23.558 -13.095,-24.31C-12.092,-25.062 -10.956,-25.63 -9.688,-26.013C-8.42,-26.397 -7.093,-26.588 -5.706,-26.588C-3.937,-26.588 -2.322,-26.316 -0.862,-25.77C0.598,-25.224 1.902,-24.273 3.053,-22.916L0,-20.262Z" style="fill-opacity:0.784314;fill-rule:nonzero;"/>
    </g>
    <g transform="matrix(3.32854,0,0,3.32854,629.473,544.519)">
        <path d="M0,-24.419L-10.353,-24.419L-10.353,3.451L-14.068,3.451L-14.068,-24.419L-24.42,-24.419L-24.42,-27.87L0,-27.87L0,-24.419Z" style="fill-opacity:0.784314;fill-rule:nonzero;"/>
    </g>
    <g transform="matrix(3.32854,0,0,3.32854,652.883,556.005)">
        <path d="M0,-31.321L19.687,-31.321L19.687,-27.87L3.717,-27.87L3.717,-18.05L18.625,-18.05L18.625,-14.598L3.717,-14.598L3.717,-3.45L20.483,-3.45L20.483,0L0,0L0,-31.321Z" style="fill-opacity:0.784314;fill-rule:nonzero;"/>
    </g>
    <g transform="matrix(3.32854,0,0,3.32854,761.409,510.063)">
        <path d="M0,-3.716L3.317,-3.716C4.35,-3.716 5.419,-3.745 6.524,-3.805C7.631,-3.863 8.648,-4.055 9.577,-4.38C10.507,-4.703 11.273,-5.212 11.878,-5.905C12.482,-6.599 12.785,-7.594 12.785,-8.892C12.785,-10.013 12.563,-10.912 12.121,-11.591C11.679,-12.269 11.096,-12.792 10.374,-13.161C9.65,-13.529 8.84,-13.773 7.94,-13.891C7.041,-14.009 6.134,-14.068 5.22,-14.068L0,-14.068L0,-3.716ZM-3.717,-17.519L4.291,-17.519C5.795,-17.519 7.291,-17.43 8.781,-17.253C10.27,-17.076 11.604,-16.693 12.785,-16.103C13.964,-15.513 14.923,-14.65 15.66,-13.515C16.397,-12.379 16.767,-10.838 16.767,-8.892C16.767,-6.592 16.073,-4.734 14.688,-3.318C13.301,-1.903 11.384,-1.002 8.936,-0.619L17.828,13.803L13.271,13.803L4.777,-0.266L0,-0.266L0,13.803L-3.717,13.803L-3.717,-17.519Z" style="fill-opacity:0.784314;fill-rule:nonzero;"/>
    </g>
    <g transform="matrix(3.32854,0,0,3.32854,907.796,451.004)">
        <path d="M0,31.541L-6.483,31.541C-6.796,31.541 -7.046,31.44 -7.233,31.238C-7.419,31.037 -7.511,30.791 -7.511,30.506L-7.511,1.036C-7.511,0.749 -7.419,0.504 -7.233,0.302C-7.046,0.1 -6.796,0 -6.483,0L0,0C0.287,0 0.528,0.1 0.731,0.302C0.932,0.504 1.031,0.749 1.031,1.036L1.031,30.506C1.031,30.791 0.932,31.037 0.731,31.238C0.528,31.44 0.287,31.541 0,31.541" style="fill-opacity:0.784314;fill-rule:nonzero;"/>
    </g>
    <g transform="matrix(3.32854,0,0,3.32854,1043.49,479.01)">
        <path d="M0,14.757C-0.832,16.105 -1.756,17.328 -2.76,18.431C-3.767,19.531 -4.897,20.469 -6.146,21.242C-7.399,22.014 -8.787,22.614 -10.312,23.044C-11.836,23.472 -13.52,23.687 -15.357,23.687C-17.662,23.687 -19.816,23.256 -21.831,22.394C-23.846,21.53 -25.607,20.366 -27.115,18.899C-28.627,17.432 -29.814,15.705 -30.676,13.722C-31.54,11.736 -31.973,9.62 -31.973,7.379C-31.973,5.135 -31.54,3.021 -30.676,1.034C-29.814,-0.949 -28.627,-2.675 -27.115,-4.14C-25.607,-5.608 -23.846,-6.773 -21.831,-7.636C-19.816,-8.5 -17.662,-8.93 -15.357,-8.93C-13.461,-8.93 -11.752,-8.714 -10.225,-8.285C-8.7,-7.852 -7.32,-7.249 -6.082,-6.472C-4.846,-5.695 -3.732,-4.755 -2.74,-3.645C-1.746,-2.538 -0.832,-1.324 0,-0.001C0.145,0.231 0.174,0.474 0.088,0.735C0,0.992 -0.172,1.178 -0.432,1.294L-6.559,3.709C-6.846,3.825 -7.135,3.825 -7.42,3.709C-7.709,3.595 -7.924,3.422 -8.068,3.194C-8.902,1.871 -9.908,0.856 -11.086,0.15C-12.268,-0.554 -13.692,-0.906 -15.357,-0.906C-16.453,-0.906 -17.48,-0.675 -18.444,-0.214C-19.41,0.246 -20.249,0.859 -20.97,1.625C-21.687,2.39 -22.248,3.276 -22.651,4.285C-23.055,5.294 -23.255,6.333 -23.255,7.401C-23.255,8.495 -23.055,9.542 -22.651,10.534C-22.248,11.53 -21.687,12.404 -20.97,13.154C-20.249,13.904 -19.41,14.51 -18.444,14.97C-17.48,15.431 -16.453,15.662 -15.357,15.662C-13.777,15.662 -12.348,15.28 -11.066,14.519C-9.785,13.757 -8.775,12.771 -8.025,11.564C-7.881,11.334 -7.674,11.162 -7.399,11.045C-7.127,10.931 -6.846,10.931 -6.559,11.045L-0.432,13.461C-0.172,13.578 0,13.757 0.088,14C0.174,14.244 0.145,14.496 0,14.757" style="fill-opacity:0.784314;fill-rule:nonzero;"/>
    </g>
    <g transform="matrix(3.32854,0,0,3.32854,1140.43,529.566)">
        <path d="M0,-15.705L-6.04,-15.705C-6.328,-15.705 -6.573,-15.604 -6.774,-15.403C-6.974,-15.203 -7.075,-14.958 -7.075,-14.67L-7.075,6.903C-7.075,7.189 -7.169,7.435 -7.356,7.636C-7.544,7.838 -7.793,7.939 -8.112,7.939L-14.583,7.939C-14.87,7.939 -15.116,7.838 -15.316,7.636C-15.517,7.435 -15.616,7.189 -15.616,6.903L-15.616,-14.67C-15.616,-14.958 -15.712,-15.203 -15.899,-15.403C-16.087,-15.604 -16.339,-15.705 -16.653,-15.705L-22.781,-15.705C-23.068,-15.705 -23.313,-15.807 -23.514,-16.009C-23.714,-16.209 -23.815,-16.454 -23.815,-16.741L-23.815,-22.609C-23.815,-22.896 -23.714,-23.141 -23.514,-23.345C-23.313,-23.545 -23.068,-23.644 -22.781,-23.644L0,-23.644C0.316,-23.644 0.568,-23.545 0.755,-23.345C0.942,-23.141 1.036,-22.896 1.036,-22.609L1.036,-16.741C1.036,-16.454 0.942,-16.209 0.755,-16.009C0.568,-15.807 0.316,-15.705 0,-15.705" style="fill-opacity:0.784314;fill-rule:nonzero;"/>
    </g>
    <g transform="matrix(3.32854,0,0,3.32854,1203.5,487.516)">
        <path d="M0,9.603L5.293,9.603C5.582,9.603 5.789,9.509 5.92,9.322C6.049,9.136 6.043,8.911 5.896,8.653C5.609,7.935 3.357,2.635 3.013,1.798C2.898,1.54 2.768,1.411 2.625,1.411C2.48,1.411 2.351,1.54 2.238,1.798L-0.648,8.653C-0.764,8.911 -0.764,9.136 -0.648,9.322C-0.533,9.509 -0.318,9.603 0,9.603M-1.818,-10.02C-1.704,-10.278 -1.511,-10.501 -1.236,-10.689C-0.965,-10.876 -0.67,-10.969 -0.352,-10.969L5.686,-10.969C5.977,-10.969 6.256,-10.876 6.529,-10.689C6.803,-10.501 6.996,-10.278 7.113,-10.02L19.711,19.321C19.826,19.579 19.805,19.851 19.646,20.14C19.488,20.428 19.178,20.572 18.717,20.572L11.34,20.572C11.023,20.572 10.729,20.478 10.455,20.291C10.182,20.105 9.974,19.879 9.828,19.622L8.666,17.035C8.521,16.774 8.314,16.552 8.039,16.364C7.766,16.177 7.484,16.083 7.197,16.083L-1.904,16.083C-2.221,16.083 -2.519,16.177 -2.789,16.364C-3.063,16.552 -3.258,16.774 -3.373,17.035L-4.581,19.622C-4.695,19.879 -4.891,20.105 -5.164,20.291C-5.437,20.478 -5.718,20.572 -6.005,20.572L-13.426,20.572C-13.569,20.572 -13.721,20.544 -13.88,20.486C-14.037,20.428 -14.166,20.34 -14.266,20.226C-14.366,20.111 -14.434,19.965 -14.461,19.794C-14.488,19.622 -14.447,19.422 -14.33,19.191L-1.818,-10.02Z" style="fill-opacity:0.784314;fill-rule:nonzero;"/>
    </g>
    <g transform="matrix(3.32854,0,0,3.32854,1288.35,509.027)">
        <path d="M0,-3.299L24.602,-17.061C26.355,-17.968 27.793,-17.222 27.793,-15.413L27.793,12.11C27.793,13.921 26.355,14.669 24.602,13.763L0,0.005C-1.755,-0.911 -1.755,-2.391 0,-3.299" style="fill:rgb(140,198,63);fill-rule:nonzero;"/>
    </g>
</svg>
