<?xml version="1.0" encoding="UTF-8" standalone="no"?>
<!DOCTYPE svg PUBLIC "-//W3C//DTD SVG 1.1//EN" "http://www.w3.org/Graphics/SVG/1.1/DTD/svg11.dtd">
<svg width="100%" height="100%" viewBox="0 0 169 48" version="1.1" xmlns="http://www.w3.org/2000/svg" xmlns:xlink="http://www.w3.org/1999/xlink" xml:space="preserve" xmlns:serif="http://www.serif.com/" style="fill-rule:evenodd;clip-rule:evenodd;stroke-linejoin:round;stroke-miterlimit:1.41421;">
    <g transform="matrix(1,0,0,1,0,-280.582)">
        <path d="M0.609,315.047C0.609,315.863 1.207,316.457 1.992,316.457C2.773,316.457 3.375,315.863 3.375,315.047C3.375,314.23 2.773,313.641 1.992,313.641C1.207,313.641 0.609,314.23 0.609,315.047ZM3.984,315.047C3.984,316.168 3.129,317.02 1.992,317.02C0.852,317.02 0,316.168 0,315.047C0,313.926 0.852,313.078 1.992,313.078C3.129,313.078 3.984,313.926 3.984,315.047Z" style="fill-rule:nonzero;"/>
    </g>
    <g transform="matrix(1,0,0,1,0,-280.582)">
        <path d="M6.203,313.602C5.664,313.602 5.305,313.832 5.305,314.199C5.305,314.52 5.578,314.672 6.078,314.73L6.527,314.785C7.328,314.895 7.797,315.223 7.797,315.84C7.797,316.562 7.148,317.012 6.129,317.012C5.641,317.012 5.031,316.891 4.551,316.531L4.828,316.082C5.113,316.305 5.5,316.496 6.137,316.496C6.777,316.496 7.18,316.281 7.18,315.883C7.18,315.578 6.93,315.395 6.391,315.332L5.937,315.277C5.078,315.168 4.688,314.793 4.688,314.23C4.688,313.512 5.285,313.082 6.199,313.082C6.793,313.082 7.332,313.25 7.703,313.496L7.441,313.957C7.203,313.789 6.715,313.602 6.203,313.602Z" style="fill-rule:nonzero;"/>
    </g>
    <g transform="matrix(1,0,0,1,0,-280.582)">
        <path d="M8.969,315.047C8.969,315.828 9.52,316.457 10.32,316.457C11.109,316.457 11.668,315.852 11.668,315.047C11.668,314.246 11.109,313.641 10.32,313.641C9.512,313.641 8.969,314.266 8.969,315.047ZM11.633,316.941L11.633,316.379C11.328,316.766 10.879,317.02 10.25,317.02C9.184,317.02 8.359,316.188 8.359,315.047C8.359,313.91 9.184,313.078 10.25,313.078C10.879,313.078 11.328,313.336 11.633,313.719L11.633,313.156L12.23,313.156L12.23,316.941L11.633,316.941Z" style="fill-rule:nonzero;"/>
    </g>
    <g transform="matrix(1,0,0,1,0,-280.582)">
        <path d="M14.734,313.602C14.195,313.602 13.84,313.832 13.84,314.199C13.84,314.52 14.109,314.672 14.609,314.73L15.059,314.785C15.863,314.895 16.327,315.223 16.327,315.84C16.327,316.562 15.68,317.012 14.664,317.012C14.176,317.012 13.562,316.891 13.082,316.531L13.359,316.082C13.648,316.305 14.031,316.496 14.672,316.496C15.309,316.496 15.715,316.281 15.715,315.883C15.715,315.578 15.461,315.395 14.922,315.332L14.469,315.277C13.613,315.168 13.219,314.793 13.219,314.23C13.219,313.512 13.82,313.082 14.73,313.082C15.328,313.082 15.867,313.25 16.233,313.496L15.973,313.957C15.734,313.789 15.246,313.602 14.734,313.602Z" style="fill-rule:nonzero;"/>
    </g>
    <g transform="matrix(1,0,0,1,0,-280.582)">
        <path d="M18.855,317.016C17.938,317.016 17.137,316.484 17.137,315.363L17.137,313.156L17.73,313.156L17.73,315.305C17.73,316.09 18.203,316.457 18.855,316.457C19.5,316.457 19.973,316.09 19.973,315.305L19.973,313.156L20.574,313.156L20.574,315.363C20.574,316.484 19.766,317.016 18.855,317.016Z" style="fill-rule:nonzero;"/>
    </g>
    <g transform="matrix(1,0,0,1,0,-280.582)">
        <path d="M25.176,314.594L25.176,316.941L24.582,316.941L24.582,314.789C24.582,314.066 24.191,313.648 23.492,313.648C22.855,313.648 22.328,314.086 22.328,314.805L22.328,316.941L21.73,316.941L21.73,313.156L22.324,313.156L22.324,313.695C22.637,313.242 23.129,313.078 23.598,313.078C24.535,313.078 25.176,313.68 25.176,314.594Z" style="fill-rule:nonzero;"/>
    </g>
    <g transform="matrix(1,0,0,1,0,-280.582)">
        <path d="M28.27,313.156L28.871,313.156L28.871,316.941L28.27,316.941L28.27,313.156ZM28.992,311.812C28.992,312.051 28.805,312.23 28.57,312.23C28.332,312.23 28.152,312.051 28.152,311.812C28.152,311.57 28.332,311.391 28.57,311.391C28.805,311.391 28.992,311.57 28.992,311.812Z" style="fill-rule:nonzero;"/>
    </g>
    <g transform="matrix(1,0,0,1,0,-280.582)">
        <path d="M31.312,314.691L32.773,313.156L33.52,313.156L31.801,314.938L33.547,316.941L32.793,316.941L31.309,315.234L30.766,315.234L30.766,316.941L30.168,316.941L30.168,311.184L30.766,311.184L30.766,314.691L31.312,314.691Z" style="fill-rule:nonzero;"/>
    </g>
    <g transform="matrix(1,0,0,1,0,-280.582)">
        <path d="M34.371,314.773L36.801,314.773C36.723,314.066 36.262,313.609 35.617,313.609C34.918,313.609 34.465,314.09 34.371,314.773ZM37.406,315.035C37.406,315.117 37.402,315.191 37.395,315.258L34.363,315.258C34.445,316.074 35.016,316.496 35.699,316.496C36.168,316.496 36.578,316.316 36.902,316.016L37.219,316.426C36.75,316.879 36.227,317.016 35.664,317.016C34.547,317.016 33.75,316.223 33.75,315.051C33.75,313.891 34.555,313.078 35.629,313.078C36.656,313.078 37.395,313.883 37.406,315.035Z" style="fill-rule:nonzero;"/>
    </g>
    <g transform="matrix(1,0,0,1,0,-280.582)">
        <path d="M40.734,313.207L40.59,313.793C40.402,313.695 40.156,313.645 39.934,313.645C39.34,313.645 38.918,314.105 38.918,314.82L38.918,316.941L38.32,316.941L38.32,313.156L38.914,313.156L38.914,313.688C39.172,313.301 39.57,313.078 40.039,313.078C40.309,313.078 40.527,313.113 40.734,313.207Z" style="fill-rule:nonzero;"/>
    </g>
    <g transform="matrix(1,0,0,1,0,-280.582)">
        <path d="M42.59,314.691L44.051,313.156L44.797,313.156L43.078,314.938L44.824,316.941L44.066,316.941L42.586,315.234L42.043,315.234L42.043,316.941L41.441,316.941L41.441,311.184L42.043,311.184L42.043,314.691L42.59,314.691Z" style="fill-rule:nonzero;"/>
    </g>
    <g transform="matrix(1,0,0,1,0,-280.582)">
        <path d="M45.645,314.773L48.074,314.773C48,314.066 47.535,313.609 46.891,313.609C46.191,313.609 45.742,314.09 45.645,314.773ZM48.684,315.035C48.684,315.117 48.68,315.191 48.672,315.258L45.637,315.258C45.723,316.074 46.293,316.496 46.977,316.496C47.445,316.496 47.852,316.316 48.176,316.016L48.496,316.426C48.023,316.879 47.5,317.016 46.941,317.016C45.82,317.016 45.027,316.223 45.027,315.051C45.027,313.891 45.828,313.078 46.906,313.078C47.934,313.078 48.672,313.883 48.684,315.035Z" style="fill-rule:nonzero;"/>
    </g>
    <g transform="matrix(1,0,0,1,0,-280.582)">
        <path d="M50.492,313.695L50.492,315.605C50.492,316.199 50.809,316.457 51.246,316.457C51.535,316.457 51.816,316.348 52.039,316.188L52.32,316.641C52.031,316.859 51.664,317.016 51.195,317.016C50.383,317.016 49.895,316.57 49.895,315.617L49.895,313.695L49.07,313.695L49.07,313.156L49.895,313.156L49.895,311.953L50.492,311.953L50.492,313.156L52.129,313.156L52.129,313.695L50.492,313.695Z" style="fill-rule:nonzero;"/>
    </g>
    <g transform="matrix(1,0,0,1,0,-280.582)">
        <path d="M53.289,315.047C53.289,315.828 53.84,316.457 54.645,316.457C55.434,316.457 55.992,315.852 55.992,315.047C55.992,314.246 55.434,313.641 54.645,313.641C53.832,313.641 53.289,314.266 53.289,315.047ZM55.957,316.941L55.957,316.379C55.652,316.766 55.199,317.02 54.574,317.02C53.504,317.02 52.684,316.188 52.684,315.047C52.684,313.91 53.504,313.078 54.574,313.078C55.199,313.078 55.652,313.336 55.957,313.719L55.957,313.156L56.551,313.156L56.551,316.941L55.957,316.941Z" style="fill-rule:nonzero;"/>
    </g>
    <g transform="matrix(1,0,0,1,0,-280.582)">
        <path d="M59.688,313.156L60.289,313.156L60.289,316.941L59.688,316.941L59.688,313.156ZM60.41,311.812C60.41,312.051 60.223,312.23 59.988,312.23C59.75,312.23 59.57,312.051 59.57,311.812C59.57,311.57 59.75,311.391 59.988,311.391C60.223,311.391 60.41,311.57 60.41,311.812Z" style="fill-rule:nonzero;"/>
    </g>
    <g transform="matrix(1,0,0,1,0,-280.582)">
        <path d="M64.934,314.594L64.934,316.941L64.339,316.941L64.339,314.789C64.339,314.066 63.945,313.648 63.246,313.648C62.613,313.648 62.086,314.086 62.086,314.805L62.086,316.941L61.488,316.941L61.488,313.156L62.078,313.156L62.078,313.695C62.391,313.242 62.887,313.078 63.355,313.078C64.289,313.078 64.934,313.68 64.934,314.594Z" style="fill-rule:nonzero;"/>
    </g>
    <g transform="matrix(1,0,0,1,0,-280.582)">
        <path d="M67.395,313.602C66.855,313.602 66.5,313.832 66.5,314.199C66.5,314.52 66.773,314.672 67.273,314.73L67.719,314.785C68.523,314.895 68.992,315.223 68.992,315.84C68.992,316.562 68.344,317.012 67.324,317.012C66.836,317.012 66.223,316.891 65.746,316.531L66.02,316.082C66.309,316.305 66.691,316.496 67.332,316.496C67.973,316.496 68.375,316.281 68.375,315.883C68.375,315.578 68.121,315.395 67.582,315.332L67.133,315.277C66.273,315.168 65.879,314.793 65.879,314.23C65.879,313.512 66.48,313.082 67.391,313.082C67.988,313.082 68.527,313.25 68.895,313.496L68.637,313.957C68.395,313.789 67.906,313.602 67.395,313.602Z" style="fill-rule:nonzero;"/>
    </g>
    <g transform="matrix(1,0,0,1,0,-280.582)">
        <path d="M70.777,313.695L70.777,315.605C70.777,316.199 71.09,316.457 71.527,316.457C71.82,316.457 72.098,316.348 72.324,316.188L72.602,316.641C72.316,316.859 71.949,317.016 71.48,317.016C70.664,317.016 70.18,316.57 70.18,315.617L70.18,313.695L69.352,313.695L69.352,313.156L70.18,313.156L70.18,311.953L70.777,311.953L70.777,313.156L72.41,313.156L72.41,313.695L70.777,313.695Z" style="fill-rule:nonzero;"/>
    </g>
    <g transform="matrix(1,0,0,1,0,-280.582)">
        <path d="M73.262,313.156L73.863,313.156L73.863,316.941L73.262,316.941L73.262,313.156ZM73.988,311.812C73.988,312.051 73.801,312.23 73.562,312.23C73.324,312.23 73.145,312.051 73.145,311.812C73.145,311.57 73.324,311.391 73.562,311.391C73.801,311.391 73.988,311.57 73.988,311.812Z" style="fill-rule:nonzero;"/>
    </g>
    <g transform="matrix(1,0,0,1,0,-280.582)">
        <path d="M76,313.695L76,315.605C76,316.199 76.316,316.457 76.75,316.457C77.043,316.457 77.324,316.348 77.547,316.188L77.828,316.641C77.539,316.859 77.172,317.016 76.703,317.016C75.887,317.016 75.402,316.57 75.402,315.617L75.402,313.695L74.578,313.695L74.578,313.156L75.402,313.156L75.402,311.953L76,311.953L76,313.156L77.637,313.156L77.637,313.695L76,313.695Z" style="fill-rule:nonzero;"/>
    </g>
    <g transform="matrix(1,0,0,1,0,-280.582)">
        <path d="M80.164,317.016C79.246,317.016 78.441,316.484 78.441,315.363L78.441,313.156L79.039,313.156L79.039,315.305C79.039,316.09 79.512,316.457 80.164,316.457C80.812,316.457 81.281,316.09 81.281,315.305L81.281,313.156L81.883,313.156L81.883,315.363C81.883,316.484 81.074,317.016 80.164,317.016Z" style="fill-rule:nonzero;"/>
    </g>
    <g transform="matrix(1,0,0,1,0,-280.582)">
        <path d="M83.977,313.695L83.977,315.605C83.977,316.199 84.293,316.457 84.727,316.457C85.02,316.457 85.297,316.348 85.523,316.188L85.805,316.641C85.516,316.859 85.148,317.016 84.68,317.016C83.863,317.016 83.379,316.57 83.379,315.617L83.379,313.695L82.555,313.695L82.555,313.156L83.379,313.156L83.379,311.953L83.977,311.953L83.977,313.156L85.613,313.156L85.613,313.695L83.977,313.695Z" style="fill-rule:nonzero;"/>
    </g>
    <g transform="matrix(1,0,0,1,0,-280.582)">
        <path d="M88.141,317.016C87.223,317.016 86.418,316.484 86.418,315.363L86.418,313.156L87.016,313.156L87.016,315.305C87.016,316.09 87.488,316.457 88.141,316.457C88.785,316.457 89.258,316.09 89.258,315.305L89.258,313.156L89.859,313.156L89.859,315.363C89.859,316.484 89.051,317.016 88.141,317.016Z" style="fill-rule:nonzero;"/>
    </g>
    <g transform="matrix(1,0,0,1,0,-280.582)">
        <path d="M91.336,315.047C91.336,315.828 91.887,316.457 92.691,316.457C93.48,316.457 94.039,315.852 94.039,315.047C94.039,314.246 93.48,313.641 92.691,313.641C91.879,313.641 91.336,314.266 91.336,315.047ZM94.004,316.941L94.004,316.379C93.699,316.766 93.246,317.02 92.621,317.02C91.551,317.02 90.73,316.188 90.73,315.047C90.73,313.91 91.551,313.078 92.621,313.078C93.246,313.078 93.699,313.336 94.004,313.719L94.004,313.156L94.598,313.156L94.598,316.941L94.004,316.941Z" style="fill-rule:nonzero;"/>
    </g>
    <g transform="matrix(1,0,0,1,0,-280.582)">
        <path d="M0.289,322.758L0.887,322.758L0.887,326.543L0.289,326.543L0.289,322.758ZM1.011,321.414C1.011,321.652 0.824,321.832 0.585,321.832C0.348,321.832 0.168,321.652 0.168,321.414C0.168,321.172 0.348,320.988 0.585,320.988C0.824,320.988 1.011,321.172 1.011,321.414Z" style="fill-rule:nonzero;"/>
    </g>
    <g transform="matrix(1,0,0,1,0,-280.582)">
        <path d="M5.535,324.195L5.535,326.543L4.937,326.543L4.937,324.391C4.937,323.668 4.547,323.25 3.848,323.25C3.211,323.25 2.688,323.688 2.688,324.406L2.688,326.543L2.086,326.543L2.086,322.758L2.68,322.758L2.68,323.297C2.992,322.844 3.488,322.68 3.953,322.68C4.891,322.68 5.535,323.277 5.535,324.195Z" style="fill-rule:nonzero;"/>
    </g>
    <g transform="matrix(1,0,0,1,0,-280.582)">
        <path d="M7.996,323.203C7.453,323.203 7.098,323.43 7.098,323.801C7.098,324.117 7.371,324.27 7.871,324.332L8.32,324.387C9.121,324.496 9.59,324.824 9.59,325.441C9.59,326.16 8.941,326.613 7.922,326.613C7.434,326.613 6.824,326.488 6.344,326.129L6.621,325.684C6.906,325.906 7.289,326.094 7.93,326.094C8.57,326.094 8.973,325.883 8.973,325.48C8.973,325.18 8.723,324.996 8.18,324.93L7.73,324.879C6.871,324.77 6.477,324.395 6.477,323.832C6.477,323.113 7.078,322.684 7.992,322.684C8.586,322.684 9.125,322.852 9.492,323.098L9.234,323.559C8.992,323.391 8.508,323.203 7.996,323.203Z" style="fill-rule:nonzero;"/>
    </g>
    <g transform="matrix(1,0,0,1,0,-280.582)">
        <path d="M11.375,323.297L11.375,325.207C11.375,325.797 11.691,326.059 12.129,326.059C12.418,326.059 12.699,325.949 12.922,325.789L13.203,326.242C12.914,326.461 12.547,326.617 12.078,326.617C11.266,326.617 10.781,326.168 10.781,325.219L10.781,323.297L9.953,323.297L9.953,322.754L10.781,322.754L10.781,321.555L11.375,321.555L11.375,322.754L13.012,322.754L13.012,323.297L11.375,323.297Z" style="fill-rule:nonzero;"/>
    </g>
    <g transform="matrix(1,0,0,1,0,-280.582)">
        <path d="M13.863,322.758L14.465,322.758L14.465,326.543L13.863,326.543L13.863,322.758ZM14.586,321.414C14.586,321.652 14.398,321.832 14.164,321.832C13.926,321.832 13.746,321.652 13.746,321.414C13.746,321.172 13.926,320.988 14.164,320.988C14.398,320.988 14.586,321.172 14.586,321.414Z" style="fill-rule:nonzero;"/>
    </g>
    <g transform="matrix(1,0,0,1,0,-280.582)">
        <path d="M16.598,323.297L16.598,325.207C16.598,325.797 16.914,326.059 17.352,326.059C17.645,326.059 17.922,325.949 18.148,325.789L18.426,326.242C18.137,326.461 17.77,326.617 17.305,326.617C16.488,326.617 16.004,326.168 16.004,325.219L16.004,323.297L15.176,323.297L15.176,322.754L16.004,322.754L16.004,321.555L16.598,321.555L16.598,322.754L18.234,322.754L18.234,323.297L16.598,323.297Z" style="fill-rule:nonzero;"/>
    </g>
    <g transform="matrix(1,0,0,1,0,-280.582)">
        <path d="M20.762,326.617C19.848,326.617 19.043,326.086 19.043,324.965L19.043,322.758L19.641,322.758L19.641,324.906C19.641,325.691 20.109,326.059 20.762,326.059C21.41,326.059 21.883,325.691 21.883,324.906L21.883,322.758L22.48,322.758L22.48,324.965C22.48,326.086 21.676,326.617 20.762,326.617Z" style="fill-rule:nonzero;"/>
    </g>
    <g transform="matrix(1,0,0,1,0,-280.582)">
        <path d="M24.574,323.297L24.574,325.207C24.574,325.797 24.891,326.059 25.328,326.059C25.617,326.059 25.898,325.949 26.121,325.789L26.402,326.242C26.113,326.461 25.746,326.617 25.277,326.617C24.465,326.617 23.977,326.168 23.977,325.219L23.977,323.297L23.152,323.297L23.152,322.754L23.977,322.754L23.977,321.555L24.574,321.555L24.574,322.754L26.211,322.754L26.211,323.297L24.574,323.297Z" style="fill-rule:nonzero;"/>
    </g>
    <g transform="matrix(1,0,0,1,0,-280.582)">
        <path d="M27.371,324.648C27.371,325.461 27.973,326.059 28.754,326.059C29.539,326.059 30.141,325.461 30.141,324.648C30.141,323.832 29.539,323.242 28.754,323.242C27.973,323.242 27.371,323.832 27.371,324.648ZM30.75,324.648C30.75,325.77 29.895,326.617 28.754,326.617C27.617,326.617 26.766,325.77 26.766,324.648C26.766,323.527 27.617,322.68 28.754,322.68C29.895,322.68 30.75,323.527 30.75,324.648Z" style="fill-rule:nonzero;"/>
    </g>
    <g transform="matrix(1,0,0,1,0,-280.582)">
        <path d="M33.918,324.648C33.918,325.43 34.473,326.059 35.273,326.059C36.062,326.059 36.621,325.449 36.621,324.648C36.621,323.848 36.062,323.242 35.273,323.242C34.465,323.242 33.918,323.867 33.918,324.648ZM36.586,323.32L36.586,320.785L37.18,320.785L37.18,326.543L36.586,326.543L36.586,325.977C36.281,326.367 35.832,326.617 35.203,326.617C34.137,326.617 33.312,325.785 33.312,324.648C33.312,323.512 34.137,322.68 35.203,322.68C35.832,322.68 36.281,322.934 36.586,323.32Z" style="fill-rule:nonzero;"/>
    </g>
    <g transform="matrix(1,0,0,1,0,-280.582)">
        <path d="M38.715,324.375L41.145,324.375C41.066,323.668 40.605,323.211 39.961,323.211C39.262,323.211 38.809,323.691 38.715,324.375ZM41.754,324.637C41.754,324.719 41.75,324.789 41.738,324.859L38.707,324.859C38.789,325.676 39.359,326.094 40.047,326.094C40.512,326.094 40.922,325.918 41.246,325.617L41.566,326.027C41.094,326.477 40.57,326.617 40.012,326.617C38.891,326.617 38.094,325.82 38.094,324.652C38.094,323.492 38.898,322.68 39.973,322.68C41,322.68 41.738,323.484 41.754,324.637Z" style="fill-rule:nonzero;"/>
    </g>
    <g transform="matrix(1,0,0,1,0,-280.582)">
        <path d="M44.602,322.758L45.203,322.758L45.203,326.543L44.602,326.543L44.602,322.758ZM45.324,321.414C45.324,321.652 45.137,321.832 44.902,321.832C44.664,321.832 44.484,321.652 44.484,321.414C44.484,321.172 44.664,320.988 44.902,320.988C45.137,320.988 45.324,321.172 45.324,321.414Z" style="fill-rule:nonzero;"/>
    </g>
    <g transform="matrix(1,0,0,1,0,-280.582)">
        <path d="M49.848,324.195L49.848,326.543L49.25,326.543L49.25,324.391C49.25,323.668 48.859,323.25 48.16,323.25C47.527,323.25 47,323.688 47,324.406L47,326.543L46.402,326.543L46.402,322.758L46.992,322.758L46.992,323.297C47.305,322.844 47.801,322.68 48.27,322.68C49.203,322.68 49.848,323.277 49.848,324.195Z" style="fill-rule:nonzero;"/>
    </g>
    <g transform="matrix(1,0,0,1,0,-280.582)">
        <path d="M51.961,326.551L50.348,322.754L50.992,322.754L52.316,325.941L53.641,322.754L54.273,322.754L52.66,326.551L51.961,326.551Z" style="fill-rule:nonzero;"/>
    </g>
    <g transform="matrix(1,0,0,1,0,-280.582)">
        <path d="M55.172,324.375L57.605,324.375C57.527,323.668 57.066,323.211 56.422,323.211C55.723,323.211 55.27,323.691 55.172,324.375ZM58.211,324.637C58.211,324.719 58.207,324.789 58.199,324.859L55.164,324.859C55.25,325.676 55.82,326.094 56.504,326.094C56.973,326.094 57.379,325.918 57.703,325.617L58.023,326.027C57.551,326.477 57.027,326.617 56.469,326.617C55.348,326.617 54.555,325.82 54.555,324.652C54.555,323.492 55.355,322.68 56.434,322.68C57.461,322.68 58.199,323.484 58.211,324.637Z" style="fill-rule:nonzero;"/>
    </g>
    <g transform="matrix(1,0,0,1,0,-280.582)">
        <path d="M60.43,323.203C59.887,323.203 59.531,323.43 59.531,323.801C59.531,324.117 59.805,324.27 60.305,324.332L60.754,324.387C61.555,324.496 62.023,324.824 62.023,325.441C62.023,326.16 61.375,326.613 60.355,326.613C59.867,326.613 59.258,326.488 58.777,326.129L59.055,325.684C59.34,325.906 59.723,326.094 60.363,326.094C61.004,326.094 61.406,325.883 61.406,325.48C61.406,325.18 61.156,324.996 60.613,324.93L60.164,324.879C59.305,324.77 58.91,324.395 58.91,323.832C58.91,323.113 59.512,322.684 60.426,322.684C61.02,322.684 61.559,322.852 61.926,323.098L61.668,323.559C61.426,323.391 60.941,323.203 60.43,323.203Z" style="fill-rule:nonzero;"/>
    </g>
    <g transform="matrix(1,0,0,1,0,-280.582)">
        <path d="M63.809,323.297L63.809,325.207C63.809,325.797 64.125,326.059 64.561,326.059C64.851,326.059 65.133,325.949 65.355,325.789L65.637,326.242C65.348,326.461 64.98,326.617 64.512,326.617C63.699,326.617 63.215,326.168 63.215,325.219L63.215,323.297L62.387,323.297L62.387,322.754L63.215,322.754L63.215,321.555L63.809,321.555L63.809,322.754L65.445,322.754L65.445,323.297L63.809,323.297Z" style="fill-rule:nonzero;"/>
    </g>
    <g transform="matrix(1,0,0,1,0,-280.582)">
        <path d="M66.297,322.758L66.898,322.758L66.898,326.543L66.297,326.543L66.297,322.758ZM67.02,321.414C67.02,321.652 66.832,321.832 66.598,321.832C66.359,321.832 66.18,321.652 66.18,321.414C66.18,321.172 66.359,320.988 66.598,320.988C66.832,320.988 67.02,321.172 67.02,321.414Z" style="fill-rule:nonzero;"/>
    </g>
    <g transform="matrix(1,0,0,1,0,-280.582)">
        <path d="M68.418,324.617C68.418,325.387 68.949,326.004 69.754,326.004C70.531,326.004 71.09,325.402 71.09,324.617C71.09,323.84 70.531,323.238 69.754,323.238C68.949,323.238 68.418,323.855 68.418,324.617ZM71.035,323.324L71.035,322.758L71.637,322.758L71.637,326.281C71.637,327.516 70.805,328.199 69.633,328.199C69.027,328.199 68.422,328.016 68.039,327.691L68.301,327.215C68.664,327.484 69.117,327.656 69.633,327.656C70.453,327.656 71.035,327.188 71.035,326.305L71.035,325.918C70.75,326.316 70.297,326.562 69.684,326.562C68.621,326.562 67.809,325.766 67.809,324.617C67.809,323.477 68.621,322.68 69.684,322.68C70.297,322.68 70.75,322.93 71.035,323.324Z" style="fill-rule:nonzero;"/>
    </g>
    <g transform="matrix(1,0,0,1,0,-280.582)">
        <path d="M73.156,324.648C73.156,325.43 73.707,326.059 74.512,326.059C75.301,326.059 75.859,325.449 75.859,324.648C75.859,323.848 75.301,323.242 74.512,323.242C73.699,323.242 73.156,323.867 73.156,324.648ZM75.824,326.543L75.824,325.977C75.52,326.367 75.066,326.617 74.441,326.617C73.371,326.617 72.551,325.785 72.551,324.648C72.551,323.512 73.371,322.68 74.441,322.68C75.066,322.68 75.52,322.934 75.824,323.32L75.824,322.754L76.418,322.754L76.418,326.543L75.824,326.543Z" style="fill-rule:nonzero;"/>
    </g>
    <g transform="matrix(1,0,0,1,0,-280.582)">
        <path d="M80.695,323.273L80.309,323.68C80.023,323.402 79.691,323.242 79.273,323.242C78.52,323.242 77.941,323.832 77.941,324.648C77.941,325.465 78.52,326.059 79.273,326.059C79.691,326.059 80.051,325.875 80.324,325.613L80.695,326.023C80.344,326.41 79.855,326.617 79.293,326.617C78.125,326.617 77.332,325.77 77.332,324.648C77.332,323.527 78.125,322.68 79.293,322.68C79.855,322.68 80.355,322.887 80.695,323.273Z" style="fill-rule:nonzero;"/>
    </g>
    <g transform="matrix(1,0,0,1,0,-280.582)">
        <path d="M81.516,322.758L82.117,322.758L82.117,326.543L81.516,326.543L81.516,322.758ZM82.238,321.414C82.238,321.652 82.051,321.832 81.816,321.832C81.578,321.832 81.398,321.652 81.398,321.414C81.398,321.172 81.578,320.988 81.816,320.988C82.051,320.988 82.238,321.172 82.238,321.414Z" style="fill-rule:nonzero;"/>
    </g>
    <g transform="matrix(1,0,0,1,0,-280.582)">
        <path d="M85.336,320.977L86.094,320.977L85.09,322.176L84.5,322.176L85.336,320.977ZM83.637,324.648C83.637,325.461 84.234,326.059 85.02,326.059C85.805,326.059 86.402,325.461 86.402,324.648C86.402,323.832 85.805,323.242 85.02,323.242C84.234,323.242 83.637,323.832 83.637,324.648ZM87.016,324.648C87.016,325.77 86.156,326.617 85.02,326.617C83.879,326.617 83.027,325.77 83.027,324.648C83.027,323.527 83.879,322.68 85.02,322.68C86.156,322.68 87.016,323.527 87.016,324.648Z" style="fill-rule:nonzero;"/>
    </g>
    <g transform="matrix(1,0,0,1,0,-280.582)">
        <path d="M91.375,324.195L91.375,326.543L90.777,326.543L90.777,324.391C90.777,323.668 90.387,323.25 89.688,323.25C89.051,323.25 88.527,323.688 88.527,324.406L88.527,326.543L87.926,326.543L87.926,322.758L88.52,322.758L88.52,323.297C88.832,322.844 89.328,322.68 89.793,322.68C90.73,322.68 91.375,323.277 91.375,324.195Z" style="fill-rule:nonzero;"/>
    </g>
    <g transform="matrix(1,0,0,1,0,-280.582)">
        <path d="M95.77,323.203C95.23,323.203 94.875,323.43 94.875,323.801C94.875,324.117 95.145,324.27 95.645,324.332L96.094,324.387C96.898,324.496 97.363,324.824 97.363,325.441C97.363,326.16 96.719,326.613 95.699,326.613C95.211,326.613 94.598,326.488 94.117,326.129L94.395,325.684C94.684,325.906 95.066,326.094 95.707,326.094C96.344,326.094 96.75,325.883 96.75,325.48C96.75,325.18 96.496,324.996 95.957,324.93L95.504,324.879C94.648,324.77 94.254,324.395 94.254,323.832C94.254,323.113 94.855,322.684 95.766,322.684C96.363,322.684 96.902,322.852 97.27,323.098L97.008,323.559C96.77,323.391 96.281,323.203 95.77,323.203Z" style="fill-rule:nonzero;"/>
    </g>
    <g transform="matrix(1,0,0,1,0,-280.582)">
        <path d="M98.535,324.648C98.535,325.43 99.086,326.059 99.891,326.059C100.68,326.059 101.238,325.449 101.238,324.648C101.238,323.848 100.68,323.242 99.891,323.242C99.078,323.242 98.535,323.867 98.535,324.648ZM101.203,326.543L101.203,325.977C100.898,326.367 100.445,326.617 99.82,326.617C98.75,326.617 97.93,325.785 97.93,324.648C97.93,323.512 98.75,322.68 99.82,322.68C100.445,322.68 100.898,322.934 101.203,323.32L101.203,322.754L101.797,322.754L101.797,326.543L101.203,326.543Z" style="fill-rule:nonzero;"/>
    </g>
    <g transform="matrix(1,0,0,1,0,-280.582)">
        <path d="M106.445,324.195L106.445,326.543L105.848,326.543L105.848,324.391C105.848,323.668 105.457,323.25 104.758,323.25C104.121,323.25 103.598,323.688 103.598,324.406L103.598,326.543L103,326.543L103,322.758L103.59,322.758L103.59,323.297C103.902,322.844 104.398,322.68 104.867,322.68C105.801,322.68 106.445,323.277 106.445,324.195Z" style="fill-rule:nonzero;"/>
    </g>
    <g transform="matrix(1,0,0,1,0,-280.582)">
        <path d="M107.602,322.758L108.203,322.758L108.203,326.543L107.602,326.543L107.602,322.758ZM108.324,321.414C108.324,321.652 108.137,321.832 107.902,321.832C107.664,321.832 107.484,321.652 107.484,321.414C107.484,321.172 107.664,320.988 107.902,320.988C108.137,320.988 108.324,321.172 108.324,321.414Z" style="fill-rule:nonzero;"/>
    </g>
    <g transform="matrix(1,0,0,1,0,-280.582)">
        <path d="M110.336,323.297L110.336,325.207C110.336,325.797 110.652,326.059 111.09,326.059C111.383,326.059 111.66,325.949 111.887,325.789L112.164,326.242C111.875,326.461 111.508,326.617 111.043,326.617C110.227,326.617 109.742,326.168 109.742,325.219L109.742,323.297L108.914,323.297L108.914,322.754L109.742,322.754L109.742,321.555L110.336,321.555L110.336,322.754L111.973,322.754L111.973,323.297L110.336,323.297Z" style="fill-rule:nonzero;"/>
    </g>
    <g transform="matrix(1,0,0,1,0,-280.582)">
        <path d="M113.133,324.648C113.133,325.43 113.688,326.059 114.488,326.059C115.277,326.059 115.836,325.449 115.836,324.648C115.836,323.848 115.277,323.242 114.488,323.242C113.68,323.242 113.133,323.867 113.133,324.648ZM115.801,326.543L115.801,325.977C115.496,326.367 115.047,326.617 114.418,326.617C113.352,326.617 112.527,325.785 112.527,324.648C112.527,323.512 113.352,322.68 114.418,322.68C115.047,322.68 115.496,322.934 115.801,323.32L115.801,322.754L116.395,322.754L116.395,326.543L115.801,326.543Z" style="fill-rule:nonzero;"/>
    </g>
    <g transform="matrix(1,0,0,1,0,-280.582)">
        <path d="M120.008,322.809L119.863,323.395C119.676,323.297 119.434,323.242 119.211,323.242C118.617,323.242 118.191,323.707 118.191,324.422L118.191,326.543L117.598,326.543L117.598,322.754L118.191,322.754L118.191,323.289C118.449,322.902 118.848,322.68 119.312,322.68C119.586,322.68 119.805,322.715 120.008,322.809Z" style="fill-rule:nonzero;"/>
    </g>
    <g transform="matrix(1,0,0,1,0,-280.582)">
        <path d="M120.719,322.758L121.32,322.758L121.32,326.543L120.719,326.543L120.719,322.758ZM121.441,321.414C121.441,321.652 121.254,321.832 121.016,321.832C120.777,321.832 120.598,321.652 120.598,321.414C120.598,321.172 120.777,320.988 121.016,320.988C121.254,320.988 121.441,321.172 121.441,321.414Z" style="fill-rule:nonzero;"/>
    </g>
    <g transform="matrix(1,0,0,1,0,-280.582)">
        <path d="M122.84,324.648C122.84,325.43 123.391,326.059 124.191,326.059C124.98,326.059 125.539,325.449 125.539,324.648C125.539,323.848 124.98,323.242 124.191,323.242C123.383,323.242 122.84,323.867 122.84,324.648ZM125.504,326.543L125.504,325.977C125.199,326.367 124.75,326.617 124.121,326.617C123.055,326.617 122.23,325.785 122.23,324.648C122.23,323.512 123.055,322.68 124.121,322.68C124.75,322.68 125.199,322.934 125.504,323.32L125.504,322.754L126.102,322.754L126.102,326.543L125.504,326.543Z" style="fill-rule:nonzero;"/>
    </g>
    <g transform="matrix(1,0,0,1,0,-280.582)">
        <path d="M8.047,292.262C9.984,292.262 11.277,293.754 11.277,295.723C11.277,297.695 9.984,299.188 8.047,299.188C6.152,299.188 4.832,297.727 4.832,295.723C4.832,293.723 6.152,292.262 8.047,292.262ZM9.199,287.77C7.246,287.77 5.953,288.523 5.031,289.633L5.031,281.121L0.23,281.121L0.23,303.277L4.875,303.277L4.875,301.664C5.801,302.848 7.152,303.68 9.199,303.68C13.23,303.68 16.23,300.188 16.23,295.707C16.23,291.277 13.23,287.77 9.199,287.77ZM160.742,292.262C162.637,292.262 163.973,293.723 163.973,295.723C163.973,297.727 162.637,299.188 160.742,299.188C158.82,299.188 157.527,297.695 157.527,295.723C157.527,293.754 158.82,292.262 160.742,292.262ZM168.59,303.277L168.59,288.184L163.93,288.184L163.93,289.816C163.02,288.629 161.637,287.77 159.605,287.77C155.559,287.77 152.574,291.277 152.574,295.707C152.574,300.188 155.574,303.68 159.59,303.68C161.637,303.68 163.004,302.832 163.93,301.648L163.93,303.277L168.59,303.277ZM151.082,288.184L146.266,288.184L146.266,303.277L151.082,303.277L151.082,288.184ZM148.648,280.645C147.02,280.645 145.773,281.906 145.773,283.539C145.773,285.137 147.02,286.398 148.648,286.398C150.266,286.398 151.527,285.137 151.527,283.539C151.527,281.906 150.266,280.645 148.648,280.645ZM144.188,292.445L144.188,288.184L139.035,288.184L139.035,283.785L134.219,283.785L134.219,288.184L131.543,288.184L131.543,292.445L134.219,292.445L134.219,297.477C134.219,301.246 136.035,303.68 140.094,303.68C142.543,303.68 144.02,302.973 145.449,302L143.789,298.246C143.035,298.695 142.082,299.188 141.172,299.188C139.957,299.188 139.035,298.602 139.035,296.863L139.035,292.445L144.188,292.445ZM129.729,292.832L131.065,289.078C128.59,288.121 127.02,287.785 124.574,287.785C120.449,287.785 118.051,289.633 118.051,292.832C118.051,295.555 119.727,297.047 123.375,297.586L124.25,297.707C125.961,297.973 126.637,298.219 126.637,298.785C126.637,299.449 126.02,299.77 124.527,299.77C122.422,299.77 120.727,299.262 119.203,298.355L117.527,302.078C119.25,303.188 121.914,303.664 124.496,303.664C128.897,303.664 131.484,301.68 131.484,298.371C131.484,295.801 129.789,294.277 126.543,293.785L125.438,293.617C123.961,293.371 123.004,293.23 123.004,292.586C123.004,292.031 123.48,291.66 124.758,291.66C126.297,291.66 128.254,292.215 129.729,292.832ZM108.879,292.262C110.773,292.262 112.16,293.691 112.16,295.723C112.16,297.754 110.773,299.188 108.879,299.188C107.004,299.188 105.617,297.754 105.617,295.723C105.617,293.691 107.004,292.262 108.879,292.262ZM108.879,287.77C104.156,287.77 100.695,291.152 100.695,295.723C100.695,300.293 104.156,303.68 108.879,303.68C113.605,303.68 117.082,300.293 117.082,295.723C117.082,291.152 113.605,287.77 108.879,287.77ZM93.941,287.77C91.91,287.77 90.418,288.477 89.449,290.078L89.449,288.184L84.832,288.184L84.832,303.277L89.648,303.277L89.648,295.156C89.648,293.184 90.758,292.293 92.094,292.293C93.586,292.293 94.48,293.277 94.48,295.078L94.48,303.277L99.297,303.277L99.297,293.371C99.297,289.875 96.957,287.77 93.941,287.77ZM75.125,292.262C77.016,292.262 78.402,293.691 78.402,295.723C78.402,297.754 77.016,299.188 75.125,299.188C73.246,299.188 71.863,297.754 71.863,295.723C71.863,293.691 73.246,292.262 75.125,292.262ZM75.125,287.77C70.398,287.77 66.938,291.152 66.938,295.723C66.938,300.293 70.398,303.68 75.125,303.68C79.848,303.68 83.324,300.293 83.324,295.723C83.324,291.152 79.848,287.77 75.125,287.77ZM57.617,292.262C59.508,292.262 60.848,293.723 60.848,295.723C60.848,297.727 59.508,299.188 57.617,299.188C55.691,299.188 54.398,297.695 54.398,295.723C54.398,293.754 55.691,292.262 57.617,292.262ZM56.477,287.77C52.43,287.77 49.445,291.277 49.445,295.707C49.445,300.188 52.445,303.68 56.461,303.68C58.508,303.68 59.879,302.832 60.801,301.648L60.801,303.277L65.448,303.277L65.448,281.121L60.648,281.121L60.648,289.633C59.723,288.523 58.398,287.77 56.477,287.77ZM40.539,292.262C42.43,292.262 43.812,293.691 43.812,295.723C43.812,297.754 42.43,299.188 40.539,299.188C38.66,299.188 37.273,297.754 37.273,295.723C37.273,293.691 38.66,292.262 40.539,292.262ZM40.539,287.77C35.812,287.77 32.352,291.152 32.352,295.723C32.352,300.293 35.812,303.68 40.539,303.68C45.262,303.68 48.738,300.293 48.738,295.723C48.738,291.152 45.262,287.77 40.539,287.77ZM24.277,286.344C25.895,286.344 27.156,285.078 27.156,283.477C27.156,281.844 25.895,280.582 24.277,280.582C22.645,280.582 21.395,281.844 21.395,283.477C21.395,285.078 22.645,286.344 24.277,286.344ZM31.566,298.16L26.711,298.16L26.711,303.238L21.887,303.238L21.887,298.16L16.984,298.16L16.984,293.34L21.887,293.34L21.887,288.129L26.711,288.129L26.711,293.34L31.566,293.34L31.566,298.16Z" style="fill-rule:nonzero;"/>
    </g>
</svg>
