<?xml version="1.0" standalone="no"?>
<!DOCTYPE svg PUBLIC "-//W3C//DTD SVG 20010904//EN"
 "http://www.w3.org/TR/2001/REC-SVG-20010904/DTD/svg10.dtd">
<svg version="1.0" xmlns="http://www.w3.org/2000/svg"
 width="600.000000pt" height="600.000000pt" viewBox="0 0 600.000000 600.000000"
 preserveAspectRatio="xMidYMid meet">
<metadata>
Created by potrace 1.11, written by Peter Selinger 2001-2013
</metadata>
<g transform="translate(0.000000,600.000000) scale(0.100000,-0.100000)"
fill="#000000" stroke="none">
<path d="M740 4727 c-174 -52 -322 -184 -344 -308 -2 -16 4 -39 15 -58 24 -40
24 -45 -6 -138 -14 -43 -25 -96 -24 -118 2 -23 -1 -47 -6 -55 -15 -24 -31
-142 -29 -205 2 -41 -2 -65 -12 -76 -26 -29 -24 -77 8 -172 64 -193 100 -251
161 -263 31 -5 38 -17 97 -166 83 -208 90 -308 22 -308 -51 0 -79 -23 -130
-105 -71 -113 -84 -144 -80 -176 l5 -29 -141 0 c-160 0 -176 -5 -219 -66 -40
-57 -49 -105 -27 -141 30 -49 48 -58 129 -60 42 -1 80 -2 86 -3 17 0 -14 -24
-37 -27 -43 -6 -70 -38 -136 -158 -75 -137 -83 -181 -45 -234 13 -16 23 -43
23 -58 0 -15 7 -39 15 -53 8 -14 21 -41 30 -60 69 -157 182 -315 284 -397 41
-35 60 -43 91 -43 59 0 87 33 180 215 45 88 86 164 90 169 5 4 73 8 152 8 188
1 206 10 237 126 10 35 9 48 -5 77 -23 50 -46 59 -154 65 -67 4 -94 9 -93 17
2 7 -2 24 -7 38 -12 30 3 75 24 75 35 0 66 26 95 79 29 54 30 55 31 24 0 -35
96 -232 133 -276 14 -15 39 -32 57 -39 28 -9 38 -24 70 -92 21 -45 61 -121 89
-169 28 -49 51 -90 51 -93 0 -2 20 -38 45 -80 25 -41 45 -79 45 -82 1 -13 47
-40 76 -45 44 -7 82 13 145 75 58 58 104 123 159 223 18 33 35 63 39 66 3 4
74 9 156 11 83 3 159 10 171 16 11 6 35 40 54 76 18 37 40 67 49 68 43 4 77 6
206 12 77 4 163 9 190 11 45 3 184 11 385 20 41 2 118 6 170 9 89 5 133 8 388
21 53 3 133 7 177 10 44 3 125 7 180 10 122 6 265 14 365 20 41 2 131 7 200
10 69 4 150 8 181 10 31 2 114 7 185 10 71 4 161 8 199 10 39 3 122 7 185 10
278 15 293 17 377 55 117 53 222 183 242 299 11 64 1 265 -14 291 -1 3 -6 25
-9 50 -3 25 -8 56 -11 70 -5 29 -25 156 -30 185 -8 61 -17 116 -25 165 -5 30
-12 71 -15 90 -3 19 -10 60 -15 90 -5 30 -12 73 -15 95 -3 23 -8 52 -10 65 -3
14 -7 39 -9 55 -16 111 -40 249 -52 297 -29 115 -87 212 -177 293 -75 68 -76
69 -143 103 -125 64 -160 69 -714 87 -85 3 -200 7 -255 10 -55 2 -170 7 -255
10 -85 3 -204 7 -265 10 -60 2 -175 7 -255 10 -80 3 -201 8 -270 10 -69 3
-181 8 -250 10 -69 2 -188 7 -265 10 -77 3 -192 7 -255 10 -170 6 -412 16
-520 20 -52 2 -176 7 -275 10 -208 7 -275 11 -279 16 -2 2 -13 26 -26 52 -26
57 -54 77 -112 84 -27 4 -54 15 -73 32 -193 174 -441 241 -655 178z m326 -112
c102 -29 218 -101 281 -172 28 -33 37 -37 80 -38 l48 0 27 -55 c33 -67 49
-107 73 -182 l19 -58 48 0 c52 0 56 -6 61 -80 l2 -35 -56 1 -55 1 4 -56 c7
-78 6 -206 -1 -225 -4 -9 -17 -16 -30 -16 -22 0 -26 -8 -52 -117 -33 -138 -34
-149 -16 -145 40 9 41 -6 6 -107 -37 -105 -94 -239 -144 -339 l-30 -60 54 -87
c30 -48 55 -89 55 -91 0 -2 -21 -4 -46 -4 l-46 0 28 -47 c15 -27 34 -60 42
-75 16 -33 29 -42 62 -44 13 -1 25 -5 27 -10 2 -5 21 -36 43 -68 21 -33 37
-62 35 -65 -2 -3 -78 -6 -169 -5 -156 1 -164 0 -155 -17 16 -31 39 -35 197
-34 l153 1 35 -60 c19 -34 51 -86 70 -116 18 -30 34 -58 34 -62 0 -5 -11 -8
-25 -8 -14 0 -25 -3 -25 -6 0 -14 123 -204 133 -205 7 -1 22 0 33 0 18 2 37
-24 36 -49 0 -3 -2 -23 -4 -45 l-3 -39 160 -1 c88 0 161 -3 163 -8 1 -4 -1
-15 -6 -24 -8 -13 -34 -16 -176 -17 l-168 -1 -51 -100 c-29 -55 -66 -120 -84
-145 -40 -58 -115 -132 -125 -122 -4 4 -48 81 -98 172 -51 91 -97 171 -102
177 -17 21 10 24 166 21 125 -3 146 -1 146 12 -1 33 -15 36 -175 36 l-160 -1
-35 67 c-32 61 -36 66 -68 66 -21 0 -38 7 -47 19 -15 20 -95 177 -95 187 0 3
9 6 20 6 11 0 20 3 20 6 0 3 -25 59 -56 125 -79 166 -80 166 -185 -36 -45 -84
-50 -90 -82 -93 -32 -3 -37 -9 -85 -95 -63 -115 -65 -123 -29 -119 15 2 27 0
27 -4 0 -3 -13 -33 -30 -66 -16 -32 -30 -60 -30 -61 0 -1 72 -2 160 -2 145 1
160 -1 160 -16 0 -10 -5 -21 -12 -25 -7 -4 -84 -7 -173 -6 l-161 1 -42 -82
c-125 -243 -150 -289 -161 -300 -9 -9 -27 4 -75 55 -104 110 -226 312 -194
323 7 2 72 3 143 3 189 0 176 -2 164 25 -10 23 -13 23 -172 22 -89 -1 -167 3
-174 7 -11 9 -10 42 3 102 6 27 5 28 -25 24 -17 -2 -31 -3 -31 -1 0 2 25 49
54 106 52 97 57 102 89 105 32 3 40 11 98 100 35 53 67 99 70 102 3 3 11 15
17 27 l12 21 -160 -1 c-88 -1 -160 0 -160 3 0 3 6 15 14 26 13 19 24 20 163
19 81 -1 154 1 162 3 13 5 91 118 91 133 0 4 -9 10 -20 14 -18 6 -16 12 28 83
26 42 53 78 60 78 7 1 30 2 51 3 39 1 41 3 72 68 46 97 40 140 -57 405 -8 21
-32 77 -53 125 -38 84 -42 88 -73 90 -18 0 -38 1 -44 2 -7 1 -14 9 -17 19 -3
9 -21 58 -40 107 -53 138 -53 135 -23 135 25 0 25 2 19 48 -12 85 -6 241 9
243 4 1 27 2 50 3 39 1 43 4 49 31 4 17 7 42 8 58 1 26 -1 27 -44 27 -29 0
-45 4 -45 13 0 16 42 147 69 215 27 68 27 72 -9 68 -41 -5 -46 8 -20 49 45 72
159 146 265 171 67 15 188 10 261 -11z m3136 -627 c3 -12 3 -71 -1 -120 0 -10
-9 -18 -19 -18 -16 0 -19 -8 -17 -61 1 -49 5 -63 20 -73 16 -8 20 -21 19 -58
0 -41 2 -46 15 -35 45 37 104 112 71 92 -21 -13 -9 16 21 50 l31 35 89 0 c49
0 89 -3 89 -6 0 -4 -13 -20 -30 -36 -28 -26 -42 -57 -20 -43 26 16 4 -15 -47
-68 l-58 -58 24 -41 c14 -26 20 -43 13 -46 -13 -4 59 -112 75 -112 14 0 96
-117 89 -128 -3 -6 -97 -8 -153 -3 -10 1 -35 30 -58 66 -22 36 -45 65 -52 65
-7 0 -25 18 -39 40 -15 22 -29 40 -32 40 -3 0 -16 -10 -29 -22 -25 -23 -31
-58 -10 -58 9 0 12 -16 11 -56 -3 -81 -3 -81 -80 -79 l-69 2 -3 66 c-2 48 -7
67 -16 67 -10 0 -13 16 -13 55 0 40 3 55 13 55 11 0 14 23 14 106 0 97 -2 106
-20 111 -17 5 -20 14 -20 69 0 57 2 64 20 64 18 0 20 7 20 75 l0 75 74 0 c50
0 75 -4 78 -12z m-1940 -30 c2 -7 4 -33 4 -58 -1 -35 -5 -45 -21 -50 -17 -4
-20 -14 -20 -67 -1 -59 1 -63 22 -63 15 0 21 -5 17 -14 -7 -18 14 -22 131 -20
169 3 165 2 159 19 -4 8 -14 15 -23 15 -13 0 -16 12 -17 65 0 56 2 65 18 65
18 0 19 3 22 75 l1 40 78 3 77 3 0 -61 c0 -53 -2 -60 -20 -60 -18 0 -20 -7
-20 -65 0 -58 2 -65 20 -65 19 0 20 -7 20 -110 0 -82 -3 -110 -13 -110 -8 0
-12 -17 -12 -55 0 -38 4 -55 12 -55 9 0 13 -20 13 -68 l0 -67 -72 1 c-40 1
-76 2 -79 3 -3 1 -5 26 -5 58 1 34 -3 61 -11 69 -15 15 -18 114 -3 114 6 0 10
10 10 23 0 22 -1 22 -127 20 -171 -2 -165 -2 -158 -12 3 -5 -2 -16 -10 -24
-19 -19 -21 -113 -3 -119 15 -5 18 -126 3 -131 -8 -3 -111 -1 -137 2 -5 1 -8
30 -8 66 0 48 -4 65 -14 65 -9 0 -13 16 -14 55 0 41 4 55 14 55 11 0 14 22 14
106 0 97 -2 106 -20 111 -17 5 -20 14 -20 68 0 54 3 63 20 68 17 4 20 14 20
61 l0 56 74 0 c50 0 75 -4 78 -12z m894 -167 c22 -6 54 -24 70 -41 16 -16 39
-30 51 -30 31 0 51 -51 56 -141 3 -53 1 -72 -9 -76 -18 -7 -19 -110 -2 -115
12 -4 20 -127 8 -129 -39 -7 -140 -3 -141 6 -1 5 -2 18 -2 28 0 9 -4 17 -8 17
-5 0 -9 -4 -9 -8 0 -20 -96 -54 -151 -53 -87 0 -144 34 -172 104 -9 20 -21 37
-26 37 -14 0 -14 65 -1 91 6 10 17 19 25 19 8 0 19 9 26 21 25 48 196 85 268
57 14 -5 30 -7 37 -4 20 8 -2 61 -33 81 -30 20 -132 23 -176 6 -41 -16 -45
-14 -61 24 -10 23 -22 35 -34 35 -12 0 -22 9 -25 21 -14 51 186 84 309 50z
m638 2 c22 -7 56 -26 75 -41 19 -15 43 -29 53 -32 15 -4 11 -13 -27 -54 l-46
-49 -23 22 c-12 12 -36 25 -52 30 -92 26 -172 -31 -178 -126 -1 -19 -7 -38
-14 -42 -18 -11 0 -55 34 -86 37 -34 140 -36 186 -4 l29 21 23 -21 c12 -11 29
-21 37 -21 9 0 26 -11 38 -24 l22 -23 -33 -28 c-124 -105 -334 -85 -415 38
-10 16 -27 32 -39 37 -25 10 -54 97 -37 108 6 4 14 30 17 57 4 28 19 76 35
108 22 45 24 57 12 57 -33 0 57 62 119 81 39 12 141 8 184 -8z m-1223 -819
c55 -17 139 -71 139 -87 0 -7 -22 -36 -48 -65 -45 -50 -49 -53 -62 -36 -23 26
-110 64 -151 64 -74 0 -103 -12 -156 -67 -29 -29 -59 -53 -67 -53 -21 0 -39
-65 -33 -123 7 -67 15 -87 36 -87 10 0 33 -17 52 -39 47 -53 90 -73 160 -73
57 -1 121 23 156 57 21 22 28 19 78 -31 44 -45 45 -47 28 -67 -51 -56 -158
-101 -254 -106 -160 -7 -306 87 -359 232 -5 16 -14 26 -19 23 -17 -11 -41 25
-42 62 -3 100 7 152 29 152 11 0 28 22 46 61 33 67 106 141 164 166 93 41 209
47 303 17z m624 -181 c43 -23 86 -73 50 -59 -18 7 -18 1 0 -49 8 -22 14 -68
15 -102 0 -56 2 -63 20 -63 19 0 20 -7 20 -125 l0 -125 -75 0 -75 0 0 31 c0
28 -1 29 -16 14 -44 -44 -135 -63 -210 -44 -60 16 -111 67 -119 121 -6 42 -2
88 10 107 3 5 -2 14 -12 19 -15 9 -15 11 0 26 49 50 187 73 275 47 28 -8 32
-7 32 9 0 32 -21 68 -44 75 -40 14 -128 13 -173 0 l-45 -14 -13 32 c-12 29
-12 32 5 35 13 2 18 11 17 29 -2 21 4 28 38 40 95 33 231 31 300 -4z m640 14
c37 -18 92 -80 68 -76 -27 5 -32 -2 -22 -28 5 -15 11 -58 12 -97 3 -71 11
-101 27 -91 4 3 9 -3 12 -13 3 -15 3 -138 -1 -209 -1 -22 -5 -23 -76 -23 l-75
0 0 121 c0 112 -1 121 -20 126 -16 4 -20 14 -20 44 0 92 -49 139 -125 118 -42
-12 -65 -53 -65 -119 0 -37 7 -45 33 -41 4 0 7 -55 7 -124 l0 -125 -78 0 -78
0 0 124 c1 68 -1 124 -4 124 -34 -2 -35 2 -34 100 2 124 1 120 21 118 13 -1
17 8 17 39 l1 40 78 1 77 1 0 -34 0 -34 40 32 c57 46 143 57 205 26z m575 8
c42 -9 77 -26 108 -53 27 -24 27 -27 3 -29 -10 -1 -38 -23 -63 -48 l-44 -47
-38 26 c-57 38 -123 36 -170 -4 -32 -29 -39 -43 -50 -112 -4 -27 5 -34 37 -29
4 0 7 -4 7 -10 0 -6 8 -27 17 -46 20 -44 85 -76 134 -68 36 7 85 30 95 46 4 7
25 -7 54 -36 l49 -48 -41 -33 c-157 -132 -415 -45 -456 153 -4 21 -13 39 -20
39 -7 1 -16 2 -22 3 -11 1 -5 69 12 121 15 49 46 90 67 90 10 0 38 16 63 35
71 56 159 73 258 50z m586 -15 c53 -26 83 -58 65 -69 -10 -7 -9 -16 7 -47 21
-41 31 -79 34 -131 2 -24 7 -33 20 -33 10 0 18 -7 18 -15 0 -12 -30 -15 -190
-17 l-189 -3 16 -33 c36 -75 164 -90 233 -27 15 13 21 11 61 -24 l44 -40 -24
-25 c-42 -45 -108 -69 -191 -70 -100 -1 -129 9 -200 65 -39 30 -75 94 -85 151
-4 21 -10 37 -14 36 -30 -4 -34 3 -28 59 8 73 45 147 76 151 13 2 34 15 48 28
70 70 204 90 299 44z m586 21 c4 -1 7 -20 5 -43 -1 -31 -6 -43 -17 -43 -9 0
-17 -13 -20 -34 -4 -29 -9 -35 -35 -38 -41 -5 -86 -30 -109 -60 -23 -31 -27
-87 -6 -88 11 0 14 -11 13 -45 -1 -25 -2 -80 -2 -122 l-1 -78 -75 0 -75 0 0
124 c0 112 -2 124 -17 122 -16 -1 -18 11 -21 107 -3 106 -1 113 31 108 4 0 7
18 7 42 l0 43 75 1 75 1 0 -38 c0 -22 5 -42 10 -45 6 -3 10 -3 10 2 0 31 94
94 130 87 8 -1 18 -3 22 -3z"/>
<path d="M905 4340 c-128 -27 -225 -115 -225 -204 0 -22 5 -25 46 -28 45 -3
46 -3 63 -55 20 -58 18 -61 -41 -59 -21 1 -38 -2 -38 -7 0 -16 72 -182 101
-234 l29 -53 -25 0 c-25 0 -24 -2 41 -132 l66 -133 47 2 48 2 32 -65 c18 -35
36 -62 41 -59 6 3 24 26 41 51 37 54 33 78 -11 72 -17 -3 -30 -1 -30 4 0 5 16
35 36 66 104 163 127 192 145 192 22 0 77 101 119 220 l26 75 49 0 49 0 13 50
c7 28 13 53 13 57 0 4 -21 8 -47 10 -43 3 -48 6 -53 29 -16 84 -119 159 -267
194 -61 14 -210 17 -268 5z"/>
<path d="M3020 3490 c-39 -10 -60 -33 -60 -69 0 -21 9 -30 49 -49 27 -12 56
-22 65 -22 25 0 93 32 79 37 -9 3 -8 12 2 37 8 17 11 37 7 43 -14 22 -92 34
-142 23z"/>
<path d="M2993 2500 c-45 -18 -56 -77 -21 -110 27 -24 86 -27 129 -4 33 16 59
66 52 94 -7 28 -109 40 -160 20z"/>
<path d="M4780 2683 c-44 -30 -71 -92 -42 -94 54 -4 204 0 209 5 10 10 -19 66
-45 86 -31 25 -89 26 -122 3z"/>
</g>
</svg>
