<?xml version="1.0" encoding="UTF-8" standalone="no"?>
<!DOCTYPE svg PUBLIC "-//W3C//DTD SVG 1.1//EN" "http://www.w3.org/Graphics/SVG/1.1/DTD/svg11.dtd">
<svg width="100%" height="100%" viewBox="0 0 312 184" version="1.1" xmlns="http://www.w3.org/2000/svg" xmlns:xlink="http://www.w3.org/1999/xlink" xml:space="preserve" xmlns:serif="http://www.serif.com/" style="fill-rule:evenodd;clip-rule:evenodd;stroke-linejoin:round;stroke-miterlimit:1.41421;">
    <path d="M83.6,20.478C82.427,17.795 81.562,16.178 81.49,16.042C80.506,14.225 78.618,13.079 76.55,13.057C76.55,13.057 75.3,13.042 74.01,13.034C67.26,5.602 57.006,0.924 47.097,0.924C39.054,0.924 31.647,3.882 25.682,9.474C23.777,11.26 22.196,13.611 20.977,16.484C20.24,18.24 20.433,20.27 21.491,21.854C21.787,22.3 22.193,22.78 22.739,23.201C21.562,26.568 20.573,29.667 19.779,32.465C19.399,33.787 19.515,35.197 20.079,36.425C19.245,37.449 18.961,38.535 18.884,38.907C18.287,41.762 17.991,43.891 17.914,45.822C17.86,47.27 17.997,49.252 18.182,51.108C17.858,51.39 17.562,51.711 17.3,52.066C16.232,53.53 15.922,55.418 16.477,57.146C16.602,57.542 19.581,66.846 21.907,71.578C22.865,73.523 24.844,74.754 27.011,74.754L27.631,74.754C29.613,79.154 33.014,87.011 34.313,91.858C35.3,95.546 35.465,96.378 33.926,99.242C33.456,99.245 33.016,99.245 32.736,99.239C32.653,99.231 32.573,99.222 32.493,99.219C30.446,99.069 28.558,100.029 27.427,101.689C25.269,104.863 22.173,110.421 22.042,110.657C21.227,112.127 21.11,113.867 21.687,115.411L8.245,115.411C6.345,115.411 4.572,116.359 3.517,117.941L1.811,120.496C0.644,122.239 0.536,124.486 1.525,126.336C2.515,128.184 4.44,129.338 6.541,129.338L12.971,129.338L12.025,130.76L11.658,130.76C9.563,130.76 7.641,131.91 6.652,133.75L0.68,144.84C-0.27,146.603 -0.22,148.733 0.805,150.45C1.235,151.17 1.809,151.77 2.475,152.227C2.471,153.242 2.535,154.223 2.595,154.887C2.733,156.417 3.463,157.76 4.549,158.695C7.284,167.665 15.079,177.555 21.079,181.969C22.065,182.693 23.249,183.074 24.451,183.074C24.871,183.074 25.295,183.026 25.713,182.932C27.325,182.562 28.699,181.512 29.473,180.052C32.6,174.164 35.625,168.358 38.607,162.582C41.207,162.598 45.477,162.602 52.599,162.602C54.734,162.602 56.687,161.406 57.659,159.507C57.969,158.907 58.146,158.337 58.464,157.293C58.547,157.031 58.62,156.767 58.689,156.576C59.399,154.896 59.263,152.962 58.302,151.39C57.267,149.702 55.43,148.67 53.452,148.67C50.765,148.67 48.002,148.668 45.516,148.66C45.783,147.3 45.55,145.867 44.822,144.645C44.749,144.525 44.675,144.409 44.595,144.298C44.999,143.564 45.397,142.836 45.778,142.131C47.906,142.131 49.86,140.941 50.832,139.045C51.665,137.418 52.444,135.955 53.215,134.53C52.703,135.956 52.777,137.542 53.453,138.933C53.786,139.618 54.123,140.343 54.471,141.088C55.951,144.261 57.621,147.854 60.024,150.993C61.079,152.369 62.704,153.188 64.437,153.223L66.272,156.901C66.402,157.161 66.552,157.405 66.716,157.639C66.803,158.389 67.046,159.131 67.436,159.805C70.726,165.495 74.588,172.249 78.278,179.205C79.058,180.665 80.431,181.717 82.045,182.085C83.665,182.445 85.357,182.092 86.687,181.105C93.73,175.885 96.949,169.46 100.312,162.651C101.776,162.648 103.562,162.651 105.345,162.651C116.058,162.648 117.685,162.648 118.929,159.904C119.879,158.682 120.573,157.357 120.799,156.899C121.217,156.066 121.415,155.159 121.399,154.259L290.169,145.169C304.281,144.411 313.907,132.479 311.669,118.521L301.33,53.982C299.09,40.019 285.834,28.268 271.717,27.724L83.6,20.478ZM69.234,95.726C73.507,87.219 77.466,78.394 80.132,69.388C80.192,69.193 76.912,69.285 76.912,69.285L80.324,55.638L82.884,55.638C83.947,50.86 83.461,45.126 82.884,40.286L88.854,40.286C88.578,38.352 88.512,36.246 88,34.316L82.88,34.316C80.357,25.351 76.91,18.962 76.91,18.962C76.91,18.962 72.606,18.91 71.792,18.962C63.176,7.572 43.644,1.052 29.997,13.845C28.593,15.161 27.502,16.895 26.65,18.903C26.537,19.168 30.954,18.688 30.85,18.963C29.218,23.257 27.202,28.865 25.672,34.253C25.592,34.535 30.842,34.323 30.842,34.323C30.842,34.323 30.306,38.885 29.997,40.286C29.941,40.541 24.931,40.036 24.879,40.286C24.419,42.489 24.094,44.492 24.025,46.256C23.913,49.166 24.878,55.638 24.878,55.638L22.318,55.638C22.318,55.638 25.268,64.878 27.436,69.285L31.701,69.285C31.701,69.285 38.206,83.039 40.231,90.609C42.011,97.269 41.291,98.926 37.671,105.109C37.671,105.109 32.498,105.189 32.554,105.109C30.514,108.104 27.436,113.637 27.436,113.637L29.996,113.637C28.858,116.979 24.876,121.313 25.322,121.315C24.024,121.313 8.672,121.313 8.672,121.313L6.965,123.873L24.025,123.873L15.495,136.666L12.083,136.666L6.113,147.754L9.523,147.754C9.523,147.754 8.871,150.134 8.671,151.166C8.473,152.188 8.685,154.606 8.685,154.606L26.583,154.578L27.436,157.136L10.376,157.136C12.682,164.834 19.714,173.808 24.876,177.606C28.556,170.676 32.096,163.862 35.591,157.072C35.966,157.136 52.171,157.136 53.025,157.136C53.205,156.784 53.697,154.928 53.878,154.576C53.025,154.576 37.672,154.576 36.926,154.478C38.074,152.244 39.219,150.012 40.364,147.778C39.378,147.753 36.819,147.753 36.819,147.753C38.399,144.668 41.199,139.767 42.789,136.665L46.202,136.665C48.596,132.003 50.552,128.622 53.026,123.871L55.586,123.871C57.704,127.827 59.623,132.693 61.556,136.665L58.996,136.665C60.646,140.055 62.406,144.408 64.966,147.753L68.379,147.753L71.791,154.577L88.851,154.577L89.703,157.135C89.703,157.135 72.586,156.825 72.789,157.175C76.499,163.59 80.182,170.062 83.733,176.752C90.021,172.092 92.818,166.06 96.195,159.239C96.548,158.526 96.851,157.857 97.107,157.226C97.143,157.136 114.405,157.221 114.439,157.134C115.292,156.281 116.145,154.574 116.145,154.574L98.234,154.574C99.94,151.164 98.234,147.751 98.234,147.751L94.822,147.751L87.998,136.663L91.41,136.663C91.41,136.663 86.303,128.143 83.65,123.89C83.545,123.722 66.674,123.87 66.674,123.87L64.968,121.31L82.881,121.297L78.037,113.597L75.205,113.635L70.087,105.105L75.205,105.105C75.205,105.105 70.892,98.557 69.235,95.723L69.234,95.726ZM56.44,76.11C55.35,73.806 54.14,71.54 52.86,69.3C52.675,68.975 48.762,69.285 47.91,69.285C45.442,65.037 43.65,59.865 41.085,55.638L43.645,55.638C40.868,51.008 38.575,45.288 36.63,40.361C37.674,40.287 41.085,40.287 41.938,40.287C41.468,39.053 40.343,35.401 40.233,34.317L35.115,34.317C35.115,15.551 74.965,19.571 75.205,34.317C76.057,34.317 79.469,34.317 80.322,34.31C80.322,35.666 78.978,38.766 78.616,40.286L73.498,40.286C72.322,45.111 69.924,50.499 67.178,55.632C66.674,55.638 65.821,55.638 64.968,55.638C62.385,60.375 57.81,65.752 56.438,69.285L60.704,69.285C59.131,73.448 56.439,76.109 56.439,76.109L56.44,76.11ZM232.15,71.728L228.354,65.882L229.714,65.882L226.87,61.5L233.45,54.694L231.408,54.694L235.625,50.334L225.993,50.334L222.013,54.694L224.053,54.694L218.613,60.654L218.613,54.694L216.573,54.694L216.573,47.654L218.613,47.654L218.613,40.066L210.569,40.066L210.569,47.653L208.526,47.653L208.526,54.693L210.568,54.693L210.568,65.883L209.206,65.883L209.206,71.728L210.566,71.728L210.566,78.7L218.611,78.7L218.611,71.728L217.251,71.728L217.251,70.073L220.056,67.109L223.008,71.727L224.368,71.727L228.826,78.699L238.036,78.699L233.508,71.727L232.148,71.727L232.15,71.728ZM201.574,71.728L199.257,69.385C198.185,70.398 197.145,71.205 195.98,71.728L189.644,71.728C187.437,70.681 185.999,68.508 185.639,65.882L187,65.882C186.942,65.455 186.91,65.017 186.91,64.569L186.91,64.462C186.91,60.282 189.768,56.735 193.79,56.735C196.648,56.735 198.448,57.953 200.247,59.858L205.051,54.692L203.011,54.692L203.129,54.565C200.483,51.601 197.149,49.802 191.803,49.802C187.177,49.802 183.258,51.697 180.606,54.692L182.646,54.692C180.323,57.316 178.972,60.786 178.972,64.567L178.972,64.672C178.972,65.079 178.992,65.482 179.024,65.879L177.664,65.879C177.827,67.985 178.414,69.965 179.357,71.725L180.717,71.725C183.147,76.259 187.91,79.332 193.74,79.332C199.402,79.332 202.578,77.162 205.33,74.145L202.936,71.725L201.576,71.725L201.574,71.728ZM169.492,54.694C167.545,51.682 164.035,50.014 158.722,50.014C153.906,50.014 150.837,50.914 147.714,52.291L148.501,54.695L150.543,54.695L151.767,58.431C154.361,57.478 156.531,56.897 159.601,56.897C163.623,56.897 165.687,58.749 165.687,62.083L165.687,62.559C163.677,61.871 161.612,61.395 158.754,61.395C153.984,61.395 150.23,62.835 148.45,65.883L147.09,65.883C146.36,67.131 145.96,68.646 145.96,70.445L145.96,70.55C145.96,70.956 145.986,71.348 146.03,71.728L147.392,71.728C147.966,76.586 152.102,79.228 157.059,79.228C160.975,79.228 163.674,77.8 165.632,75.63L165.632,78.7L173.412,78.7L173.412,71.728L172.052,71.728L172.052,65.882L173.412,65.882L173.412,62.24C173.412,59.206 172.806,56.663 171.532,54.694L169.492,54.694ZM159.494,73.672C157.571,73.672 156.087,72.972 155.447,71.728L154.087,71.728C153.863,71.293 153.74,70.793 153.74,70.232L153.74,70.126C153.74,67.586 155.857,66.21 159.298,66.21C161.256,66.21 163.055,66.633 164.431,67.268L164.431,68.698C164.431,69.874 164.011,70.908 163.269,71.728L164.629,71.728C163.535,72.935 161.734,73.672 159.495,73.672L159.494,73.672ZM132.819,47.652L130.776,47.652L130.776,54.694L132.818,54.694L132.818,56.314L117.786,56.314L117.786,54.694L115.746,54.694L115.746,47.654L117.786,47.654L117.786,41.654L109.636,41.654L109.636,47.654L107.594,47.654L107.594,54.694L109.636,54.694L109.636,65.882L108.276,65.882L108.276,71.728L109.636,71.728L109.636,78.7L117.786,78.7L117.786,71.728L116.426,71.728L116.426,65.882L117.786,65.882L117.786,63.828L132.816,63.828L132.816,65.882L131.456,65.882L131.456,71.728L132.816,71.728L132.816,78.7L140.966,78.7L140.966,71.728L139.606,71.728L139.606,65.882L140.966,65.882L140.966,54.694L138.926,54.694L138.926,47.654L140.966,47.654L140.966,41.654L132.816,41.654L132.816,47.654L132.819,47.652ZM265.395,116.486L265.395,116.381C265.395,112.455 264.358,108.695 262.198,105.871L264.238,105.871C261.972,102.911 258.471,100.981 253.621,100.981C249.221,100.981 245.527,102.876 243.036,105.871L240.996,105.871C238.813,108.496 237.556,111.965 237.556,115.746L237.556,115.852C237.556,116.278 237.574,116.694 237.604,117.105L239.644,117.105C240.222,125.101 246.311,130.513 254.414,130.513C259.549,130.513 263.36,128.503 266.006,125.221L261.401,121.146C259.179,123.21 257.221,124.056 254.521,124.056C250.921,124.056 248.381,122.152 247.588,118.5L267.328,118.5C267.368,117.972 267.404,117.576 267.423,117.106L265.383,117.106C265.389,116.916 265.393,116.716 265.393,116.489L265.395,116.486ZM257.562,113.47L245.442,113.47C246.077,109.818 248.247,107.436 251.582,107.436C254.968,107.436 257.086,109.871 257.562,113.47ZM202.518,111.51C202.518,109.333 202.118,107.435 201.362,105.87L203.402,105.87C201.898,102.762 198.975,100.98 194.926,100.98C190.85,100.98 188.469,103.15 186.616,105.53L186.616,101.51L178.572,101.51L178.572,105.87L176.53,105.87L176.53,117.103L178.572,117.103L178.572,129.876L186.617,129.876L186.617,117.103L184.574,117.103L184.574,114.053C184.574,110.241 186.534,108.283 189.602,108.283C192.672,108.283 194.472,110.241 194.472,114.053L194.472,117.103L196.512,117.103L196.512,129.876L204.557,129.876L204.557,117.103L202.517,117.103L202.517,111.511L202.518,111.51ZM169.598,113.416C169.598,110.383 168.99,107.841 167.718,105.871L169.758,105.871C167.812,102.859 164.302,101.191 158.988,101.191C154.172,101.191 151.103,102.091 147.98,103.468L148.767,105.872L146.725,105.872L147.949,109.608C150.543,108.655 152.712,108.074 155.782,108.074C159.804,108.074 161.868,109.926 161.868,113.26L161.868,113.736C159.858,113.048 157.794,112.572 154.938,112.572C150.144,112.572 146.375,114.026 144.606,117.105L146.646,117.105C145.936,118.345 145.546,119.845 145.546,121.622L145.546,121.728C145.546,127.338 149.938,130.408 155.284,130.408C159.2,130.408 161.899,128.978 163.858,126.808L163.858,129.878L171.638,129.878L171.638,117.105L169.598,117.105L169.598,113.418L169.598,113.416ZM164.018,119.873C164.018,122.783 161.476,124.848 157.718,124.848C155.125,124.848 153.326,123.578 153.326,121.408L153.326,121.302C153.326,118.762 155.443,117.386 158.882,117.386C160.842,117.386 162.642,117.809 164.017,118.444L164.017,119.874L164.018,119.873ZM282.101,105.871L281.461,105.871L281.461,101.511L273.416,101.511L273.416,105.871L271.376,105.871L271.376,117.104L273.416,117.104L273.416,129.877L281.461,129.877L281.461,119.397C281.461,118.582 281.511,117.817 281.603,117.104L279.563,117.104C280.243,111.894 283.346,109.396 288.047,109.396L288.469,109.396L288.469,105.872L290.509,105.872L290.509,100.982C286.322,100.795 283.771,102.739 282.099,105.872L282.101,105.871ZM279.421,107.225L279.421,105.872L280.061,105.872C279.831,106.302 279.618,106.754 279.421,107.226L279.421,107.225ZM225.306,123.579C221.382,123.579 218.726,120.791 218.204,117.104L216.164,117.104C216.1,116.664 216.067,116.21 216.067,115.746L216.067,115.64C216.067,111.46 218.923,107.912 222.947,107.912C225.803,107.912 227.603,109.13 229.403,111.035L234.205,105.871L236.245,105.871L236.365,105.744C233.72,102.78 230.385,100.981 225.04,100.981C220.413,100.981 216.494,102.876 213.842,105.871L211.802,105.871C209.477,108.496 208.127,111.965 208.127,115.746L208.127,115.852C208.127,116.275 208.147,116.692 208.181,117.105L210.221,117.105C210.829,124.615 216.857,130.513 224.934,130.513C230.597,130.513 233.774,128.343 236.524,125.327L231.814,120.564C229.856,122.417 228.004,123.582 225.304,123.582L225.306,123.579ZM126.65,122.997C122.38,122.997 118.997,120.602 117.238,117.104L115.196,117.104C114.339,115.399 113.866,113.434 113.866,111.354L113.866,111.248C113.866,109.308 114.286,107.48 115.046,105.872L117.088,105.872C118.818,102.216 122.312,99.712 126.65,99.712C130.355,99.712 133.265,101.299 136.124,103.892L141.31,97.912C137.87,94.525 133.69,92.196 126.703,92.196C117.38,92.196 110.37,97.988 108.14,105.873L106.1,105.873C105.607,107.613 105.344,109.453 105.344,111.355L105.344,111.462C105.344,113.432 105.624,115.326 106.146,117.105L108.186,117.105C110.484,124.927 117.503,130.513 126.386,130.513C133.53,130.513 137.764,127.973 141.576,123.899L136.388,118.659C133.478,121.305 130.884,122.999 126.65,122.999L126.65,122.997Z" style="fill:white;"/>
</svg>
